M48
;GenerationSoftware,Autodesk,EAGLE,9.6.2*%
;CreationDate,2021-12-09T01:32:35Z*%
FMAT,2
ICI,OFF
METRIC,TZ,000.000
T1C1.016
%
G90
M71
T1
X3048Y26416
X5588Y26416
X8128Y26416
X10668Y26416
X13208Y26416
X15748Y26416
X18288Y26416
X20828Y26416
X23368Y26416
X25908Y26416
X28448Y26416
X30988Y26416
X33528Y26416
X36068Y26416
X38608Y26416
X41148Y26416
X43688Y26416
X46228Y26416
X48768Y26416
X51308Y26416
X53848Y26416
X56388Y26416
X56388Y3302
X53848Y3302
X51308Y3302
X48768Y3302
X46228Y3302
X43688Y3302
X41148Y3302
X38608Y3302
X36068Y3302
X33528Y3302
X30988Y3302
X28448Y3302
X25908Y3302
X23368Y3302
X20828Y3302
X18288Y3302
X15748Y3302
X13208Y3302
X10668Y3302
X8128Y3302
X5588Y3302
X3048Y3302
M30