G04 EAGLE Gerber RS-274X export*
G75*
%MOMM*%
%FSLAX34Y34*%
%LPD*%
%INSolderpaste Top*%
%IPPOS*%
%AMOC8*
5,1,8,0,0,1.08239X$1,22.5*%
G01*
%ADD10R,0.300000X1.800000*%


D10*
X244680Y114360D03*
X249680Y114360D03*
X254680Y114360D03*
X259680Y114360D03*
X264680Y114360D03*
X269680Y114360D03*
X274680Y114360D03*
X279680Y114360D03*
X284680Y114360D03*
X289680Y114360D03*
X294680Y114360D03*
X299680Y114360D03*
X304680Y114360D03*
X309680Y114360D03*
X314680Y114360D03*
X319680Y114360D03*
X324680Y114360D03*
X329680Y114360D03*
X334680Y114360D03*
X339680Y114360D03*
X344680Y114360D03*
X349680Y114360D03*
X349680Y185360D03*
X344680Y185360D03*
X339680Y185360D03*
X334680Y185360D03*
X329680Y185360D03*
X324680Y185360D03*
X319680Y185360D03*
X314680Y185360D03*
X309680Y185360D03*
X304680Y185360D03*
X299680Y185360D03*
X294680Y185360D03*
X289680Y185360D03*
X284680Y185360D03*
X279680Y185360D03*
X274680Y185360D03*
X269680Y185360D03*
X264680Y185360D03*
X259680Y185360D03*
X254680Y185360D03*
X249680Y185360D03*
X244680Y185360D03*
M02*
