%
M48
M72
T01C0.0118
T02C0.0197
T03C0.0236
T04C0.0320
T05C0.0354
T06C0.0394
T07C0.0400
T08C0.0413
T09C0.1181
T10C0.1378
%
T01
X9599Y14074
X9596Y16426
X10641Y16426
X11522Y16426
X12384Y16421
X13257Y16433
X14118Y16426
X10113Y21101
X9400Y20755
X9381Y21475
X8390Y22849
X9112Y24032
X10323Y23463
X11778Y24938
X10837Y25883
X10395Y25873
X10003Y26199
X9531Y26199
X11162Y26186
X12410Y27557
X13558Y26595
X13981Y26241
X14774Y25971
X13638Y25269
X16130Y26331
X17527Y23251
X16130Y22870
X11781Y21739
X11210Y21640
X7046Y22280
X5020Y23869
X3687Y24741
X4172Y26018
X4233Y27436
X5435Y28447
X7655Y26927
X6806Y25555
X10000Y28192
X10974Y28063
X7862Y17993
X5746Y16594
X5911Y15617
X6963Y14928
X22379Y24571
X30004Y25297
X30004Y22668
X24553Y14924
T02
X19870Y14719
X19383Y14719
X19383Y15389
X19870Y15389
X18051Y18787
X16265Y18612
X16258Y18996
X19870Y19801
X19861Y20395
X19853Y20955
X18329Y23915
X13360Y22865
X12981Y22868
X12599Y22868
X7299Y22891
X6926Y22891
X6548Y22874
X1276Y22380
X878Y22380
X878Y21965
X1276Y21965
X6248Y29795
X6246Y30396
X5568Y30396
X5567Y29802
X4919Y29802
X4922Y30396
X10088Y30187
X17228Y32651
X17228Y33198
X17941Y33198
X17952Y32661
X18593Y32661
X18603Y33209
X25330Y29876
X25669Y29543
X25988Y29219
X32678Y29765
X33091Y29774
X30733Y22670
X28877Y21465
X28016Y21473
T03
X31804Y18246
X31807Y32473
X31807Y32901
T04
X6616Y11539
X6616Y8539
X6406Y5801
X5406Y5801
T05
X8912Y8285
X9778Y8285
X10645Y8285
X11511Y8285
X12377Y8285
X13243Y8285
X14109Y8285
X14975Y8285
X15841Y8285
X16708Y8285
X17574Y8285
X18440Y8285
X18439Y9467
X17573Y9467
X16707Y9467
X15841Y9467
X14975Y9467
X14109Y9467
X13242Y9467
X12376Y9467
X11510Y9467
X10644Y9467
X9778Y9467
X8912Y9467
X21402Y9209
X21402Y10209
X21402Y12209
X23402Y12209
X23402Y10209
X23402Y9209
X23402Y8209
X21402Y8209
T06
X28439Y8303
X29305Y8303
X30171Y8303
X31037Y8303
X31037Y9485
X30170Y9485
X29304Y9485
X28438Y9485
X30569Y27002
X22693Y29945
X22696Y31917
X30560Y34854
T07
X2117Y28543
X2117Y27543
X2117Y26543
X2117Y25543
X2293Y20498
X2293Y19498
X2409Y12868
X2409Y11868
X2409Y10868
X2409Y9868
X2409Y8868
X2409Y7868
T08
X17828Y35012
X18828Y35012
X19828Y35012
T09
X1845Y5454
X1841Y16823
X1841Y36114
X34830Y36114
X34830Y16823
X34833Y5454
T10
X31352Y6099
X28124Y6099
X18164Y6081
X9188Y6081
M30
