G75*
G70*
%OFA0B0*%
%FSLAX24Y24*%
%IPPOS*%
%LPD*%
%AMOC8*
5,1,8,0,0,1.08239X$1,22.5*
%
%ADD10C,0.0600*%
%ADD11OC8,0.0520*%
%ADD12C,0.0600*%
%ADD13R,0.0551X0.0320*%
%ADD14C,0.0594*%
%ADD15C,0.0554*%
%ADD16C,0.0748*%
%ADD17C,0.0394*%
%ADD18C,0.0240*%
%ADD19C,0.0320*%
%ADD20C,0.0357*%
%ADD21C,0.0100*%
%ADD22C,0.0160*%
%ADD23C,0.0278*%
%ADD24C,0.0197*%
%ADD25C,0.0500*%
%ADD26C,0.0120*%
%ADD27OC8,0.1581*%
%ADD28C,0.0396*%
%ADD29C,0.0236*%
D10*
X002117Y025543D03*
X002117Y026543D03*
X002117Y027543D03*
X002117Y028543D03*
D11*
X006616Y011539D03*
X006616Y008539D03*
X006406Y005801D03*
X005406Y005801D03*
D12*
X002709Y007868D02*
X002109Y007868D01*
X002109Y008868D02*
X002709Y008868D01*
X002709Y009868D02*
X002109Y009868D01*
X002109Y010868D02*
X002709Y010868D01*
X002709Y011868D02*
X002109Y011868D01*
X002109Y012868D02*
X002709Y012868D01*
X002593Y019498D02*
X001993Y019498D01*
X001993Y020498D02*
X002593Y020498D01*
D13*
X008585Y015351D03*
X008585Y015351D03*
X008585Y014564D03*
X008585Y014564D03*
X009599Y014564D03*
X009599Y014564D03*
X009599Y015351D03*
X009599Y015351D03*
X010643Y015351D03*
X010643Y015351D03*
X010643Y014564D03*
X010643Y014564D03*
X011511Y014564D03*
X011511Y014564D03*
X011511Y015351D03*
X011511Y015351D03*
X012371Y015351D03*
X012371Y015351D03*
X012371Y014564D03*
X012371Y014564D03*
X013242Y014564D03*
X013242Y014564D03*
X013242Y015351D03*
X013242Y015351D03*
X014104Y015351D03*
X014104Y015351D03*
X014104Y014564D03*
X014104Y014564D03*
X010641Y017436D03*
X010641Y017436D03*
X010641Y018223D03*
X010641Y018223D03*
X009596Y018236D03*
X009596Y018236D03*
X009596Y017449D03*
X009596Y017449D03*
X008582Y028992D03*
X008582Y028992D03*
X008582Y029780D03*
X008582Y029780D03*
D14*
X022693Y029945D03*
X022696Y031917D03*
X030560Y034854D03*
X030569Y027002D03*
X030170Y009485D03*
X029304Y009485D03*
X028438Y009485D03*
X028439Y008303D03*
X029305Y008303D03*
X030171Y008303D03*
X031037Y008303D03*
X031037Y009485D03*
D15*
X023402Y009209D03*
X023402Y010209D03*
X021402Y010209D03*
X021402Y009209D03*
X021402Y008209D03*
X023402Y008209D03*
X023402Y012209D03*
X021402Y012209D03*
X018439Y009467D03*
X017573Y009467D03*
X016707Y009467D03*
X015841Y009467D03*
X014975Y009467D03*
X014109Y009467D03*
X013242Y009467D03*
X012376Y009467D03*
X011510Y009467D03*
X010644Y009467D03*
X009778Y009467D03*
X008912Y009467D03*
X008912Y008285D03*
X009778Y008285D03*
X010645Y008285D03*
X011511Y008285D03*
X012377Y008285D03*
X013243Y008285D03*
X014109Y008285D03*
X014975Y008285D03*
X015841Y008285D03*
X016708Y008285D03*
X017574Y008285D03*
X018440Y008285D03*
D16*
X018828Y035012D03*
X017828Y035012D03*
X019828Y035012D03*
D17*
X018828Y035012D02*
X018828Y031917D01*
X022696Y031917D01*
X025330Y029876D02*
X025692Y029514D01*
X026007Y029199D01*
X027157Y028050D01*
X027157Y021041D01*
X027157Y014192D01*
X024973Y012008D01*
X024973Y006111D01*
X023413Y004551D01*
X005414Y004551D01*
X004037Y005928D01*
X004037Y008005D01*
X006445Y010413D01*
X009778Y010413D01*
X009778Y012896D01*
X008585Y014089D01*
X009778Y010413D02*
X009778Y009467D01*
X009778Y008285D02*
X009778Y007800D01*
X010290Y007289D01*
X011511Y007289D01*
X011511Y008285D01*
X012377Y008285D01*
X013243Y008285D01*
X014109Y008285D01*
X011511Y007289D02*
X018032Y007289D01*
X018440Y008090D01*
X018440Y008285D01*
X018440Y009073D01*
X018439Y009467D01*
X017573Y009467D02*
X017573Y011435D01*
X017573Y013726D02*
X017508Y013790D01*
X018339Y013790D02*
X018339Y018784D01*
X018054Y018784D01*
X018339Y018784D02*
X018339Y023904D01*
X021297Y013790D02*
X021402Y013685D01*
D18*
X019870Y014719D02*
X019870Y019801D01*
X016523Y018302D02*
X016409Y018417D01*
X016409Y016324D01*
X015676Y015592D01*
X014779Y015592D01*
X014700Y015512D01*
X014700Y015781D01*
X014650Y015831D01*
X015562Y015831D01*
X015626Y015766D01*
X015626Y015826D01*
X016214Y016414D01*
X016214Y017022D01*
X016224Y017032D01*
X016224Y016683D01*
X015407Y015866D01*
X015407Y015980D01*
X016000Y016573D01*
X016059Y016802D02*
X015208Y015950D01*
X014595Y015950D01*
X014520Y015876D01*
X014520Y015432D01*
X014560Y015392D01*
X015731Y015392D01*
X016523Y016185D01*
X016523Y018302D01*
X016059Y017029D02*
X016059Y016802D01*
X010643Y014564D02*
X010643Y012617D01*
X010644Y009467D01*
X009634Y010005D02*
X009440Y010199D01*
X009440Y010209D01*
X009270Y010380D01*
X006488Y010380D01*
X003922Y007814D01*
X003922Y005532D01*
X005106Y004348D01*
X005299Y004348D01*
X004026Y005621D01*
X004026Y005621D01*
X005287Y004360D01*
X023874Y004360D01*
X025632Y006118D01*
X025663Y006118D01*
X025530Y006251D01*
X025331Y006251D01*
X023682Y004603D01*
X023682Y004478D01*
X025409Y006205D01*
X025459Y006205D01*
X025356Y006309D01*
X025210Y006309D01*
X025201Y006318D01*
X025201Y011955D01*
X027360Y014114D01*
X027384Y014114D01*
X027390Y014108D01*
X027390Y013671D01*
X025630Y011911D01*
X025630Y006180D01*
X025447Y006363D01*
X025447Y006392D01*
X025477Y006422D01*
X025477Y012006D01*
X025374Y011903D01*
X025270Y011903D01*
X025339Y011834D01*
X025339Y006357D01*
X025482Y006500D01*
X025482Y011973D01*
X027378Y013869D01*
X027378Y028118D01*
X025462Y030034D01*
X025242Y030034D01*
X025205Y030071D01*
X025205Y030051D01*
X027303Y027953D01*
X027303Y020643D01*
X028713Y020643D01*
X029018Y020948D01*
X029018Y021397D01*
X028881Y021534D01*
X028831Y021534D01*
X028760Y021463D01*
X028760Y020977D01*
X028810Y020927D01*
X028810Y021268D01*
X028881Y021338D01*
X028881Y021019D01*
X028673Y020811D01*
X028673Y020977D01*
X028661Y020990D01*
X027618Y020990D01*
X027560Y020932D01*
X027560Y020757D01*
X027577Y020741D01*
X028511Y020741D01*
X028578Y020807D01*
X028503Y020807D01*
X028465Y020844D01*
X027747Y020844D01*
X027739Y020853D01*
X028016Y021473D02*
X027997Y022128D01*
X028069Y028662D01*
X024336Y032185D01*
X022696Y031917D01*
X025669Y029543D02*
X025692Y029543D01*
X025692Y029514D01*
X025988Y029219D02*
X026007Y029219D01*
X026007Y029199D01*
X026493Y030506D02*
X026529Y030506D01*
X028273Y028762D01*
X028273Y022131D01*
X028287Y022118D01*
X030224Y022118D01*
X030748Y022641D01*
X028256Y021651D02*
X028256Y028743D01*
X026493Y030506D01*
X026251Y030559D02*
X028194Y028616D01*
X028194Y021661D01*
X028112Y021579D01*
X028112Y021506D01*
X028256Y021651D01*
X027113Y014228D02*
X027113Y014192D01*
X027157Y014192D01*
X032678Y029765D02*
X032678Y033669D01*
X031585Y034762D01*
X031493Y034854D01*
X030560Y034854D01*
X007862Y017993D02*
X007838Y017993D01*
X007838Y015352D01*
X007838Y014705D01*
X007509Y014375D01*
X006283Y014375D01*
X005911Y014747D01*
X005911Y015617D01*
X003240Y013698D02*
X002409Y012868D01*
X003240Y013698D02*
X003240Y018551D01*
X002293Y019498D01*
X000862Y021940D02*
X000867Y021945D01*
X004416Y021945D01*
X004591Y022119D01*
X004678Y022119D01*
X004665Y022106D01*
X000991Y022106D01*
X000862Y022140D02*
X000862Y021940D01*
X000862Y022140D02*
X000804Y022198D01*
X001050Y022319D02*
X000862Y022508D01*
X000862Y022515D01*
X001517Y023171D01*
X007048Y023171D01*
X007215Y023003D01*
X001576Y023003D01*
X001090Y022518D01*
X005078Y022518D01*
X005320Y022760D01*
X001428Y022760D01*
X001344Y022676D01*
X004968Y022676D01*
X005014Y022722D01*
X004934Y022319D02*
X001050Y022319D01*
X006613Y010278D02*
X009465Y010278D01*
X009634Y010109D01*
X009634Y010005D01*
X006613Y010278D02*
X004479Y008144D01*
X004479Y005686D01*
X004458Y005666D01*
X004458Y008061D01*
X004446Y008074D01*
X004396Y008074D01*
X004280Y007957D01*
X004280Y005601D01*
X004368Y005513D01*
D19*
X006869Y008285D02*
X006616Y008539D01*
X006869Y008285D02*
X008912Y008285D01*
X008585Y014089D02*
X008585Y014564D01*
X008585Y015351D02*
X007838Y015351D01*
X007838Y015352D01*
X008585Y015351D02*
X009599Y015351D01*
X010643Y015351D01*
X007299Y022891D02*
X001389Y022891D01*
X000878Y022380D01*
X002117Y027543D02*
X002730Y027543D01*
X007103Y031917D01*
X008428Y031917D01*
X009333Y031917D01*
X022696Y031917D01*
X016130Y026331D02*
X016130Y022870D01*
D20*
X018329Y023915D03*
X019853Y020955D03*
X019861Y020395D03*
X019870Y019801D03*
X018051Y018787D03*
X016265Y018612D03*
X016258Y018996D03*
X019383Y015389D03*
X019870Y015389D03*
X019870Y014719D03*
X019383Y014719D03*
X013360Y022865D03*
X012981Y022868D03*
X012599Y022868D03*
X007299Y022891D03*
X006926Y022891D03*
X006548Y022874D03*
X001276Y022380D03*
X000878Y022380D03*
X000878Y021965D03*
X001276Y021965D03*
X006248Y029795D03*
X006246Y030396D03*
X005568Y030396D03*
X005567Y029802D03*
X004919Y029802D03*
X004922Y030396D03*
X010088Y030187D03*
X017228Y032651D03*
X017228Y033198D03*
X017941Y033198D03*
X017952Y032661D03*
X018593Y032661D03*
X018603Y033209D03*
X025330Y029876D03*
X025669Y029543D03*
X025988Y029219D03*
X032678Y029765D03*
X033091Y029774D03*
X030733Y022670D03*
X028877Y021465D03*
X028016Y021473D03*
D21*
X005046Y004247D02*
X003799Y005493D01*
X003799Y008098D01*
X006342Y010641D01*
X009755Y010641D01*
X009971Y010424D01*
X009971Y009432D01*
X009834Y009294D01*
X009660Y009294D01*
X009547Y009408D01*
X009547Y009952D01*
X009314Y010185D01*
X006742Y010185D01*
X004581Y008024D01*
X004581Y005543D01*
X005399Y004725D01*
X005156Y004725D01*
X004368Y005513D01*
X005153Y006128D02*
X005153Y007786D01*
X005833Y008466D01*
X005833Y008215D01*
X006291Y007756D01*
X006433Y007756D01*
X006482Y007707D01*
X006733Y007603D01*
X008470Y007603D01*
X008753Y007486D01*
X009071Y007486D01*
X009365Y007607D01*
X009590Y007832D01*
X009614Y007890D01*
X009614Y007889D01*
X009678Y007869D01*
X009740Y007859D01*
X009740Y008247D01*
X009817Y008247D01*
X009817Y007859D01*
X009878Y007869D01*
X009942Y007889D01*
X009943Y007890D01*
X009967Y007832D01*
X010192Y007607D01*
X010486Y007486D01*
X010804Y007486D01*
X011098Y007607D01*
X011322Y007832D01*
X011346Y007890D01*
X011347Y007889D01*
X011411Y007869D01*
X011472Y007859D01*
X011472Y008247D01*
X011549Y008247D01*
X011549Y007859D01*
X011611Y007869D01*
X011675Y007889D01*
X011735Y007920D01*
X011789Y007959D01*
X011837Y008007D01*
X011876Y008061D01*
X011907Y008121D01*
X011927Y008185D01*
X011937Y008247D01*
X011549Y008247D01*
X011549Y008324D01*
X011937Y008324D01*
X011927Y008385D01*
X011907Y008449D01*
X011876Y008509D01*
X011837Y008564D01*
X011789Y008611D01*
X011735Y008651D01*
X011687Y008675D01*
X011943Y008781D01*
X012200Y008674D01*
X012153Y008651D01*
X012099Y008611D01*
X012051Y008564D01*
X012012Y008509D01*
X011981Y008449D01*
X011960Y008385D01*
X011950Y008324D01*
X012338Y008324D01*
X012338Y008247D01*
X011950Y008247D01*
X011960Y008185D01*
X011981Y008121D01*
X012012Y008061D01*
X012051Y008007D01*
X012099Y007959D01*
X012153Y007920D01*
X012213Y007889D01*
X012277Y007869D01*
X012338Y007859D01*
X012338Y008247D01*
X012415Y008247D01*
X012415Y007859D01*
X012477Y007869D01*
X012541Y007889D01*
X012601Y007920D01*
X012655Y007959D01*
X012703Y008007D01*
X012742Y008061D01*
X012773Y008121D01*
X012794Y008185D01*
X012803Y008247D01*
X012415Y008247D01*
X012415Y008324D01*
X012803Y008324D01*
X012794Y008385D01*
X012773Y008449D01*
X012742Y008509D01*
X012703Y008564D01*
X012655Y008611D01*
X012601Y008651D01*
X012554Y008675D01*
X012809Y008781D01*
X013066Y008674D01*
X013019Y008651D01*
X012965Y008611D01*
X012917Y008564D01*
X012878Y008509D01*
X012847Y008449D01*
X012826Y008385D01*
X012817Y008324D01*
X013204Y008324D01*
X013204Y008247D01*
X012817Y008247D01*
X012826Y008185D01*
X012847Y008121D01*
X012878Y008061D01*
X012917Y008007D01*
X012965Y007959D01*
X013019Y007920D01*
X013079Y007889D01*
X013143Y007869D01*
X013204Y007859D01*
X013204Y008247D01*
X013282Y008247D01*
X013282Y008324D01*
X013669Y008324D01*
X013660Y008385D01*
X013639Y008449D01*
X013608Y008509D01*
X013569Y008564D01*
X013521Y008611D01*
X013467Y008651D01*
X013420Y008675D01*
X013676Y008781D01*
X013932Y008674D01*
X013885Y008651D01*
X013831Y008611D01*
X013783Y008564D01*
X013744Y008509D01*
X013713Y008449D01*
X013693Y008385D01*
X013683Y008324D01*
X014071Y008324D01*
X014071Y008247D01*
X014148Y008247D01*
X014148Y007859D01*
X014209Y007869D01*
X014273Y007889D01*
X014274Y007890D01*
X014297Y007832D01*
X014522Y007607D01*
X014816Y007486D01*
X015134Y007486D01*
X015408Y007599D01*
X015682Y007486D01*
X016000Y007486D01*
X016275Y007599D01*
X016549Y007486D01*
X016867Y007486D01*
X017141Y007599D01*
X017415Y007486D01*
X017733Y007486D01*
X018027Y007607D01*
X018252Y007832D01*
X018275Y007890D01*
X018276Y007889D01*
X018340Y007869D01*
X018401Y007859D01*
X018401Y008247D01*
X018478Y008247D01*
X018478Y007859D01*
X018540Y007869D01*
X018604Y007889D01*
X018664Y007920D01*
X018718Y007959D01*
X018766Y008007D01*
X018805Y008061D01*
X018836Y008121D01*
X018857Y008185D01*
X018866Y008247D01*
X018478Y008247D01*
X018478Y008324D01*
X018401Y008324D01*
X018401Y008712D01*
X018346Y008703D01*
X018346Y009049D01*
X018401Y009040D01*
X018401Y009428D01*
X018478Y009428D01*
X018478Y009505D01*
X018866Y009505D01*
X018856Y009567D01*
X018835Y009631D01*
X018805Y009691D01*
X018765Y009745D01*
X018718Y009792D01*
X018663Y009832D01*
X018603Y009863D01*
X018539Y009883D01*
X018478Y009893D01*
X018478Y009505D01*
X018401Y009505D01*
X018401Y009893D01*
X018346Y009884D01*
X018346Y011438D01*
X018346Y013018D01*
X020630Y013018D01*
X020630Y012433D01*
X020603Y012368D01*
X020603Y012050D01*
X020725Y011756D01*
X020949Y011531D01*
X021243Y011409D01*
X021561Y011409D01*
X021855Y011531D01*
X022080Y011756D01*
X022202Y012050D01*
X022202Y012368D01*
X022175Y012433D01*
X022175Y013018D01*
X024193Y013018D01*
X023959Y012783D01*
X023855Y012887D01*
X023561Y013008D01*
X023243Y013008D01*
X022949Y012887D01*
X022725Y012662D01*
X022603Y012368D01*
X022603Y012050D01*
X022725Y011756D01*
X022949Y011531D01*
X023243Y011409D01*
X023561Y011409D01*
X023671Y011455D01*
X023671Y010963D01*
X023561Y011008D01*
X023243Y011008D01*
X022949Y010887D01*
X022912Y010849D01*
X021893Y010849D01*
X021855Y010887D01*
X021561Y011008D01*
X021243Y011008D01*
X020949Y010887D01*
X020725Y010662D01*
X020603Y010368D01*
X020603Y010050D01*
X020725Y009756D01*
X020772Y009709D01*
X020725Y009662D01*
X020603Y009368D01*
X020603Y009050D01*
X020725Y008756D01*
X020772Y008709D01*
X020725Y008662D01*
X020603Y008368D01*
X020603Y008050D01*
X020725Y007756D01*
X020949Y007531D01*
X021243Y007409D01*
X021561Y007409D01*
X021855Y007531D01*
X021893Y007568D01*
X022912Y007568D01*
X022949Y007531D01*
X023243Y007409D01*
X023561Y007409D01*
X023671Y007455D01*
X023671Y006485D01*
X022784Y005597D01*
X019284Y005597D01*
X019293Y005613D01*
X019376Y005921D01*
X019376Y006240D01*
X019293Y006548D01*
X019134Y006824D01*
X018908Y007050D01*
X018632Y007209D01*
X018324Y007292D01*
X018005Y007292D01*
X017697Y007209D01*
X017420Y007050D01*
X017195Y006824D01*
X017035Y006548D01*
X016953Y006240D01*
X016953Y005921D01*
X017035Y005613D01*
X017045Y005597D01*
X010308Y005597D01*
X010317Y005613D01*
X010399Y005921D01*
X010399Y006240D01*
X010317Y006548D01*
X010157Y006824D01*
X009932Y007050D01*
X009655Y007209D01*
X009347Y007292D01*
X009028Y007292D01*
X008720Y007209D01*
X008444Y007050D01*
X008219Y006824D01*
X008059Y006548D01*
X007976Y006240D01*
X007976Y005921D01*
X008059Y005613D01*
X008068Y005597D01*
X007462Y005597D01*
X007188Y005871D01*
X007188Y006125D01*
X006730Y006583D01*
X006082Y006583D01*
X005643Y006144D01*
X005576Y006211D01*
X005436Y006211D01*
X005436Y005831D01*
X005376Y005831D01*
X005376Y006211D01*
X005236Y006211D01*
X005153Y006128D01*
X005153Y006161D02*
X005186Y006161D01*
X005153Y006259D02*
X005758Y006259D01*
X005856Y006358D02*
X005153Y006358D01*
X005153Y006456D02*
X005955Y006456D01*
X006053Y006555D02*
X005153Y006555D01*
X005153Y006653D02*
X008120Y006653D01*
X008176Y006752D02*
X005153Y006752D01*
X005153Y006850D02*
X008244Y006850D01*
X008343Y006949D02*
X005153Y006949D01*
X005153Y007047D02*
X008441Y007047D01*
X008610Y007146D02*
X005153Y007146D01*
X005153Y007244D02*
X008850Y007244D01*
X008623Y007540D02*
X005153Y007540D01*
X005153Y007638D02*
X006648Y007638D01*
X006453Y007737D02*
X005153Y007737D01*
X005202Y007835D02*
X006213Y007835D01*
X006114Y007934D02*
X005300Y007934D01*
X005399Y008032D02*
X006016Y008032D01*
X005917Y008131D02*
X005497Y008131D01*
X005596Y008229D02*
X005833Y008229D01*
X005833Y008328D02*
X005694Y008328D01*
X005793Y008426D02*
X005833Y008426D01*
X005153Y007441D02*
X021166Y007441D01*
X020941Y007540D02*
X017863Y007540D01*
X018057Y007638D02*
X020842Y007638D01*
X020744Y007737D02*
X018156Y007737D01*
X018253Y007835D02*
X020692Y007835D01*
X020651Y007934D02*
X018682Y007934D01*
X018784Y008032D02*
X020610Y008032D01*
X020603Y008131D02*
X018839Y008131D01*
X018863Y008229D02*
X020603Y008229D01*
X020603Y008328D02*
X018866Y008328D01*
X018866Y008324D02*
X018857Y008385D01*
X018836Y008449D01*
X018805Y008509D01*
X018766Y008564D01*
X018718Y008611D01*
X018664Y008651D01*
X018604Y008681D01*
X018540Y008702D01*
X018478Y008712D01*
X018478Y008324D01*
X018866Y008324D01*
X018843Y008426D02*
X020627Y008426D01*
X020668Y008525D02*
X018794Y008525D01*
X018702Y008623D02*
X020709Y008623D01*
X020759Y008722D02*
X018346Y008722D01*
X018346Y008820D02*
X020698Y008820D01*
X020657Y008919D02*
X018346Y008919D01*
X018346Y009017D02*
X020616Y009017D01*
X020603Y009116D02*
X018683Y009116D01*
X018663Y009101D02*
X018718Y009141D01*
X018765Y009188D01*
X018805Y009243D01*
X018835Y009303D01*
X018856Y009367D01*
X018866Y009428D01*
X018478Y009428D01*
X018478Y009040D01*
X018539Y009050D01*
X018603Y009071D01*
X018663Y009101D01*
X018784Y009214D02*
X020603Y009214D01*
X020603Y009313D02*
X018838Y009313D01*
X018863Y009411D02*
X020621Y009411D01*
X020662Y009510D02*
X018865Y009510D01*
X018843Y009608D02*
X020702Y009608D01*
X020769Y009707D02*
X018793Y009707D01*
X018700Y009805D02*
X020704Y009805D01*
X020663Y009904D02*
X018346Y009904D01*
X018346Y010002D02*
X020622Y010002D01*
X020603Y010101D02*
X018346Y010101D01*
X018346Y010199D02*
X020603Y010199D01*
X020603Y010298D02*
X018346Y010298D01*
X018346Y010396D02*
X020614Y010396D01*
X020655Y010495D02*
X018346Y010495D01*
X018346Y010593D02*
X020696Y010593D01*
X020754Y010692D02*
X018346Y010692D01*
X018346Y010790D02*
X020853Y010790D01*
X020954Y010889D02*
X018346Y010889D01*
X018346Y010987D02*
X021192Y010987D01*
X021613Y010987D02*
X023192Y010987D01*
X022954Y010889D02*
X021851Y010889D01*
X021732Y011480D02*
X023073Y011480D01*
X022902Y011578D02*
X021903Y011578D01*
X022001Y011677D02*
X022804Y011677D01*
X022717Y011775D02*
X022088Y011775D01*
X022129Y011874D02*
X022676Y011874D01*
X022635Y011972D02*
X022170Y011972D01*
X022202Y012071D02*
X022603Y012071D01*
X022603Y012169D02*
X022202Y012169D01*
X022202Y012268D02*
X022603Y012268D01*
X022603Y012366D02*
X022202Y012366D01*
X022175Y012465D02*
X022643Y012465D01*
X022684Y012563D02*
X022175Y012563D01*
X022175Y012662D02*
X022724Y012662D01*
X022823Y012760D02*
X022175Y012760D01*
X022175Y012859D02*
X022921Y012859D01*
X023120Y012957D02*
X022175Y012957D01*
X020630Y012957D02*
X018346Y012957D01*
X018346Y012859D02*
X020630Y012859D01*
X020630Y012760D02*
X018346Y012760D01*
X018346Y012662D02*
X020630Y012662D01*
X020630Y012563D02*
X018346Y012563D01*
X018346Y012465D02*
X020630Y012465D01*
X020603Y012366D02*
X018346Y012366D01*
X018346Y012268D02*
X020603Y012268D01*
X020603Y012169D02*
X018346Y012169D01*
X018346Y012071D02*
X020603Y012071D01*
X020635Y011972D02*
X018346Y011972D01*
X018346Y011874D02*
X020676Y011874D01*
X020717Y011775D02*
X018346Y011775D01*
X018346Y011677D02*
X020804Y011677D01*
X020902Y011578D02*
X018346Y011578D01*
X018346Y011480D02*
X021073Y011480D01*
X023613Y010987D02*
X023671Y010987D01*
X023671Y011086D02*
X018346Y011086D01*
X018346Y011184D02*
X023671Y011184D01*
X023671Y011283D02*
X018346Y011283D01*
X018346Y011381D02*
X023671Y011381D01*
X023883Y012859D02*
X024034Y012859D01*
X024133Y012957D02*
X023685Y012957D01*
X023986Y014563D02*
X019059Y014563D01*
X019059Y024047D01*
X018949Y024312D01*
X018747Y024514D01*
X018482Y024624D01*
X018196Y024624D01*
X018110Y024588D01*
X018110Y026780D01*
X018021Y026994D01*
X017230Y027786D01*
X019895Y027786D01*
X021776Y025904D01*
X021776Y024846D01*
X021717Y024703D01*
X021717Y024440D01*
X021818Y024197D01*
X022004Y024011D01*
X022247Y023910D01*
X022510Y023910D01*
X022753Y024011D01*
X022939Y024197D01*
X023040Y024440D01*
X023040Y024703D01*
X022981Y024846D01*
X022981Y025855D01*
X023950Y024886D01*
X023950Y015198D01*
X023891Y015055D01*
X023891Y014792D01*
X023986Y014563D01*
X023958Y014632D02*
X019059Y014632D01*
X019059Y014730D02*
X023917Y014730D01*
X023891Y014829D02*
X019059Y014829D01*
X019059Y014927D02*
X023891Y014927D01*
X023891Y015026D02*
X019059Y015026D01*
X019059Y015124D02*
X023919Y015124D01*
X023950Y015223D02*
X019059Y015223D01*
X019059Y015321D02*
X023950Y015321D01*
X023950Y015420D02*
X019059Y015420D01*
X019059Y015518D02*
X023950Y015518D01*
X023950Y015617D02*
X019059Y015617D01*
X019059Y015715D02*
X023950Y015715D01*
X023950Y015814D02*
X019059Y015814D01*
X019059Y015912D02*
X023950Y015912D01*
X023950Y016011D02*
X019059Y016011D01*
X019059Y016109D02*
X023950Y016109D01*
X023950Y016208D02*
X019059Y016208D01*
X019059Y016306D02*
X023950Y016306D01*
X023950Y016405D02*
X019059Y016405D01*
X019059Y016503D02*
X023950Y016503D01*
X023950Y016602D02*
X019059Y016602D01*
X019059Y016700D02*
X023950Y016700D01*
X023950Y016799D02*
X019059Y016799D01*
X019059Y016897D02*
X023950Y016897D01*
X023950Y016996D02*
X019059Y016996D01*
X019059Y017094D02*
X023950Y017094D01*
X023950Y017193D02*
X019059Y017193D01*
X019059Y017291D02*
X023950Y017291D01*
X023950Y017390D02*
X019059Y017390D01*
X019059Y017488D02*
X023950Y017488D01*
X023950Y017587D02*
X019059Y017587D01*
X019059Y017685D02*
X023950Y017685D01*
X023950Y017784D02*
X019059Y017784D01*
X019059Y017882D02*
X023950Y017882D01*
X023950Y017981D02*
X019059Y017981D01*
X019059Y018079D02*
X023950Y018079D01*
X023950Y018178D02*
X019059Y018178D01*
X019059Y018276D02*
X023950Y018276D01*
X023950Y018375D02*
X019059Y018375D01*
X019059Y018473D02*
X023950Y018473D01*
X023950Y018572D02*
X019059Y018572D01*
X019059Y018670D02*
X023950Y018670D01*
X023950Y018769D02*
X019059Y018769D01*
X019059Y018867D02*
X023950Y018867D01*
X023950Y018966D02*
X019059Y018966D01*
X019059Y019064D02*
X023950Y019064D01*
X023950Y019163D02*
X019059Y019163D01*
X019059Y019261D02*
X023950Y019261D01*
X023950Y019360D02*
X019059Y019360D01*
X019059Y019458D02*
X023950Y019458D01*
X023950Y019557D02*
X019059Y019557D01*
X019059Y019655D02*
X023950Y019655D01*
X023950Y019754D02*
X019059Y019754D01*
X019059Y019852D02*
X023950Y019852D01*
X023950Y019951D02*
X019059Y019951D01*
X019059Y020049D02*
X023950Y020049D01*
X023950Y020148D02*
X019059Y020148D01*
X019059Y020246D02*
X023950Y020246D01*
X023950Y020345D02*
X019059Y020345D01*
X019059Y020443D02*
X023950Y020443D01*
X023950Y020542D02*
X019059Y020542D01*
X019059Y020640D02*
X023950Y020640D01*
X023950Y020739D02*
X019059Y020739D01*
X019059Y020837D02*
X023950Y020837D01*
X023950Y020936D02*
X019059Y020936D01*
X019059Y021034D02*
X023950Y021034D01*
X023950Y021133D02*
X019059Y021133D01*
X019059Y021231D02*
X023950Y021231D01*
X023950Y021330D02*
X019059Y021330D01*
X019059Y021428D02*
X023950Y021428D01*
X023950Y021527D02*
X019059Y021527D01*
X019059Y021625D02*
X023950Y021625D01*
X023950Y021724D02*
X019059Y021724D01*
X019059Y021822D02*
X023950Y021822D01*
X023950Y021921D02*
X019059Y021921D01*
X019059Y022019D02*
X023950Y022019D01*
X023950Y022118D02*
X019059Y022118D01*
X019059Y022216D02*
X023950Y022216D01*
X023950Y022315D02*
X019059Y022315D01*
X019059Y022413D02*
X023950Y022413D01*
X023950Y022512D02*
X019059Y022512D01*
X019059Y022610D02*
X023950Y022610D01*
X023950Y022709D02*
X019059Y022709D01*
X019059Y022807D02*
X023950Y022807D01*
X023950Y022906D02*
X019059Y022906D01*
X019059Y023004D02*
X023950Y023004D01*
X023950Y023103D02*
X019059Y023103D01*
X019059Y023201D02*
X023950Y023201D01*
X023950Y023300D02*
X019059Y023300D01*
X019059Y023398D02*
X023950Y023398D01*
X023950Y023497D02*
X019059Y023497D01*
X019059Y023595D02*
X023950Y023595D01*
X023950Y023694D02*
X019059Y023694D01*
X019059Y023792D02*
X023950Y023792D01*
X023950Y023891D02*
X019059Y023891D01*
X019059Y023989D02*
X022056Y023989D01*
X021927Y024088D02*
X019042Y024088D01*
X019001Y024186D02*
X021828Y024186D01*
X021781Y024285D02*
X018960Y024285D01*
X018878Y024383D02*
X021741Y024383D01*
X021717Y024482D02*
X018779Y024482D01*
X018588Y024580D02*
X021717Y024580D01*
X021717Y024679D02*
X018110Y024679D01*
X018110Y024777D02*
X021748Y024777D01*
X021776Y024876D02*
X018110Y024876D01*
X018110Y024974D02*
X021776Y024974D01*
X021776Y025073D02*
X018110Y025073D01*
X018110Y025171D02*
X021776Y025171D01*
X021776Y025270D02*
X018110Y025270D01*
X018110Y025368D02*
X021776Y025368D01*
X021776Y025467D02*
X018110Y025467D01*
X018110Y025565D02*
X021776Y025565D01*
X021776Y025664D02*
X018110Y025664D01*
X018110Y025762D02*
X021776Y025762D01*
X021776Y025861D02*
X018110Y025861D01*
X018110Y025959D02*
X021721Y025959D01*
X021623Y026058D02*
X018110Y026058D01*
X018110Y026156D02*
X021524Y026156D01*
X021426Y026255D02*
X018110Y026255D01*
X018110Y026353D02*
X021327Y026353D01*
X021229Y026452D02*
X018110Y026452D01*
X018110Y026550D02*
X021130Y026550D01*
X021032Y026649D02*
X018110Y026649D01*
X018110Y026747D02*
X020933Y026747D01*
X020835Y026846D02*
X018083Y026846D01*
X018042Y026944D02*
X020736Y026944D01*
X020638Y027043D02*
X017973Y027043D01*
X017874Y027141D02*
X020539Y027141D01*
X020441Y027240D02*
X017776Y027240D01*
X017677Y027338D02*
X020342Y027338D01*
X020244Y027437D02*
X017579Y027437D01*
X017480Y027535D02*
X020145Y027535D01*
X020047Y027634D02*
X017382Y027634D01*
X017283Y027732D02*
X019948Y027732D01*
X021009Y029402D02*
X010488Y029402D01*
X010267Y029310D01*
X010097Y029141D01*
X009768Y028812D01*
X009626Y028753D01*
X009439Y028567D01*
X009368Y028395D01*
X009264Y028500D01*
X009301Y028536D01*
X009380Y028728D01*
X009380Y029256D01*
X009301Y029448D01*
X009154Y029595D01*
X009008Y029656D01*
X009008Y029750D01*
X008612Y029750D01*
X008612Y029810D01*
X008552Y029810D01*
X008552Y030090D01*
X008287Y030090D01*
X008249Y030079D01*
X008214Y030060D01*
X008186Y030032D01*
X008167Y029998D01*
X000808Y029998D01*
X000808Y030096D02*
X009388Y030096D01*
X009388Y030048D02*
X009494Y029790D01*
X009691Y029593D01*
X009949Y029487D01*
X010228Y029487D01*
X010485Y029593D01*
X010683Y029790D01*
X010781Y030028D01*
X011087Y030334D01*
X021967Y030334D01*
X021874Y030108D01*
X021874Y029782D01*
X021998Y029481D01*
X022229Y029251D01*
X022342Y029204D01*
X024866Y026679D01*
X024866Y025674D01*
X021230Y029310D01*
X021009Y029402D01*
X021232Y029308D02*
X022171Y029308D01*
X022073Y029407D02*
X009318Y029407D01*
X009359Y029308D02*
X010264Y029308D01*
X010166Y029210D02*
X009380Y029210D01*
X009380Y029111D02*
X010067Y029111D01*
X009969Y029013D02*
X009380Y029013D01*
X009380Y028914D02*
X009870Y028914D01*
X009772Y028816D02*
X009380Y028816D01*
X009375Y028717D02*
X009590Y028717D01*
X009491Y028619D02*
X009335Y028619D01*
X009284Y028520D02*
X009420Y028520D01*
X009379Y028422D02*
X009342Y028422D01*
X008582Y028879D02*
X008582Y028992D01*
X008552Y029750D02*
X008156Y029750D01*
X008156Y029656D01*
X008011Y029595D01*
X007864Y029448D01*
X007784Y029256D01*
X007784Y028755D01*
X007272Y029267D01*
X007062Y029354D01*
X004668Y029354D01*
X004457Y029267D01*
X004296Y029106D01*
X003748Y028558D01*
X003661Y028347D01*
X003661Y027782D01*
X003572Y027567D01*
X003572Y027304D01*
X003672Y027061D01*
X003858Y026875D01*
X004102Y026774D01*
X004365Y026774D01*
X004608Y026875D01*
X004794Y027061D01*
X004895Y027304D01*
X004895Y027567D01*
X004806Y027782D01*
X004806Y027996D01*
X004878Y028069D01*
X005061Y027886D01*
X005304Y027786D01*
X005567Y027786D01*
X005782Y027875D01*
X006407Y027875D01*
X007061Y027221D01*
X006994Y027058D01*
X006994Y026795D01*
X007095Y026552D01*
X007281Y026366D01*
X007496Y026277D01*
X008582Y025190D01*
X007371Y025190D01*
X007467Y025423D01*
X007467Y025686D01*
X007367Y025929D01*
X007181Y026115D01*
X006990Y026194D01*
X006672Y026512D01*
X006458Y026601D01*
X004494Y026601D01*
X004304Y026680D01*
X004040Y026680D01*
X003797Y026579D01*
X003611Y026393D01*
X003511Y026150D01*
X003511Y025887D01*
X003611Y025644D01*
X003797Y025458D01*
X004040Y025357D01*
X004304Y025357D01*
X004494Y025436D01*
X006101Y025436D01*
X006166Y025371D01*
X006241Y025190D01*
X004173Y025190D01*
X004061Y025301D01*
X003818Y025402D01*
X003555Y025402D01*
X003429Y025350D01*
X003429Y026356D01*
X003337Y026578D01*
X003011Y026904D01*
X002841Y027073D01*
X002685Y027138D01*
X002582Y027240D01*
X002483Y027282D01*
X002501Y027307D01*
X002534Y027371D01*
X002556Y027438D01*
X002564Y027493D01*
X002167Y027493D01*
X002167Y027593D01*
X002564Y027593D01*
X002556Y027649D01*
X002534Y027716D01*
X002501Y027779D01*
X002483Y027805D01*
X002582Y027846D01*
X002814Y028077D01*
X002939Y028380D01*
X002939Y028707D01*
X002814Y029009D01*
X002582Y029240D01*
X002280Y029366D01*
X001953Y029366D01*
X001651Y029240D01*
X001575Y029165D01*
X001537Y029165D01*
X001316Y029073D01*
X001146Y028904D01*
X000808Y028565D01*
X000808Y035291D01*
X001297Y034801D01*
X002385Y034801D01*
X003154Y035570D01*
X003154Y036658D01*
X002820Y036992D01*
X026638Y036990D01*
X026638Y029894D01*
X025901Y030631D01*
X025690Y030719D01*
X025010Y030719D01*
X024800Y030631D01*
X024639Y030470D01*
X024629Y030446D01*
X023797Y031278D01*
X026638Y031278D01*
X026638Y031180D02*
X023896Y031180D01*
X023797Y031278D02*
X023628Y031447D01*
X023406Y031539D01*
X022937Y031539D01*
X022987Y031576D01*
X023037Y031626D01*
X023078Y031683D01*
X023110Y031745D01*
X023132Y031812D01*
X023141Y031868D01*
X022745Y031868D01*
X022745Y031965D01*
X023141Y031965D01*
X023132Y032021D01*
X023110Y032088D01*
X023078Y032151D01*
X023037Y032208D01*
X022987Y032258D01*
X022931Y032299D01*
X022868Y032331D01*
X022801Y032353D01*
X022745Y032361D01*
X022745Y031965D01*
X022648Y031965D01*
X022648Y031868D01*
X022252Y031868D01*
X022260Y031812D01*
X022282Y031745D01*
X022314Y031683D01*
X022355Y031626D01*
X022405Y031576D01*
X022456Y031539D01*
X010718Y031539D01*
X010496Y031447D01*
X009929Y030880D01*
X009691Y030782D01*
X009494Y030584D01*
X009388Y030327D01*
X009388Y030048D01*
X009408Y029998D02*
X008997Y029998D01*
X008978Y030032D01*
X008950Y030060D01*
X008916Y030079D01*
X008877Y030090D01*
X008612Y030090D01*
X008612Y029810D01*
X009008Y029810D01*
X009008Y029959D01*
X008997Y029998D01*
X009008Y029899D02*
X009449Y029899D01*
X009490Y029801D02*
X008612Y029801D01*
X008552Y029801D02*
X000808Y029801D01*
X000808Y029899D02*
X008156Y029899D01*
X008156Y029959D02*
X008156Y029810D01*
X008552Y029810D01*
X008552Y029750D01*
X008552Y029899D02*
X008612Y029899D01*
X008612Y029998D02*
X008552Y029998D01*
X008167Y029998D02*
X008156Y029959D01*
X008156Y029702D02*
X000808Y029702D01*
X000808Y029604D02*
X008031Y029604D01*
X007920Y029505D02*
X000808Y029505D01*
X000808Y029407D02*
X007846Y029407D01*
X007806Y029308D02*
X007173Y029308D01*
X007330Y029210D02*
X007784Y029210D01*
X007784Y029111D02*
X007428Y029111D01*
X007527Y029013D02*
X007784Y029013D01*
X007784Y028914D02*
X007625Y028914D01*
X007724Y028816D02*
X007784Y028816D01*
X006948Y028782D02*
X009531Y026199D01*
X009823Y025269D02*
X006644Y028447D01*
X005435Y028447D01*
X004919Y028028D02*
X004837Y028028D01*
X004806Y027929D02*
X005018Y027929D01*
X005195Y027831D02*
X004806Y027831D01*
X004826Y027732D02*
X006550Y027732D01*
X006648Y027634D02*
X004867Y027634D01*
X004895Y027535D02*
X006747Y027535D01*
X006845Y027437D02*
X004895Y027437D01*
X004895Y027338D02*
X006944Y027338D01*
X007042Y027240D02*
X004868Y027240D01*
X004827Y027141D02*
X007028Y027141D01*
X006994Y027043D02*
X004775Y027043D01*
X004677Y026944D02*
X006994Y026944D01*
X006994Y026846D02*
X004537Y026846D01*
X004379Y026649D02*
X007055Y026649D01*
X007014Y026747D02*
X003168Y026747D01*
X003266Y026649D02*
X003965Y026649D01*
X003930Y026846D02*
X003069Y026846D01*
X002971Y026944D02*
X003789Y026944D01*
X003691Y027043D02*
X002872Y027043D01*
X002682Y027141D02*
X003639Y027141D01*
X003598Y027240D02*
X002583Y027240D01*
X002517Y027338D02*
X003572Y027338D01*
X003572Y027437D02*
X002555Y027437D01*
X002558Y027634D02*
X003599Y027634D01*
X003572Y027535D02*
X002167Y027535D01*
X002525Y027732D02*
X003640Y027732D01*
X003661Y027831D02*
X002545Y027831D01*
X002666Y027929D02*
X003661Y027929D01*
X003661Y028028D02*
X002764Y028028D01*
X002834Y028126D02*
X003661Y028126D01*
X003661Y028225D02*
X002875Y028225D01*
X002916Y028323D02*
X003661Y028323D01*
X003691Y028422D02*
X002939Y028422D01*
X002939Y028520D02*
X003732Y028520D01*
X003809Y028619D02*
X002939Y028619D01*
X002935Y028717D02*
X003907Y028717D01*
X004006Y028816D02*
X002894Y028816D01*
X002853Y028914D02*
X004104Y028914D01*
X004203Y029013D02*
X002810Y029013D01*
X002712Y029111D02*
X004301Y029111D01*
X004400Y029210D02*
X002613Y029210D01*
X002419Y029308D02*
X004556Y029308D01*
X004781Y028782D02*
X006948Y028782D01*
X006451Y027831D02*
X005675Y027831D01*
X004781Y028782D02*
X004233Y028233D01*
X004233Y027436D01*
X003768Y026550D02*
X003348Y026550D01*
X003389Y026452D02*
X003670Y026452D01*
X003595Y026353D02*
X003429Y026353D01*
X003429Y026255D02*
X003554Y026255D01*
X003513Y026156D02*
X003429Y026156D01*
X003429Y026058D02*
X003511Y026058D01*
X003511Y025959D02*
X003429Y025959D01*
X003429Y025861D02*
X003521Y025861D01*
X003562Y025762D02*
X003429Y025762D01*
X003429Y025664D02*
X003603Y025664D01*
X003690Y025565D02*
X003429Y025565D01*
X003429Y025467D02*
X003788Y025467D01*
X003901Y025368D02*
X004013Y025368D01*
X004093Y025270D02*
X006208Y025270D01*
X006167Y025368D02*
X004331Y025368D01*
X003473Y025368D02*
X003429Y025368D01*
X001780Y023298D02*
X001431Y023298D01*
X000688Y022555D01*
X000688Y021774D01*
X000734Y021729D01*
X004449Y021729D01*
X004977Y022256D01*
X004960Y022240D02*
X000878Y022240D01*
X000763Y022355D01*
X000763Y022582D01*
X001475Y023295D01*
X007080Y023295D01*
X007416Y022959D01*
X007416Y022838D01*
X007255Y022676D01*
X005291Y022676D01*
X004934Y022319D01*
X004960Y022240D02*
X005417Y022697D01*
X007191Y022697D01*
X007320Y022826D01*
X007299Y022891D02*
X007299Y023003D01*
X007215Y023003D01*
X007404Y025270D02*
X008503Y025270D01*
X008404Y025368D02*
X007445Y025368D01*
X007467Y025467D02*
X008306Y025467D01*
X008207Y025565D02*
X007467Y025565D01*
X007467Y025664D02*
X008109Y025664D01*
X008010Y025762D02*
X007436Y025762D01*
X007395Y025861D02*
X007912Y025861D01*
X007813Y025959D02*
X007337Y025959D01*
X007238Y026058D02*
X007715Y026058D01*
X007616Y026156D02*
X007082Y026156D01*
X006930Y026255D02*
X007518Y026255D01*
X007312Y026353D02*
X006831Y026353D01*
X006733Y026452D02*
X007195Y026452D01*
X007096Y026550D02*
X006580Y026550D01*
X007655Y026927D02*
X009644Y024938D01*
X011778Y024938D01*
X013638Y025269D02*
X009823Y025269D01*
X012405Y022990D02*
X012547Y023132D01*
X013409Y023132D01*
X013488Y023052D01*
X013488Y022430D01*
X013090Y022032D01*
X012582Y022032D01*
X012464Y021914D01*
X012464Y022942D01*
X012568Y023045D01*
X013175Y023045D01*
X013175Y022856D01*
X013175Y022113D01*
X010043Y018981D01*
X009230Y018981D01*
X008859Y018611D01*
X008859Y016385D01*
X009204Y016040D01*
X011585Y016040D01*
X011780Y015846D01*
X008930Y015846D01*
X008423Y016352D01*
X008423Y018700D01*
X008956Y019233D01*
X009990Y019233D01*
X012734Y021976D01*
X012734Y022781D01*
X012863Y022910D01*
X012936Y022910D01*
X012904Y022879D01*
X012904Y022095D01*
X012787Y021978D01*
X012787Y021965D01*
X012802Y021980D01*
X012802Y022767D01*
X012827Y022792D01*
X012827Y022817D01*
X012844Y022800D01*
X012844Y022068D01*
X012881Y022105D01*
X013094Y022105D01*
X013088Y022111D01*
X013088Y022839D01*
X012851Y022602D01*
X012851Y022047D01*
X009967Y019163D01*
X008978Y019163D01*
X008482Y018668D01*
X008482Y018381D01*
X008534Y018433D01*
X008534Y018648D01*
X009008Y019122D01*
X009094Y019122D01*
X008617Y018644D01*
X008617Y018599D01*
X008494Y018477D01*
X008494Y016412D01*
X008903Y016003D01*
X009158Y016003D01*
X009158Y016025D01*
X009185Y016025D01*
X009158Y016003D02*
X008629Y016532D01*
X008566Y016532D01*
X008557Y016523D01*
X008345Y016523D01*
X008345Y016431D01*
X008754Y016023D01*
X008754Y016266D01*
X008552Y016468D01*
X008552Y016431D01*
X008939Y016045D01*
X009049Y016045D01*
X009054Y016049D01*
X009008Y016049D01*
X008792Y016266D01*
X008792Y018591D01*
X008790Y018593D01*
X008790Y016361D01*
X008745Y016316D01*
X008745Y016340D01*
X008607Y016479D01*
X008607Y018409D01*
X008703Y018506D01*
X008703Y016534D01*
X008721Y016517D01*
X008721Y016269D01*
X009074Y015916D01*
X014421Y015916D01*
X014461Y015876D01*
X014461Y015323D01*
X014436Y015298D01*
X014436Y015955D01*
X014441Y015960D01*
X014441Y015402D01*
X014545Y015298D01*
X015806Y015298D01*
X016653Y016145D01*
X016653Y018453D01*
X016383Y018723D01*
X016383Y017199D01*
X015943Y016759D01*
X015943Y018478D01*
X016179Y018714D01*
X016179Y017158D01*
X016184Y017153D01*
X016184Y018478D01*
X016109Y018553D01*
X016109Y017116D01*
X016055Y017062D01*
X016009Y017062D01*
X015997Y017050D01*
X015997Y018445D01*
X016063Y018511D01*
X016063Y017033D01*
X016059Y017029D01*
X016698Y016080D02*
X015866Y015248D01*
X011281Y015248D01*
X011281Y015326D01*
X012696Y015326D01*
X012696Y015309D01*
X012699Y015309D01*
X012699Y015960D01*
X012897Y015960D01*
X012897Y015946D01*
X012907Y015946D01*
X012907Y015385D01*
X012921Y015385D01*
X012921Y015980D01*
X013564Y015980D01*
X013564Y015316D01*
X013803Y015316D01*
X013803Y015330D01*
X013779Y015330D01*
X013779Y015939D01*
X013613Y015939D01*
X013613Y015921D01*
X013606Y015921D01*
X013606Y015385D01*
X013696Y015385D01*
X013696Y015409D01*
X013685Y015409D01*
X013685Y015901D01*
X012049Y015901D01*
X012049Y015364D01*
X011976Y015364D01*
X011976Y015942D01*
X011914Y015942D01*
X011914Y015368D01*
X011835Y015368D01*
X011835Y015942D01*
X008891Y015942D01*
X008353Y016481D01*
X008353Y018732D01*
X008943Y019322D01*
X009953Y019322D01*
X012656Y022025D01*
X012656Y022771D01*
X012866Y022981D01*
X013050Y022981D01*
X013175Y022856D01*
X013194Y022931D02*
X013194Y022966D01*
X013153Y023007D01*
X012782Y023007D01*
X012731Y022955D01*
X012731Y022952D01*
X012627Y022848D01*
X012627Y022868D01*
X012599Y022868D01*
X012627Y022848D02*
X012616Y022838D01*
X012616Y022084D01*
X012592Y022059D01*
X012592Y022056D01*
X012551Y022014D01*
X012551Y022876D01*
X012679Y023004D01*
X012592Y023004D01*
X012516Y022928D01*
X012516Y022869D01*
X012520Y022866D01*
X012520Y022025D01*
X012461Y021966D01*
X012461Y021824D01*
X012481Y021803D01*
X012471Y021751D02*
X012405Y021751D01*
X012405Y022990D01*
X013104Y022997D02*
X013128Y022997D01*
X013194Y022931D01*
X013232Y022955D02*
X013298Y022955D01*
X013326Y022983D01*
X013326Y022443D01*
X013319Y022437D01*
X013319Y022441D01*
X013358Y022480D01*
X013358Y022865D01*
X013360Y022865D01*
X013358Y022865D02*
X013358Y022982D01*
X013322Y023018D01*
X013125Y023018D01*
X013104Y022997D01*
X013175Y023045D02*
X013374Y023045D01*
X013423Y022997D01*
X013423Y022443D01*
X013250Y022270D01*
X013250Y022938D01*
X013232Y022955D01*
X014446Y022910D02*
X014446Y025777D01*
X013981Y026241D01*
X014774Y025971D02*
X014813Y025933D01*
X014813Y022834D01*
X010653Y018674D01*
X010641Y018223D01*
X009786Y018250D02*
X014446Y022910D01*
X011781Y021739D02*
X011777Y021735D01*
X011777Y021733D01*
X009786Y018250D02*
X009596Y018236D01*
X007780Y018276D02*
X007611Y018276D01*
X007546Y018211D02*
X007780Y018445D01*
X007780Y016655D01*
X007773Y016637D01*
X007773Y016318D01*
X007860Y016107D01*
X007937Y016030D01*
X007938Y016028D01*
X008099Y015867D01*
X008305Y015661D01*
X008289Y015661D01*
X008251Y015651D01*
X008217Y015631D01*
X008189Y015603D01*
X008169Y015569D01*
X008159Y015531D01*
X008159Y015381D01*
X008555Y015381D01*
X008555Y015321D01*
X008159Y015321D01*
X007546Y015321D01*
X007546Y015250D02*
X007546Y018211D01*
X007546Y018178D02*
X007780Y018178D01*
X007780Y018079D02*
X007546Y018079D01*
X007546Y017981D02*
X007780Y017981D01*
X007780Y017882D02*
X007546Y017882D01*
X007546Y017784D02*
X007780Y017784D01*
X007780Y017685D02*
X007546Y017685D01*
X007546Y017587D02*
X007780Y017587D01*
X007780Y017488D02*
X007546Y017488D01*
X007546Y017390D02*
X007780Y017390D01*
X007780Y017291D02*
X007546Y017291D01*
X007546Y017193D02*
X007780Y017193D01*
X007780Y017094D02*
X007546Y017094D01*
X007546Y016996D02*
X007780Y016996D01*
X007780Y016897D02*
X007546Y016897D01*
X007546Y016799D02*
X007780Y016799D01*
X007780Y016700D02*
X007546Y016700D01*
X007546Y016602D02*
X007773Y016602D01*
X007773Y016503D02*
X007546Y016503D01*
X007546Y016405D02*
X007773Y016405D01*
X007777Y016306D02*
X007546Y016306D01*
X007546Y016208D02*
X007818Y016208D01*
X007859Y016109D02*
X007546Y016109D01*
X007546Y016011D02*
X007955Y016011D01*
X008054Y015912D02*
X007546Y015912D01*
X007546Y015814D02*
X008152Y015814D01*
X008251Y015715D02*
X007546Y015715D01*
X007546Y015617D02*
X008202Y015617D01*
X008159Y015518D02*
X007546Y015518D01*
X007546Y015420D02*
X008159Y015420D01*
X008159Y015321D02*
X008159Y015227D01*
X008013Y015167D01*
X007866Y015020D01*
X007787Y014828D01*
X007787Y014300D01*
X007865Y014110D01*
X007865Y013946D01*
X007975Y013682D01*
X009059Y012598D01*
X009059Y011213D01*
X007396Y011213D01*
X007398Y011215D01*
X007398Y011863D01*
X006940Y012321D01*
X006291Y012321D01*
X005834Y011864D01*
X005834Y015932D01*
X005878Y015932D01*
X006121Y016033D01*
X006307Y016219D01*
X006381Y016398D01*
X006381Y015250D01*
X006302Y015059D01*
X006302Y014796D01*
X006403Y014553D01*
X006589Y014367D01*
X006832Y014266D01*
X007095Y014266D01*
X007338Y014367D01*
X007524Y014553D01*
X007625Y014796D01*
X007625Y015059D01*
X007546Y015250D01*
X007557Y015223D02*
X008148Y015223D01*
X007971Y015124D02*
X007598Y015124D01*
X007625Y015026D02*
X007872Y015026D01*
X007828Y014927D02*
X007625Y014927D01*
X007625Y014829D02*
X007787Y014829D01*
X007787Y014730D02*
X007597Y014730D01*
X007557Y014632D02*
X007787Y014632D01*
X007787Y014533D02*
X007504Y014533D01*
X007405Y014435D02*
X007787Y014435D01*
X007787Y014336D02*
X007263Y014336D01*
X007812Y014238D02*
X005834Y014238D01*
X005834Y014336D02*
X006664Y014336D01*
X006521Y014435D02*
X005834Y014435D01*
X005834Y014533D02*
X006423Y014533D01*
X006370Y014632D02*
X005834Y014632D01*
X005834Y014730D02*
X006329Y014730D01*
X006302Y014829D02*
X005834Y014829D01*
X005834Y014927D02*
X006302Y014927D01*
X006302Y015026D02*
X005834Y015026D01*
X005834Y015124D02*
X006329Y015124D01*
X006369Y015223D02*
X005834Y015223D01*
X005834Y015321D02*
X006381Y015321D01*
X006381Y015420D02*
X005834Y015420D01*
X005834Y015518D02*
X006381Y015518D01*
X006381Y015617D02*
X005834Y015617D01*
X005834Y015715D02*
X006381Y015715D01*
X006381Y015814D02*
X005834Y015814D01*
X005834Y015912D02*
X006381Y015912D01*
X006381Y016011D02*
X006067Y016011D01*
X006197Y016109D02*
X006381Y016109D01*
X006381Y016208D02*
X006295Y016208D01*
X006343Y016306D02*
X006381Y016306D01*
X007710Y018375D02*
X007780Y018375D01*
X004454Y021820D02*
X004794Y022160D01*
X004794Y022169D01*
X004765Y022198D01*
X000804Y022198D01*
X000754Y022273D02*
X000754Y021791D01*
X000783Y021820D01*
X000878Y021820D01*
X000878Y021965D01*
X000878Y021820D02*
X004454Y021820D01*
X003123Y019865D02*
X003123Y017398D01*
X002385Y018136D01*
X001297Y018136D01*
X000808Y017646D01*
X000808Y021156D01*
X001489Y021156D01*
X001296Y020964D01*
X001171Y020662D01*
X001171Y020334D01*
X001296Y020032D01*
X001527Y019801D01*
X001627Y019759D01*
X001608Y019734D01*
X001576Y019671D01*
X001554Y019603D01*
X001546Y019548D01*
X002243Y019548D01*
X002243Y019448D01*
X001546Y019448D01*
X001554Y019393D01*
X001576Y019325D01*
X001608Y019262D01*
X001650Y019205D01*
X001700Y019155D01*
X001758Y019113D01*
X001821Y019081D01*
X001888Y019059D01*
X001958Y019048D01*
X002243Y019048D01*
X002243Y019448D01*
X002343Y019448D01*
X002343Y019048D01*
X002629Y019048D01*
X002699Y019059D01*
X002766Y019081D01*
X002829Y019113D01*
X002887Y019155D01*
X002937Y019205D01*
X002978Y019262D01*
X003010Y019325D01*
X003032Y019393D01*
X003041Y019448D01*
X002343Y019448D01*
X002343Y019548D01*
X003041Y019548D01*
X003032Y019603D01*
X003010Y019671D01*
X002978Y019734D01*
X002960Y019759D01*
X003059Y019801D01*
X003123Y019865D01*
X003123Y019852D02*
X003111Y019852D01*
X003123Y019754D02*
X002964Y019754D01*
X003015Y019655D02*
X003123Y019655D01*
X003123Y019557D02*
X003040Y019557D01*
X003123Y019458D02*
X002343Y019458D01*
X002343Y019360D02*
X002243Y019360D01*
X002243Y019458D02*
X000808Y019458D01*
X000808Y019360D02*
X001565Y019360D01*
X001609Y019261D02*
X000808Y019261D01*
X000808Y019163D02*
X001692Y019163D01*
X001872Y019064D02*
X000808Y019064D01*
X000808Y018966D02*
X003123Y018966D01*
X003123Y019064D02*
X002714Y019064D01*
X002894Y019163D02*
X003123Y019163D01*
X003123Y019261D02*
X002977Y019261D01*
X003022Y019360D02*
X003123Y019360D01*
X003123Y018867D02*
X000808Y018867D01*
X000808Y018769D02*
X003123Y018769D01*
X003123Y018670D02*
X000808Y018670D01*
X000808Y018572D02*
X003123Y018572D01*
X003123Y018473D02*
X000808Y018473D01*
X000808Y018375D02*
X003123Y018375D01*
X003123Y018276D02*
X000808Y018276D01*
X000808Y018178D02*
X003123Y018178D01*
X003123Y018079D02*
X002442Y018079D01*
X002540Y017981D02*
X003123Y017981D01*
X003123Y017882D02*
X002639Y017882D01*
X002737Y017784D02*
X003123Y017784D01*
X003123Y017685D02*
X002836Y017685D01*
X002934Y017587D02*
X003123Y017587D01*
X003123Y017488D02*
X003033Y017488D01*
X003123Y016248D02*
X003123Y013047D01*
X003094Y013104D01*
X003053Y013161D01*
X003002Y013211D01*
X002945Y013253D01*
X002882Y013285D01*
X002815Y013307D01*
X002745Y013318D01*
X002459Y013318D01*
X002459Y012918D01*
X002359Y012918D01*
X002359Y012818D01*
X001662Y012818D01*
X001670Y012762D01*
X001692Y012695D01*
X001724Y012632D01*
X001743Y012606D01*
X001643Y012565D01*
X001501Y012423D01*
X001501Y013294D01*
X001416Y013501D01*
X000808Y014109D01*
X000808Y015999D01*
X001297Y015510D01*
X002385Y015510D01*
X003123Y016248D01*
X003123Y016208D02*
X003083Y016208D01*
X003123Y016109D02*
X002985Y016109D01*
X002886Y016011D02*
X003123Y016011D01*
X003123Y015912D02*
X002788Y015912D01*
X002689Y015814D02*
X003123Y015814D01*
X003123Y015715D02*
X002591Y015715D01*
X002492Y015617D02*
X003123Y015617D01*
X003123Y015518D02*
X002394Y015518D01*
X003123Y015420D02*
X000808Y015420D01*
X000808Y015518D02*
X001289Y015518D01*
X001190Y015617D02*
X000808Y015617D01*
X000808Y015715D02*
X001092Y015715D01*
X000993Y015814D02*
X000808Y015814D01*
X000808Y015912D02*
X000895Y015912D01*
X000808Y015321D02*
X003123Y015321D01*
X003123Y015223D02*
X000808Y015223D01*
X000808Y015124D02*
X003123Y015124D01*
X003123Y015026D02*
X000808Y015026D01*
X000808Y014927D02*
X003123Y014927D01*
X003123Y014829D02*
X000808Y014829D01*
X000808Y014730D02*
X003123Y014730D01*
X003123Y014632D02*
X000808Y014632D01*
X000808Y014533D02*
X003123Y014533D01*
X003123Y014435D02*
X000808Y014435D01*
X000808Y014336D02*
X003123Y014336D01*
X003123Y014238D02*
X000808Y014238D01*
X000808Y014139D02*
X003123Y014139D01*
X003123Y014041D02*
X000876Y014041D01*
X000974Y013942D02*
X003123Y013942D01*
X003123Y013844D02*
X001073Y013844D01*
X001171Y013745D02*
X003123Y013745D01*
X003123Y013647D02*
X001270Y013647D01*
X001368Y013548D02*
X003123Y013548D01*
X003123Y013450D02*
X001437Y013450D01*
X001478Y013351D02*
X003123Y013351D01*
X003123Y013253D02*
X002945Y013253D01*
X003058Y013154D02*
X003123Y013154D01*
X003119Y013056D02*
X003123Y013056D01*
X002459Y013056D02*
X002359Y013056D01*
X002359Y013154D02*
X002459Y013154D01*
X002459Y013253D02*
X002359Y013253D01*
X002359Y013318D02*
X002074Y013318D01*
X002004Y013307D01*
X001937Y013285D01*
X001873Y013253D01*
X001501Y013253D01*
X001501Y013154D02*
X001761Y013154D01*
X001766Y013161D02*
X001724Y013104D01*
X001692Y013041D01*
X001670Y012973D01*
X001662Y012918D01*
X002359Y012918D01*
X002359Y013318D01*
X002359Y012957D02*
X002459Y012957D01*
X002359Y012859D02*
X001501Y012859D01*
X001501Y012957D02*
X001668Y012957D01*
X001700Y013056D02*
X001501Y013056D01*
X001766Y013161D02*
X001816Y013211D01*
X001873Y013253D01*
X001671Y012760D02*
X001501Y012760D01*
X001501Y012662D02*
X001709Y012662D01*
X001641Y012563D02*
X001501Y012563D01*
X001501Y012465D02*
X001543Y012465D01*
X005834Y012465D02*
X009059Y012465D01*
X009059Y012563D02*
X005834Y012563D01*
X005834Y012662D02*
X008995Y012662D01*
X008897Y012760D02*
X005834Y012760D01*
X005834Y012859D02*
X008798Y012859D01*
X008700Y012957D02*
X005834Y012957D01*
X005834Y013056D02*
X008601Y013056D01*
X008503Y013154D02*
X005834Y013154D01*
X005834Y013253D02*
X008404Y013253D01*
X008306Y013351D02*
X005834Y013351D01*
X005834Y013450D02*
X008207Y013450D01*
X008109Y013548D02*
X005834Y013548D01*
X005834Y013647D02*
X008010Y013647D01*
X007949Y013745D02*
X005834Y013745D01*
X005834Y013844D02*
X007908Y013844D01*
X007867Y013942D02*
X005834Y013942D01*
X005834Y014041D02*
X007865Y014041D01*
X007853Y014139D02*
X005834Y014139D01*
X005834Y012366D02*
X009059Y012366D01*
X009059Y012268D02*
X006993Y012268D01*
X007092Y012169D02*
X009059Y012169D01*
X009059Y012071D02*
X007190Y012071D01*
X007289Y011972D02*
X009059Y011972D01*
X009059Y011874D02*
X007387Y011874D01*
X007398Y011775D02*
X009059Y011775D01*
X009059Y011677D02*
X007398Y011677D01*
X007398Y011578D02*
X009059Y011578D01*
X009059Y011480D02*
X007398Y011480D01*
X007398Y011381D02*
X009059Y011381D01*
X009059Y011283D02*
X007398Y011283D01*
X006238Y012268D02*
X005834Y012268D01*
X005834Y012169D02*
X006139Y012169D01*
X006041Y012071D02*
X005834Y012071D01*
X005834Y011972D02*
X005942Y011972D01*
X005844Y011874D02*
X005834Y011874D01*
X009740Y008229D02*
X009817Y008229D01*
X009817Y008131D02*
X009740Y008131D01*
X009740Y008032D02*
X009817Y008032D01*
X009817Y007934D02*
X009740Y007934D01*
X009591Y007835D02*
X009966Y007835D01*
X010063Y007737D02*
X009494Y007737D01*
X009396Y007638D02*
X010161Y007638D01*
X010355Y007540D02*
X009201Y007540D01*
X009526Y007244D02*
X017826Y007244D01*
X017586Y007146D02*
X009766Y007146D01*
X009935Y007047D02*
X017418Y007047D01*
X017319Y006949D02*
X010033Y006949D01*
X010132Y006850D02*
X017221Y006850D01*
X017153Y006752D02*
X010199Y006752D01*
X010256Y006653D02*
X017096Y006653D01*
X017039Y006555D02*
X010313Y006555D01*
X010341Y006456D02*
X017011Y006456D01*
X016984Y006358D02*
X010368Y006358D01*
X010394Y006259D02*
X016958Y006259D01*
X016953Y006161D02*
X010399Y006161D01*
X010399Y006062D02*
X016953Y006062D01*
X016953Y005964D02*
X010399Y005964D01*
X010384Y005865D02*
X016968Y005865D01*
X016994Y005767D02*
X010358Y005767D01*
X010332Y005668D02*
X017021Y005668D01*
X016997Y007540D02*
X017285Y007540D01*
X016418Y007540D02*
X016131Y007540D01*
X015552Y007540D02*
X015264Y007540D01*
X014686Y007540D02*
X010934Y007540D01*
X011128Y007638D02*
X014492Y007638D01*
X014393Y007737D02*
X011227Y007737D01*
X011324Y007835D02*
X014296Y007835D01*
X014148Y007934D02*
X014071Y007934D01*
X014071Y007859D02*
X014071Y008247D01*
X013683Y008247D01*
X013693Y008185D01*
X013713Y008121D01*
X013744Y008061D01*
X013783Y008007D01*
X013831Y007959D01*
X013885Y007920D01*
X013945Y007889D01*
X014009Y007869D01*
X014071Y007859D01*
X014071Y008032D02*
X014148Y008032D01*
X014148Y008131D02*
X014071Y008131D01*
X014071Y008229D02*
X014148Y008229D01*
X013867Y007934D02*
X013486Y007934D01*
X013467Y007920D02*
X013521Y007959D01*
X013569Y008007D01*
X013608Y008061D01*
X013639Y008121D01*
X013660Y008185D01*
X013669Y008247D01*
X013282Y008247D01*
X013282Y007859D01*
X013343Y007869D01*
X013407Y007889D01*
X013467Y007920D01*
X013587Y008032D02*
X013765Y008032D01*
X013710Y008131D02*
X013642Y008131D01*
X013667Y008229D02*
X013686Y008229D01*
X013683Y008328D02*
X013669Y008328D01*
X013646Y008426D02*
X013706Y008426D01*
X013755Y008525D02*
X013597Y008525D01*
X013505Y008623D02*
X013847Y008623D01*
X013818Y008722D02*
X013533Y008722D01*
X012981Y008623D02*
X012639Y008623D01*
X012667Y008722D02*
X012952Y008722D01*
X012889Y008525D02*
X012731Y008525D01*
X012780Y008426D02*
X012840Y008426D01*
X012817Y008328D02*
X012803Y008328D01*
X012800Y008229D02*
X012819Y008229D01*
X012844Y008131D02*
X012776Y008131D01*
X012721Y008032D02*
X012899Y008032D01*
X013000Y007934D02*
X012619Y007934D01*
X012415Y007934D02*
X012338Y007934D01*
X012338Y008032D02*
X012415Y008032D01*
X012415Y008131D02*
X012338Y008131D01*
X012338Y008229D02*
X012415Y008229D01*
X012134Y007934D02*
X011753Y007934D01*
X011855Y008032D02*
X012033Y008032D01*
X011978Y008131D02*
X011910Y008131D01*
X011934Y008229D02*
X011953Y008229D01*
X011951Y008328D02*
X011937Y008328D01*
X011914Y008426D02*
X011973Y008426D01*
X012023Y008525D02*
X011865Y008525D01*
X011773Y008623D02*
X012115Y008623D01*
X012086Y008722D02*
X011801Y008722D01*
X011549Y008229D02*
X011472Y008229D01*
X011472Y008131D02*
X011549Y008131D01*
X011549Y008032D02*
X011472Y008032D01*
X011472Y007934D02*
X011549Y007934D01*
X013204Y007934D02*
X013282Y007934D01*
X013282Y008032D02*
X013204Y008032D01*
X013204Y008131D02*
X013282Y008131D01*
X013282Y008229D02*
X013204Y008229D01*
X018401Y008229D02*
X018478Y008229D01*
X018478Y008131D02*
X018401Y008131D01*
X018401Y008032D02*
X018478Y008032D01*
X018478Y007934D02*
X018401Y007934D01*
X018401Y008328D02*
X018478Y008328D01*
X018478Y008426D02*
X018401Y008426D01*
X018401Y008525D02*
X018478Y008525D01*
X018478Y008623D02*
X018401Y008623D01*
X018401Y009116D02*
X018478Y009116D01*
X018478Y009214D02*
X018401Y009214D01*
X018401Y009313D02*
X018478Y009313D01*
X018478Y009411D02*
X018401Y009411D01*
X018401Y009510D02*
X018478Y009510D01*
X018478Y009608D02*
X018401Y009608D01*
X018401Y009707D02*
X018478Y009707D01*
X018478Y009805D02*
X018401Y009805D01*
X018503Y007244D02*
X023671Y007244D01*
X023671Y007146D02*
X018742Y007146D01*
X018911Y007047D02*
X023671Y007047D01*
X023671Y006949D02*
X019009Y006949D01*
X019108Y006850D02*
X023671Y006850D01*
X023671Y006752D02*
X019176Y006752D01*
X019233Y006653D02*
X023671Y006653D01*
X023671Y006555D02*
X019289Y006555D01*
X019318Y006456D02*
X023643Y006456D01*
X023544Y006358D02*
X019344Y006358D01*
X019371Y006259D02*
X023446Y006259D01*
X023347Y006161D02*
X019376Y006161D01*
X019376Y006062D02*
X023249Y006062D01*
X023150Y005964D02*
X019376Y005964D01*
X019361Y005865D02*
X023052Y005865D01*
X022953Y005767D02*
X019334Y005767D01*
X019308Y005668D02*
X022855Y005668D01*
X023935Y004247D02*
X005046Y004247D01*
X005376Y005865D02*
X005436Y005865D01*
X005436Y005964D02*
X005376Y005964D01*
X005376Y006062D02*
X005436Y006062D01*
X005436Y006161D02*
X005376Y006161D01*
X005626Y006161D02*
X005659Y006161D01*
X006759Y006555D02*
X008063Y006555D01*
X008034Y006456D02*
X006858Y006456D01*
X006956Y006358D02*
X008008Y006358D01*
X007982Y006259D02*
X007055Y006259D01*
X007153Y006161D02*
X007976Y006161D01*
X007976Y006062D02*
X007188Y006062D01*
X007188Y005964D02*
X007976Y005964D01*
X007991Y005865D02*
X007194Y005865D01*
X007292Y005767D02*
X008018Y005767D01*
X008044Y005668D02*
X007391Y005668D01*
X005153Y007343D02*
X023671Y007343D01*
X023671Y007441D02*
X023639Y007441D01*
X023166Y007441D02*
X021639Y007441D01*
X021864Y007540D02*
X022941Y007540D01*
X025745Y006057D02*
X023935Y004247D01*
X025745Y006057D02*
X025745Y011878D01*
X027509Y013642D01*
X027509Y028213D01*
X025576Y030146D01*
X025124Y030146D01*
X025124Y029790D01*
X027113Y027801D01*
X027113Y014228D01*
X025968Y013083D01*
X025890Y013083D01*
X026923Y014115D01*
X026923Y027909D01*
X025123Y029709D01*
X025123Y029846D01*
X024659Y030490D02*
X024585Y030490D01*
X024487Y030589D02*
X024757Y030589D01*
X024934Y030687D02*
X024388Y030687D01*
X024290Y030786D02*
X026638Y030786D01*
X026638Y030884D02*
X024191Y030884D01*
X024093Y030983D02*
X026638Y030983D01*
X026638Y031081D02*
X023994Y031081D01*
X023699Y031377D02*
X026638Y031377D01*
X026638Y031475D02*
X023561Y031475D01*
X023071Y031672D02*
X026638Y031672D01*
X026638Y031574D02*
X022984Y031574D01*
X023119Y031771D02*
X026638Y031771D01*
X026638Y031869D02*
X022745Y031869D01*
X022648Y031869D02*
X000808Y031869D01*
X000808Y031771D02*
X022274Y031771D01*
X022322Y031672D02*
X000808Y031672D01*
X000808Y031574D02*
X022408Y031574D01*
X022252Y031965D02*
X022648Y031965D01*
X022648Y032361D01*
X022592Y032353D01*
X022525Y032331D01*
X022462Y032299D01*
X022405Y032258D01*
X022355Y032208D01*
X022314Y032151D01*
X022282Y032088D01*
X022260Y032021D01*
X022252Y031965D01*
X022252Y031968D02*
X000808Y031968D01*
X000808Y032066D02*
X022275Y032066D01*
X022324Y032165D02*
X000808Y032165D01*
X000808Y032263D02*
X022413Y032263D01*
X022648Y032263D02*
X022745Y032263D01*
X022745Y032165D02*
X022648Y032165D01*
X022648Y032066D02*
X022745Y032066D01*
X022745Y031968D02*
X022648Y031968D01*
X022980Y032263D02*
X026638Y032263D01*
X026638Y032165D02*
X023069Y032165D01*
X023118Y032066D02*
X026638Y032066D01*
X026638Y031968D02*
X023141Y031968D01*
X021950Y030293D02*
X011046Y030293D01*
X010948Y030195D02*
X021909Y030195D01*
X021874Y030096D02*
X010849Y030096D01*
X010768Y029998D02*
X021874Y029998D01*
X021874Y029899D02*
X010728Y029899D01*
X010687Y029801D02*
X021874Y029801D01*
X021907Y029702D02*
X010594Y029702D01*
X010496Y029604D02*
X021948Y029604D01*
X021988Y029505D02*
X010273Y029505D01*
X009904Y029505D02*
X009244Y029505D01*
X009133Y029604D02*
X009681Y029604D01*
X009583Y029702D02*
X009008Y029702D01*
X009388Y030195D02*
X000808Y030195D01*
X000808Y030293D02*
X009388Y030293D01*
X009414Y030392D02*
X000808Y030392D01*
X000808Y030490D02*
X009455Y030490D01*
X009498Y030589D02*
X000808Y030589D01*
X000808Y030687D02*
X009597Y030687D01*
X009701Y030786D02*
X000808Y030786D01*
X000808Y030884D02*
X009933Y030884D01*
X010032Y030983D02*
X000808Y030983D01*
X000808Y031081D02*
X010130Y031081D01*
X010229Y031180D02*
X000808Y031180D01*
X000808Y031278D02*
X010327Y031278D01*
X010426Y031377D02*
X000808Y031377D01*
X000808Y031475D02*
X010563Y031475D01*
X009398Y031853D02*
X009333Y031917D01*
X013520Y036991D02*
X002821Y036991D01*
X002919Y036893D02*
X026638Y036893D01*
X026638Y036794D02*
X003018Y036794D01*
X003116Y036696D02*
X026638Y036696D01*
X026638Y036597D02*
X003154Y036597D01*
X003154Y036499D02*
X026638Y036499D01*
X026638Y036400D02*
X003154Y036400D01*
X003154Y036302D02*
X026638Y036302D01*
X026638Y036203D02*
X003154Y036203D01*
X003154Y036105D02*
X026638Y036105D01*
X026638Y036006D02*
X003154Y036006D01*
X003154Y035908D02*
X017646Y035908D01*
X017649Y035909D02*
X017320Y035772D01*
X017068Y035520D01*
X016931Y035191D01*
X016931Y034834D01*
X017068Y034505D01*
X017320Y034252D01*
X017649Y034116D01*
X018006Y034116D01*
X018336Y034252D01*
X018588Y034505D01*
X018602Y034539D01*
X018627Y034527D01*
X018705Y034501D01*
X018778Y034490D01*
X018778Y034962D01*
X018878Y034962D01*
X018878Y034490D01*
X018950Y034501D01*
X019029Y034527D01*
X019053Y034539D01*
X019068Y034505D01*
X019320Y034252D01*
X019649Y034116D01*
X020006Y034116D01*
X020336Y034252D01*
X020588Y034505D01*
X020724Y034834D01*
X020724Y035191D01*
X020588Y035520D01*
X020336Y035772D01*
X020006Y035909D01*
X019649Y035909D01*
X019320Y035772D01*
X019068Y035520D01*
X019053Y035486D01*
X019029Y035498D01*
X018950Y035523D01*
X018878Y035535D01*
X018878Y035062D01*
X018778Y035062D01*
X018778Y035535D01*
X018705Y035523D01*
X018627Y035498D01*
X018602Y035486D01*
X018588Y035520D01*
X018336Y035772D01*
X018006Y035909D01*
X017649Y035909D01*
X017409Y035809D02*
X003154Y035809D01*
X003154Y035711D02*
X017258Y035711D01*
X017160Y035612D02*
X003154Y035612D01*
X003098Y035514D02*
X017065Y035514D01*
X017024Y035415D02*
X002999Y035415D01*
X002901Y035317D02*
X016983Y035317D01*
X016943Y035218D02*
X002802Y035218D01*
X002704Y035120D02*
X016931Y035120D01*
X016931Y035021D02*
X002605Y035021D01*
X002507Y034923D02*
X016931Y034923D01*
X016935Y034824D02*
X002408Y034824D01*
X001274Y034824D02*
X000808Y034824D01*
X000808Y034726D02*
X016976Y034726D01*
X017017Y034627D02*
X000808Y034627D01*
X000808Y034529D02*
X017058Y034529D01*
X017142Y034430D02*
X000808Y034430D01*
X000808Y034332D02*
X017241Y034332D01*
X017367Y034233D02*
X000808Y034233D01*
X000808Y034135D02*
X017604Y034135D01*
X018051Y034135D02*
X019604Y034135D01*
X019367Y034233D02*
X018289Y034233D01*
X018415Y034332D02*
X019241Y034332D01*
X019142Y034430D02*
X018513Y034430D01*
X018598Y034529D02*
X018623Y034529D01*
X018778Y034529D02*
X018878Y034529D01*
X018878Y034627D02*
X018778Y034627D01*
X018778Y034726D02*
X018878Y034726D01*
X018878Y034824D02*
X018778Y034824D01*
X018778Y034923D02*
X018878Y034923D01*
X018878Y035120D02*
X018778Y035120D01*
X018778Y035218D02*
X018878Y035218D01*
X018878Y035317D02*
X018778Y035317D01*
X018778Y035415D02*
X018878Y035415D01*
X018878Y035514D02*
X018778Y035514D01*
X018675Y035514D02*
X018590Y035514D01*
X018496Y035612D02*
X019160Y035612D01*
X019065Y035514D02*
X018981Y035514D01*
X019258Y035711D02*
X018397Y035711D01*
X018247Y035809D02*
X019409Y035809D01*
X019646Y035908D02*
X018009Y035908D01*
X019032Y034529D02*
X019058Y034529D01*
X020051Y034135D02*
X026638Y034135D01*
X026638Y034233D02*
X020289Y034233D01*
X020415Y034332D02*
X026638Y034332D01*
X026638Y034430D02*
X020513Y034430D01*
X020598Y034529D02*
X026638Y034529D01*
X026638Y034627D02*
X020638Y034627D01*
X020679Y034726D02*
X026638Y034726D01*
X026638Y034824D02*
X020720Y034824D01*
X020724Y034923D02*
X026638Y034923D01*
X026638Y035021D02*
X020724Y035021D01*
X020724Y035120D02*
X026638Y035120D01*
X026638Y035218D02*
X020713Y035218D01*
X020672Y035317D02*
X026638Y035317D01*
X026638Y035415D02*
X020631Y035415D01*
X020590Y035514D02*
X026638Y035514D01*
X026638Y035612D02*
X020496Y035612D01*
X020397Y035711D02*
X026638Y035711D01*
X026638Y035809D02*
X020247Y035809D01*
X020009Y035908D02*
X026638Y035908D01*
X026638Y034036D02*
X000808Y034036D01*
X000808Y033938D02*
X026638Y033938D01*
X026638Y033839D02*
X000808Y033839D01*
X000808Y033741D02*
X026638Y033741D01*
X026638Y033642D02*
X000808Y033642D01*
X000808Y033544D02*
X026638Y033544D01*
X026638Y033445D02*
X000808Y033445D01*
X000808Y033347D02*
X026638Y033347D01*
X026638Y033248D02*
X000808Y033248D01*
X000808Y033150D02*
X026638Y033150D01*
X026638Y033051D02*
X000808Y033051D01*
X000808Y032953D02*
X026638Y032953D01*
X026638Y032854D02*
X000808Y032854D01*
X000808Y032756D02*
X026638Y032756D01*
X026638Y032657D02*
X000808Y032657D01*
X000808Y032559D02*
X026638Y032559D01*
X026638Y032460D02*
X000808Y032460D01*
X000808Y032362D02*
X026638Y032362D01*
X026638Y030687D02*
X025766Y030687D01*
X025943Y030589D02*
X026638Y030589D01*
X026638Y030490D02*
X026042Y030490D01*
X026140Y030392D02*
X026638Y030392D01*
X026638Y030293D02*
X026239Y030293D01*
X026337Y030195D02*
X026638Y030195D01*
X026638Y030096D02*
X026436Y030096D01*
X026534Y029998D02*
X026638Y029998D01*
X026633Y029899D02*
X026638Y029899D01*
X024109Y027437D02*
X023104Y027437D01*
X023005Y027535D02*
X024011Y027535D01*
X023912Y027634D02*
X022907Y027634D01*
X022808Y027732D02*
X023814Y027732D01*
X023715Y027831D02*
X022710Y027831D01*
X022611Y027929D02*
X023617Y027929D01*
X023518Y028028D02*
X022513Y028028D01*
X022414Y028126D02*
X023420Y028126D01*
X023321Y028225D02*
X022316Y028225D01*
X022217Y028323D02*
X023223Y028323D01*
X023124Y028422D02*
X022119Y028422D01*
X022020Y028520D02*
X023026Y028520D01*
X022927Y028619D02*
X021922Y028619D01*
X021823Y028717D02*
X022829Y028717D01*
X022730Y028816D02*
X021725Y028816D01*
X021626Y028914D02*
X022632Y028914D01*
X022533Y029013D02*
X021528Y029013D01*
X021429Y029111D02*
X022435Y029111D01*
X022328Y029210D02*
X021331Y029210D01*
X023202Y027338D02*
X024208Y027338D01*
X024306Y027240D02*
X023301Y027240D01*
X023399Y027141D02*
X024405Y027141D01*
X024503Y027043D02*
X023498Y027043D01*
X023596Y026944D02*
X024602Y026944D01*
X024700Y026846D02*
X023695Y026846D01*
X023793Y026747D02*
X024799Y026747D01*
X024866Y026649D02*
X023892Y026649D01*
X023990Y026550D02*
X024866Y026550D01*
X024866Y026452D02*
X024089Y026452D01*
X024187Y026353D02*
X024866Y026353D01*
X024866Y026255D02*
X024286Y026255D01*
X024384Y026156D02*
X024866Y026156D01*
X024866Y026058D02*
X024483Y026058D01*
X024581Y025959D02*
X024866Y025959D01*
X024866Y025861D02*
X024680Y025861D01*
X024778Y025762D02*
X024866Y025762D01*
X023862Y024974D02*
X022981Y024974D01*
X022981Y024876D02*
X023950Y024876D01*
X023950Y024777D02*
X023009Y024777D01*
X023040Y024679D02*
X023950Y024679D01*
X023950Y024580D02*
X023040Y024580D01*
X023040Y024482D02*
X023950Y024482D01*
X023950Y024383D02*
X023017Y024383D01*
X022976Y024285D02*
X023950Y024285D01*
X023950Y024186D02*
X022929Y024186D01*
X022830Y024088D02*
X023950Y024088D01*
X023950Y023989D02*
X022701Y023989D01*
X022981Y025073D02*
X023764Y025073D01*
X023665Y025171D02*
X022981Y025171D01*
X022981Y025270D02*
X023567Y025270D01*
X023468Y025368D02*
X022981Y025368D01*
X022981Y025467D02*
X023370Y025467D01*
X023271Y025565D02*
X022981Y025565D01*
X022981Y025664D02*
X023173Y025664D01*
X023074Y025762D02*
X022981Y025762D01*
X016566Y019339D02*
X016117Y019339D01*
X015949Y019170D01*
X015949Y018466D01*
X015997Y018418D01*
X015992Y018613D02*
X016095Y018716D01*
X016276Y018716D01*
X016307Y018748D01*
X016384Y018748D01*
X016499Y018632D01*
X016564Y018632D01*
X016533Y018663D01*
X016533Y019199D01*
X016525Y019206D01*
X016117Y019206D01*
X016045Y019134D01*
X016045Y018719D01*
X016112Y018786D01*
X016424Y018786D01*
X016458Y018752D01*
X016458Y018736D01*
X016470Y018748D01*
X016470Y019130D01*
X016461Y019139D01*
X016362Y019139D01*
X016336Y019113D01*
X016067Y019113D01*
X016103Y019077D01*
X016103Y018860D01*
X016119Y018844D01*
X016384Y018844D01*
X016429Y018889D01*
X016429Y019005D01*
X016422Y019012D01*
X016422Y019089D01*
X016381Y019048D01*
X016264Y019048D01*
X016264Y018996D01*
X016258Y018996D01*
X016254Y018976D02*
X016264Y018976D01*
X016254Y018976D02*
X016242Y018964D01*
X016391Y018964D01*
X016408Y018981D01*
X016408Y018981D01*
X016343Y018916D01*
X016230Y018916D01*
X016199Y018884D01*
X016199Y019005D01*
X016155Y019048D01*
X016264Y019048D01*
X016009Y019096D02*
X015992Y019079D01*
X015992Y018613D01*
X016290Y018683D02*
X016698Y018275D01*
X016696Y018275D01*
X016696Y018267D01*
X016614Y018349D01*
X016614Y019192D01*
X016537Y019269D01*
X016537Y019305D01*
X016506Y019274D01*
X016122Y019274D01*
X016009Y019161D01*
X016009Y019096D01*
X016566Y019339D02*
X016696Y019209D01*
X016696Y018275D01*
X016698Y018275D02*
X016698Y016080D01*
X011820Y015806D02*
X011780Y015846D01*
X002343Y019064D02*
X002243Y019064D01*
X002243Y019163D02*
X002343Y019163D01*
X002343Y019261D02*
X002243Y019261D01*
X001623Y019754D02*
X000808Y019754D01*
X000808Y019852D02*
X001476Y019852D01*
X001378Y019951D02*
X000808Y019951D01*
X000808Y020049D02*
X001289Y020049D01*
X001248Y020148D02*
X000808Y020148D01*
X000808Y020246D02*
X001207Y020246D01*
X001171Y020345D02*
X000808Y020345D01*
X000808Y020443D02*
X001171Y020443D01*
X001171Y020542D02*
X000808Y020542D01*
X000808Y020640D02*
X001171Y020640D01*
X001203Y020739D02*
X000808Y020739D01*
X000808Y020837D02*
X001244Y020837D01*
X001284Y020936D02*
X000808Y020936D01*
X000808Y021034D02*
X001366Y021034D01*
X001465Y021133D02*
X000808Y021133D01*
X000754Y022273D02*
X001780Y023298D01*
X001571Y019655D02*
X000808Y019655D01*
X000808Y019557D02*
X001547Y019557D01*
X001241Y018079D02*
X000808Y018079D01*
X000808Y017981D02*
X001142Y017981D01*
X001044Y017882D02*
X000808Y017882D01*
X000808Y017784D02*
X000945Y017784D01*
X000847Y017685D02*
X000808Y017685D01*
X000808Y028619D02*
X000861Y028619D01*
X000808Y028717D02*
X000960Y028717D01*
X001058Y028816D02*
X000808Y028816D01*
X000808Y028914D02*
X001157Y028914D01*
X001255Y029013D02*
X000808Y029013D01*
X000808Y029111D02*
X001407Y029111D01*
X001620Y029210D02*
X000808Y029210D01*
X000808Y029308D02*
X001814Y029308D01*
X001176Y034923D02*
X000808Y034923D01*
X000808Y035021D02*
X001077Y035021D01*
X000979Y035120D02*
X000808Y035120D01*
X000808Y035218D02*
X000880Y035218D01*
D22*
X001657Y028562D02*
X002097Y028562D01*
X002117Y028543D01*
X001657Y028562D02*
X001031Y027937D01*
X001031Y025158D01*
X002320Y023869D01*
X005020Y023869D01*
X003461Y024268D02*
X006971Y024268D01*
X008390Y022849D01*
X009338Y021909D02*
X010329Y022900D01*
X010329Y023457D01*
X010323Y023463D01*
X009338Y021909D02*
X005637Y021909D01*
X003726Y019998D01*
X003726Y012537D01*
X003056Y011868D01*
X002409Y011868D01*
X002409Y010868D02*
X003278Y010868D01*
X004225Y011814D01*
X004225Y019766D01*
X005933Y021475D01*
X009381Y021475D01*
X009400Y020755D02*
X006666Y020755D01*
X005231Y019321D01*
X005231Y010522D01*
X003578Y008868D01*
X002409Y008868D01*
X002409Y009868D02*
X003496Y009868D01*
X004719Y011091D01*
X004719Y019535D01*
X006285Y021101D01*
X010113Y021101D01*
X010012Y019081D02*
X009171Y019081D01*
X008587Y018498D01*
X008587Y016623D01*
X009185Y016025D01*
X012814Y016025D01*
X012814Y015365D01*
X012371Y015351D01*
X011511Y015351D01*
X010653Y016370D02*
X010641Y016426D01*
X010653Y016370D02*
X010641Y017436D01*
X009596Y017449D02*
X009608Y016438D01*
X009596Y016426D01*
X009599Y014564D02*
X009599Y014074D01*
X012814Y016025D02*
X015084Y016025D01*
X016265Y017206D01*
X016265Y018612D01*
X018051Y018787D02*
X018054Y018784D01*
X013006Y022075D02*
X013006Y022842D01*
X012981Y022868D01*
X013006Y022075D02*
X010012Y019081D01*
X003461Y024268D02*
X002826Y024903D01*
X002826Y026236D01*
X002500Y026563D01*
X002136Y026563D01*
X002117Y026543D01*
X008428Y031917D02*
X008582Y031917D01*
X008582Y029780D01*
X008582Y028992D02*
X008582Y028329D01*
X009216Y027695D01*
X010606Y027695D01*
X010974Y028063D01*
X011299Y028388D01*
X020144Y028388D01*
X022379Y026154D01*
X022379Y024571D01*
X024553Y025136D02*
X020889Y028800D01*
X010608Y028800D01*
X010000Y028192D01*
X010088Y030187D02*
X010838Y030937D01*
X023286Y030937D01*
X026462Y027761D01*
X026462Y014435D01*
X024274Y012246D01*
X024274Y006235D01*
X023033Y004994D01*
X007212Y004994D01*
X006406Y005801D01*
X024553Y014924D02*
X024553Y025136D01*
X027997Y022128D02*
X030203Y022141D01*
X030733Y022670D01*
X030004Y022668D02*
X030004Y025297D01*
X028877Y021465D02*
X028519Y021041D01*
X027157Y021041D01*
X018339Y023904D02*
X018329Y023915D01*
X030410Y034801D02*
X030539Y034672D01*
X031839Y034672D01*
X032795Y033716D01*
X032795Y029892D01*
X032907Y029780D01*
X033174Y029780D01*
X033183Y029789D01*
X033183Y033914D01*
X031960Y035137D01*
X030711Y035137D01*
X030582Y035008D01*
X031696Y035008D01*
X031692Y035004D01*
X031692Y034869D01*
X031585Y034762D01*
X031486Y034706D02*
X032528Y033664D01*
X032528Y029755D01*
X032588Y029694D01*
X033243Y029694D01*
X033303Y029755D01*
X033303Y033966D01*
X032054Y035214D01*
X030633Y035214D01*
X030410Y034990D01*
X030410Y034801D01*
X030582Y034706D02*
X031486Y034706D01*
X031641Y034914D02*
X031776Y034914D01*
X032977Y033713D01*
X032977Y029865D01*
X033029Y029813D01*
X033017Y029838D02*
X032997Y029838D01*
X032907Y029928D01*
X032907Y033648D01*
X031641Y034914D01*
X031696Y035008D02*
X031874Y035008D01*
X033088Y033793D01*
X033088Y029908D01*
X033017Y029838D01*
D23*
X030004Y025297D03*
X030004Y022668D03*
X022379Y024571D03*
X017527Y023251D03*
X016130Y022870D03*
X013638Y025269D03*
X013981Y026241D03*
X013558Y026595D03*
X014774Y025971D03*
X016130Y026331D03*
X012410Y027557D03*
X010974Y028063D03*
X010000Y028192D03*
X010003Y026199D03*
X009531Y026199D03*
X010395Y025873D03*
X010837Y025883D03*
X011162Y026186D03*
X011778Y024938D03*
X010323Y023463D03*
X009112Y024032D03*
X008390Y022849D03*
X007046Y022280D03*
X005020Y023869D03*
X003687Y024741D03*
X004172Y026018D03*
X004233Y027436D03*
X005435Y028447D03*
X007655Y026927D03*
X006806Y025555D03*
X009381Y021475D03*
X009400Y020755D03*
X010113Y021101D03*
X011210Y021640D03*
X011781Y021739D03*
X007862Y017993D03*
X009596Y016426D03*
X010641Y016426D03*
X011522Y016426D03*
X012384Y016421D03*
X013257Y016433D03*
X014118Y016426D03*
X009599Y014074D03*
X006963Y014928D03*
X005911Y015617D03*
X005746Y016594D03*
X024553Y014924D03*
D24*
X014104Y014564D02*
X014116Y012616D01*
X014109Y009467D01*
X013242Y009467D02*
X013254Y012616D01*
X013242Y014564D01*
X013242Y015351D02*
X012371Y015351D01*
X012371Y014564D02*
X012383Y012616D01*
X012376Y009467D01*
X011510Y009467D02*
X011524Y012616D01*
X011511Y014564D01*
X013242Y015351D02*
X014104Y015351D01*
X031804Y032899D02*
X031804Y032901D01*
X031806Y032902D01*
X031807Y032902D01*
D25*
X031804Y032899D02*
X031804Y018246D01*
X025639Y014833D02*
X025639Y026999D01*
X022693Y029945D01*
X025639Y014833D02*
X024596Y013790D01*
X021297Y013790D01*
X018339Y013790D01*
X017508Y013790D01*
X016362Y013790D01*
X015830Y013259D01*
X015830Y012627D01*
X015841Y009467D01*
X017573Y009467D02*
X017573Y013726D01*
X017573Y011435D02*
X017574Y008285D01*
X021402Y012209D02*
X021402Y013685D01*
D26*
X014118Y016426D02*
X014118Y018724D01*
X017031Y021637D01*
X017031Y026557D01*
X015841Y027747D01*
X012600Y027747D01*
X012410Y027557D01*
X011856Y028052D02*
X010003Y026199D01*
X010395Y025873D02*
X010395Y025777D01*
X010590Y025583D01*
X011990Y025583D01*
X013348Y026941D01*
X014841Y026941D01*
X015175Y026607D01*
X015175Y021833D01*
X011522Y018180D01*
X011522Y016426D01*
X012384Y016421D02*
X012384Y018558D01*
X015565Y021738D01*
X015565Y026659D01*
X015012Y027212D01*
X013163Y027212D01*
X011834Y025883D01*
X010837Y025883D01*
X011162Y026186D02*
X011698Y026188D01*
X012983Y027473D01*
X015652Y027473D01*
X016688Y026436D01*
X016688Y021796D01*
X013257Y018364D01*
X013257Y016433D01*
X010089Y020046D02*
X011777Y021733D01*
X011210Y021640D02*
X009906Y020336D01*
X006921Y020336D01*
X005746Y019161D01*
X005746Y016594D01*
X006963Y014928D02*
X006963Y018452D01*
X008557Y020046D01*
X010089Y020046D01*
X008681Y022274D02*
X009116Y022709D01*
X009116Y024028D01*
X009112Y024032D01*
X008681Y022274D02*
X007046Y022280D01*
X006806Y025555D02*
X006342Y026018D01*
X004172Y026018D01*
X003687Y024741D02*
X003819Y024608D01*
X013711Y024608D01*
X014080Y024977D01*
X014080Y025491D01*
X013558Y026013D01*
X013558Y026595D01*
X011856Y028052D02*
X016140Y028052D01*
X017527Y026664D01*
X017527Y023251D01*
D27*
X001841Y016823D03*
X001845Y005454D03*
X001841Y036114D03*
X034830Y036114D03*
X034830Y016823D03*
X034833Y005454D03*
D28*
X031804Y018246D03*
X031807Y032473D03*
X031807Y032901D03*
D29*
X023402Y010209D02*
X021402Y010209D01*
X021402Y009209D02*
X023402Y009209D01*
X023402Y008209D02*
X021402Y008209D01*
M02*
