G75*
G70*
%OFA0B0*%
%FSLAX24Y24*%
%IPPOS*%
%LPD*%
%AMOC8*
5,1,8,0,0,1.08239X$1,22.5*
%
%ADD10C,0.0040*%
%ADD11R,0.2283X0.2441*%
%ADD12R,0.0630X0.1181*%
%ADD13R,0.0630X0.1378*%
%ADD14R,0.0984X0.1378*%
%ADD15R,0.0551X0.0320*%
%ADD16C,0.0600*%
%ADD17R,0.0350X0.0630*%
%ADD18OC8,0.0520*%
%ADD19R,0.0320X0.0551*%
%ADD20R,0.0669X0.0118*%
%ADD21R,0.0118X0.0669*%
%ADD22C,0.0600*%
%ADD23R,0.0394X0.0177*%
%ADD24R,0.0827X0.0827*%
%ADD25R,0.2441X0.2283*%
%ADD26R,0.0906X0.0630*%
%ADD27R,0.0472X0.0787*%
%ADD28R,0.0197X0.0394*%
%ADD29C,0.0594*%
%ADD30R,0.0197X0.0787*%
%ADD31R,0.0866X0.0236*%
%ADD32C,0.0554*%
%ADD33R,0.0315X0.0354*%
%ADD34R,0.0630X0.0197*%
%ADD35C,0.0748*%
%ADD36R,0.0984X0.0394*%
%ADD37R,0.0394X0.0984*%
%ADD38R,0.0669X0.0394*%
%ADD39C,0.0585*%
%ADD40C,0.0100*%
%ADD41C,0.0320*%
%ADD42C,0.0160*%
%ADD43C,0.0315*%
%ADD44C,0.0394*%
%ADD45C,0.0240*%
%ADD46C,0.0357*%
%ADD47C,0.0120*%
%ADD48C,0.0278*%
%ADD49OC8,0.1581*%
%ADD50C,0.0177*%
%ADD51C,0.0236*%
%ADD52C,0.0500*%
%ADD53C,0.0197*%
%ADD54C,0.0396*%
D10*
X003784Y036464D02*
X004015Y036464D01*
X004091Y036541D01*
X004091Y036695D01*
X004015Y036771D01*
X003784Y036771D01*
X003784Y036925D02*
X003784Y036464D01*
X004245Y036541D02*
X004245Y036771D01*
X004245Y036541D02*
X004321Y036464D01*
X004552Y036464D01*
X004552Y036388D02*
X004475Y036311D01*
X004398Y036311D01*
X004552Y036388D02*
X004552Y036771D01*
X004705Y036388D02*
X005012Y036388D01*
X005166Y036464D02*
X005166Y036771D01*
X005319Y036925D01*
X005472Y036771D01*
X005472Y036464D01*
X005626Y036541D02*
X005703Y036464D01*
X005933Y036464D01*
X005933Y036388D02*
X005933Y036771D01*
X005703Y036771D01*
X005626Y036695D01*
X005626Y036541D01*
X005472Y036695D02*
X005166Y036695D01*
X005779Y036311D02*
X005856Y036311D01*
X005933Y036388D01*
X006086Y036541D02*
X006086Y036771D01*
X006086Y036541D02*
X006163Y036464D01*
X006393Y036464D01*
X006393Y036771D01*
X006547Y036695D02*
X006623Y036771D01*
X006854Y036771D01*
X006777Y036618D02*
X006623Y036618D01*
X006547Y036695D01*
X006547Y036464D02*
X006777Y036464D01*
X006854Y036541D01*
X006777Y036618D01*
D11*
X007699Y034597D03*
X007699Y034597D03*
X029683Y031872D03*
X029683Y031872D03*
D12*
X030581Y029045D03*
X030581Y029045D03*
X028785Y029045D03*
X028785Y029045D03*
X008596Y031771D03*
X008596Y031771D03*
X006801Y031771D03*
X006801Y031771D03*
D13*
X004843Y031765D03*
X004843Y031765D03*
X004843Y033891D03*
X004843Y033891D03*
X011109Y033891D03*
X011109Y033891D03*
X011109Y031765D03*
X011109Y031765D03*
X033919Y032792D03*
X033919Y032792D03*
X033919Y030666D03*
X033919Y030666D03*
D14*
X033885Y028858D03*
X033885Y028858D03*
X033885Y026299D03*
X033885Y026299D03*
X014440Y031548D03*
X014440Y031548D03*
X014440Y034107D03*
X014440Y034107D03*
D15*
X015641Y034985D03*
X015641Y034985D03*
X015641Y035772D03*
X015641Y035772D03*
X010093Y029780D03*
X010093Y029780D03*
X010093Y028992D03*
X010093Y028992D03*
X013976Y028891D03*
X013976Y028891D03*
X013976Y028104D03*
X013976Y028104D03*
X014893Y028100D03*
X014893Y028100D03*
X014893Y028888D03*
X014893Y028888D03*
X016025Y028019D03*
X016025Y028019D03*
X016025Y027231D03*
X016025Y027231D03*
X015811Y022655D03*
X015811Y022655D03*
X015811Y021868D03*
X015811Y021868D03*
X014619Y021867D03*
X014619Y021867D03*
X014619Y022654D03*
X014619Y022654D03*
X017547Y022358D03*
X017547Y022358D03*
X017547Y021571D03*
X017547Y021571D03*
X019891Y021571D03*
X019891Y021571D03*
X019891Y022358D03*
X019891Y022358D03*
X021842Y024565D03*
X021842Y024565D03*
X021842Y025352D03*
X021842Y025352D03*
X023202Y025353D03*
X023202Y025353D03*
X023202Y024566D03*
X023202Y024566D03*
X024876Y024566D03*
X024876Y024566D03*
X024876Y025353D03*
X024876Y025353D03*
X025806Y025353D03*
X025806Y025353D03*
X025806Y024566D03*
X025806Y024566D03*
X028776Y027033D03*
X028776Y027033D03*
X028776Y027820D03*
X028776Y027820D03*
X030738Y024454D03*
X030738Y024454D03*
X030738Y023666D03*
X030738Y023666D03*
X031644Y023666D03*
X031644Y023666D03*
X031644Y024454D03*
X031644Y024454D03*
X032650Y024454D03*
X032650Y024454D03*
X032650Y023666D03*
X032650Y023666D03*
X033537Y023666D03*
X033537Y023666D03*
X033537Y024454D03*
X033537Y024454D03*
X031125Y021500D03*
X031125Y021500D03*
X031125Y020713D03*
X031125Y020713D03*
X030256Y020713D03*
X030256Y020713D03*
X030256Y021500D03*
X030256Y021500D03*
X024094Y030413D03*
X024094Y030413D03*
X024094Y031201D03*
X024094Y031201D03*
X032187Y033658D03*
X032187Y033658D03*
X032187Y034445D03*
X032187Y034445D03*
X015428Y018893D03*
X015428Y018893D03*
X015428Y018106D03*
X015428Y018106D03*
X015428Y017200D03*
X015428Y017200D03*
X015428Y016413D03*
X015428Y016413D03*
X014959Y015351D03*
X014959Y015351D03*
X014959Y014564D03*
X014959Y014564D03*
X014104Y014564D03*
X014104Y014564D03*
X014104Y015351D03*
X014104Y015351D03*
X013242Y015351D03*
X013242Y015351D03*
X013242Y014564D03*
X013242Y014564D03*
X012371Y014564D03*
X012371Y014564D03*
X012371Y015351D03*
X012371Y015351D03*
X011511Y015351D03*
X011511Y015351D03*
X011511Y014564D03*
X011511Y014564D03*
X010643Y014564D03*
X010643Y014564D03*
X010643Y015351D03*
X010643Y015351D03*
X009599Y015351D03*
X009599Y015351D03*
X009599Y014564D03*
X009599Y014564D03*
X007862Y016765D03*
X007862Y016765D03*
X007862Y017553D03*
X007862Y017553D03*
X009596Y017603D03*
X009596Y017603D03*
X009596Y018391D03*
X009596Y018391D03*
X010641Y018391D03*
X010641Y018391D03*
X010641Y017603D03*
X010641Y017603D03*
X011526Y017603D03*
X011526Y017603D03*
X011526Y018391D03*
X011526Y018391D03*
X012384Y018391D03*
X012384Y018391D03*
X012384Y017603D03*
X012384Y017603D03*
X013260Y017603D03*
X013260Y017603D03*
X013260Y018391D03*
X013260Y018391D03*
X014122Y018391D03*
X014122Y018391D03*
X014122Y017603D03*
X014122Y017603D03*
X017547Y017200D03*
X017547Y017200D03*
X017547Y016413D03*
X017547Y016413D03*
X019891Y016413D03*
X019891Y016413D03*
X019891Y017200D03*
X019891Y017200D03*
X006233Y021939D03*
X006233Y021939D03*
X006233Y022726D03*
X006233Y022726D03*
X005137Y022726D03*
X005137Y022726D03*
X005137Y021939D03*
X005137Y021939D03*
X003352Y021939D03*
X003352Y021939D03*
X003352Y022726D03*
X003352Y022726D03*
X002296Y023216D03*
X002296Y023216D03*
X002296Y024004D03*
X002296Y024004D03*
X001381Y024004D03*
X001381Y024004D03*
X001381Y023216D03*
X001381Y023216D03*
X002937Y032434D03*
X002937Y032434D03*
X002937Y033221D03*
X002937Y033221D03*
D16*
X002117Y028543D03*
X002117Y027543D03*
X002117Y026543D03*
X002117Y025543D03*
D17*
X015264Y025680D03*
X015264Y025680D03*
X016129Y025680D03*
X016129Y025680D03*
D18*
X006616Y011539D03*
X006616Y008539D03*
X006406Y005801D03*
X005406Y005801D03*
D19*
X005352Y018042D03*
X005352Y018042D03*
X006140Y018042D03*
X006140Y018042D03*
X006203Y025528D03*
X006203Y025528D03*
X005416Y025528D03*
X005416Y025528D03*
X007803Y028994D03*
X007803Y028994D03*
X008590Y028994D03*
X008590Y028994D03*
X008590Y029952D03*
X008590Y029952D03*
X007803Y029952D03*
X007803Y029952D03*
X011202Y029159D03*
X011202Y029159D03*
X011990Y029159D03*
X011990Y029159D03*
X015302Y024829D03*
X015302Y024829D03*
X016089Y024829D03*
X016089Y024829D03*
X016089Y024004D03*
X016089Y024004D03*
X015302Y024004D03*
X015302Y024004D03*
X020307Y023951D03*
X020307Y023951D03*
X021095Y023951D03*
X021095Y023951D03*
X021095Y018559D03*
X021095Y018559D03*
X020307Y018559D03*
X020307Y018559D03*
X024554Y013104D03*
X024554Y013104D03*
X025342Y013104D03*
X025342Y013104D03*
X025342Y011825D03*
X025342Y011825D03*
X024554Y011825D03*
X024554Y011825D03*
X029635Y016858D03*
X029635Y016858D03*
X030422Y016858D03*
X030422Y016858D03*
X031603Y016587D03*
X031603Y016587D03*
X032390Y016587D03*
X032390Y016587D03*
D20*
X012662Y023476D03*
X012662Y023476D03*
X012662Y023673D03*
X012662Y023673D03*
X012662Y023870D03*
X012662Y023870D03*
X012662Y024066D03*
X012662Y024066D03*
X012662Y024263D03*
X012662Y024263D03*
X012662Y024460D03*
X012662Y024460D03*
X012662Y024657D03*
X012662Y024657D03*
X012662Y024854D03*
X012662Y024854D03*
X012662Y025051D03*
X012662Y025051D03*
X012662Y025248D03*
X012662Y025248D03*
X012662Y025444D03*
X012662Y025444D03*
X012662Y025641D03*
X012662Y025641D03*
X012662Y025838D03*
X012662Y025838D03*
X012662Y026035D03*
X012662Y026035D03*
X012662Y026232D03*
X012662Y026232D03*
X012662Y026429D03*
X012662Y026429D03*
X008173Y026429D03*
X008173Y026429D03*
X008173Y026232D03*
X008173Y026232D03*
X008173Y026035D03*
X008173Y026035D03*
X008173Y025838D03*
X008173Y025838D03*
X008173Y025641D03*
X008173Y025641D03*
X008173Y025444D03*
X008173Y025444D03*
X008173Y025248D03*
X008173Y025248D03*
X008173Y025051D03*
X008173Y025051D03*
X008173Y024854D03*
X008173Y024854D03*
X008173Y024657D03*
X008173Y024657D03*
X008173Y024460D03*
X008173Y024460D03*
X008173Y024263D03*
X008173Y024263D03*
X008173Y024066D03*
X008173Y024066D03*
X008173Y023870D03*
X008173Y023870D03*
X008173Y023673D03*
X008173Y023673D03*
X008173Y023476D03*
X008173Y023476D03*
D21*
X008941Y022708D03*
X008941Y022708D03*
X009138Y022708D03*
X009138Y022708D03*
X009335Y022708D03*
X009335Y022708D03*
X009532Y022708D03*
X009532Y022708D03*
X009729Y022708D03*
X009729Y022708D03*
X009925Y022708D03*
X009925Y022708D03*
X010122Y022708D03*
X010122Y022708D03*
X010319Y022708D03*
X010319Y022708D03*
X010516Y022708D03*
X010516Y022708D03*
X010713Y022708D03*
X010713Y022708D03*
X010910Y022708D03*
X010910Y022708D03*
X011107Y022708D03*
X011107Y022708D03*
X011303Y022708D03*
X011303Y022708D03*
X011500Y022708D03*
X011500Y022708D03*
X011697Y022708D03*
X011697Y022708D03*
X011894Y022708D03*
X011894Y022708D03*
X011894Y027196D03*
X011894Y027196D03*
X011697Y027196D03*
X011697Y027196D03*
X011500Y027196D03*
X011500Y027196D03*
X011303Y027196D03*
X011303Y027196D03*
X011107Y027196D03*
X011107Y027196D03*
X010910Y027196D03*
X010910Y027196D03*
X010713Y027196D03*
X010713Y027196D03*
X010516Y027196D03*
X010516Y027196D03*
X010319Y027196D03*
X010319Y027196D03*
X010122Y027196D03*
X010122Y027196D03*
X009925Y027196D03*
X009925Y027196D03*
X009729Y027196D03*
X009729Y027196D03*
X009532Y027196D03*
X009532Y027196D03*
X009335Y027196D03*
X009335Y027196D03*
X009138Y027196D03*
X009138Y027196D03*
X008941Y027196D03*
X008941Y027196D03*
D22*
X002593Y020498D02*
X001993Y020498D01*
X001993Y019498D02*
X002593Y019498D01*
X002709Y012868D02*
X002109Y012868D01*
X002109Y011868D02*
X002709Y011868D01*
X002709Y010868D02*
X002109Y010868D01*
X002109Y009868D02*
X002709Y009868D01*
X002709Y008868D02*
X002109Y008868D01*
X002109Y007868D02*
X002709Y007868D01*
D23*
X004777Y026439D03*
X004777Y026439D03*
X004777Y026939D03*
X004777Y026939D03*
X004777Y027439D03*
X004777Y027439D03*
X004777Y027939D03*
X004777Y027939D03*
X007009Y027944D03*
X007009Y027944D03*
X007009Y027444D03*
X007009Y027444D03*
X007009Y026944D03*
X007009Y026944D03*
X007009Y026444D03*
X007009Y026444D03*
D24*
X005923Y027195D03*
X005923Y027195D03*
D25*
X023970Y021965D03*
X023970Y021965D03*
X023970Y016807D03*
X023970Y016807D03*
D26*
X021098Y017708D03*
X021098Y017708D03*
X021096Y015907D03*
X021096Y015907D03*
X021096Y021065D03*
X021096Y021065D03*
X021098Y022866D03*
X021098Y022866D03*
D27*
X021104Y019801D03*
X021104Y019801D03*
X022993Y019801D03*
X022993Y019801D03*
X022993Y014581D03*
X022993Y014581D03*
X021104Y014581D03*
X021104Y014581D03*
D28*
X018874Y015531D03*
X018874Y015531D03*
X018374Y015531D03*
X018374Y015531D03*
X016770Y015531D03*
X016770Y015531D03*
X016270Y015531D03*
X016270Y015531D03*
X016270Y018082D03*
X016270Y018082D03*
X016770Y018082D03*
X016770Y018082D03*
X018374Y018082D03*
X018374Y018082D03*
X018874Y018082D03*
X018874Y018082D03*
X018874Y020689D03*
X018874Y020689D03*
X018374Y020689D03*
X018374Y020689D03*
X018374Y023240D03*
X018374Y023240D03*
X018874Y023240D03*
X018874Y023240D03*
D29*
X022693Y029945D03*
X022696Y031917D03*
X030560Y034854D03*
X030569Y027002D03*
X030170Y009485D03*
X029304Y009485D03*
X028438Y009485D03*
X028439Y008303D03*
X029305Y008303D03*
X030171Y008303D03*
X031037Y008303D03*
X031037Y009485D03*
D30*
X032346Y018248D03*
X032346Y018248D03*
X032846Y018248D03*
X032846Y018248D03*
X033346Y018248D03*
X033346Y018248D03*
X033846Y018248D03*
X033846Y018248D03*
X033846Y022355D03*
X033846Y022355D03*
X033346Y022355D03*
X033346Y022355D03*
X032846Y022355D03*
X032846Y022355D03*
X032346Y022355D03*
X032346Y022355D03*
D31*
X029221Y022169D03*
X029221Y022169D03*
X029221Y022669D03*
X029221Y022669D03*
X029221Y023169D03*
X029221Y023169D03*
X029221Y023669D03*
X029221Y023669D03*
X027174Y023669D03*
X027174Y023669D03*
X027174Y023169D03*
X027174Y023169D03*
X027174Y022669D03*
X027174Y022669D03*
X027174Y022169D03*
X027174Y022169D03*
D32*
X023402Y012209D03*
X021402Y012209D03*
X021402Y010209D03*
X021402Y009209D03*
X021402Y008209D03*
X023402Y008209D03*
X023402Y009209D03*
X023402Y010209D03*
X018439Y009467D03*
X017573Y009467D03*
X016707Y009467D03*
X015841Y009467D03*
X014975Y009467D03*
X014109Y009467D03*
X013242Y009467D03*
X012376Y009467D03*
X011510Y009467D03*
X010644Y009467D03*
X009778Y009467D03*
X008912Y009467D03*
X008912Y008285D03*
X009778Y008285D03*
X010645Y008285D03*
X011511Y008285D03*
X012377Y008285D03*
X013243Y008285D03*
X014109Y008285D03*
X014975Y008285D03*
X015841Y008285D03*
X016708Y008285D03*
X017574Y008285D03*
X018440Y008285D03*
D33*
X024589Y010681D03*
X024589Y010681D03*
X025337Y010681D03*
X025337Y010681D03*
X024963Y009815D03*
X024963Y009815D03*
D34*
X006915Y015436D03*
X006915Y015436D03*
X006915Y015936D03*
X006915Y015936D03*
X006915Y016436D03*
X006915Y016436D03*
X006915Y016936D03*
X006915Y016936D03*
X004679Y016936D03*
X004679Y016936D03*
X004679Y016436D03*
X004679Y016436D03*
X004679Y015936D03*
X004679Y015936D03*
X004679Y015436D03*
X004679Y015436D03*
D35*
X017828Y035012D03*
X018828Y035012D03*
X019828Y035012D03*
D36*
X028429Y014601D03*
X028429Y014601D03*
X028429Y013341D03*
X028429Y013341D03*
X028434Y012461D03*
X028434Y012461D03*
X028434Y011201D03*
X028434Y011201D03*
D37*
X029744Y014592D03*
X029744Y014592D03*
X031004Y014592D03*
X031004Y014592D03*
D38*
X028434Y015680D03*
X028434Y015680D03*
X028434Y016861D03*
X028434Y016861D03*
D39*
X025866Y016735D02*
X025860Y016735D01*
X025860Y016741D01*
X025866Y016741D01*
X025866Y016735D01*
X025860Y016735D01*
X025860Y016741D01*
X025866Y016741D01*
X025866Y016735D01*
X025866Y021904D02*
X025860Y021904D01*
X025860Y021910D01*
X025866Y021910D01*
X025866Y021904D01*
X025860Y021904D01*
X025860Y021910D01*
X025866Y021910D01*
X025866Y021904D01*
X022543Y024134D02*
X022537Y024134D01*
X022537Y024140D01*
X022543Y024140D01*
X022543Y024134D01*
X022537Y024134D01*
X022537Y024140D01*
X022543Y024140D01*
X022543Y024134D01*
X014892Y027306D02*
X014886Y027306D01*
X014886Y027312D01*
X014892Y027312D01*
X014892Y027306D01*
X014886Y027306D01*
X014886Y027312D01*
X014892Y027312D01*
X014892Y027306D01*
X013970Y027306D02*
X013964Y027306D01*
X013964Y027312D01*
X013970Y027312D01*
X013970Y027306D01*
X013964Y027306D01*
X013964Y027312D01*
X013970Y027312D01*
X013970Y027306D01*
X014477Y030251D02*
X014483Y030251D01*
X014477Y030251D02*
X014477Y030257D01*
X014483Y030257D01*
X014483Y030251D01*
X014477Y030251D01*
X014477Y030257D01*
X014483Y030257D01*
X014483Y030251D01*
X012686Y035087D02*
X012680Y035087D01*
X012680Y035093D01*
X012686Y035093D01*
X012686Y035087D01*
X012680Y035087D01*
X012680Y035093D01*
X012686Y035093D01*
X012686Y035087D01*
X004856Y035555D02*
X004850Y035555D01*
X004850Y035561D01*
X004856Y035561D01*
X004856Y035555D01*
X004850Y035555D01*
X004850Y035561D01*
X004856Y035561D01*
X004856Y035555D01*
X003726Y027429D02*
X003720Y027429D01*
X003720Y027435D01*
X003726Y027435D01*
X003726Y027429D01*
X003720Y027429D01*
X003720Y027435D01*
X003726Y027435D01*
X003726Y027429D01*
X003330Y023998D02*
X003324Y023998D01*
X003324Y024004D01*
X003330Y024004D01*
X003330Y023998D01*
X003324Y023998D01*
X003324Y024004D01*
X003330Y024004D01*
X003330Y023998D01*
X007913Y019895D02*
X007919Y019895D01*
X007913Y019895D02*
X007913Y019901D01*
X007919Y019901D01*
X007919Y019895D01*
X007913Y019895D01*
X007913Y019901D01*
X007919Y019901D01*
X007919Y019895D01*
X011495Y015934D02*
X011501Y015934D01*
X011495Y015934D02*
X011495Y015940D01*
X011501Y015940D01*
X011501Y015934D01*
X011495Y015934D01*
X011495Y015940D01*
X011501Y015940D01*
X011501Y015934D01*
X012387Y016999D02*
X012393Y016999D01*
X012387Y016999D02*
X012387Y017005D01*
X012393Y017005D01*
X012393Y016999D01*
X012387Y016999D01*
X012387Y017005D01*
X012393Y017005D01*
X012393Y016999D01*
X013231Y015939D02*
X013237Y015939D01*
X013231Y015939D02*
X013231Y015945D01*
X013237Y015945D01*
X013237Y015939D01*
X013231Y015939D01*
X013231Y015945D01*
X013237Y015945D01*
X013237Y015939D01*
X014105Y016977D02*
X014111Y016977D01*
X014105Y016977D02*
X014105Y016983D01*
X014111Y016983D01*
X014111Y016977D01*
X014105Y016977D01*
X014105Y016983D01*
X014111Y016983D01*
X014111Y016977D01*
X012108Y020992D02*
X012102Y020992D01*
X012102Y020998D01*
X012108Y020998D01*
X012108Y020992D01*
X012102Y020992D01*
X012102Y020998D01*
X012108Y020998D01*
X012108Y020992D01*
X006964Y014924D02*
X006958Y014924D01*
X006958Y014930D01*
X006964Y014930D01*
X006964Y014924D01*
X006958Y014924D01*
X006958Y014930D01*
X006964Y014930D01*
X006964Y014924D01*
X008913Y010493D02*
X008919Y010493D01*
X008913Y010493D02*
X008913Y010499D01*
X008919Y010499D01*
X008919Y010493D01*
X008913Y010493D01*
X008913Y010499D01*
X008919Y010499D01*
X008919Y010493D01*
X005842Y009008D02*
X005836Y009008D01*
X005836Y009014D01*
X005842Y009014D01*
X005842Y009008D01*
X005836Y009008D01*
X005836Y009014D01*
X005842Y009014D01*
X005842Y009008D01*
X006409Y007033D02*
X006415Y007033D01*
X006409Y007033D02*
X006409Y007039D01*
X006415Y007039D01*
X006415Y007033D01*
X006409Y007033D01*
X006409Y007039D01*
X006415Y007039D01*
X006415Y007033D01*
X025002Y008884D02*
X025008Y008884D01*
X025002Y008884D02*
X025002Y008890D01*
X025008Y008890D01*
X025008Y008884D01*
X025002Y008884D01*
X025002Y008890D01*
X025008Y008890D01*
X025008Y008884D01*
X031937Y014659D02*
X031943Y014659D01*
X031937Y014659D02*
X031937Y014665D01*
X031943Y014665D01*
X031943Y014659D01*
X031937Y014659D01*
X031937Y014665D01*
X031943Y014665D01*
X031943Y014659D01*
X034732Y025221D02*
X034738Y025221D01*
X034732Y025221D02*
X034732Y025227D01*
X034738Y025227D01*
X034738Y025221D01*
X034732Y025221D01*
X034732Y025227D01*
X034738Y025227D01*
X034738Y025221D01*
X033888Y034153D02*
X033882Y034153D01*
X033882Y034159D01*
X033888Y034159D01*
X033888Y034153D01*
X033882Y034153D01*
X033882Y034159D01*
X033888Y034159D01*
X033888Y034153D01*
X023001Y036672D02*
X022995Y036672D01*
X022995Y036678D01*
X023001Y036678D01*
X023001Y036672D01*
X022995Y036672D01*
X022995Y036678D01*
X023001Y036678D01*
X023001Y036672D01*
D40*
X015376Y004651D02*
X002899Y004651D01*
X003158Y004910D01*
X003158Y005998D01*
X002389Y006767D01*
X001345Y006767D01*
X001416Y006838D01*
X001501Y007044D01*
X001501Y007313D01*
X001643Y007171D01*
X001946Y007045D01*
X002873Y007045D01*
X003175Y007171D01*
X003407Y007402D01*
X003532Y007704D01*
X003532Y008031D01*
X003407Y008334D01*
X003372Y008368D01*
X003407Y008402D01*
X003532Y008704D01*
X003532Y009031D01*
X003407Y009334D01*
X003372Y009368D01*
X003407Y009402D01*
X003532Y009704D01*
X003532Y010031D01*
X003407Y010334D01*
X003372Y010368D01*
X003407Y010402D01*
X003532Y010704D01*
X003532Y011031D01*
X003407Y011334D01*
X003372Y011368D01*
X003407Y011402D01*
X003532Y011704D01*
X003532Y012031D01*
X003407Y012334D01*
X003175Y012565D01*
X003076Y012606D01*
X003094Y012632D01*
X003126Y012695D01*
X003148Y012762D01*
X003157Y012818D01*
X002459Y012818D01*
X002459Y012918D01*
X002359Y012918D01*
X002359Y013318D01*
X002074Y013318D01*
X002046Y013313D01*
X002046Y014929D01*
X001948Y015165D01*
X001604Y015510D01*
X002385Y015510D01*
X003054Y016179D01*
X003054Y013682D01*
X003014Y013585D01*
X003014Y013330D01*
X003112Y013094D01*
X005973Y010233D01*
X005973Y009829D01*
X005674Y009829D01*
X005374Y009705D01*
X005145Y009476D01*
X005021Y009176D01*
X005021Y008846D01*
X005145Y008547D01*
X005374Y008317D01*
X005674Y008193D01*
X005854Y008193D01*
X006210Y007838D01*
X005948Y007730D01*
X005719Y007501D01*
X005595Y007201D01*
X005595Y006871D01*
X005719Y006572D01*
X005770Y006520D01*
X005770Y006271D01*
X005643Y006144D01*
X005576Y006211D01*
X005436Y006211D01*
X005436Y005831D01*
X005376Y005831D01*
X005376Y006211D01*
X005236Y006211D01*
X004996Y005971D01*
X004996Y005831D01*
X005376Y005831D01*
X005376Y005771D01*
X004996Y005771D01*
X004996Y005631D01*
X005236Y005391D01*
X005376Y005391D01*
X005376Y005771D01*
X005436Y005771D01*
X005436Y005391D01*
X005576Y005391D01*
X005643Y005458D01*
X006082Y005019D01*
X006730Y005019D01*
X007188Y005477D01*
X007188Y006125D01*
X007055Y006259D01*
X007982Y006259D01*
X007976Y006240D02*
X007976Y005921D01*
X008059Y005613D01*
X008219Y005337D01*
X008444Y005111D01*
X008720Y004952D01*
X009028Y004869D01*
X009347Y004869D01*
X009655Y004952D01*
X009932Y005111D01*
X010157Y005337D01*
X010317Y005613D01*
X010399Y005921D01*
X010399Y006240D01*
X010317Y006548D01*
X010157Y006824D01*
X009932Y007050D01*
X009655Y007209D01*
X009347Y007292D01*
X009028Y007292D01*
X008720Y007209D01*
X008444Y007050D01*
X008219Y006824D01*
X008059Y006548D01*
X007976Y006240D01*
X007976Y006161D02*
X007153Y006161D01*
X007188Y006062D02*
X007976Y006062D01*
X007976Y005964D02*
X007188Y005964D01*
X007188Y005865D02*
X007991Y005865D01*
X008018Y005767D02*
X007188Y005767D01*
X007188Y005668D02*
X008044Y005668D01*
X008084Y005570D02*
X007188Y005570D01*
X007183Y005471D02*
X008141Y005471D01*
X008198Y005373D02*
X007084Y005373D01*
X006986Y005274D02*
X008281Y005274D01*
X008380Y005176D02*
X006887Y005176D01*
X006789Y005077D02*
X008503Y005077D01*
X008674Y004979D02*
X003158Y004979D01*
X003158Y005077D02*
X006023Y005077D01*
X005925Y005176D02*
X003158Y005176D01*
X003158Y005274D02*
X005826Y005274D01*
X005728Y005373D02*
X003158Y005373D01*
X003158Y005471D02*
X005156Y005471D01*
X005058Y005570D02*
X003158Y005570D01*
X003158Y005668D02*
X004996Y005668D01*
X004996Y005767D02*
X003158Y005767D01*
X003158Y005865D02*
X004996Y005865D01*
X004996Y005964D02*
X003158Y005964D01*
X003093Y006062D02*
X005087Y006062D01*
X005186Y006161D02*
X002995Y006161D01*
X002896Y006259D02*
X005758Y006259D01*
X005770Y006358D02*
X002798Y006358D01*
X002699Y006456D02*
X005770Y006456D01*
X005736Y006555D02*
X002601Y006555D01*
X002502Y006653D02*
X005685Y006653D01*
X005644Y006752D02*
X002404Y006752D01*
X001942Y007047D02*
X001501Y007047D01*
X001501Y007146D02*
X001704Y007146D01*
X001570Y007244D02*
X001501Y007244D01*
X001462Y006949D02*
X005595Y006949D01*
X005595Y007047D02*
X002877Y007047D01*
X003115Y007146D02*
X005595Y007146D01*
X005612Y007244D02*
X003249Y007244D01*
X003347Y007343D02*
X005653Y007343D01*
X005694Y007441D02*
X003423Y007441D01*
X003464Y007540D02*
X005758Y007540D01*
X005856Y007638D02*
X003504Y007638D01*
X003532Y007737D02*
X005964Y007737D01*
X006114Y007934D02*
X003532Y007934D01*
X003531Y008032D02*
X006016Y008032D01*
X005917Y008131D02*
X003491Y008131D01*
X003450Y008229D02*
X005588Y008229D01*
X005364Y008328D02*
X003409Y008328D01*
X003416Y008426D02*
X005266Y008426D01*
X005167Y008525D02*
X003457Y008525D01*
X003498Y008623D02*
X005113Y008623D01*
X005073Y008722D02*
X003532Y008722D01*
X003532Y008820D02*
X005032Y008820D01*
X005021Y008919D02*
X003532Y008919D01*
X003532Y009017D02*
X005021Y009017D01*
X005021Y009116D02*
X003497Y009116D01*
X003456Y009214D02*
X005037Y009214D01*
X005077Y009313D02*
X003415Y009313D01*
X003410Y009411D02*
X005118Y009411D01*
X005179Y009510D02*
X003451Y009510D01*
X003492Y009608D02*
X005277Y009608D01*
X005378Y009707D02*
X003532Y009707D01*
X003532Y009805D02*
X005616Y009805D01*
X005973Y009904D02*
X003532Y009904D01*
X003532Y010002D02*
X005973Y010002D01*
X005973Y010101D02*
X003503Y010101D01*
X003462Y010199D02*
X005973Y010199D01*
X005908Y010298D02*
X003422Y010298D01*
X003401Y010396D02*
X005810Y010396D01*
X005711Y010495D02*
X003445Y010495D01*
X003486Y010593D02*
X005613Y010593D01*
X005514Y010692D02*
X003526Y010692D01*
X003532Y010790D02*
X005416Y010790D01*
X005317Y010889D02*
X003532Y010889D01*
X003532Y010987D02*
X005219Y010987D01*
X005120Y011086D02*
X003509Y011086D01*
X003469Y011184D02*
X005022Y011184D01*
X004923Y011283D02*
X003428Y011283D01*
X003386Y011381D02*
X004825Y011381D01*
X004726Y011480D02*
X003439Y011480D01*
X003479Y011578D02*
X004628Y011578D01*
X004529Y011677D02*
X003520Y011677D01*
X003532Y011775D02*
X004431Y011775D01*
X004332Y011874D02*
X003532Y011874D01*
X003532Y011972D02*
X004234Y011972D01*
X004135Y012071D02*
X003516Y012071D01*
X003475Y012169D02*
X004037Y012169D01*
X003938Y012268D02*
X003434Y012268D01*
X003374Y012366D02*
X003840Y012366D01*
X003741Y012465D02*
X003276Y012465D01*
X003177Y012563D02*
X003643Y012563D01*
X003544Y012662D02*
X003109Y012662D01*
X003147Y012760D02*
X003446Y012760D01*
X003347Y012859D02*
X002459Y012859D01*
X002459Y012918D02*
X003157Y012918D01*
X003148Y012973D01*
X003126Y013041D01*
X003094Y013104D01*
X003053Y013161D01*
X003002Y013211D01*
X002945Y013253D01*
X002882Y013285D01*
X002815Y013307D01*
X002745Y013318D01*
X002459Y013318D01*
X002459Y012918D01*
X002459Y012957D02*
X002359Y012957D01*
X002359Y013056D02*
X002459Y013056D01*
X002459Y013154D02*
X002359Y013154D01*
X002359Y013253D02*
X002459Y013253D01*
X002046Y013351D02*
X003014Y013351D01*
X003014Y013450D02*
X002046Y013450D01*
X002046Y013548D02*
X003014Y013548D01*
X003040Y013647D02*
X002046Y013647D01*
X002046Y013745D02*
X003054Y013745D01*
X003054Y013844D02*
X002046Y013844D01*
X002046Y013942D02*
X003054Y013942D01*
X003054Y014041D02*
X002046Y014041D01*
X002046Y014139D02*
X003054Y014139D01*
X003054Y014238D02*
X002046Y014238D01*
X002046Y014336D02*
X003054Y014336D01*
X003054Y014435D02*
X002046Y014435D01*
X002046Y014533D02*
X003054Y014533D01*
X003054Y014632D02*
X002046Y014632D01*
X002046Y014730D02*
X003054Y014730D01*
X003054Y014829D02*
X002046Y014829D01*
X002046Y014927D02*
X003054Y014927D01*
X003054Y015026D02*
X002006Y015026D01*
X001965Y015124D02*
X003054Y015124D01*
X003054Y015223D02*
X001891Y015223D01*
X001792Y015321D02*
X003054Y015321D01*
X003054Y015420D02*
X001694Y015420D01*
X002394Y015518D02*
X003054Y015518D01*
X003054Y015617D02*
X002492Y015617D01*
X002591Y015715D02*
X003054Y015715D01*
X003054Y015814D02*
X002689Y015814D01*
X002788Y015912D02*
X003054Y015912D01*
X003054Y016011D02*
X002886Y016011D01*
X002985Y016109D02*
X003054Y016109D01*
X003154Y016490D02*
X003154Y017366D01*
X002385Y018136D01*
X001297Y018136D01*
X001293Y018131D01*
X001293Y020039D01*
X001296Y020032D01*
X001527Y019801D01*
X001627Y019759D01*
X001608Y019734D01*
X001576Y019671D01*
X001554Y019603D01*
X001546Y019548D01*
X002243Y019548D01*
X002243Y019448D01*
X001546Y019448D01*
X001554Y019393D01*
X001576Y019325D01*
X001608Y019262D01*
X001650Y019205D01*
X001700Y019155D01*
X001758Y019113D01*
X001821Y019081D01*
X001888Y019059D01*
X001958Y019048D01*
X002243Y019048D01*
X002243Y019448D01*
X002343Y019448D01*
X002343Y019048D01*
X002629Y019048D01*
X002699Y019059D01*
X002766Y019081D01*
X002829Y019113D01*
X002887Y019155D01*
X002937Y019205D01*
X002978Y019262D01*
X003010Y019325D01*
X003032Y019393D01*
X003041Y019448D01*
X002343Y019448D01*
X002343Y019548D01*
X003041Y019548D01*
X003032Y019603D01*
X003010Y019671D01*
X002978Y019734D01*
X002960Y019759D01*
X003059Y019801D01*
X003291Y020032D01*
X003416Y020334D01*
X003416Y020662D01*
X003291Y020964D01*
X003059Y021195D01*
X002987Y021225D01*
X002985Y021659D01*
X003019Y021639D01*
X003057Y021629D01*
X003322Y021629D01*
X003322Y021909D01*
X003382Y021909D01*
X003382Y021629D01*
X003648Y021629D01*
X003686Y021639D01*
X003720Y021659D01*
X003748Y021687D01*
X003768Y021721D01*
X003778Y021759D01*
X003778Y021909D01*
X003382Y021909D01*
X003382Y021969D01*
X003778Y021969D01*
X003778Y022063D01*
X003924Y022123D01*
X004071Y022270D01*
X004150Y022462D01*
X004150Y022990D01*
X004071Y023182D01*
X004035Y023218D01*
X004035Y023570D01*
X004145Y023836D01*
X004145Y024166D01*
X004125Y024214D01*
X004265Y024354D01*
X004369Y024605D01*
X004369Y024723D01*
X005582Y024723D01*
X005598Y024730D01*
X005679Y024730D01*
X005872Y024809D01*
X006018Y024956D01*
X006079Y025102D01*
X006173Y025102D01*
X006173Y025354D01*
X006233Y025209D01*
X006233Y025102D01*
X006323Y025102D01*
X006431Y024994D01*
X006674Y024893D01*
X006937Y024893D01*
X007181Y024994D01*
X007316Y025130D01*
X007316Y024442D01*
X005366Y024442D01*
X005152Y024531D01*
X004889Y024531D01*
X004646Y024430D01*
X004460Y024244D01*
X004359Y024001D01*
X004359Y023738D01*
X004460Y023495D01*
X004608Y023347D01*
X004565Y023329D01*
X004418Y023182D01*
X004339Y022990D01*
X004339Y022462D01*
X004418Y022270D01*
X004565Y022123D01*
X004711Y022063D01*
X004711Y021969D01*
X005107Y021969D01*
X005107Y021909D01*
X005167Y021909D01*
X005167Y021969D01*
X005562Y021969D01*
X005562Y022063D01*
X005685Y022114D01*
X005807Y022063D01*
X005807Y021969D01*
X006203Y021969D01*
X006203Y021909D01*
X006263Y021909D01*
X006263Y021629D01*
X006443Y021629D01*
X006443Y020250D01*
X006535Y020029D01*
X006704Y019859D01*
X007339Y019225D01*
X008181Y018382D01*
X008403Y018291D01*
X009170Y018291D01*
X009170Y018267D01*
X009024Y018206D01*
X008877Y018059D01*
X008798Y017867D01*
X008798Y017340D01*
X008877Y017148D01*
X008953Y017071D01*
X008953Y016604D01*
X008934Y016558D01*
X008934Y016294D01*
X008953Y016248D01*
X008953Y015880D01*
X008880Y015807D01*
X008801Y015615D01*
X008801Y015087D01*
X008854Y014957D01*
X008801Y014828D01*
X008801Y014300D01*
X008880Y014108D01*
X008937Y014051D01*
X008937Y013943D01*
X009038Y013700D01*
X009224Y013514D01*
X009439Y013425D01*
X009639Y013224D01*
X009639Y012203D01*
X008545Y013298D01*
X008545Y016273D01*
X008581Y016309D01*
X008660Y016501D01*
X008660Y017029D01*
X008581Y017221D01*
X008434Y017368D01*
X008288Y017428D01*
X008288Y017523D01*
X007892Y017523D01*
X007892Y017583D01*
X007832Y017583D01*
X007832Y017863D01*
X007567Y017863D01*
X007529Y017852D01*
X007495Y017833D01*
X007467Y017805D01*
X007447Y017770D01*
X007437Y017732D01*
X007437Y017583D01*
X007832Y017583D01*
X007832Y017523D01*
X007437Y017523D01*
X007437Y017514D01*
X007334Y017557D01*
X006496Y017557D01*
X006452Y017538D01*
X005984Y017538D01*
X006016Y017616D01*
X006110Y017616D01*
X006110Y018012D01*
X006170Y018012D01*
X006170Y018072D01*
X006110Y018072D01*
X006110Y018467D01*
X006016Y018467D01*
X005955Y018613D01*
X005808Y018760D01*
X005616Y018840D01*
X005088Y018840D01*
X004896Y018760D01*
X004749Y018613D01*
X004670Y018421D01*
X004670Y017662D01*
X004714Y017557D01*
X004260Y017557D01*
X004068Y017477D01*
X003921Y017330D01*
X003842Y017138D01*
X003842Y017038D01*
X003832Y017038D01*
X003610Y016947D01*
X003316Y016652D01*
X003154Y016490D01*
X003154Y016503D02*
X003167Y016503D01*
X003154Y016602D02*
X003265Y016602D01*
X003364Y016700D02*
X003154Y016700D01*
X003154Y016799D02*
X003462Y016799D01*
X003561Y016897D02*
X003154Y016897D01*
X003154Y016996D02*
X003729Y016996D01*
X003842Y017094D02*
X003154Y017094D01*
X003154Y017193D02*
X003864Y017193D01*
X003905Y017291D02*
X003154Y017291D01*
X003131Y017390D02*
X003981Y017390D01*
X004094Y017488D02*
X003033Y017488D01*
X002934Y017587D02*
X004701Y017587D01*
X004670Y017685D02*
X002836Y017685D01*
X002737Y017784D02*
X004670Y017784D01*
X004670Y017882D02*
X002639Y017882D01*
X002540Y017981D02*
X004670Y017981D01*
X004670Y018079D02*
X002442Y018079D01*
X002343Y019064D02*
X002243Y019064D01*
X002243Y019163D02*
X002343Y019163D01*
X002343Y019261D02*
X002243Y019261D01*
X002243Y019360D02*
X002343Y019360D01*
X002343Y019458D02*
X007106Y019458D01*
X007204Y019360D02*
X003022Y019360D01*
X002977Y019261D02*
X007303Y019261D01*
X007401Y019163D02*
X002894Y019163D01*
X002714Y019064D02*
X007500Y019064D01*
X007598Y018966D02*
X001293Y018966D01*
X001293Y019064D02*
X001872Y019064D01*
X001692Y019163D02*
X001293Y019163D01*
X001293Y019261D02*
X001609Y019261D01*
X001565Y019360D02*
X001293Y019360D01*
X001293Y019458D02*
X002243Y019458D01*
X001623Y019754D02*
X001293Y019754D01*
X001293Y019852D02*
X001476Y019852D01*
X001378Y019951D02*
X001293Y019951D01*
X001293Y019655D02*
X001571Y019655D01*
X001547Y019557D02*
X001293Y019557D01*
X001293Y018867D02*
X007697Y018867D01*
X007795Y018769D02*
X005788Y018769D01*
X005898Y018670D02*
X007894Y018670D01*
X007992Y018572D02*
X005972Y018572D01*
X006013Y018473D02*
X008091Y018473D01*
X008200Y018375D02*
X006440Y018375D01*
X006420Y018409D01*
X006392Y018437D01*
X006358Y018457D01*
X006320Y018467D01*
X006170Y018467D01*
X006170Y018072D01*
X006450Y018072D01*
X006450Y018337D01*
X006440Y018375D01*
X006450Y018276D02*
X009170Y018276D01*
X008995Y018178D02*
X006450Y018178D01*
X006450Y018079D02*
X008897Y018079D01*
X008844Y017981D02*
X006450Y017981D01*
X006450Y018012D02*
X006170Y018012D01*
X006170Y017616D01*
X006320Y017616D01*
X006358Y017626D01*
X006392Y017646D01*
X006420Y017674D01*
X006440Y017708D01*
X006450Y017746D01*
X006450Y018012D01*
X006450Y017882D02*
X008804Y017882D01*
X008798Y017784D02*
X008270Y017784D01*
X008278Y017770D02*
X008258Y017805D01*
X008230Y017833D01*
X008196Y017852D01*
X008158Y017863D01*
X007892Y017863D01*
X007892Y017583D01*
X008288Y017583D01*
X008288Y017732D01*
X008278Y017770D01*
X008288Y017685D02*
X008798Y017685D01*
X008798Y017587D02*
X008288Y017587D01*
X008288Y017488D02*
X008798Y017488D01*
X008798Y017390D02*
X008382Y017390D01*
X008511Y017291D02*
X008818Y017291D01*
X008858Y017193D02*
X008593Y017193D01*
X008633Y017094D02*
X008931Y017094D01*
X008953Y016996D02*
X008660Y016996D01*
X008660Y016897D02*
X008953Y016897D01*
X008953Y016799D02*
X008660Y016799D01*
X008660Y016700D02*
X008953Y016700D01*
X008952Y016602D02*
X008660Y016602D01*
X008660Y016503D02*
X008934Y016503D01*
X008934Y016405D02*
X008620Y016405D01*
X008578Y016306D02*
X008934Y016306D01*
X008953Y016208D02*
X008545Y016208D01*
X008545Y016109D02*
X008953Y016109D01*
X008953Y016011D02*
X008545Y016011D01*
X008545Y015912D02*
X008953Y015912D01*
X008887Y015814D02*
X008545Y015814D01*
X008545Y015715D02*
X008842Y015715D01*
X008801Y015617D02*
X008545Y015617D01*
X008545Y015518D02*
X008801Y015518D01*
X008801Y015420D02*
X008545Y015420D01*
X008545Y015321D02*
X008801Y015321D01*
X008801Y015223D02*
X008545Y015223D01*
X008545Y015124D02*
X008801Y015124D01*
X008826Y015026D02*
X008545Y015026D01*
X008545Y014927D02*
X008842Y014927D01*
X008801Y014829D02*
X008545Y014829D01*
X008545Y014730D02*
X008801Y014730D01*
X008801Y014632D02*
X008545Y014632D01*
X008545Y014533D02*
X008801Y014533D01*
X008801Y014435D02*
X008545Y014435D01*
X008545Y014336D02*
X008801Y014336D01*
X008826Y014238D02*
X008545Y014238D01*
X008545Y014139D02*
X008867Y014139D01*
X008937Y014041D02*
X008545Y014041D01*
X008545Y013942D02*
X008937Y013942D01*
X008978Y013844D02*
X008545Y013844D01*
X008545Y013745D02*
X009019Y013745D01*
X009091Y013647D02*
X008545Y013647D01*
X008545Y013548D02*
X009190Y013548D01*
X009379Y013450D02*
X008545Y013450D01*
X008545Y013351D02*
X009513Y013351D01*
X009611Y013253D02*
X008590Y013253D01*
X008689Y013154D02*
X009639Y013154D01*
X009639Y013056D02*
X008787Y013056D01*
X008886Y012957D02*
X009639Y012957D01*
X009639Y012859D02*
X008984Y012859D01*
X009083Y012760D02*
X009639Y012760D01*
X009639Y012662D02*
X009181Y012662D01*
X009280Y012563D02*
X009639Y012563D01*
X009639Y012465D02*
X009378Y012465D01*
X009477Y012366D02*
X009639Y012366D01*
X009639Y012268D02*
X009575Y012268D01*
X010212Y013461D02*
X010212Y008718D01*
X010645Y008285D01*
X011227Y007737D02*
X014293Y007737D01*
X014293Y007835D02*
X011324Y007835D01*
X011322Y007832D02*
X011346Y007890D01*
X011347Y007889D01*
X011411Y007869D01*
X011472Y007859D01*
X011472Y008247D01*
X011549Y008247D01*
X011549Y007859D01*
X011611Y007869D01*
X011675Y007889D01*
X011735Y007920D01*
X011789Y007959D01*
X011837Y008007D01*
X011876Y008061D01*
X011907Y008121D01*
X011927Y008185D01*
X011937Y008247D01*
X011549Y008247D01*
X011549Y008324D01*
X011937Y008324D01*
X011927Y008385D01*
X011907Y008449D01*
X011876Y008509D01*
X011837Y008564D01*
X011789Y008611D01*
X011735Y008651D01*
X011687Y008675D01*
X011943Y008781D01*
X012200Y008674D01*
X012153Y008651D01*
X012099Y008611D01*
X012051Y008564D01*
X012012Y008509D01*
X011981Y008449D01*
X011960Y008385D01*
X011950Y008324D01*
X012338Y008324D01*
X012338Y008247D01*
X011950Y008247D01*
X011960Y008185D01*
X011981Y008121D01*
X012012Y008061D01*
X012051Y008007D01*
X012099Y007959D01*
X012153Y007920D01*
X012213Y007889D01*
X012277Y007869D01*
X012338Y007859D01*
X012338Y008247D01*
X012415Y008247D01*
X012415Y007859D01*
X012477Y007869D01*
X012541Y007889D01*
X012601Y007920D01*
X012655Y007959D01*
X012703Y008007D01*
X012742Y008061D01*
X012773Y008121D01*
X012794Y008185D01*
X012803Y008247D01*
X012415Y008247D01*
X012415Y008324D01*
X012803Y008324D01*
X012794Y008385D01*
X012773Y008449D01*
X012742Y008509D01*
X012703Y008564D01*
X012655Y008611D01*
X012601Y008651D01*
X012554Y008675D01*
X012809Y008781D01*
X013066Y008674D01*
X013019Y008651D01*
X012965Y008611D01*
X012917Y008564D01*
X012878Y008509D01*
X012847Y008449D01*
X012826Y008385D01*
X012817Y008324D01*
X013204Y008324D01*
X013204Y008247D01*
X012817Y008247D01*
X012826Y008185D01*
X012847Y008121D01*
X012878Y008061D01*
X012917Y008007D01*
X012965Y007959D01*
X013019Y007920D01*
X013079Y007889D01*
X013143Y007869D01*
X013204Y007859D01*
X013204Y008247D01*
X013282Y008247D01*
X013282Y008324D01*
X013669Y008324D01*
X013660Y008385D01*
X013639Y008449D01*
X013608Y008509D01*
X013569Y008564D01*
X013521Y008611D01*
X013467Y008651D01*
X013420Y008675D01*
X013676Y008781D01*
X013932Y008674D01*
X013885Y008651D01*
X013831Y008611D01*
X013783Y008564D01*
X013744Y008509D01*
X013713Y008449D01*
X013693Y008385D01*
X013683Y008324D01*
X014071Y008324D01*
X014071Y008247D01*
X014148Y008247D01*
X014148Y007859D01*
X014209Y007869D01*
X014273Y007889D01*
X014274Y007890D01*
X014293Y007843D01*
X014293Y005966D01*
X014295Y005960D01*
X014295Y005878D01*
X014399Y005628D01*
X015376Y004651D01*
X015344Y004683D02*
X002931Y004683D01*
X003029Y004782D02*
X015245Y004782D01*
X015147Y004880D02*
X009388Y004880D01*
X009702Y004979D02*
X015048Y004979D01*
X014950Y005077D02*
X009873Y005077D01*
X009996Y005176D02*
X014851Y005176D01*
X014753Y005274D02*
X010095Y005274D01*
X010178Y005373D02*
X014654Y005373D01*
X014556Y005471D02*
X010235Y005471D01*
X010292Y005570D02*
X014457Y005570D01*
X014382Y005668D02*
X010332Y005668D01*
X010358Y005767D02*
X014341Y005767D01*
X014301Y005865D02*
X010384Y005865D01*
X010399Y005964D02*
X014294Y005964D01*
X014293Y006062D02*
X010399Y006062D01*
X010399Y006161D02*
X014293Y006161D01*
X014293Y006259D02*
X010394Y006259D01*
X010368Y006358D02*
X014293Y006358D01*
X014293Y006456D02*
X010341Y006456D01*
X010313Y006555D02*
X014293Y006555D01*
X014293Y006653D02*
X010256Y006653D01*
X010199Y006752D02*
X014293Y006752D01*
X014293Y006850D02*
X010132Y006850D01*
X010033Y006949D02*
X014293Y006949D01*
X014293Y007047D02*
X009935Y007047D01*
X009766Y007146D02*
X014293Y007146D01*
X014293Y007244D02*
X009526Y007244D01*
X009365Y007607D02*
X009590Y007832D01*
X009614Y007890D01*
X009614Y007889D01*
X009678Y007869D01*
X009740Y007859D01*
X009740Y008247D01*
X009817Y008247D01*
X009817Y007859D01*
X009878Y007869D01*
X009942Y007889D01*
X009943Y007890D01*
X009967Y007832D01*
X010192Y007607D01*
X010486Y007486D01*
X010804Y007486D01*
X011098Y007607D01*
X011322Y007832D01*
X011472Y007934D02*
X011549Y007934D01*
X011549Y008032D02*
X011472Y008032D01*
X011472Y008131D02*
X011549Y008131D01*
X011549Y008229D02*
X011472Y008229D01*
X011753Y007934D02*
X012134Y007934D01*
X012033Y008032D02*
X011855Y008032D01*
X011910Y008131D02*
X011978Y008131D01*
X011953Y008229D02*
X011934Y008229D01*
X011937Y008328D02*
X011951Y008328D01*
X011973Y008426D02*
X011914Y008426D01*
X011865Y008525D02*
X012023Y008525D01*
X012115Y008623D02*
X011773Y008623D01*
X011801Y008722D02*
X012086Y008722D01*
X012338Y008229D02*
X012415Y008229D01*
X012415Y008131D02*
X012338Y008131D01*
X012338Y008032D02*
X012415Y008032D01*
X012415Y007934D02*
X012338Y007934D01*
X012619Y007934D02*
X013000Y007934D01*
X012899Y008032D02*
X012721Y008032D01*
X012776Y008131D02*
X012844Y008131D01*
X012819Y008229D02*
X012800Y008229D01*
X012803Y008328D02*
X012817Y008328D01*
X012840Y008426D02*
X012780Y008426D01*
X012731Y008525D02*
X012889Y008525D01*
X012981Y008623D02*
X012639Y008623D01*
X012667Y008722D02*
X012952Y008722D01*
X013505Y008623D02*
X013847Y008623D01*
X013818Y008722D02*
X013533Y008722D01*
X013597Y008525D02*
X013755Y008525D01*
X013706Y008426D02*
X013646Y008426D01*
X013669Y008328D02*
X013683Y008328D01*
X013683Y008247D02*
X013693Y008185D01*
X013713Y008121D01*
X013744Y008061D01*
X013783Y008007D01*
X013831Y007959D01*
X013885Y007920D01*
X013945Y007889D01*
X014009Y007869D01*
X014071Y007859D01*
X014071Y008247D01*
X013683Y008247D01*
X013669Y008247D02*
X013282Y008247D01*
X013282Y007859D01*
X013343Y007869D01*
X013407Y007889D01*
X013467Y007920D01*
X013521Y007959D01*
X013569Y008007D01*
X013608Y008061D01*
X013639Y008121D01*
X013660Y008185D01*
X013669Y008247D01*
X013667Y008229D02*
X013686Y008229D01*
X013710Y008131D02*
X013642Y008131D01*
X013587Y008032D02*
X013765Y008032D01*
X013867Y007934D02*
X013486Y007934D01*
X013282Y007934D02*
X013204Y007934D01*
X013204Y008032D02*
X013282Y008032D01*
X013282Y008131D02*
X013204Y008131D01*
X013204Y008229D02*
X013282Y008229D01*
X014071Y008229D02*
X014148Y008229D01*
X014148Y008131D02*
X014071Y008131D01*
X014071Y008032D02*
X014148Y008032D01*
X014148Y007934D02*
X014071Y007934D01*
X014293Y007638D02*
X011128Y007638D01*
X010934Y007540D02*
X014293Y007540D01*
X014293Y007441D02*
X007131Y007441D01*
X007106Y007501D02*
X006877Y007730D01*
X006813Y007756D01*
X006940Y007756D01*
X007398Y008215D01*
X007398Y008863D01*
X007258Y009003D01*
X007258Y010627D01*
X007163Y010856D01*
X007630Y010856D01*
X008099Y010388D01*
X008099Y010331D01*
X008223Y010031D01*
X008229Y010024D01*
X008229Y009909D01*
X008112Y009626D01*
X008112Y009308D01*
X008234Y009014D01*
X008372Y008876D01*
X008234Y008738D01*
X008113Y008444D01*
X008113Y008126D01*
X008234Y007832D01*
X008459Y007607D01*
X008753Y007486D01*
X009071Y007486D01*
X009365Y007607D01*
X009396Y007638D02*
X010161Y007638D01*
X010063Y007737D02*
X009494Y007737D01*
X009591Y007835D02*
X009966Y007835D01*
X009817Y007934D02*
X009740Y007934D01*
X009740Y008032D02*
X009817Y008032D01*
X009817Y008131D02*
X009740Y008131D01*
X009740Y008229D02*
X009817Y008229D01*
X010355Y007540D02*
X009201Y007540D01*
X008850Y007244D02*
X007212Y007244D01*
X007230Y007201D02*
X007106Y007501D01*
X007067Y007540D02*
X008623Y007540D01*
X008429Y007638D02*
X006969Y007638D01*
X006861Y007737D02*
X008330Y007737D01*
X008233Y007835D02*
X007018Y007835D01*
X007117Y007934D02*
X008193Y007934D01*
X008152Y008032D02*
X007215Y008032D01*
X007314Y008131D02*
X008113Y008131D01*
X008113Y008229D02*
X007398Y008229D01*
X007398Y008328D02*
X008113Y008328D01*
X008113Y008426D02*
X007398Y008426D01*
X007398Y008525D02*
X008146Y008525D01*
X008187Y008623D02*
X007398Y008623D01*
X007398Y008722D02*
X008228Y008722D01*
X008316Y008820D02*
X007398Y008820D01*
X007342Y008919D02*
X008329Y008919D01*
X008233Y009017D02*
X007258Y009017D01*
X007258Y009116D02*
X008192Y009116D01*
X008151Y009214D02*
X007258Y009214D01*
X007258Y009313D02*
X008112Y009313D01*
X008112Y009411D02*
X007258Y009411D01*
X007258Y009510D02*
X008112Y009510D01*
X008112Y009608D02*
X007258Y009608D01*
X007258Y009707D02*
X008146Y009707D01*
X008186Y009805D02*
X007258Y009805D01*
X007258Y009904D02*
X008227Y009904D01*
X008229Y010002D02*
X007258Y010002D01*
X007258Y010101D02*
X008194Y010101D01*
X008153Y010199D02*
X007258Y010199D01*
X007258Y010298D02*
X008112Y010298D01*
X008090Y010396D02*
X007258Y010396D01*
X007258Y010495D02*
X007992Y010495D01*
X007893Y010593D02*
X007258Y010593D01*
X007231Y010692D02*
X007795Y010692D01*
X007696Y010790D02*
X007190Y010790D01*
X007040Y012221D02*
X006940Y012321D01*
X006742Y012321D01*
X004599Y014464D01*
X004599Y014815D01*
X005098Y014815D01*
X005142Y014833D01*
X005276Y014833D01*
X005498Y014925D01*
X005694Y015121D01*
X005863Y015291D01*
X005955Y015512D01*
X005955Y015964D01*
X006121Y016033D01*
X006149Y016061D01*
X006157Y016041D01*
X006263Y015936D01*
X006157Y015830D01*
X006078Y015638D01*
X006078Y015233D01*
X006144Y015075D01*
X006144Y014762D01*
X006268Y014462D01*
X006497Y014233D01*
X006796Y014109D01*
X007126Y014109D01*
X007180Y014131D01*
X007180Y012879D01*
X007284Y012629D01*
X007691Y012221D01*
X007040Y012221D01*
X006993Y012268D02*
X007645Y012268D01*
X007546Y012366D02*
X006697Y012366D01*
X006598Y012465D02*
X007448Y012465D01*
X007349Y012563D02*
X006500Y012563D01*
X006401Y012662D02*
X007270Y012662D01*
X007229Y012760D02*
X006303Y012760D01*
X006204Y012859D02*
X007189Y012859D01*
X007180Y012957D02*
X006106Y012957D01*
X006007Y013056D02*
X007180Y013056D01*
X007180Y013154D02*
X005909Y013154D01*
X005810Y013253D02*
X007180Y013253D01*
X007180Y013351D02*
X005712Y013351D01*
X005613Y013450D02*
X007180Y013450D01*
X007180Y013548D02*
X005515Y013548D01*
X005416Y013647D02*
X007180Y013647D01*
X007180Y013745D02*
X005318Y013745D01*
X005219Y013844D02*
X007180Y013844D01*
X007180Y013942D02*
X005121Y013942D01*
X005022Y014041D02*
X007180Y014041D01*
X006724Y014139D02*
X004924Y014139D01*
X004825Y014238D02*
X006492Y014238D01*
X006394Y014336D02*
X004727Y014336D01*
X004628Y014435D02*
X006295Y014435D01*
X006238Y014533D02*
X004599Y014533D01*
X004599Y014632D02*
X006198Y014632D01*
X006157Y014730D02*
X004599Y014730D01*
X005131Y014829D02*
X006144Y014829D01*
X006144Y014927D02*
X005499Y014927D01*
X005598Y015026D02*
X006144Y015026D01*
X006123Y015124D02*
X005696Y015124D01*
X005795Y015223D02*
X006082Y015223D01*
X006078Y015321D02*
X005876Y015321D01*
X005916Y015420D02*
X006078Y015420D01*
X006078Y015518D02*
X005955Y015518D01*
X005955Y015617D02*
X006078Y015617D01*
X006110Y015715D02*
X005955Y015715D01*
X005955Y015814D02*
X006151Y015814D01*
X006239Y015912D02*
X005955Y015912D01*
X006067Y016011D02*
X006188Y016011D01*
X006004Y017587D02*
X007437Y017587D01*
X007437Y017685D02*
X006426Y017685D01*
X006450Y017784D02*
X007455Y017784D01*
X007832Y017784D02*
X007892Y017784D01*
X007892Y017685D02*
X007832Y017685D01*
X007832Y017587D02*
X007892Y017587D01*
X006170Y017685D02*
X006110Y017685D01*
X006110Y017784D02*
X006170Y017784D01*
X006170Y017882D02*
X006110Y017882D01*
X006110Y017981D02*
X006170Y017981D01*
X006170Y018079D02*
X006110Y018079D01*
X006110Y018178D02*
X006170Y018178D01*
X006170Y018276D02*
X006110Y018276D01*
X006110Y018375D02*
X006170Y018375D01*
X004917Y018769D02*
X001293Y018769D01*
X001293Y018670D02*
X004806Y018670D01*
X004732Y018572D02*
X001293Y018572D01*
X001293Y018473D02*
X004691Y018473D01*
X004670Y018375D02*
X001293Y018375D01*
X001293Y018276D02*
X004670Y018276D01*
X004670Y018178D02*
X001293Y018178D01*
X003040Y019557D02*
X007007Y019557D01*
X006909Y019655D02*
X003015Y019655D01*
X002964Y019754D02*
X006810Y019754D01*
X006712Y019852D02*
X003111Y019852D01*
X003209Y019951D02*
X006613Y019951D01*
X006527Y020049D02*
X003298Y020049D01*
X003338Y020148D02*
X006486Y020148D01*
X006445Y020246D02*
X003379Y020246D01*
X003416Y020345D02*
X006443Y020345D01*
X006443Y020443D02*
X003416Y020443D01*
X003416Y020542D02*
X006443Y020542D01*
X006443Y020640D02*
X003416Y020640D01*
X003384Y020739D02*
X006443Y020739D01*
X006443Y020837D02*
X003343Y020837D01*
X003302Y020936D02*
X006443Y020936D01*
X006443Y021034D02*
X003220Y021034D01*
X003122Y021133D02*
X006443Y021133D01*
X006443Y021231D02*
X002987Y021231D01*
X002986Y021330D02*
X006443Y021330D01*
X006443Y021428D02*
X002986Y021428D01*
X002986Y021527D02*
X006443Y021527D01*
X006443Y021625D02*
X002985Y021625D01*
X003322Y021724D02*
X003382Y021724D01*
X003382Y021822D02*
X003322Y021822D01*
X003382Y021921D02*
X005107Y021921D01*
X005107Y021909D02*
X004711Y021909D01*
X004711Y021759D01*
X004722Y021721D01*
X004741Y021687D01*
X004769Y021659D01*
X004803Y021639D01*
X004842Y021629D01*
X005107Y021629D01*
X005107Y021909D01*
X005167Y021909D02*
X005167Y021629D01*
X005432Y021629D01*
X005470Y021639D01*
X005505Y021659D01*
X005533Y021687D01*
X005552Y021721D01*
X005562Y021759D01*
X005562Y021909D01*
X005167Y021909D01*
X005167Y021921D02*
X006203Y021921D01*
X006203Y021909D02*
X005807Y021909D01*
X005807Y021759D01*
X005817Y021721D01*
X005837Y021687D01*
X005865Y021659D01*
X005899Y021639D01*
X005937Y021629D01*
X006203Y021629D01*
X006203Y021909D01*
X006203Y021822D02*
X006263Y021822D01*
X006263Y021724D02*
X006203Y021724D01*
X005817Y021724D02*
X005553Y021724D01*
X005562Y021822D02*
X005807Y021822D01*
X005807Y022019D02*
X005562Y022019D01*
X005167Y021822D02*
X005107Y021822D01*
X005107Y021724D02*
X005167Y021724D01*
X004721Y021724D02*
X003768Y021724D01*
X003778Y021822D02*
X004711Y021822D01*
X004711Y022019D02*
X003778Y022019D01*
X003910Y022118D02*
X004579Y022118D01*
X004473Y022216D02*
X004017Y022216D01*
X004089Y022315D02*
X004400Y022315D01*
X004359Y022413D02*
X004130Y022413D01*
X004150Y022512D02*
X004339Y022512D01*
X004339Y022610D02*
X004150Y022610D01*
X004150Y022709D02*
X004339Y022709D01*
X004339Y022807D02*
X004150Y022807D01*
X004150Y022906D02*
X004339Y022906D01*
X004345Y023004D02*
X004145Y023004D01*
X004104Y023103D02*
X004385Y023103D01*
X004437Y023201D02*
X004052Y023201D01*
X004035Y023300D02*
X004536Y023300D01*
X004556Y023398D02*
X004035Y023398D01*
X004035Y023497D02*
X004459Y023497D01*
X004418Y023595D02*
X004045Y023595D01*
X004086Y023694D02*
X004377Y023694D01*
X004359Y023792D02*
X004127Y023792D01*
X004145Y023891D02*
X004359Y023891D01*
X004359Y023989D02*
X004145Y023989D01*
X004145Y024088D02*
X004395Y024088D01*
X004436Y024186D02*
X004137Y024186D01*
X004196Y024285D02*
X004500Y024285D01*
X004599Y024383D02*
X004277Y024383D01*
X004318Y024482D02*
X004770Y024482D01*
X004359Y024580D02*
X007316Y024580D01*
X007316Y024482D02*
X005271Y024482D01*
X005794Y024777D02*
X007316Y024777D01*
X007316Y024679D02*
X004369Y024679D01*
X005021Y023870D02*
X008173Y023870D01*
X008173Y024066D02*
X009077Y024066D01*
X009112Y024032D01*
X009368Y023544D02*
X009745Y023921D01*
X009852Y023921D01*
X009880Y023948D01*
X009880Y024917D01*
X009928Y024966D01*
X010793Y024966D01*
X010852Y025025D01*
X009793Y025025D01*
X009759Y024990D01*
X009759Y023966D01*
X009783Y023942D01*
X009783Y024910D01*
X009835Y024962D01*
X010766Y024962D01*
X011461Y025657D01*
X011461Y025835D01*
X011454Y025842D01*
X011454Y025758D01*
X010858Y025162D01*
X010858Y025242D01*
X010875Y025258D01*
X010887Y025258D01*
X011403Y025775D01*
X011401Y025775D01*
X010760Y025133D01*
X009700Y025133D01*
X009662Y025172D01*
X010685Y025172D01*
X010724Y025210D01*
X009635Y025210D01*
X008994Y025851D01*
X008925Y025851D01*
X008865Y025791D01*
X008865Y026772D01*
X008855Y026782D01*
X008855Y027142D01*
X008774Y027223D01*
X008774Y027609D01*
X008898Y027733D01*
X008898Y028840D01*
X008771Y028967D01*
X008771Y027670D01*
X008757Y027655D01*
X008757Y027664D01*
X008881Y027788D01*
X008881Y028777D01*
X008809Y028849D01*
X008809Y027750D01*
X008817Y027742D01*
X008817Y028875D01*
X008898Y028955D01*
X008907Y028955D01*
X008941Y028990D01*
X008941Y028994D01*
X008941Y028994D01*
X008941Y029048D01*
X008774Y029215D01*
X008774Y029036D01*
X008785Y029025D01*
X008817Y029025D01*
X008846Y029053D01*
X008843Y029053D01*
X008809Y029088D01*
X008751Y029088D01*
X008662Y029177D01*
X008662Y027240D01*
X008742Y027159D01*
X008742Y028759D01*
X008788Y028806D01*
X008788Y028981D01*
X008760Y029010D01*
X008760Y026791D01*
X008835Y026716D01*
X008835Y025822D01*
X009684Y024973D01*
X009684Y023790D01*
X009303Y023409D01*
X008319Y023409D01*
X008212Y023302D01*
X008000Y023302D01*
X007863Y023165D01*
X007863Y022717D01*
X008274Y022306D01*
X007966Y022306D01*
X007603Y022668D01*
X007472Y022668D01*
X007434Y022706D01*
X006503Y022706D01*
X006482Y022686D01*
X007112Y022686D01*
X007202Y022776D01*
X006676Y022776D01*
X006655Y022755D01*
X007081Y022755D01*
X007164Y022838D01*
X006915Y022838D01*
X006873Y022879D01*
X006873Y022886D01*
X006797Y022962D01*
X006839Y022962D01*
X007274Y023402D01*
X007611Y023402D01*
X007704Y023310D01*
X008021Y023308D01*
X008076Y023308D01*
X008131Y023305D01*
X008146Y023315D01*
X007884Y023315D01*
X007790Y023222D01*
X007790Y022789D01*
X007794Y022786D01*
X007794Y023115D01*
X007569Y023340D01*
X007403Y023340D01*
X007375Y023312D01*
X007327Y023312D01*
X006915Y022900D01*
X006926Y022900D01*
X006926Y022891D01*
X006926Y022900D02*
X007198Y022900D01*
X007230Y022931D01*
X007084Y022931D01*
X007057Y022959D01*
X007067Y022959D01*
X007392Y023284D01*
X007534Y023284D01*
X007728Y023090D01*
X007728Y022904D01*
X007745Y022886D01*
X007745Y023243D01*
X007735Y023253D01*
X007455Y023253D01*
X007416Y023215D01*
X007396Y023215D01*
X007223Y023042D01*
X007628Y023042D01*
X007679Y022990D01*
X007679Y023021D01*
X007520Y023180D01*
X007482Y023180D01*
X007406Y023104D01*
X007371Y023104D01*
X007365Y023097D01*
X007527Y023097D01*
X007538Y023087D01*
X007538Y022734D01*
X008105Y022167D01*
X008360Y022771D02*
X008943Y022771D01*
X008941Y022708D02*
X008941Y022926D01*
X008934Y022933D01*
X008384Y022933D01*
X008390Y022849D01*
X008392Y022851D01*
X008395Y022851D01*
X008401Y022845D01*
X008943Y022845D01*
X008948Y022850D01*
X008948Y022996D01*
X008945Y022998D01*
X008369Y022998D01*
X008310Y022939D01*
X008310Y022821D01*
X008360Y022771D01*
X007872Y022879D02*
X007872Y023245D01*
X007924Y023296D01*
X008393Y023296D01*
X008390Y023299D01*
X008399Y023308D01*
X009413Y023308D01*
X009946Y023840D01*
X009946Y024883D01*
X010801Y024883D01*
X011513Y025594D01*
X011504Y025602D01*
X011504Y025972D01*
X010794Y025262D01*
X009665Y025262D01*
X009009Y025918D01*
X009009Y026678D01*
X008868Y026819D01*
X008833Y026860D01*
X008789Y027192D01*
X008789Y025827D01*
X009636Y024979D01*
X009636Y023784D01*
X009240Y023388D01*
X008669Y023388D01*
X008655Y023402D01*
X009299Y023402D01*
X009350Y023350D01*
X009880Y023879D01*
X009814Y023879D01*
X009368Y023433D01*
X009368Y023544D01*
X009203Y023476D02*
X009704Y023976D01*
X009704Y025047D01*
X008944Y025806D01*
X008944Y027194D01*
X008941Y027196D01*
X008941Y028994D01*
X008590Y028994D01*
X007988Y028422D02*
X008089Y028321D01*
X008089Y027814D01*
X007973Y027930D01*
X007763Y028017D01*
X007403Y028017D01*
X007356Y028036D01*
X007356Y028053D01*
X007346Y028091D01*
X007326Y028125D01*
X007298Y028153D01*
X007264Y028173D01*
X007226Y028183D01*
X007009Y028183D01*
X007009Y028055D01*
X007009Y028055D01*
X007009Y028183D01*
X006792Y028183D01*
X006754Y028173D01*
X006720Y028153D01*
X006692Y028125D01*
X006672Y028091D01*
X006662Y028053D01*
X006662Y028036D01*
X006516Y027976D01*
X006369Y027829D01*
X006340Y027758D01*
X005973Y027758D01*
X005973Y027245D01*
X005873Y027245D01*
X005873Y027758D01*
X005496Y027758D01*
X005496Y027786D01*
X005567Y027786D01*
X005810Y027886D01*
X005996Y028072D01*
X006097Y028316D01*
X006097Y028579D01*
X005996Y028822D01*
X005810Y029008D01*
X005567Y029109D01*
X005304Y029109D01*
X005089Y029020D01*
X004875Y029020D01*
X004665Y028932D01*
X004504Y028771D01*
X004292Y028559D01*
X004234Y028420D01*
X004137Y028323D01*
X002916Y028323D01*
X002939Y028380D02*
X002939Y028707D01*
X002814Y029009D01*
X002582Y029240D01*
X002280Y029366D01*
X001953Y029366D01*
X001841Y029319D01*
X001841Y031874D01*
X002512Y032545D01*
X002512Y032464D01*
X002907Y032464D01*
X002907Y032404D01*
X002512Y032404D01*
X002512Y032254D01*
X002522Y032216D01*
X002542Y032182D01*
X002570Y032154D01*
X002604Y032134D01*
X002642Y032124D01*
X002907Y032124D01*
X002907Y032404D01*
X002967Y032404D01*
X002967Y032124D01*
X003233Y032124D01*
X003271Y032134D01*
X003305Y032154D01*
X003333Y032182D01*
X003353Y032216D01*
X003363Y032254D01*
X003363Y032404D01*
X002967Y032404D01*
X002967Y032464D01*
X003363Y032464D01*
X003363Y032558D01*
X003509Y032619D01*
X003568Y032678D01*
X006499Y032678D01*
X006736Y032776D01*
X006814Y032854D01*
X007057Y032854D01*
X007057Y032511D01*
X006851Y032511D01*
X006851Y031821D01*
X006751Y031821D01*
X006751Y032511D01*
X006466Y032511D01*
X006428Y032501D01*
X006394Y032481D01*
X006366Y032453D01*
X006346Y032419D01*
X006336Y032381D01*
X006336Y031821D01*
X006751Y031821D01*
X006751Y031721D01*
X006336Y031721D01*
X006336Y031160D01*
X006346Y031122D01*
X006366Y031088D01*
X006394Y031060D01*
X006428Y031040D01*
X006466Y031030D01*
X006751Y031030D01*
X006751Y031721D01*
X006851Y031721D01*
X006851Y031030D01*
X007057Y031030D01*
X007057Y030912D01*
X007144Y030701D01*
X007486Y030360D01*
X007524Y030321D01*
X007523Y030319D01*
X007503Y030285D01*
X007493Y030247D01*
X007493Y029982D01*
X007773Y029982D01*
X007773Y029922D01*
X007493Y029922D01*
X007493Y029656D01*
X007503Y029618D01*
X007523Y029584D01*
X007551Y029556D01*
X007585Y029536D01*
X007623Y029526D01*
X007773Y029526D01*
X007773Y029922D01*
X007833Y029922D01*
X007833Y029526D01*
X007927Y029526D01*
X007949Y029473D01*
X007927Y029419D01*
X007833Y029419D01*
X007833Y029024D01*
X007773Y029024D01*
X007773Y029419D01*
X007623Y029419D01*
X007585Y029409D01*
X007551Y029389D01*
X007523Y029361D01*
X007503Y029327D01*
X007493Y029289D01*
X007493Y029024D01*
X007773Y029024D01*
X007773Y028964D01*
X007493Y028964D01*
X007493Y028698D01*
X007503Y028660D01*
X007523Y028626D01*
X007551Y028598D01*
X007585Y028578D01*
X007623Y028568D01*
X007773Y028568D01*
X007773Y028964D01*
X007833Y028964D01*
X007833Y028568D01*
X007927Y028568D01*
X007988Y028422D01*
X006097Y028422D01*
X006097Y028520D02*
X007947Y028520D01*
X007833Y028619D02*
X007773Y028619D01*
X007773Y028717D02*
X007833Y028717D01*
X007833Y028816D02*
X007773Y028816D01*
X007773Y028914D02*
X007833Y028914D01*
X007773Y029013D02*
X005799Y029013D01*
X005904Y028914D02*
X007493Y028914D01*
X007493Y028816D02*
X005999Y028816D01*
X006040Y028717D02*
X007493Y028717D01*
X007530Y028619D02*
X006080Y028619D01*
X006097Y028323D02*
X008087Y028323D01*
X008089Y028225D02*
X006059Y028225D01*
X006018Y028126D02*
X006693Y028126D01*
X006641Y028028D02*
X005951Y028028D01*
X005853Y027929D02*
X006469Y027929D01*
X006371Y027831D02*
X005675Y027831D01*
X005873Y027732D02*
X005973Y027732D01*
X005973Y027634D02*
X005873Y027634D01*
X005873Y027535D02*
X005973Y027535D01*
X005973Y027437D02*
X005873Y027437D01*
X005873Y027338D02*
X005973Y027338D01*
X005973Y027145D02*
X005973Y026631D01*
X006290Y026631D01*
X006290Y026252D01*
X006369Y026060D01*
X006372Y026057D01*
X006269Y025953D01*
X006233Y025953D01*
X006233Y025900D01*
X006173Y025755D01*
X006173Y025953D01*
X006079Y025953D01*
X006018Y026099D01*
X005872Y026246D01*
X005679Y026326D01*
X005497Y026326D01*
X005497Y026538D01*
X005496Y026538D01*
X005496Y026631D01*
X005496Y026631D01*
X005873Y026631D01*
X005873Y027145D01*
X005973Y027145D01*
X005973Y027141D02*
X005873Y027141D01*
X005873Y027043D02*
X005973Y027043D01*
X005973Y026944D02*
X005873Y026944D01*
X005873Y026846D02*
X005973Y026846D01*
X005973Y026747D02*
X005873Y026747D01*
X005873Y026649D02*
X005973Y026649D01*
X006290Y026550D02*
X005496Y026550D01*
X005497Y026452D02*
X006290Y026452D01*
X006290Y026353D02*
X005497Y026353D01*
X005851Y026255D02*
X006290Y026255D01*
X006329Y026156D02*
X005962Y026156D01*
X006036Y026058D02*
X006371Y026058D01*
X006275Y025959D02*
X006077Y025959D01*
X006173Y025861D02*
X006217Y025861D01*
X006176Y025762D02*
X006173Y025762D01*
X006806Y025555D02*
X007286Y026035D01*
X008173Y026035D01*
X008173Y026232D02*
X007221Y026232D01*
X007009Y026444D01*
X007011Y026442D01*
X007009Y026944D02*
X007655Y026944D01*
X007655Y026927D01*
X007649Y027444D02*
X007009Y027444D01*
X007649Y027444D02*
X008173Y026920D01*
X008173Y026429D01*
X009138Y027196D02*
X009138Y028033D01*
X009490Y028385D01*
X009490Y029551D01*
X009084Y029956D01*
X008859Y029956D01*
X008590Y029952D01*
X007833Y029899D02*
X007773Y029899D01*
X007773Y029801D02*
X007833Y029801D01*
X007833Y029702D02*
X007773Y029702D01*
X007773Y029604D02*
X007833Y029604D01*
X007936Y029505D02*
X001841Y029505D01*
X001841Y029407D02*
X007581Y029407D01*
X007498Y029308D02*
X002419Y029308D01*
X002613Y029210D02*
X007493Y029210D01*
X007493Y029111D02*
X002712Y029111D01*
X002810Y029013D02*
X004858Y029013D01*
X004646Y028914D02*
X002853Y028914D01*
X002894Y028816D02*
X004548Y028816D01*
X004449Y028717D02*
X002935Y028717D01*
X002939Y028619D02*
X004351Y028619D01*
X004275Y028520D02*
X002939Y028520D01*
X002939Y028422D02*
X004235Y028422D01*
X004137Y028323D02*
X004075Y028172D01*
X003888Y028250D01*
X003557Y028250D01*
X003258Y028126D01*
X003029Y027896D01*
X002905Y027597D01*
X002905Y027267D01*
X003029Y026968D01*
X003258Y026738D01*
X003557Y026614D01*
X003601Y026614D01*
X003601Y026369D01*
X003525Y026186D01*
X002859Y026186D01*
X002939Y026380D01*
X002939Y026707D01*
X002814Y027009D01*
X002582Y027240D01*
X002483Y027282D01*
X002501Y027307D01*
X002534Y027371D01*
X002556Y027438D01*
X002564Y027493D01*
X002167Y027493D01*
X002167Y027593D01*
X002564Y027593D01*
X002556Y027649D01*
X002534Y027716D01*
X002501Y027779D01*
X002483Y027805D01*
X002582Y027846D01*
X002814Y028077D01*
X002939Y028380D01*
X002875Y028225D02*
X003497Y028225D01*
X003259Y028126D02*
X002834Y028126D01*
X002764Y028028D02*
X003160Y028028D01*
X003061Y027929D02*
X002666Y027929D01*
X002545Y027831D02*
X003002Y027831D01*
X002961Y027732D02*
X002525Y027732D01*
X002558Y027634D02*
X002920Y027634D01*
X002905Y027535D02*
X002167Y027535D01*
X002555Y027437D02*
X002905Y027437D01*
X002905Y027338D02*
X002517Y027338D01*
X002583Y027240D02*
X002916Y027240D01*
X002957Y027141D02*
X002682Y027141D01*
X002780Y027043D02*
X002998Y027043D01*
X003052Y026944D02*
X002841Y026944D01*
X002882Y026846D02*
X003151Y026846D01*
X003249Y026747D02*
X002922Y026747D01*
X002939Y026649D02*
X003475Y026649D01*
X003601Y026550D02*
X002939Y026550D01*
X002939Y026452D02*
X003601Y026452D01*
X003595Y026353D02*
X002928Y026353D01*
X002887Y026255D02*
X003554Y026255D01*
X004172Y026018D02*
X004174Y026020D01*
X004174Y026722D01*
X004390Y026939D01*
X004777Y026939D01*
X004777Y027439D02*
X004233Y027439D01*
X004233Y027436D01*
X004777Y027939D02*
X004777Y028235D01*
X004989Y028447D01*
X005435Y028447D01*
X005422Y028434D01*
X004096Y028225D02*
X003948Y028225D01*
X004777Y026439D02*
X004777Y026414D01*
X004840Y026414D01*
X004840Y025619D01*
X004859Y025600D01*
X004919Y025660D01*
X004919Y026428D01*
X004924Y026424D01*
X004924Y025636D01*
X005938Y024876D02*
X007316Y024876D01*
X007316Y024974D02*
X007133Y024974D01*
X007259Y025073D02*
X007316Y025073D01*
X006479Y024974D02*
X006026Y024974D01*
X006067Y025073D02*
X006352Y025073D01*
X006233Y025171D02*
X006173Y025171D01*
X006173Y025270D02*
X006208Y025270D01*
X005021Y023869D02*
X005021Y023869D01*
X005021Y023869D01*
X005021Y023869D01*
X006015Y023057D02*
X006314Y023356D01*
X007074Y023356D01*
X007157Y023273D01*
X006314Y023273D01*
X006069Y023028D01*
X006107Y023028D01*
X006119Y023016D01*
X006684Y023016D01*
X006870Y023203D01*
X006327Y023203D01*
X006322Y023198D01*
X006314Y023198D01*
X006210Y023095D01*
X006663Y023095D01*
X006704Y023136D01*
X006339Y023136D01*
X006331Y023144D01*
X006542Y023144D01*
X006559Y023128D01*
X006690Y022931D02*
X006015Y022931D01*
X006001Y022917D01*
X006015Y022917D01*
X006015Y023057D01*
X006015Y022917D02*
X006015Y022866D01*
X006001Y022917D02*
X006001Y022616D01*
X006019Y022634D01*
X007628Y022634D01*
X007872Y022879D01*
X007711Y023298D02*
X007534Y023474D01*
X007233Y023474D01*
X006690Y022931D01*
X006560Y022874D02*
X006560Y022815D01*
X006560Y022874D02*
X006548Y022874D01*
X006838Y022891D02*
X007423Y023476D01*
X008173Y023476D01*
X009203Y023476D01*
X009350Y023350D02*
X009350Y023350D01*
X009729Y022708D02*
X009729Y021823D01*
X009381Y021475D01*
X009394Y020958D02*
X009394Y020762D01*
X009400Y020755D01*
X009394Y020958D02*
X010122Y021686D01*
X010122Y022708D01*
X010319Y022708D02*
X010320Y023470D01*
X010323Y023463D01*
X010545Y024088D02*
X011805Y024088D01*
X011805Y024186D02*
X010518Y024186D01*
X010518Y024099D02*
X010518Y024310D01*
X010915Y024310D01*
X011125Y024397D01*
X011254Y024526D01*
X011404Y024377D01*
X011647Y024276D01*
X011805Y024276D01*
X011805Y023699D01*
X011668Y023563D01*
X011663Y023565D01*
X011140Y023565D01*
X011107Y023551D01*
X011073Y023565D01*
X010984Y023565D01*
X010984Y023595D01*
X011700Y023595D01*
X011799Y023694D02*
X010944Y023694D01*
X010903Y023792D02*
X011805Y023792D01*
X011805Y023891D02*
X010831Y023891D01*
X010884Y023838D02*
X010698Y024024D01*
X010518Y024099D01*
X010518Y024285D02*
X011627Y024285D01*
X011397Y024383D02*
X011091Y024383D01*
X011047Y024411D02*
X010963Y024326D01*
X011047Y024326D01*
X011187Y024466D01*
X011187Y024904D01*
X011894Y025612D01*
X011894Y026488D01*
X012457Y027052D01*
X012457Y027047D01*
X011745Y026334D01*
X011745Y025542D01*
X011720Y025517D01*
X011720Y025527D01*
X011860Y025666D01*
X011860Y026279D01*
X011810Y026329D01*
X011810Y025636D01*
X011830Y025617D01*
X011830Y026364D01*
X011909Y026444D01*
X011909Y026488D01*
X012522Y027101D01*
X012799Y027101D01*
X013009Y027311D01*
X013009Y027879D01*
X012859Y028029D01*
X012874Y028028D02*
X013178Y028028D01*
X013178Y028126D02*
X012763Y028126D01*
X012784Y028117D02*
X012541Y028218D01*
X012278Y028218D01*
X012073Y028133D01*
X012073Y028214D01*
X012071Y028218D01*
X012071Y028349D01*
X011984Y028559D01*
X011983Y028560D01*
X011982Y028562D01*
X011849Y028694D01*
X011866Y028733D01*
X011960Y028733D01*
X011960Y029129D01*
X012020Y029129D01*
X012020Y029189D01*
X012300Y029189D01*
X012300Y029454D01*
X012289Y029492D01*
X012270Y029527D01*
X012242Y029555D01*
X012208Y029574D01*
X012169Y029584D01*
X012020Y029584D01*
X012020Y029189D01*
X011960Y029189D01*
X011960Y029584D01*
X011866Y029584D01*
X011805Y029730D01*
X011766Y029770D01*
X011766Y030355D01*
X011679Y030565D01*
X011643Y030601D01*
X011720Y030633D01*
X011867Y030780D01*
X011946Y030972D01*
X011946Y032558D01*
X011867Y032750D01*
X011720Y032897D01*
X011528Y032976D01*
X010690Y032976D01*
X010642Y032956D01*
X010642Y034729D01*
X011369Y035456D01*
X012427Y035456D01*
X012392Y035430D01*
X012343Y035381D01*
X012302Y035325D01*
X012271Y035263D01*
X012249Y035196D01*
X012240Y035140D01*
X012633Y035140D01*
X012633Y035040D01*
X012240Y035040D01*
X012249Y034983D01*
X012271Y034917D01*
X012302Y034855D01*
X012343Y034799D01*
X012392Y034750D01*
X012449Y034709D01*
X012511Y034677D01*
X012577Y034656D01*
X012633Y034647D01*
X012633Y035040D01*
X012733Y035040D01*
X012733Y034647D01*
X012790Y034656D01*
X012856Y034677D01*
X012918Y034709D01*
X012975Y034750D01*
X013024Y034799D01*
X013065Y034855D01*
X013096Y034917D01*
X013118Y034983D01*
X013127Y035040D01*
X012733Y035040D01*
X012733Y035140D01*
X013127Y035140D01*
X013118Y035196D01*
X013096Y035263D01*
X013065Y035325D01*
X013024Y035381D01*
X012975Y035430D01*
X012940Y035456D01*
X014865Y035456D01*
X014923Y035316D01*
X015070Y035169D01*
X015215Y035109D01*
X015215Y035015D01*
X015611Y035015D01*
X015611Y034955D01*
X015215Y034955D01*
X015215Y034805D01*
X015226Y034767D01*
X015245Y034733D01*
X015273Y034705D01*
X015308Y034685D01*
X015346Y034675D01*
X015611Y034675D01*
X015611Y034955D01*
X015671Y034955D01*
X015671Y034675D01*
X015936Y034675D01*
X015975Y034685D01*
X016009Y034705D01*
X016037Y034733D01*
X016056Y034767D01*
X016067Y034805D01*
X016067Y034955D01*
X015671Y034955D01*
X015671Y035015D01*
X016067Y035015D01*
X016067Y035109D01*
X016213Y035169D01*
X016360Y035316D01*
X016417Y035456D01*
X017041Y035456D01*
X016931Y035191D01*
X016931Y034834D01*
X017068Y034505D01*
X017320Y034252D01*
X017649Y034116D01*
X018006Y034116D01*
X018336Y034252D01*
X018588Y034505D01*
X018602Y034539D01*
X018627Y034527D01*
X018705Y034501D01*
X018778Y034490D01*
X018778Y034962D01*
X018878Y034962D01*
X018878Y034490D01*
X018915Y034496D01*
X018915Y032360D01*
X015447Y032360D01*
X015375Y032533D01*
X015228Y032680D01*
X015036Y032760D01*
X013844Y032760D01*
X013652Y032680D01*
X013505Y032533D01*
X013426Y032341D01*
X013426Y030755D01*
X013505Y030563D01*
X013652Y030416D01*
X013662Y030412D01*
X013662Y030089D01*
X013786Y029789D01*
X014015Y029560D01*
X014315Y029436D01*
X014645Y029436D01*
X014944Y029560D01*
X015174Y029789D01*
X015298Y030089D01*
X015298Y030419D01*
X015278Y030466D01*
X015375Y030563D01*
X015411Y030651D01*
X020683Y030651D01*
X021872Y029462D01*
X022053Y029281D01*
X022289Y029183D01*
X022392Y029183D01*
X022530Y029126D01*
X022856Y029126D01*
X023157Y029251D01*
X023249Y029343D01*
X023557Y029343D01*
X023569Y029338D01*
X023676Y029343D01*
X023784Y029343D01*
X023796Y029348D01*
X023809Y029349D01*
X023906Y029394D01*
X024005Y029435D01*
X024014Y029444D01*
X024026Y029449D01*
X024099Y029528D01*
X024174Y029604D01*
X024629Y029604D01*
X024629Y029690D02*
X024629Y029304D01*
X024727Y029068D01*
X025094Y028700D01*
X025275Y028519D01*
X025511Y028421D01*
X026104Y028421D01*
X026120Y028428D01*
X026143Y028428D01*
X026379Y028526D01*
X026560Y028707D01*
X026634Y028780D01*
X026634Y025242D01*
X026604Y025242D01*
X026604Y025617D01*
X026524Y025809D01*
X026377Y025956D01*
X026185Y026035D01*
X025892Y026035D01*
X025879Y026040D01*
X025771Y026035D01*
X025426Y026035D01*
X025385Y026018D01*
X025305Y026015D01*
X025256Y026035D01*
X024497Y026035D01*
X024434Y026009D01*
X024190Y026009D01*
X024185Y026011D01*
X024062Y026009D01*
X023940Y026009D01*
X023935Y026007D01*
X023660Y026003D01*
X023581Y026035D01*
X022822Y026035D01*
X022630Y025956D01*
X022483Y025809D01*
X022404Y025617D01*
X022404Y025247D01*
X022267Y025247D01*
X022267Y025322D01*
X021872Y025322D01*
X021872Y025382D01*
X022267Y025382D01*
X022267Y025532D01*
X022257Y025570D01*
X022237Y025604D01*
X022209Y025632D01*
X022175Y025652D01*
X022137Y025662D01*
X021872Y025662D01*
X021872Y025382D01*
X021812Y025382D01*
X021812Y025662D01*
X021546Y025662D01*
X021508Y025652D01*
X021474Y025632D01*
X021446Y025604D01*
X021426Y025570D01*
X021416Y025532D01*
X021416Y025382D01*
X021812Y025382D01*
X021812Y025322D01*
X021416Y025322D01*
X021416Y025228D01*
X021270Y025168D01*
X021123Y025021D01*
X021044Y024829D01*
X021044Y024749D01*
X020831Y024749D01*
X020701Y024695D01*
X020571Y024749D01*
X020043Y024749D01*
X019851Y024670D01*
X019729Y024547D01*
X019241Y024541D01*
X019125Y024541D01*
X019121Y024540D01*
X019118Y024540D01*
X019011Y024494D01*
X018903Y024450D01*
X018901Y024447D01*
X018898Y024446D01*
X018844Y024391D01*
X018726Y024509D01*
X018468Y024616D01*
X018189Y024616D01*
X017932Y024509D01*
X017735Y024312D01*
X017628Y024054D01*
X017628Y023912D01*
X017396Y023912D01*
X017153Y023811D01*
X016967Y023625D01*
X016866Y023382D01*
X016866Y023119D01*
X016944Y022930D01*
X016828Y022814D01*
X016788Y022716D01*
X016788Y022729D01*
X016792Y022739D01*
X016792Y023002D01*
X016788Y023012D01*
X016788Y023029D01*
X016690Y023265D01*
X016657Y023298D01*
X016476Y023478D01*
X016240Y023576D01*
X015964Y023576D01*
X015965Y023578D01*
X016059Y023578D01*
X016059Y023974D01*
X016119Y023974D01*
X016119Y023578D01*
X016269Y023578D01*
X016307Y023589D01*
X016341Y023608D01*
X016369Y023636D01*
X016389Y023670D01*
X016399Y023709D01*
X016399Y023974D01*
X016119Y023974D01*
X016119Y024009D01*
X016346Y024009D01*
X016557Y024097D01*
X016583Y024123D01*
X016744Y024284D01*
X016831Y024494D01*
X016831Y026460D01*
X016744Y026671D01*
X016691Y026723D01*
X016743Y026775D01*
X016823Y026967D01*
X016823Y027495D01*
X016743Y027687D01*
X016596Y027834D01*
X016450Y027895D01*
X016450Y027989D01*
X016055Y027989D01*
X016055Y028049D01*
X016450Y028049D01*
X016450Y028198D01*
X016440Y028237D01*
X016420Y028271D01*
X016392Y028299D01*
X016358Y028318D01*
X016320Y028329D01*
X016055Y028329D01*
X016055Y028049D01*
X015995Y028049D01*
X015995Y028329D01*
X015729Y028329D01*
X015691Y028318D01*
X015691Y028364D01*
X015611Y028556D01*
X015464Y028703D01*
X015318Y028764D01*
X015318Y028858D01*
X014923Y028858D01*
X014923Y028918D01*
X014863Y028918D01*
X014863Y029198D01*
X014597Y029198D01*
X014559Y029187D01*
X014525Y029168D01*
X014497Y029140D01*
X014477Y029105D01*
X014467Y029067D01*
X014467Y028918D01*
X014863Y028918D01*
X014863Y028858D01*
X014467Y028858D01*
X014467Y028764D01*
X014438Y028752D01*
X014401Y028767D01*
X014401Y028861D01*
X014006Y028861D01*
X014006Y028921D01*
X014401Y028921D01*
X014401Y029071D01*
X014391Y029109D01*
X014371Y029143D01*
X014343Y029171D01*
X014309Y029191D01*
X014271Y029201D01*
X014006Y029201D01*
X014006Y028921D01*
X013946Y028921D01*
X013946Y029201D01*
X013680Y029201D01*
X013642Y029191D01*
X013608Y029171D01*
X013580Y029143D01*
X013560Y029109D01*
X013550Y029071D01*
X013550Y028921D01*
X013946Y028921D01*
X013946Y028861D01*
X013550Y028861D01*
X013550Y028767D01*
X013404Y028706D01*
X013257Y028559D01*
X013178Y028367D01*
X013178Y027840D01*
X013239Y027690D01*
X013150Y027474D01*
X013150Y027144D01*
X013156Y027128D01*
X013038Y027010D01*
X012799Y027010D01*
X012970Y027182D01*
X013071Y027425D01*
X013071Y027688D01*
X012970Y027931D01*
X012784Y028117D01*
X012971Y027929D02*
X013178Y027929D01*
X013181Y027831D02*
X013012Y027831D01*
X013053Y027732D02*
X013222Y027732D01*
X013216Y027634D02*
X013071Y027634D01*
X013071Y027535D02*
X013175Y027535D01*
X013150Y027437D02*
X013071Y027437D01*
X013035Y027338D02*
X013150Y027338D01*
X013150Y027240D02*
X012994Y027240D01*
X012929Y027141D02*
X013151Y027141D01*
X013070Y027043D02*
X012831Y027043D01*
X012761Y027017D02*
X012487Y027017D01*
X011989Y026518D01*
X011989Y025587D01*
X011700Y025298D01*
X011575Y025298D01*
X011047Y024770D01*
X011047Y024411D01*
X011210Y024482D02*
X011299Y024482D01*
X011107Y024702D02*
X011697Y025293D01*
X011697Y025661D01*
X011717Y025641D01*
X012662Y025641D01*
X012662Y025444D02*
X013462Y025444D01*
X013638Y025269D01*
X013826Y025478D02*
X015157Y025482D01*
X015282Y025606D01*
X014893Y026090D02*
X014774Y025971D01*
X014688Y025886D01*
X013830Y025886D01*
X013681Y026035D01*
X012662Y026035D01*
X012662Y026232D02*
X013972Y026232D01*
X013981Y026241D01*
X013558Y026595D02*
X013392Y026429D01*
X012662Y026429D01*
X012662Y025838D02*
X013465Y025838D01*
X013826Y025478D01*
X014893Y026090D02*
X014893Y027299D01*
X015691Y028318D02*
X015691Y028318D01*
X015691Y028323D02*
X015708Y028323D01*
X015667Y028422D02*
X025511Y028422D01*
X025274Y028520D02*
X015626Y028520D01*
X015549Y028619D02*
X025176Y028619D01*
X025077Y028717D02*
X015431Y028717D01*
X015318Y028816D02*
X024979Y028816D01*
X024880Y028914D02*
X014923Y028914D01*
X014923Y028918D02*
X015318Y028918D01*
X015318Y029067D01*
X015308Y029105D01*
X015288Y029140D01*
X015260Y029168D01*
X015226Y029187D01*
X015188Y029198D01*
X014923Y029198D01*
X014923Y028918D01*
X014863Y028914D02*
X014006Y028914D01*
X013946Y028914D02*
X012300Y028914D01*
X012300Y028864D02*
X012300Y029129D01*
X012020Y029129D01*
X012020Y028733D01*
X012169Y028733D01*
X012208Y028744D01*
X012242Y028763D01*
X012270Y028791D01*
X012289Y028825D01*
X012300Y028864D01*
X012284Y028816D02*
X013550Y028816D01*
X013430Y028717D02*
X011859Y028717D01*
X011925Y028619D02*
X013316Y028619D01*
X013241Y028520D02*
X012000Y028520D01*
X012041Y028422D02*
X013200Y028422D01*
X013178Y028323D02*
X012071Y028323D01*
X012071Y028225D02*
X013178Y028225D01*
X013550Y029013D02*
X012300Y029013D01*
X012300Y029111D02*
X013562Y029111D01*
X013946Y029111D02*
X014006Y029111D01*
X014006Y029013D02*
X013946Y029013D01*
X014390Y029111D02*
X014481Y029111D01*
X014467Y029013D02*
X014401Y029013D01*
X014401Y028816D02*
X014467Y028816D01*
X014863Y029013D02*
X014923Y029013D01*
X014923Y029111D02*
X014863Y029111D01*
X014812Y029505D02*
X021829Y029505D01*
X021927Y029407D02*
X012300Y029407D01*
X012300Y029308D02*
X022026Y029308D01*
X022226Y029210D02*
X012300Y029210D01*
X012226Y029080D02*
X011990Y029159D01*
X011960Y029111D02*
X012020Y029111D01*
X012020Y029013D02*
X011960Y029013D01*
X011960Y028914D02*
X012020Y028914D01*
X012020Y028816D02*
X011960Y028816D01*
X012226Y028607D02*
X012226Y029080D01*
X012020Y029210D02*
X011960Y029210D01*
X011960Y029308D02*
X012020Y029308D01*
X012020Y029407D02*
X011960Y029407D01*
X011960Y029505D02*
X012020Y029505D01*
X011858Y029604D02*
X013972Y029604D01*
X013873Y029702D02*
X011817Y029702D01*
X011766Y029801D02*
X013781Y029801D01*
X013741Y029899D02*
X011766Y029899D01*
X011766Y029998D02*
X013700Y029998D01*
X013662Y030096D02*
X011766Y030096D01*
X011766Y030195D02*
X013662Y030195D01*
X013662Y030293D02*
X011766Y030293D01*
X011751Y030392D02*
X013662Y030392D01*
X013578Y030490D02*
X011710Y030490D01*
X011655Y030589D02*
X013495Y030589D01*
X013454Y030687D02*
X011774Y030687D01*
X011869Y030786D02*
X013426Y030786D01*
X013426Y030884D02*
X011910Y030884D01*
X011946Y030983D02*
X013426Y030983D01*
X013426Y031081D02*
X011946Y031081D01*
X011946Y031180D02*
X013426Y031180D01*
X013426Y031278D02*
X011946Y031278D01*
X011946Y031377D02*
X013426Y031377D01*
X013426Y031475D02*
X011946Y031475D01*
X011946Y031574D02*
X013426Y031574D01*
X013426Y031672D02*
X011946Y031672D01*
X011946Y031771D02*
X013426Y031771D01*
X013426Y031869D02*
X011946Y031869D01*
X011946Y031968D02*
X013426Y031968D01*
X013426Y032066D02*
X011946Y032066D01*
X011946Y032165D02*
X013426Y032165D01*
X013426Y032263D02*
X011946Y032263D01*
X011946Y032362D02*
X013434Y032362D01*
X013475Y032460D02*
X011946Y032460D01*
X011946Y032559D02*
X013531Y032559D01*
X013629Y032657D02*
X011905Y032657D01*
X011861Y032756D02*
X013834Y032756D01*
X013928Y033268D02*
X014390Y033268D01*
X014390Y034057D01*
X014490Y034057D01*
X014490Y033268D01*
X014952Y033268D01*
X014990Y033279D01*
X015024Y033298D01*
X015052Y033326D01*
X015072Y033360D01*
X015082Y033399D01*
X015082Y034057D01*
X014490Y034057D01*
X014490Y034157D01*
X015082Y034157D01*
X015082Y034816D01*
X015072Y034854D01*
X015052Y034888D01*
X015024Y034916D01*
X014990Y034936D01*
X014952Y034946D01*
X014490Y034946D01*
X014490Y034157D01*
X014390Y034157D01*
X014390Y034057D01*
X013798Y034057D01*
X013798Y033399D01*
X013808Y033360D01*
X013828Y033326D01*
X013856Y033298D01*
X013890Y033279D01*
X013928Y033268D01*
X013816Y033347D02*
X011574Y033347D01*
X011574Y033445D02*
X013798Y033445D01*
X013798Y033544D02*
X011574Y033544D01*
X011574Y033642D02*
X013798Y033642D01*
X013798Y033741D02*
X011574Y033741D01*
X011574Y033839D02*
X013798Y033839D01*
X013798Y033938D02*
X011159Y033938D01*
X011159Y033941D02*
X011574Y033941D01*
X011574Y034599D01*
X011563Y034638D01*
X011544Y034672D01*
X011516Y034700D01*
X011482Y034719D01*
X011443Y034730D01*
X011159Y034730D01*
X011159Y033941D01*
X011159Y033841D01*
X011574Y033841D01*
X011574Y033182D01*
X011563Y033144D01*
X011544Y033110D01*
X011516Y033082D01*
X011482Y033062D01*
X011443Y033052D01*
X011159Y033052D01*
X011159Y033841D01*
X011059Y033841D01*
X011059Y033052D01*
X010774Y033052D01*
X010736Y033062D01*
X010702Y033082D01*
X010674Y033110D01*
X010654Y033144D01*
X010644Y033182D01*
X010644Y033841D01*
X011059Y033841D01*
X011059Y033941D01*
X011059Y034730D01*
X010774Y034730D01*
X010736Y034719D01*
X010702Y034700D01*
X010674Y034672D01*
X010654Y034638D01*
X010644Y034599D01*
X010644Y033941D01*
X011059Y033941D01*
X011159Y033941D01*
X011159Y034036D02*
X011059Y034036D01*
X011059Y033938D02*
X010642Y033938D01*
X010642Y034036D02*
X010644Y034036D01*
X010642Y034135D02*
X010644Y034135D01*
X010642Y034233D02*
X010644Y034233D01*
X010642Y034332D02*
X010644Y034332D01*
X010642Y034430D02*
X010644Y034430D01*
X010642Y034529D02*
X010644Y034529D01*
X010642Y034627D02*
X010651Y034627D01*
X010642Y034726D02*
X010759Y034726D01*
X010737Y034824D02*
X012325Y034824D01*
X012269Y034923D02*
X010836Y034923D01*
X010934Y035021D02*
X012243Y035021D01*
X012256Y035218D02*
X011131Y035218D01*
X011033Y035120D02*
X012633Y035120D01*
X012633Y035021D02*
X012733Y035021D01*
X012733Y034923D02*
X012633Y034923D01*
X012633Y034824D02*
X012733Y034824D01*
X012733Y034726D02*
X012633Y034726D01*
X012425Y034726D02*
X011459Y034726D01*
X011566Y034627D02*
X013798Y034627D01*
X013798Y034529D02*
X011574Y034529D01*
X011574Y034430D02*
X013798Y034430D01*
X013798Y034332D02*
X011574Y034332D01*
X011574Y034233D02*
X013798Y034233D01*
X013798Y034157D02*
X014390Y034157D01*
X014390Y034946D01*
X013928Y034946D01*
X013890Y034936D01*
X013856Y034916D01*
X013828Y034888D01*
X013808Y034854D01*
X013798Y034816D01*
X013798Y034157D01*
X013798Y034036D02*
X011574Y034036D01*
X011574Y034135D02*
X014390Y034135D01*
X014390Y034233D02*
X014490Y034233D01*
X014490Y034135D02*
X017604Y034135D01*
X017367Y034233D02*
X015082Y034233D01*
X015082Y034332D02*
X017241Y034332D01*
X017142Y034430D02*
X015082Y034430D01*
X015082Y034529D02*
X017058Y034529D01*
X017017Y034627D02*
X015082Y034627D01*
X015082Y034726D02*
X015253Y034726D01*
X015215Y034824D02*
X015080Y034824D01*
X015013Y034923D02*
X015215Y034923D01*
X015215Y035021D02*
X013124Y035021D01*
X013098Y034923D02*
X013867Y034923D01*
X013800Y034824D02*
X013042Y034824D01*
X012942Y034726D02*
X013798Y034726D01*
X014390Y034726D02*
X014490Y034726D01*
X014490Y034824D02*
X014390Y034824D01*
X014390Y034923D02*
X014490Y034923D01*
X014490Y034627D02*
X014390Y034627D01*
X014390Y034529D02*
X014490Y034529D01*
X014490Y034430D02*
X014390Y034430D01*
X014390Y034332D02*
X014490Y034332D01*
X014490Y034036D02*
X014390Y034036D01*
X014390Y033938D02*
X014490Y033938D01*
X014490Y033839D02*
X014390Y033839D01*
X014390Y033741D02*
X014490Y033741D01*
X014490Y033642D02*
X014390Y033642D01*
X014390Y033544D02*
X014490Y033544D01*
X014490Y033445D02*
X014390Y033445D01*
X014390Y033347D02*
X014490Y033347D01*
X015064Y033347D02*
X018915Y033347D01*
X018915Y033445D02*
X015082Y033445D01*
X015082Y033544D02*
X018915Y033544D01*
X018915Y033642D02*
X015082Y033642D01*
X015082Y033741D02*
X018915Y033741D01*
X018915Y033839D02*
X015082Y033839D01*
X015082Y033938D02*
X018915Y033938D01*
X018915Y034036D02*
X015082Y034036D01*
X015611Y034726D02*
X015671Y034726D01*
X015671Y034824D02*
X015611Y034824D01*
X015611Y034923D02*
X015671Y034923D01*
X016067Y034923D02*
X016931Y034923D01*
X016931Y035021D02*
X016067Y035021D01*
X016092Y035120D02*
X016931Y035120D01*
X016943Y035218D02*
X016261Y035218D01*
X016360Y035317D02*
X016983Y035317D01*
X017024Y035415D02*
X016400Y035415D01*
X016067Y034824D02*
X016935Y034824D01*
X016976Y034726D02*
X016029Y034726D01*
X015190Y035120D02*
X012733Y035120D01*
X013069Y035317D02*
X014922Y035317D01*
X014882Y035415D02*
X012990Y035415D01*
X013111Y035218D02*
X015021Y035218D01*
X015046Y032756D02*
X018915Y032756D01*
X018915Y032854D02*
X011762Y032854D01*
X011585Y032953D02*
X018915Y032953D01*
X018915Y033051D02*
X010642Y033051D01*
X010642Y033150D02*
X010652Y033150D01*
X010642Y033248D02*
X010644Y033248D01*
X010642Y033347D02*
X010644Y033347D01*
X010642Y033445D02*
X010644Y033445D01*
X010642Y033544D02*
X010644Y033544D01*
X010642Y033642D02*
X010644Y033642D01*
X010642Y033741D02*
X010644Y033741D01*
X010642Y033839D02*
X010644Y033839D01*
X011059Y033839D02*
X011159Y033839D01*
X011159Y033741D02*
X011059Y033741D01*
X011059Y033642D02*
X011159Y033642D01*
X011159Y033544D02*
X011059Y033544D01*
X011059Y033445D02*
X011159Y033445D01*
X011159Y033347D02*
X011059Y033347D01*
X011059Y033248D02*
X011159Y033248D01*
X011159Y033150D02*
X011059Y033150D01*
X011565Y033150D02*
X018915Y033150D01*
X018915Y033248D02*
X011574Y033248D01*
X011159Y034135D02*
X011059Y034135D01*
X011059Y034233D02*
X011159Y034233D01*
X011159Y034332D02*
X011059Y034332D01*
X011059Y034430D02*
X011159Y034430D01*
X011159Y034529D02*
X011059Y034529D01*
X011059Y034627D02*
X011159Y034627D01*
X011159Y034726D02*
X011059Y034726D01*
X011230Y035317D02*
X012298Y035317D01*
X012377Y035415D02*
X011328Y035415D01*
X007853Y033494D02*
X007634Y033494D01*
X007629Y033489D01*
X007629Y031026D01*
X007971Y030684D01*
X010350Y030684D01*
X010935Y030099D01*
X010935Y028674D01*
X011078Y028532D01*
X011078Y029714D01*
X011005Y029786D01*
X011005Y029751D01*
X011129Y029875D01*
X011129Y030176D01*
X010523Y030782D01*
X008134Y030782D01*
X007824Y031092D01*
X007824Y033447D01*
X007735Y033536D01*
X007735Y030992D01*
X007958Y030768D01*
X008075Y030840D02*
X007783Y031131D01*
X007783Y033424D01*
X007853Y033494D01*
X007057Y032854D02*
X006814Y032854D01*
X006686Y032756D02*
X007057Y032756D01*
X007057Y032657D02*
X003547Y032657D01*
X003364Y032559D02*
X004421Y032559D01*
X004408Y032546D02*
X004388Y032512D01*
X004378Y032473D01*
X004378Y031815D01*
X004793Y031815D01*
X004793Y032604D01*
X004508Y032604D01*
X004470Y032594D01*
X004436Y032574D01*
X004408Y032546D01*
X004378Y032460D02*
X002967Y032460D01*
X002907Y032460D02*
X002427Y032460D01*
X002512Y032362D02*
X002329Y032362D01*
X002230Y032263D02*
X002512Y032263D01*
X002559Y032165D02*
X002132Y032165D01*
X002033Y032066D02*
X004378Y032066D01*
X004378Y031968D02*
X001935Y031968D01*
X001841Y031869D02*
X004378Y031869D01*
X004378Y031715D02*
X004378Y031056D01*
X004388Y031018D01*
X004408Y030984D01*
X004436Y030956D01*
X004470Y030936D01*
X004508Y030926D01*
X004793Y030926D01*
X004793Y031715D01*
X004893Y031715D01*
X004893Y031815D01*
X004793Y031815D01*
X004793Y031715D01*
X004378Y031715D01*
X004378Y031672D02*
X001841Y031672D01*
X001841Y031574D02*
X004378Y031574D01*
X004378Y031475D02*
X001841Y031475D01*
X001841Y031377D02*
X004378Y031377D01*
X004378Y031278D02*
X001841Y031278D01*
X001841Y031180D02*
X004378Y031180D01*
X004378Y031081D02*
X001841Y031081D01*
X001841Y030983D02*
X004409Y030983D01*
X004793Y030983D02*
X004893Y030983D01*
X004893Y030926D02*
X005177Y030926D01*
X005216Y030936D01*
X005250Y030956D01*
X005278Y030984D01*
X005297Y031018D01*
X005308Y031056D01*
X005308Y031715D01*
X004893Y031715D01*
X004893Y030926D01*
X004893Y031081D02*
X004793Y031081D01*
X004793Y031180D02*
X004893Y031180D01*
X004893Y031278D02*
X004793Y031278D01*
X004793Y031377D02*
X004893Y031377D01*
X004893Y031475D02*
X004793Y031475D01*
X004793Y031574D02*
X004893Y031574D01*
X004893Y031672D02*
X004793Y031672D01*
X004793Y031771D02*
X001841Y031771D01*
X001841Y030884D02*
X007068Y030884D01*
X007057Y030983D02*
X005277Y030983D01*
X005308Y031081D02*
X006373Y031081D01*
X006336Y031180D02*
X005308Y031180D01*
X005308Y031278D02*
X006336Y031278D01*
X006336Y031377D02*
X005308Y031377D01*
X005308Y031475D02*
X006336Y031475D01*
X006336Y031574D02*
X005308Y031574D01*
X005308Y031672D02*
X006336Y031672D01*
X006336Y031869D02*
X005308Y031869D01*
X005308Y031815D02*
X005308Y032473D01*
X005297Y032512D01*
X005278Y032546D01*
X005250Y032574D01*
X005216Y032594D01*
X005177Y032604D01*
X004893Y032604D01*
X004893Y031815D01*
X005308Y031815D01*
X005308Y031968D02*
X006336Y031968D01*
X006336Y032066D02*
X005308Y032066D01*
X005308Y032165D02*
X006336Y032165D01*
X006336Y032263D02*
X005308Y032263D01*
X005308Y032362D02*
X006336Y032362D01*
X006373Y032460D02*
X005308Y032460D01*
X005265Y032559D02*
X007057Y032559D01*
X006851Y032460D02*
X006751Y032460D01*
X006751Y032362D02*
X006851Y032362D01*
X006851Y032263D02*
X006751Y032263D01*
X006751Y032165D02*
X006851Y032165D01*
X006851Y032066D02*
X006751Y032066D01*
X006751Y031968D02*
X006851Y031968D01*
X006851Y031869D02*
X006751Y031869D01*
X006751Y031771D02*
X004893Y031771D01*
X004893Y031869D02*
X004793Y031869D01*
X004793Y031968D02*
X004893Y031968D01*
X004893Y032066D02*
X004793Y032066D01*
X004793Y032165D02*
X004893Y032165D01*
X004893Y032263D02*
X004793Y032263D01*
X004793Y032362D02*
X004893Y032362D01*
X004893Y032460D02*
X004793Y032460D01*
X004793Y032559D02*
X004893Y032559D01*
X004378Y032362D02*
X003363Y032362D01*
X003363Y032263D02*
X004378Y032263D01*
X004378Y032165D02*
X003315Y032165D01*
X002967Y032165D02*
X002907Y032165D01*
X002907Y032263D02*
X002967Y032263D01*
X002967Y032362D02*
X002907Y032362D01*
X001841Y030786D02*
X007109Y030786D01*
X007158Y030687D02*
X001841Y030687D01*
X001841Y030589D02*
X007257Y030589D01*
X007355Y030490D02*
X001841Y030490D01*
X001841Y030392D02*
X007454Y030392D01*
X007508Y030293D02*
X001841Y030293D01*
X001841Y030195D02*
X007493Y030195D01*
X007493Y030096D02*
X001841Y030096D01*
X001841Y029998D02*
X007493Y029998D01*
X007493Y029899D02*
X001841Y029899D01*
X001841Y029801D02*
X007493Y029801D01*
X007493Y029702D02*
X001841Y029702D01*
X001841Y029604D02*
X007512Y029604D01*
X007773Y029407D02*
X007833Y029407D01*
X007833Y029308D02*
X007773Y029308D01*
X007773Y029210D02*
X007833Y029210D01*
X007833Y029111D02*
X007773Y029111D01*
X008089Y028126D02*
X007325Y028126D01*
X007377Y028028D02*
X008089Y028028D01*
X008089Y027929D02*
X007974Y027929D01*
X008072Y027831D02*
X008089Y027831D01*
X007009Y028126D02*
X007009Y028126D01*
X009532Y027196D02*
X009532Y026200D01*
X009531Y026199D01*
X009925Y026261D02*
X009925Y027196D01*
X010319Y027196D02*
X010319Y027873D01*
X010000Y028192D01*
X010091Y028672D02*
X010091Y028965D01*
X010093Y028992D01*
X010091Y028672D02*
X010516Y028247D01*
X010516Y027196D01*
X010713Y027196D02*
X010713Y027802D01*
X010974Y028063D01*
X011163Y028512D02*
X011163Y029083D01*
X011136Y029111D01*
X011105Y029111D01*
X011039Y029045D01*
X011039Y028640D01*
X011129Y028550D01*
X011129Y028986D01*
X011108Y029007D01*
X011108Y028625D01*
X011499Y028235D01*
X011499Y028050D01*
X011497Y028049D01*
X011497Y028238D01*
X011193Y028541D01*
X011193Y030241D01*
X010595Y030840D01*
X008075Y030840D01*
X006851Y031081D02*
X006751Y031081D01*
X006751Y031180D02*
X006851Y031180D01*
X006851Y031278D02*
X006751Y031278D01*
X006751Y031377D02*
X006851Y031377D01*
X006851Y031475D02*
X006751Y031475D01*
X006751Y031574D02*
X006851Y031574D01*
X006851Y031672D02*
X006751Y031672D01*
X011005Y029751D02*
X011005Y029140D01*
X011011Y029140D01*
X011011Y029140D01*
X011202Y029159D01*
X011011Y029140D02*
X010966Y029136D01*
X010966Y028634D01*
X011500Y028100D01*
X011500Y027196D01*
X011500Y025637D01*
X010942Y025079D01*
X009704Y025079D01*
X009704Y025047D01*
X010395Y025873D02*
X010395Y026210D01*
X010910Y026725D01*
X010910Y027196D01*
X011107Y027196D02*
X011107Y026568D01*
X010837Y026298D01*
X010837Y025883D01*
X011162Y026186D02*
X011303Y026250D01*
X011303Y027196D01*
X011697Y027196D02*
X011697Y025661D01*
X012088Y025248D02*
X011778Y024938D01*
X012088Y025248D02*
X012662Y025248D01*
X012662Y024657D02*
X015259Y024661D01*
X015282Y024638D01*
X016005Y024619D02*
X016037Y024588D01*
X016224Y024588D01*
X016192Y024619D01*
X016192Y026245D01*
X016130Y026331D02*
X016130Y026404D01*
X016068Y026404D01*
X016005Y026341D01*
X016005Y024619D01*
X016233Y024582D02*
X016259Y024608D01*
X016259Y026346D01*
X016201Y026404D01*
X016130Y026404D01*
X016753Y026649D02*
X026634Y026649D01*
X026634Y026747D02*
X016715Y026747D01*
X016772Y026846D02*
X026634Y026846D01*
X026634Y026944D02*
X016813Y026944D01*
X016823Y027043D02*
X026634Y027043D01*
X026634Y027141D02*
X016823Y027141D01*
X016823Y027240D02*
X026634Y027240D01*
X026634Y027338D02*
X016823Y027338D01*
X016823Y027437D02*
X026634Y027437D01*
X026634Y027535D02*
X016806Y027535D01*
X016765Y027634D02*
X026634Y027634D01*
X026634Y027732D02*
X016698Y027732D01*
X016600Y027831D02*
X026634Y027831D01*
X026634Y027929D02*
X016450Y027929D01*
X016450Y028126D02*
X026634Y028126D01*
X026634Y028028D02*
X016055Y028028D01*
X016055Y028126D02*
X015995Y028126D01*
X015995Y028225D02*
X016055Y028225D01*
X016055Y028323D02*
X015995Y028323D01*
X016341Y028323D02*
X026634Y028323D01*
X026634Y028225D02*
X016443Y028225D01*
X015318Y029013D02*
X024782Y029013D01*
X024709Y029111D02*
X015305Y029111D01*
X014988Y029604D02*
X021730Y029604D01*
X021632Y029702D02*
X015087Y029702D01*
X015178Y029801D02*
X021533Y029801D01*
X021435Y029899D02*
X015219Y029899D01*
X015260Y029998D02*
X021336Y029998D01*
X021238Y030096D02*
X015298Y030096D01*
X015298Y030195D02*
X021139Y030195D01*
X021041Y030293D02*
X015298Y030293D01*
X015298Y030392D02*
X020942Y030392D01*
X020844Y030490D02*
X015302Y030490D01*
X015386Y030589D02*
X020745Y030589D01*
X021954Y031869D02*
X022648Y031869D01*
X022648Y031868D02*
X022252Y031868D01*
X022260Y031812D01*
X022282Y031745D01*
X022314Y031683D01*
X022355Y031626D01*
X022405Y031576D01*
X022462Y031535D01*
X022525Y031503D01*
X022592Y031481D01*
X022648Y031472D01*
X022648Y031868D01*
X022745Y031868D01*
X022745Y031965D01*
X023141Y031965D01*
X023132Y032021D01*
X023110Y032088D01*
X023078Y032151D01*
X023037Y032208D01*
X022987Y032258D01*
X022931Y032299D01*
X022868Y032331D01*
X022801Y032353D01*
X022745Y032361D01*
X022745Y031965D01*
X022648Y031965D01*
X022648Y031868D01*
X022745Y031868D02*
X022745Y031472D01*
X022801Y031481D01*
X022868Y031503D01*
X022931Y031535D01*
X022987Y031576D01*
X023037Y031626D01*
X023078Y031683D01*
X023110Y031745D01*
X023132Y031812D01*
X023141Y031868D01*
X022745Y031868D01*
X022745Y031869D02*
X024611Y031869D01*
X024611Y031771D02*
X023119Y031771D01*
X023071Y031672D02*
X024611Y031672D01*
X024611Y031574D02*
X022984Y031574D01*
X022745Y031574D02*
X022648Y031574D01*
X022648Y031672D02*
X022745Y031672D01*
X022745Y031771D02*
X022648Y031771D01*
X022648Y031965D02*
X022252Y031965D01*
X022260Y032021D01*
X022282Y032088D01*
X022314Y032151D01*
X022355Y032208D01*
X022405Y032258D01*
X022462Y032299D01*
X022525Y032331D01*
X022592Y032353D01*
X022648Y032361D01*
X022648Y031965D01*
X022648Y031968D02*
X022745Y031968D01*
X022745Y032066D02*
X022648Y032066D01*
X022648Y032165D02*
X022745Y032165D01*
X022745Y032263D02*
X022648Y032263D01*
X022413Y032263D02*
X021560Y032263D01*
X021551Y032272D02*
X021315Y032370D01*
X020821Y032370D01*
X020821Y035124D01*
X020723Y035360D01*
X020627Y035456D01*
X023127Y035456D01*
X023311Y035456D01*
X024611Y034156D01*
X024611Y031039D01*
X024519Y031077D01*
X024519Y031171D01*
X024124Y031171D01*
X024124Y031231D01*
X024064Y031231D01*
X024064Y031511D01*
X023798Y031511D01*
X023760Y031500D01*
X023726Y031481D01*
X023698Y031453D01*
X023678Y031418D01*
X023668Y031380D01*
X023668Y031231D01*
X024064Y031231D01*
X024064Y031171D01*
X023668Y031171D01*
X023668Y031077D01*
X023522Y031016D01*
X023375Y030869D01*
X023296Y030677D01*
X023296Y030548D01*
X023275Y030548D01*
X021732Y032091D01*
X021551Y032272D01*
X021658Y032165D02*
X022324Y032165D01*
X022275Y032066D02*
X021757Y032066D01*
X021855Y031968D02*
X022252Y031968D01*
X022274Y031771D02*
X022052Y031771D01*
X022151Y031672D02*
X022322Y031672D01*
X022249Y031574D02*
X022408Y031574D01*
X022348Y031475D02*
X022628Y031475D01*
X022648Y031475D02*
X022745Y031475D01*
X022764Y031475D02*
X023720Y031475D01*
X023668Y031377D02*
X022446Y031377D01*
X022545Y031278D02*
X023668Y031278D01*
X023668Y031081D02*
X022742Y031081D01*
X022840Y030983D02*
X023489Y030983D01*
X023390Y030884D02*
X022939Y030884D01*
X023037Y030786D02*
X023341Y030786D01*
X023300Y030687D02*
X023136Y030687D01*
X023234Y030589D02*
X023296Y030589D01*
X022643Y031180D02*
X024064Y031180D01*
X024124Y031180D02*
X024611Y031180D01*
X024611Y031278D02*
X024519Y031278D01*
X024519Y031231D02*
X024519Y031380D01*
X024509Y031418D01*
X024489Y031453D01*
X024461Y031481D01*
X024427Y031500D01*
X024389Y031511D01*
X024124Y031511D01*
X024124Y031231D01*
X024519Y031231D01*
X024519Y031377D02*
X024611Y031377D01*
X024611Y031475D02*
X024467Y031475D01*
X024124Y031475D02*
X024064Y031475D01*
X024064Y031377D02*
X024124Y031377D01*
X024124Y031278D02*
X024064Y031278D01*
X024519Y031081D02*
X024611Y031081D01*
X024611Y031968D02*
X023141Y031968D01*
X023118Y032066D02*
X024611Y032066D01*
X024611Y032165D02*
X023069Y032165D01*
X022980Y032263D02*
X024611Y032263D01*
X024611Y032362D02*
X021335Y032362D01*
X020821Y032460D02*
X024611Y032460D01*
X024611Y032559D02*
X020821Y032559D01*
X020821Y032657D02*
X024611Y032657D01*
X024611Y032756D02*
X020821Y032756D01*
X020821Y032854D02*
X024611Y032854D01*
X024611Y032953D02*
X020821Y032953D01*
X020821Y033051D02*
X024611Y033051D01*
X024611Y033150D02*
X020821Y033150D01*
X020821Y033248D02*
X024611Y033248D01*
X024611Y033347D02*
X020821Y033347D01*
X020821Y033445D02*
X024611Y033445D01*
X024611Y033544D02*
X020821Y033544D01*
X020821Y033642D02*
X024611Y033642D01*
X024611Y033741D02*
X020821Y033741D01*
X020821Y033839D02*
X024611Y033839D01*
X024611Y033938D02*
X020821Y033938D01*
X020821Y034036D02*
X024611Y034036D01*
X024611Y034135D02*
X020821Y034135D01*
X020821Y034233D02*
X024534Y034233D01*
X024435Y034332D02*
X020821Y034332D01*
X020821Y034430D02*
X024337Y034430D01*
X024238Y034529D02*
X020821Y034529D01*
X020821Y034627D02*
X024140Y034627D01*
X024041Y034726D02*
X020821Y034726D01*
X020821Y034824D02*
X023943Y034824D01*
X023844Y034923D02*
X020821Y034923D01*
X020821Y035021D02*
X023746Y035021D01*
X023647Y035120D02*
X020821Y035120D01*
X020782Y035218D02*
X023549Y035218D01*
X023450Y035317D02*
X020741Y035317D01*
X020668Y035415D02*
X023352Y035415D01*
X022984Y036175D02*
X022998Y036189D01*
X022998Y036675D01*
X018878Y034923D02*
X018778Y034923D01*
X018778Y034824D02*
X018878Y034824D01*
X018878Y034726D02*
X018778Y034726D01*
X018778Y034627D02*
X018878Y034627D01*
X018878Y034529D02*
X018778Y034529D01*
X018623Y034529D02*
X018598Y034529D01*
X018513Y034430D02*
X018915Y034430D01*
X018915Y034332D02*
X018415Y034332D01*
X018289Y034233D02*
X018915Y034233D01*
X018915Y034135D02*
X018051Y034135D01*
X018915Y032657D02*
X015251Y032657D01*
X015350Y032559D02*
X018915Y032559D01*
X018915Y032460D02*
X015405Y032460D01*
X015446Y032362D02*
X018915Y032362D01*
X023057Y029210D02*
X024668Y029210D01*
X024629Y029308D02*
X023214Y029308D01*
X023937Y029407D02*
X024629Y029407D01*
X024629Y029505D02*
X024077Y029505D01*
X024174Y029604D02*
X024180Y029616D01*
X024285Y029731D01*
X024473Y029731D01*
X024611Y029788D01*
X024611Y029733D01*
X024629Y029690D01*
X024624Y029702D02*
X024258Y029702D01*
X026105Y028422D02*
X026634Y028422D01*
X026634Y028520D02*
X026365Y028520D01*
X026472Y028619D02*
X026634Y028619D01*
X026634Y028717D02*
X026571Y028717D01*
X026634Y026550D02*
X016794Y026550D01*
X016831Y026452D02*
X026634Y026452D01*
X026634Y026353D02*
X016831Y026353D01*
X016831Y026255D02*
X026634Y026255D01*
X026634Y026156D02*
X016831Y026156D01*
X016831Y026058D02*
X026634Y026058D01*
X026634Y025959D02*
X026370Y025959D01*
X026473Y025861D02*
X026634Y025861D01*
X026634Y025762D02*
X026544Y025762D01*
X026585Y025664D02*
X026634Y025664D01*
X026634Y025565D02*
X026604Y025565D01*
X026604Y025467D02*
X026634Y025467D01*
X026634Y025368D02*
X026604Y025368D01*
X026604Y025270D02*
X026634Y025270D01*
X027167Y022727D02*
X027112Y022672D01*
X027182Y022602D01*
X027974Y022602D01*
X028318Y022258D01*
X028318Y021745D01*
X028395Y021668D01*
X028395Y021708D01*
X028364Y021708D01*
X028353Y021685D02*
X028642Y021396D01*
X031965Y021396D01*
X032379Y021810D01*
X032379Y022303D01*
X032299Y022383D01*
X032254Y022383D01*
X032169Y022298D01*
X032169Y021830D01*
X031910Y021571D01*
X028671Y021571D01*
X028452Y021790D01*
X028452Y022348D01*
X028074Y022727D01*
X027167Y022727D01*
X027560Y022622D02*
X027994Y022622D01*
X028353Y022263D01*
X028353Y021685D01*
X028395Y021668D02*
X028617Y021446D01*
X028906Y021446D01*
X028916Y021456D01*
X031920Y021456D01*
X032239Y021775D01*
X032239Y022303D01*
X032244Y022298D01*
X032244Y021875D01*
X031855Y021486D01*
X031457Y021486D01*
X030810Y022611D02*
X030738Y022611D01*
X030714Y022635D01*
X030606Y022635D01*
X030571Y022671D01*
X030571Y023538D01*
X030636Y023502D02*
X030636Y022677D01*
X030690Y022623D01*
X030738Y022623D01*
X030785Y022670D01*
X030733Y022670D01*
X030785Y022670D02*
X030804Y022689D01*
X030852Y022689D01*
X030810Y022731D01*
X030810Y023568D01*
X030828Y023586D01*
X030858Y023556D01*
X030858Y022659D01*
X030810Y022611D01*
X030636Y023502D02*
X030702Y023568D01*
X029620Y023568D01*
X029566Y023622D01*
X029530Y023663D02*
X031396Y023663D01*
X031318Y023586D01*
X030828Y023586D01*
X031318Y023586D02*
X031784Y023586D01*
X031784Y023717D01*
X031761Y023741D01*
X029452Y023741D01*
X029530Y023663D01*
X027993Y021496D02*
X028016Y021473D01*
X027993Y021496D02*
X027939Y021496D01*
X027939Y020923D01*
X028248Y020614D01*
X028248Y020714D01*
X028213Y020749D01*
X033261Y020749D01*
X033854Y021342D01*
X033903Y021342D01*
X033166Y020604D01*
X033166Y020564D01*
X033236Y020634D01*
X033340Y020634D01*
X033888Y021182D01*
X033888Y021272D01*
X033276Y020659D01*
X033276Y020579D01*
X033246Y020609D01*
X029215Y020609D01*
X028213Y020559D02*
X027909Y020863D01*
X027909Y021466D01*
X027939Y021496D01*
X027869Y021461D02*
X027869Y020818D01*
X028183Y020504D01*
X033365Y020504D01*
X033988Y021127D01*
X033988Y022657D01*
X033948Y022697D01*
X033948Y021207D01*
X033300Y020559D01*
X028213Y020559D01*
X028213Y020749D02*
X028009Y020953D01*
X026004Y018966D02*
X023527Y018966D01*
X023526Y018964D02*
X023673Y019111D01*
X023752Y019303D01*
X023752Y020299D01*
X023751Y020301D01*
X024669Y020301D01*
X026133Y018836D01*
X026133Y017512D01*
X026028Y017556D01*
X025713Y017556D01*
X025713Y018052D01*
X025633Y018244D01*
X025486Y018391D01*
X025294Y018471D01*
X022645Y018471D01*
X022453Y018391D01*
X022306Y018244D01*
X022227Y018052D01*
X022227Y015561D01*
X022306Y015369D01*
X022314Y015362D01*
X022314Y015269D01*
X022235Y015079D01*
X022235Y014084D01*
X022314Y013892D01*
X022461Y013745D01*
X015657Y013745D01*
X015657Y013647D02*
X023911Y013647D01*
X023911Y013578D02*
X023872Y013483D01*
X023872Y012870D01*
X023855Y012887D01*
X023561Y013008D01*
X023243Y013008D01*
X022949Y012887D01*
X022725Y012662D01*
X022603Y012368D01*
X022603Y012050D01*
X022725Y011756D01*
X022800Y011680D01*
X022800Y011570D01*
X022892Y011348D01*
X023235Y011005D01*
X022949Y010887D01*
X022725Y010662D01*
X022603Y010368D01*
X022603Y010050D01*
X022725Y009756D01*
X022772Y009709D01*
X022725Y009662D01*
X022603Y009368D01*
X022603Y009050D01*
X022725Y008756D01*
X022772Y008709D01*
X022725Y008662D01*
X022603Y008368D01*
X022603Y008050D01*
X022725Y007756D01*
X022949Y007531D01*
X023243Y007409D01*
X023561Y007409D01*
X023855Y007531D01*
X024080Y007756D01*
X024202Y008050D01*
X024202Y008368D01*
X024080Y008662D01*
X024033Y008709D01*
X024080Y008756D01*
X024187Y009013D01*
X024187Y008722D01*
X024311Y008423D01*
X024540Y008193D01*
X024840Y008069D01*
X025170Y008069D01*
X025443Y008183D01*
X025443Y006845D01*
X024225Y005627D01*
X019297Y005627D01*
X019376Y005921D01*
X019376Y006240D01*
X019293Y006548D01*
X019192Y006724D01*
X020780Y006724D01*
X021044Y006833D01*
X021661Y007450D01*
X021855Y007531D01*
X022080Y007756D01*
X022202Y008050D01*
X022202Y008368D01*
X022080Y008662D01*
X022033Y008709D01*
X022080Y008756D01*
X022202Y009050D01*
X022202Y009368D01*
X022080Y009662D01*
X022033Y009709D01*
X022080Y009756D01*
X022202Y010050D01*
X022202Y010368D01*
X022080Y010662D01*
X021855Y010887D01*
X021561Y011008D01*
X021243Y011008D01*
X020949Y010887D01*
X020725Y010662D01*
X020603Y010368D01*
X020603Y010050D01*
X020702Y009811D01*
X019973Y009811D01*
X019752Y009719D01*
X019500Y009467D01*
X018478Y009467D01*
X018478Y009505D01*
X018866Y009505D01*
X018856Y009567D01*
X018835Y009631D01*
X018805Y009691D01*
X018765Y009745D01*
X018718Y009792D01*
X018663Y009832D01*
X018603Y009863D01*
X018539Y009883D01*
X018478Y009893D01*
X018478Y009505D01*
X018401Y009505D01*
X018401Y009893D01*
X018339Y009883D01*
X018275Y009863D01*
X018275Y009862D01*
X018251Y009920D01*
X018026Y010145D01*
X017732Y010266D01*
X017414Y010266D01*
X017140Y010153D01*
X016866Y010266D01*
X016548Y010266D01*
X016274Y010153D01*
X016000Y010266D01*
X015682Y010266D01*
X015657Y010256D01*
X015657Y014087D01*
X015678Y014108D01*
X015757Y014300D01*
X015757Y014828D01*
X015715Y014929D01*
X015838Y014929D01*
X015875Y014891D01*
X016067Y014812D01*
X016472Y014812D01*
X016664Y014891D01*
X016811Y015038D01*
X016871Y015184D01*
X016888Y015184D01*
X016926Y015194D01*
X016960Y015214D01*
X016988Y015242D01*
X017008Y015276D01*
X017018Y015314D01*
X017018Y015531D01*
X016891Y015531D01*
X016891Y015531D01*
X017018Y015531D01*
X017018Y015586D01*
X017021Y015583D01*
X017024Y015576D01*
X017103Y015497D01*
X017181Y015415D01*
X017188Y015412D01*
X017580Y015020D01*
X017801Y014929D01*
X017942Y014929D01*
X017980Y014891D01*
X018172Y014812D01*
X018576Y014812D01*
X018768Y014891D01*
X018915Y015038D01*
X018976Y015184D01*
X018992Y015184D01*
X019030Y015194D01*
X019064Y015214D01*
X019092Y015242D01*
X019112Y015276D01*
X019122Y015314D01*
X019122Y015531D01*
X018995Y015531D01*
X018995Y015531D01*
X019122Y015531D01*
X019122Y015748D01*
X019112Y015786D01*
X019092Y015820D01*
X019064Y015848D01*
X019030Y015868D01*
X018992Y015878D01*
X018976Y015878D01*
X018915Y016024D01*
X018768Y016171D01*
X018576Y016250D01*
X018345Y016250D01*
X018345Y016677D01*
X018291Y016807D01*
X018345Y016936D01*
X018345Y017363D01*
X018576Y017363D01*
X018624Y017383D01*
X018672Y017363D01*
X019076Y017363D01*
X019093Y017370D01*
X019093Y016936D01*
X019173Y016744D01*
X019320Y016597D01*
X019466Y016537D01*
X019466Y016443D01*
X019861Y016443D01*
X019861Y016383D01*
X019466Y016383D01*
X019466Y016233D01*
X019476Y016195D01*
X019496Y016161D01*
X019523Y016133D01*
X019558Y016113D01*
X019596Y016103D01*
X019861Y016103D01*
X019861Y016383D01*
X019921Y016383D01*
X019921Y016103D01*
X020186Y016103D01*
X020225Y016113D01*
X020259Y016133D01*
X020287Y016161D01*
X020307Y016195D01*
X020317Y016233D01*
X020317Y016383D01*
X019921Y016383D01*
X019921Y016443D01*
X020317Y016443D01*
X020317Y016537D01*
X020463Y016597D01*
X020610Y016744D01*
X020662Y016871D01*
X021654Y016871D01*
X021846Y016950D01*
X021993Y017097D01*
X022073Y017289D01*
X022073Y018127D01*
X021993Y018319D01*
X021846Y018466D01*
X021777Y018495D01*
X021777Y018938D01*
X021698Y019130D01*
X021551Y019277D01*
X021460Y019315D01*
X021480Y019349D01*
X021490Y019387D01*
X021490Y019751D01*
X021154Y019751D01*
X021154Y019851D01*
X021490Y019851D01*
X021490Y020214D01*
X021480Y020253D01*
X021460Y020287D01*
X021432Y020315D01*
X021398Y020334D01*
X021360Y020345D01*
X022254Y020345D01*
X022235Y020299D02*
X022235Y019303D01*
X022314Y019111D01*
X022461Y018964D01*
X022653Y018885D01*
X023334Y018885D01*
X023526Y018964D01*
X023625Y019064D02*
X025905Y019064D01*
X025807Y019163D02*
X023694Y019163D01*
X023735Y019261D02*
X025708Y019261D01*
X025610Y019360D02*
X023752Y019360D01*
X023752Y019458D02*
X025511Y019458D01*
X025413Y019557D02*
X023752Y019557D01*
X023752Y019655D02*
X025314Y019655D01*
X025216Y019754D02*
X023752Y019754D01*
X023752Y019852D02*
X025117Y019852D01*
X025019Y019951D02*
X023752Y019951D01*
X023752Y020049D02*
X024920Y020049D01*
X024822Y020148D02*
X023752Y020148D01*
X023752Y020246D02*
X024723Y020246D01*
X026102Y018867D02*
X021777Y018867D01*
X021777Y018769D02*
X026133Y018769D01*
X026133Y018670D02*
X021777Y018670D01*
X021777Y018572D02*
X026133Y018572D01*
X026133Y018473D02*
X021829Y018473D01*
X021938Y018375D02*
X022437Y018375D01*
X022338Y018276D02*
X022011Y018276D01*
X022052Y018178D02*
X022279Y018178D01*
X022238Y018079D02*
X022073Y018079D01*
X022073Y017981D02*
X022227Y017981D01*
X022227Y017882D02*
X022073Y017882D01*
X022073Y017784D02*
X022227Y017784D01*
X022227Y017685D02*
X022073Y017685D01*
X022073Y017587D02*
X022227Y017587D01*
X022227Y017488D02*
X022073Y017488D01*
X022073Y017390D02*
X022227Y017390D01*
X022227Y017291D02*
X022073Y017291D01*
X022033Y017193D02*
X022227Y017193D01*
X022227Y017094D02*
X021990Y017094D01*
X021892Y016996D02*
X022227Y016996D01*
X022227Y016897D02*
X021718Y016897D01*
X021568Y016372D02*
X021146Y016372D01*
X021146Y015957D01*
X021698Y015957D01*
X021698Y016242D01*
X021688Y016280D01*
X021669Y016314D01*
X021641Y016342D01*
X021606Y016362D01*
X021568Y016372D01*
X021673Y016306D02*
X022227Y016306D01*
X022227Y016208D02*
X021698Y016208D01*
X021698Y016109D02*
X022227Y016109D01*
X022227Y016011D02*
X021698Y016011D01*
X021698Y015857D02*
X021698Y015573D01*
X021688Y015534D01*
X021669Y015500D01*
X021641Y015472D01*
X021606Y015453D01*
X021568Y015442D01*
X021146Y015442D01*
X021146Y015857D01*
X021146Y015957D01*
X021046Y015957D01*
X021046Y015857D01*
X021146Y015857D01*
X021698Y015857D01*
X021698Y015814D02*
X022227Y015814D01*
X022227Y015912D02*
X021146Y015912D01*
X021146Y015814D02*
X021046Y015814D01*
X021046Y015857D02*
X021046Y015442D01*
X020623Y015442D01*
X020585Y015453D01*
X020551Y015472D01*
X020523Y015500D01*
X020503Y015534D01*
X020493Y015573D01*
X020493Y015857D01*
X021046Y015857D01*
X021046Y015912D02*
X018962Y015912D01*
X018921Y016011D02*
X020493Y016011D01*
X020493Y015957D02*
X021046Y015957D01*
X021046Y016372D01*
X020623Y016372D01*
X020585Y016362D01*
X020551Y016342D01*
X020523Y016314D01*
X020503Y016280D01*
X020493Y016242D01*
X020493Y015957D01*
X020493Y015814D02*
X019096Y015814D01*
X019122Y015715D02*
X020493Y015715D01*
X020493Y015617D02*
X019122Y015617D01*
X019122Y015518D02*
X020513Y015518D01*
X020775Y015095D02*
X020747Y015067D01*
X020728Y015033D01*
X020718Y014995D01*
X020718Y014631D01*
X021054Y014631D01*
X021054Y014531D01*
X021154Y014531D01*
X021154Y014631D01*
X021490Y014631D01*
X021490Y014995D01*
X021480Y015033D01*
X021460Y015067D01*
X021432Y015095D01*
X021398Y015115D01*
X021360Y015125D01*
X021154Y015125D01*
X021154Y014631D01*
X021054Y014631D01*
X021054Y015125D01*
X020848Y015125D01*
X020810Y015115D01*
X020775Y015095D01*
X020844Y015124D02*
X018951Y015124D01*
X018902Y015026D02*
X020726Y015026D01*
X020718Y014927D02*
X018804Y014927D01*
X018617Y014829D02*
X020718Y014829D01*
X020718Y014730D02*
X015757Y014730D01*
X015757Y014632D02*
X020718Y014632D01*
X020718Y014531D02*
X020718Y014168D01*
X020728Y014130D01*
X020747Y014096D01*
X020775Y014068D01*
X020810Y014048D01*
X020848Y014038D01*
X021054Y014038D01*
X021054Y014531D01*
X020718Y014531D01*
X020718Y014435D02*
X015757Y014435D01*
X015757Y014533D02*
X021054Y014533D01*
X021054Y014435D02*
X021154Y014435D01*
X021154Y014531D02*
X021154Y014038D01*
X021360Y014038D01*
X021398Y014048D01*
X021432Y014068D01*
X021460Y014096D01*
X021480Y014130D01*
X021490Y014168D01*
X021490Y014531D01*
X021154Y014531D01*
X021154Y014533D02*
X022235Y014533D01*
X022235Y014435D02*
X021490Y014435D01*
X021490Y014336D02*
X022235Y014336D01*
X022235Y014238D02*
X021490Y014238D01*
X021482Y014139D02*
X022235Y014139D01*
X022253Y014041D02*
X021371Y014041D01*
X021154Y014041D02*
X021054Y014041D01*
X021054Y014139D02*
X021154Y014139D01*
X021154Y014238D02*
X021054Y014238D01*
X021054Y014336D02*
X021154Y014336D01*
X021154Y014632D02*
X021054Y014632D01*
X021054Y014730D02*
X021154Y014730D01*
X021154Y014829D02*
X021054Y014829D01*
X021054Y014927D02*
X021154Y014927D01*
X021154Y015026D02*
X021054Y015026D01*
X021054Y015124D02*
X021154Y015124D01*
X021363Y015124D02*
X022253Y015124D01*
X022235Y015026D02*
X021482Y015026D01*
X021490Y014927D02*
X022235Y014927D01*
X022235Y014829D02*
X021490Y014829D01*
X021490Y014730D02*
X022235Y014730D01*
X022235Y014632D02*
X021490Y014632D01*
X020718Y014336D02*
X015757Y014336D01*
X015731Y014238D02*
X020718Y014238D01*
X020725Y014139D02*
X015691Y014139D01*
X015657Y014041D02*
X020837Y014041D01*
X021243Y013008D02*
X020949Y012887D01*
X020725Y012662D01*
X020603Y012368D01*
X020603Y012050D01*
X020725Y011756D01*
X020949Y011531D01*
X021243Y011409D01*
X021561Y011409D01*
X021855Y011531D01*
X022080Y011756D01*
X022202Y012050D01*
X022202Y012368D01*
X022080Y012662D01*
X021855Y012887D01*
X021561Y013008D01*
X021243Y013008D01*
X021120Y012957D02*
X015657Y012957D01*
X015657Y012859D02*
X020921Y012859D01*
X020823Y012760D02*
X015657Y012760D01*
X015657Y012662D02*
X020724Y012662D01*
X020684Y012563D02*
X015657Y012563D01*
X015657Y012465D02*
X020643Y012465D01*
X020603Y012366D02*
X015657Y012366D01*
X015657Y012268D02*
X020603Y012268D01*
X020603Y012169D02*
X015657Y012169D01*
X015657Y012071D02*
X020603Y012071D01*
X020635Y011972D02*
X015657Y011972D01*
X015657Y011874D02*
X020676Y011874D01*
X020717Y011775D02*
X015657Y011775D01*
X015657Y011677D02*
X020804Y011677D01*
X020902Y011578D02*
X015657Y011578D01*
X015657Y011480D02*
X021073Y011480D01*
X021192Y010987D02*
X015657Y010987D01*
X015657Y010889D02*
X020954Y010889D01*
X020853Y010790D02*
X015657Y010790D01*
X015657Y010692D02*
X020754Y010692D01*
X020696Y010593D02*
X015657Y010593D01*
X015657Y010495D02*
X020655Y010495D01*
X020614Y010396D02*
X015657Y010396D01*
X015657Y010298D02*
X020603Y010298D01*
X020603Y010199D02*
X017895Y010199D01*
X018070Y010101D02*
X020603Y010101D01*
X020622Y010002D02*
X018169Y010002D01*
X018258Y009904D02*
X020663Y009904D01*
X019959Y009805D02*
X018700Y009805D01*
X018793Y009707D02*
X019739Y009707D01*
X019641Y009608D02*
X018843Y009608D01*
X018865Y009510D02*
X019542Y009510D01*
X018478Y009510D02*
X018401Y009510D01*
X018401Y009608D02*
X018478Y009608D01*
X018478Y009707D02*
X018401Y009707D01*
X018401Y009805D02*
X018478Y009805D01*
X017252Y010199D02*
X017028Y010199D01*
X016386Y010199D02*
X016162Y010199D01*
X015657Y011086D02*
X023155Y011086D01*
X023192Y010987D02*
X021613Y010987D01*
X021851Y010889D02*
X022954Y010889D01*
X022853Y010790D02*
X021952Y010790D01*
X022050Y010692D02*
X022754Y010692D01*
X022696Y010593D02*
X022109Y010593D01*
X022149Y010495D02*
X022655Y010495D01*
X022614Y010396D02*
X022190Y010396D01*
X022202Y010298D02*
X022603Y010298D01*
X022603Y010199D02*
X022202Y010199D01*
X022202Y010101D02*
X022603Y010101D01*
X022622Y010002D02*
X022182Y010002D01*
X022141Y009904D02*
X022663Y009904D01*
X022704Y009805D02*
X022101Y009805D01*
X022035Y009707D02*
X022769Y009707D01*
X022702Y009608D02*
X022102Y009608D01*
X022143Y009510D02*
X022662Y009510D01*
X022621Y009411D02*
X022184Y009411D01*
X022202Y009313D02*
X022603Y009313D01*
X022603Y009214D02*
X022202Y009214D01*
X022202Y009116D02*
X022603Y009116D01*
X022616Y009017D02*
X022188Y009017D01*
X022148Y008919D02*
X022657Y008919D01*
X022698Y008820D02*
X022107Y008820D01*
X022046Y008722D02*
X022759Y008722D01*
X022709Y008623D02*
X022096Y008623D01*
X022137Y008525D02*
X022668Y008525D01*
X022627Y008426D02*
X022178Y008426D01*
X022202Y008328D02*
X022603Y008328D01*
X022603Y008229D02*
X022202Y008229D01*
X022202Y008131D02*
X022603Y008131D01*
X022610Y008032D02*
X022195Y008032D01*
X022154Y007934D02*
X022651Y007934D01*
X022692Y007835D02*
X022113Y007835D01*
X022061Y007737D02*
X022744Y007737D01*
X022842Y007638D02*
X021963Y007638D01*
X021864Y007540D02*
X022941Y007540D01*
X023166Y007441D02*
X021652Y007441D01*
X021553Y007343D02*
X025443Y007343D01*
X025443Y007441D02*
X023639Y007441D01*
X023864Y007540D02*
X025443Y007540D01*
X025443Y007638D02*
X023963Y007638D01*
X024061Y007737D02*
X025443Y007737D01*
X025443Y007835D02*
X024113Y007835D01*
X024154Y007934D02*
X025443Y007934D01*
X025443Y008032D02*
X024195Y008032D01*
X024202Y008131D02*
X024692Y008131D01*
X024505Y008229D02*
X024202Y008229D01*
X024202Y008328D02*
X024406Y008328D01*
X024310Y008426D02*
X024178Y008426D01*
X024137Y008525D02*
X024269Y008525D01*
X024228Y008623D02*
X024096Y008623D01*
X024046Y008722D02*
X024187Y008722D01*
X024187Y008820D02*
X024107Y008820D01*
X024148Y008919D02*
X024187Y008919D01*
X025317Y008131D02*
X025443Y008131D01*
X025443Y007244D02*
X021455Y007244D01*
X021356Y007146D02*
X025443Y007146D01*
X025443Y007047D02*
X021258Y007047D01*
X021159Y006949D02*
X025443Y006949D01*
X025443Y006850D02*
X021061Y006850D01*
X020847Y006752D02*
X025350Y006752D01*
X025251Y006653D02*
X019233Y006653D01*
X019289Y006555D02*
X025153Y006555D01*
X025054Y006456D02*
X019318Y006456D01*
X019344Y006358D02*
X024956Y006358D01*
X024857Y006259D02*
X019371Y006259D01*
X019376Y006161D02*
X024759Y006161D01*
X024660Y006062D02*
X019376Y006062D01*
X019376Y005964D02*
X024562Y005964D01*
X024463Y005865D02*
X019361Y005865D01*
X019334Y005767D02*
X024365Y005767D01*
X024266Y005668D02*
X019308Y005668D01*
X014293Y007343D02*
X007171Y007343D01*
X007230Y007201D02*
X007230Y006871D01*
X007106Y006572D01*
X007055Y006520D01*
X007055Y006259D01*
X007055Y006358D02*
X008008Y006358D01*
X008034Y006456D02*
X007055Y006456D01*
X007089Y006555D02*
X008063Y006555D01*
X008120Y006653D02*
X007140Y006653D01*
X007181Y006752D02*
X008176Y006752D01*
X008244Y006850D02*
X007221Y006850D01*
X007230Y006949D02*
X008343Y006949D01*
X008441Y007047D02*
X007230Y007047D01*
X007230Y007146D02*
X008610Y007146D01*
X008988Y004880D02*
X003128Y004880D01*
X005376Y005471D02*
X005436Y005471D01*
X005436Y005570D02*
X005376Y005570D01*
X005376Y005668D02*
X005436Y005668D01*
X005436Y005767D02*
X005376Y005767D01*
X005376Y005865D02*
X005436Y005865D01*
X005436Y005964D02*
X005376Y005964D01*
X005376Y006062D02*
X005436Y006062D01*
X005436Y006161D02*
X005376Y006161D01*
X005626Y006161D02*
X005659Y006161D01*
X005603Y006850D02*
X001421Y006850D01*
X003532Y007835D02*
X006202Y007835D01*
X003249Y012957D02*
X003151Y012957D01*
X003150Y013056D02*
X003119Y013056D01*
X003087Y013154D02*
X003058Y013154D01*
X003046Y013253D02*
X002945Y013253D01*
X009599Y014074D02*
X010212Y013461D01*
X012384Y017566D02*
X012384Y017603D01*
X015458Y016443D02*
X015854Y016443D01*
X015854Y016537D01*
X016000Y016597D01*
X016002Y016600D01*
X016538Y016600D01*
X016754Y016689D01*
X016749Y016677D01*
X016749Y016149D01*
X016793Y016042D01*
X016664Y016171D01*
X016472Y016250D01*
X016067Y016250D01*
X015875Y016171D01*
X015838Y016134D01*
X015796Y016134D01*
X015824Y016161D01*
X015843Y016195D01*
X015854Y016233D01*
X015854Y016383D01*
X015458Y016383D01*
X015458Y016443D01*
X015458Y016405D02*
X016749Y016405D01*
X016749Y016503D02*
X015854Y016503D01*
X015854Y016306D02*
X016749Y016306D01*
X016749Y016208D02*
X016575Y016208D01*
X016726Y016109D02*
X016765Y016109D01*
X017018Y015518D02*
X017082Y015518D01*
X017018Y015420D02*
X017177Y015420D01*
X017279Y015321D02*
X017018Y015321D01*
X016969Y015223D02*
X017377Y015223D01*
X017476Y015124D02*
X016847Y015124D01*
X016798Y015026D02*
X017574Y015026D01*
X017944Y014927D02*
X016700Y014927D01*
X016513Y014829D02*
X018131Y014829D01*
X019073Y015223D02*
X022294Y015223D01*
X022314Y015321D02*
X019122Y015321D01*
X019122Y015420D02*
X022285Y015420D01*
X022245Y015518D02*
X021679Y015518D01*
X021698Y015617D02*
X022227Y015617D01*
X022227Y015715D02*
X021698Y015715D01*
X021146Y015715D02*
X021046Y015715D01*
X021046Y015617D02*
X021146Y015617D01*
X021146Y015518D02*
X021046Y015518D01*
X021046Y016011D02*
X021146Y016011D01*
X021146Y016109D02*
X021046Y016109D01*
X021046Y016208D02*
X021146Y016208D01*
X021146Y016306D02*
X021046Y016306D01*
X020632Y016799D02*
X022227Y016799D01*
X022227Y016700D02*
X020565Y016700D01*
X020467Y016602D02*
X022227Y016602D01*
X022227Y016503D02*
X020317Y016503D01*
X020317Y016306D02*
X020518Y016306D01*
X020493Y016208D02*
X020310Y016208D01*
X020209Y016109D02*
X020493Y016109D01*
X019921Y016109D02*
X019861Y016109D01*
X019861Y016208D02*
X019921Y016208D01*
X019921Y016306D02*
X019861Y016306D01*
X019861Y016405D02*
X018345Y016405D01*
X018345Y016503D02*
X019466Y016503D01*
X019316Y016602D02*
X018345Y016602D01*
X018335Y016700D02*
X019217Y016700D01*
X019150Y016799D02*
X018294Y016799D01*
X018328Y016897D02*
X019109Y016897D01*
X019093Y016996D02*
X018345Y016996D01*
X018345Y017094D02*
X019093Y017094D01*
X019093Y017193D02*
X018345Y017193D01*
X018345Y017291D02*
X019093Y017291D01*
X019466Y016306D02*
X018345Y016306D01*
X018680Y016208D02*
X019472Y016208D01*
X019573Y016109D02*
X018830Y016109D01*
X019921Y016405D02*
X022227Y016405D01*
X023726Y015142D02*
X023927Y015142D01*
X023891Y015055D01*
X023891Y014792D01*
X023910Y014746D01*
X023910Y014484D01*
X023910Y014356D01*
X023911Y014229D01*
X023911Y013578D01*
X023899Y013548D02*
X015657Y013548D01*
X015657Y013450D02*
X023872Y013450D01*
X023872Y013351D02*
X015657Y013351D01*
X015657Y013253D02*
X023872Y013253D01*
X023872Y013154D02*
X015657Y013154D01*
X015657Y013056D02*
X023872Y013056D01*
X023872Y012957D02*
X023685Y012957D01*
X023120Y012957D02*
X021685Y012957D01*
X021883Y012859D02*
X022921Y012859D01*
X022823Y012760D02*
X021982Y012760D01*
X022080Y012662D02*
X022724Y012662D01*
X022684Y012563D02*
X022121Y012563D01*
X022162Y012465D02*
X022643Y012465D01*
X022603Y012366D02*
X022202Y012366D01*
X022202Y012268D02*
X022603Y012268D01*
X022603Y012169D02*
X022202Y012169D01*
X022202Y012071D02*
X022603Y012071D01*
X022635Y011972D02*
X022170Y011972D01*
X022129Y011874D02*
X022676Y011874D01*
X022717Y011775D02*
X022088Y011775D01*
X022001Y011677D02*
X022800Y011677D01*
X022800Y011578D02*
X021903Y011578D01*
X021732Y011480D02*
X022837Y011480D01*
X022878Y011381D02*
X015657Y011381D01*
X015657Y011283D02*
X022958Y011283D01*
X023056Y011184D02*
X015657Y011184D01*
X015657Y013844D02*
X022363Y013844D01*
X022294Y013942D02*
X015657Y013942D01*
X015757Y014829D02*
X016027Y014829D01*
X015840Y014927D02*
X015716Y014927D01*
X015847Y016208D02*
X015964Y016208D01*
X016542Y016602D02*
X016749Y016602D01*
X018720Y019002D02*
X018645Y019184D01*
X018448Y019381D01*
X018190Y019488D01*
X017911Y019488D01*
X017684Y019394D01*
X016364Y020713D01*
X016143Y020805D01*
X012912Y020805D01*
X012923Y020830D01*
X012923Y021161D01*
X012799Y021460D01*
X012570Y021689D01*
X012443Y021742D01*
X012443Y021871D01*
X012368Y022050D01*
X012396Y022078D01*
X012420Y022136D01*
X012507Y022136D01*
X012515Y022139D01*
X013037Y022139D01*
X013051Y022125D01*
X013262Y022038D01*
X014080Y022038D01*
X014193Y021991D01*
X014193Y021897D01*
X014589Y021897D01*
X014589Y021837D01*
X014193Y021837D01*
X014193Y021687D01*
X014203Y021649D01*
X014223Y021615D01*
X014251Y021587D01*
X014285Y021567D01*
X014324Y021557D01*
X014589Y021557D01*
X014589Y021837D01*
X014649Y021837D01*
X014649Y021897D01*
X015044Y021897D01*
X015044Y021983D01*
X015385Y021983D01*
X015385Y021898D01*
X015781Y021898D01*
X015781Y021838D01*
X015841Y021838D01*
X015841Y021898D01*
X016236Y021898D01*
X016236Y021983D01*
X016268Y021983D01*
X016504Y022081D01*
X016509Y022086D01*
X016690Y022267D01*
X016749Y022409D01*
X016749Y022095D01*
X016803Y021965D01*
X016749Y021835D01*
X016749Y021307D01*
X016828Y021115D01*
X016975Y020968D01*
X016998Y020959D01*
X017012Y020923D01*
X017019Y020914D01*
X017024Y020903D01*
X017101Y020827D01*
X017175Y020747D01*
X017185Y020742D01*
X017749Y020178D01*
X017922Y020107D01*
X017980Y020049D01*
X017028Y020049D01*
X016930Y020148D02*
X017823Y020148D01*
X017681Y020246D02*
X016831Y020246D01*
X016733Y020345D02*
X017583Y020345D01*
X017484Y020443D02*
X016634Y020443D01*
X016536Y020542D02*
X017386Y020542D01*
X017287Y020640D02*
X016437Y020640D01*
X016303Y020739D02*
X017189Y020739D01*
X017090Y020837D02*
X012923Y020837D01*
X012923Y020936D02*
X017007Y020936D01*
X016909Y021034D02*
X012923Y021034D01*
X012923Y021133D02*
X016821Y021133D01*
X016780Y021231D02*
X012894Y021231D01*
X012853Y021330D02*
X016749Y021330D01*
X016749Y021428D02*
X012812Y021428D01*
X012732Y021527D02*
X016749Y021527D01*
X016749Y021625D02*
X016212Y021625D01*
X016206Y021616D02*
X016226Y021650D01*
X016236Y021688D01*
X016236Y021838D01*
X015841Y021838D01*
X015841Y021558D01*
X016106Y021558D01*
X016144Y021568D01*
X016178Y021588D01*
X016206Y021616D01*
X016236Y021724D02*
X016749Y021724D01*
X016749Y021822D02*
X016236Y021822D01*
X016236Y021921D02*
X016784Y021921D01*
X016780Y022019D02*
X016354Y022019D01*
X016540Y022118D02*
X016749Y022118D01*
X016749Y022216D02*
X016639Y022216D01*
X016710Y022315D02*
X016749Y022315D01*
X016792Y022807D02*
X016825Y022807D01*
X016792Y022906D02*
X016919Y022906D01*
X016913Y023004D02*
X016791Y023004D01*
X016757Y023103D02*
X016873Y023103D01*
X016866Y023201D02*
X016716Y023201D01*
X016655Y023300D02*
X016866Y023300D01*
X016872Y023398D02*
X016557Y023398D01*
X016433Y023497D02*
X016913Y023497D01*
X016954Y023595D02*
X016318Y023595D01*
X016395Y023694D02*
X017035Y023694D01*
X017133Y023792D02*
X016399Y023792D01*
X016399Y023891D02*
X017344Y023891D01*
X017628Y023989D02*
X016119Y023989D01*
X016119Y023891D02*
X016059Y023891D01*
X016059Y023792D02*
X016119Y023792D01*
X016119Y023694D02*
X016059Y023694D01*
X016059Y023595D02*
X016119Y023595D01*
X016535Y024088D02*
X017642Y024088D01*
X017682Y024186D02*
X016646Y024186D01*
X016744Y024285D02*
X017723Y024285D01*
X017806Y024383D02*
X016785Y024383D01*
X016826Y024482D02*
X017904Y024482D01*
X018103Y024580D02*
X016831Y024580D01*
X016831Y024679D02*
X019873Y024679D01*
X019762Y024580D02*
X018554Y024580D01*
X018753Y024482D02*
X018980Y024482D01*
X019093Y022528D02*
X019093Y022095D01*
X019173Y021903D01*
X019320Y021756D01*
X019466Y021695D01*
X019466Y021601D01*
X019861Y021601D01*
X019861Y021541D01*
X019466Y021541D01*
X019466Y021391D01*
X019476Y021353D01*
X019496Y021319D01*
X019523Y021291D01*
X019558Y021271D01*
X019596Y021261D01*
X019861Y021261D01*
X019861Y021541D01*
X019921Y021541D01*
X019921Y021261D01*
X020186Y021261D01*
X020225Y021271D01*
X020259Y021291D01*
X020287Y021319D01*
X020307Y021353D01*
X020317Y021391D01*
X020317Y021541D01*
X019921Y021541D01*
X019921Y021601D01*
X020317Y021601D01*
X020317Y021695D01*
X020463Y021756D01*
X020610Y021903D01*
X020662Y022029D01*
X021654Y022029D01*
X021846Y022108D01*
X021993Y022255D01*
X022073Y022447D01*
X022073Y023285D01*
X021993Y023477D01*
X021846Y023624D01*
X021777Y023653D01*
X021777Y023840D01*
X021846Y023673D01*
X022076Y023443D01*
X022287Y023356D01*
X022227Y023210D01*
X022227Y020719D01*
X022306Y020527D01*
X022311Y020522D01*
X022311Y020483D01*
X022235Y020299D01*
X022235Y020246D02*
X021481Y020246D01*
X021490Y020148D02*
X022235Y020148D01*
X022235Y020049D02*
X021490Y020049D01*
X021490Y019951D02*
X022235Y019951D01*
X022235Y019852D02*
X021490Y019852D01*
X021490Y019655D02*
X022235Y019655D01*
X022235Y019557D02*
X021490Y019557D01*
X021490Y019458D02*
X022235Y019458D01*
X022235Y019360D02*
X021482Y019360D01*
X021460Y019315D02*
X021460Y019315D01*
X021567Y019261D02*
X022252Y019261D01*
X022293Y019163D02*
X021665Y019163D01*
X021725Y019064D02*
X022362Y019064D01*
X022460Y018966D02*
X021766Y018966D01*
X022235Y019754D02*
X021154Y019754D01*
X021154Y019851D02*
X021054Y019851D01*
X021054Y020345D01*
X020848Y020345D01*
X020810Y020334D01*
X020775Y020315D01*
X020747Y020287D01*
X020728Y020253D01*
X020718Y020214D01*
X020718Y019851D01*
X021054Y019851D01*
X021054Y019751D01*
X020718Y019751D01*
X020718Y019387D01*
X020728Y019349D01*
X020744Y019321D01*
X020701Y019303D01*
X020571Y019357D01*
X020043Y019357D01*
X019851Y019277D01*
X019729Y019155D01*
X019115Y019149D01*
X018998Y019149D01*
X018995Y019148D01*
X018992Y019148D01*
X018884Y019102D01*
X018777Y019057D01*
X018774Y019055D01*
X018771Y019054D01*
X018720Y019002D01*
X018694Y019064D02*
X018793Y019064D01*
X018654Y019163D02*
X019737Y019163D01*
X019835Y019261D02*
X018568Y019261D01*
X018469Y019360D02*
X020725Y019360D01*
X020718Y019458D02*
X018262Y019458D01*
X017839Y019458D02*
X017619Y019458D01*
X017521Y019557D02*
X020718Y019557D01*
X020718Y019655D02*
X017422Y019655D01*
X017324Y019754D02*
X021054Y019754D01*
X021054Y019852D02*
X021154Y019852D01*
X021154Y019851D02*
X021154Y020345D01*
X021360Y020345D01*
X021154Y020345D02*
X021054Y020345D01*
X021054Y020246D02*
X021154Y020246D01*
X021154Y020148D02*
X021054Y020148D01*
X021054Y020049D02*
X021154Y020049D01*
X021154Y019951D02*
X021054Y019951D01*
X020718Y019951D02*
X017127Y019951D01*
X017225Y019852D02*
X020718Y019852D01*
X020718Y020049D02*
X018767Y020049D01*
X018768Y020049D02*
X018915Y020196D01*
X018976Y020342D01*
X018992Y020342D01*
X019030Y020353D01*
X019064Y020372D01*
X019092Y020400D01*
X019112Y020434D01*
X019122Y020473D01*
X019122Y020689D01*
X018995Y020689D01*
X018995Y020689D01*
X019122Y020689D01*
X019122Y020906D01*
X019112Y020944D01*
X019092Y020978D01*
X019064Y021006D01*
X019030Y021026D01*
X018992Y021036D01*
X018976Y021036D01*
X018915Y021182D01*
X018768Y021329D01*
X018576Y021408D01*
X018345Y021408D01*
X018345Y021835D01*
X018291Y021965D01*
X018345Y022095D01*
X018345Y022521D01*
X018576Y022521D01*
X018624Y022541D01*
X018672Y022521D01*
X019076Y022521D01*
X019093Y022528D01*
X019093Y022512D02*
X018345Y022512D01*
X018345Y022413D02*
X019093Y022413D01*
X019093Y022315D02*
X018345Y022315D01*
X018345Y022216D02*
X019093Y022216D01*
X019093Y022118D02*
X018345Y022118D01*
X018314Y022019D02*
X019124Y022019D01*
X019165Y021921D02*
X018309Y021921D01*
X018345Y021822D02*
X019253Y021822D01*
X019397Y021724D02*
X018345Y021724D01*
X018345Y021625D02*
X019466Y021625D01*
X019466Y021527D02*
X018345Y021527D01*
X018345Y021428D02*
X019466Y021428D01*
X019489Y021330D02*
X018767Y021330D01*
X018866Y021231D02*
X020493Y021231D01*
X020493Y021133D02*
X018936Y021133D01*
X018999Y021034D02*
X021046Y021034D01*
X021046Y021015D02*
X020493Y021015D01*
X020493Y020731D01*
X020503Y020693D01*
X020523Y020658D01*
X020551Y020630D01*
X020585Y020611D01*
X020623Y020600D01*
X021046Y020600D01*
X021046Y021015D01*
X021146Y021015D01*
X021146Y020600D01*
X021568Y020600D01*
X021606Y020611D01*
X021641Y020630D01*
X021669Y020658D01*
X021688Y020693D01*
X021698Y020731D01*
X021698Y021015D01*
X021146Y021015D01*
X021146Y021115D01*
X021698Y021115D01*
X021698Y021400D01*
X021688Y021438D01*
X021669Y021472D01*
X021641Y021500D01*
X021606Y021520D01*
X021568Y021530D01*
X021146Y021530D01*
X021146Y021115D01*
X021046Y021115D01*
X021046Y021015D01*
X021046Y020936D02*
X021146Y020936D01*
X021146Y021034D02*
X022227Y021034D01*
X022227Y020936D02*
X021698Y020936D01*
X021698Y020837D02*
X022227Y020837D01*
X022227Y020739D02*
X021698Y020739D01*
X021650Y020640D02*
X022260Y020640D01*
X022300Y020542D02*
X019122Y020542D01*
X019122Y020640D02*
X020541Y020640D01*
X020493Y020739D02*
X019122Y020739D01*
X019122Y020837D02*
X020493Y020837D01*
X020493Y020936D02*
X019114Y020936D01*
X019114Y020443D02*
X022295Y020443D01*
X022227Y021133D02*
X021698Y021133D01*
X021698Y021231D02*
X022227Y021231D01*
X022227Y021330D02*
X021698Y021330D01*
X021691Y021428D02*
X022227Y021428D01*
X022227Y021527D02*
X021582Y021527D01*
X021146Y021527D02*
X021046Y021527D01*
X021046Y021530D02*
X020623Y021530D01*
X020585Y021520D01*
X020551Y021500D01*
X020523Y021472D01*
X020503Y021438D01*
X020493Y021400D01*
X020493Y021115D01*
X021046Y021115D01*
X021046Y021530D01*
X021046Y021428D02*
X021146Y021428D01*
X021146Y021330D02*
X021046Y021330D01*
X021046Y021231D02*
X021146Y021231D01*
X021146Y021133D02*
X021046Y021133D01*
X021046Y020837D02*
X021146Y020837D01*
X021146Y020739D02*
X021046Y020739D01*
X021046Y020640D02*
X021146Y020640D01*
X020847Y020345D02*
X019000Y020345D01*
X018936Y020246D02*
X020726Y020246D01*
X020718Y020148D02*
X018866Y020148D01*
X018768Y020049D02*
X018576Y019970D01*
X018172Y019970D01*
X017980Y020049D01*
X019861Y021330D02*
X019921Y021330D01*
X019921Y021428D02*
X019861Y021428D01*
X019861Y021527D02*
X019921Y021527D01*
X020317Y021527D02*
X020609Y021527D01*
X020500Y021428D02*
X020317Y021428D01*
X020293Y021330D02*
X020493Y021330D01*
X020317Y021625D02*
X022227Y021625D01*
X022227Y021724D02*
X020385Y021724D01*
X020529Y021822D02*
X022227Y021822D01*
X022227Y021921D02*
X020617Y021921D01*
X020658Y022019D02*
X022227Y022019D01*
X022227Y022118D02*
X021856Y022118D01*
X021954Y022216D02*
X022227Y022216D01*
X022227Y022315D02*
X022018Y022315D01*
X022059Y022413D02*
X022227Y022413D01*
X022227Y022512D02*
X022073Y022512D01*
X022073Y022610D02*
X022227Y022610D01*
X022227Y022709D02*
X022073Y022709D01*
X022073Y022807D02*
X022227Y022807D01*
X022227Y022906D02*
X022073Y022906D01*
X022073Y023004D02*
X022227Y023004D01*
X022227Y023103D02*
X022073Y023103D01*
X022073Y023201D02*
X022227Y023201D01*
X022264Y023300D02*
X022067Y023300D01*
X022026Y023398D02*
X022185Y023398D01*
X022022Y023497D02*
X021974Y023497D01*
X021924Y023595D02*
X021875Y023595D01*
X021838Y023694D02*
X021777Y023694D01*
X021777Y023792D02*
X021797Y023792D01*
X021044Y024777D02*
X016831Y024777D01*
X016831Y024876D02*
X021063Y024876D01*
X021104Y024974D02*
X016831Y024974D01*
X016831Y025073D02*
X021175Y025073D01*
X021278Y025171D02*
X016831Y025171D01*
X016831Y025270D02*
X021416Y025270D01*
X021416Y025467D02*
X016831Y025467D01*
X016831Y025565D02*
X021425Y025565D01*
X021812Y025565D02*
X021872Y025565D01*
X021872Y025467D02*
X021812Y025467D01*
X021812Y025368D02*
X016831Y025368D01*
X016831Y025664D02*
X022423Y025664D01*
X022404Y025565D02*
X022258Y025565D01*
X022267Y025467D02*
X022404Y025467D01*
X022404Y025368D02*
X021872Y025368D01*
X022267Y025270D02*
X022404Y025270D01*
X022464Y025762D02*
X016831Y025762D01*
X016831Y025861D02*
X022535Y025861D01*
X022638Y025959D02*
X016831Y025959D01*
X014010Y023476D02*
X012662Y023476D01*
X012562Y023476D01*
X012562Y022878D01*
X012393Y022708D01*
X011894Y022708D01*
X011928Y022777D02*
X011928Y023014D01*
X012341Y023427D01*
X012675Y023427D01*
X012694Y023408D01*
X012694Y023292D01*
X013376Y022610D01*
X014880Y022610D01*
X014619Y022654D02*
X014010Y023476D01*
X014125Y022019D02*
X012381Y022019D01*
X012412Y022118D02*
X013069Y022118D01*
X012634Y021625D02*
X014217Y021625D01*
X014193Y021724D02*
X012487Y021724D01*
X012443Y021822D02*
X014193Y021822D01*
X014193Y021921D02*
X012422Y021921D01*
X011781Y021739D02*
X011500Y022020D01*
X011500Y022708D01*
X011303Y022708D02*
X011303Y021765D01*
X011210Y021640D01*
X010910Y021901D02*
X010910Y022708D01*
X011107Y022708D02*
X011107Y023711D01*
X011320Y023711D01*
X011697Y023334D01*
X011697Y022708D01*
X010910Y021901D02*
X010809Y021800D01*
X010809Y021241D01*
X010516Y021504D02*
X010113Y021101D01*
X010516Y021504D02*
X010516Y022708D01*
X010984Y023595D02*
X010884Y023838D01*
X010733Y023989D02*
X011805Y023989D01*
X011107Y023711D02*
X011107Y024702D01*
X010003Y026199D02*
X009925Y026261D01*
X011697Y027196D02*
X011697Y028078D01*
X012226Y028607D01*
X012410Y027557D02*
X012049Y027196D01*
X011894Y027196D01*
X012282Y029505D02*
X014148Y029505D01*
X008627Y023400D02*
X008238Y023400D01*
X008209Y023429D01*
X008209Y023368D01*
X008206Y023365D01*
X008324Y023365D01*
X008390Y023299D01*
X008693Y023299D01*
X008705Y023310D01*
X008451Y023310D01*
X008431Y023331D01*
X008558Y023331D01*
X008627Y023400D01*
X008489Y023464D02*
X008136Y023464D01*
X008136Y023298D01*
X007711Y023298D01*
X008173Y023673D02*
X006083Y023673D01*
X005137Y022726D01*
X001479Y022495D02*
X001479Y021866D01*
X001383Y021770D01*
X000761Y021770D01*
X000689Y021842D01*
X000689Y022447D01*
X000804Y022563D01*
X001308Y022563D01*
X001431Y022440D01*
X001431Y021926D01*
X001337Y021832D01*
X000782Y021832D01*
X000749Y021866D01*
X000749Y022176D01*
X000782Y022210D01*
X000782Y022286D01*
X001003Y022508D01*
X001287Y022508D01*
X001388Y022407D01*
X001388Y021991D01*
X001296Y021900D01*
X000830Y021900D01*
X000823Y021892D01*
X000823Y022152D01*
X000833Y022162D01*
X000833Y022286D01*
X000886Y022339D01*
X000929Y022339D01*
X001027Y022438D01*
X001272Y022438D01*
X001314Y022396D01*
X001314Y022380D01*
X001276Y022380D01*
X001251Y022366D02*
X001282Y022335D01*
X001282Y022109D01*
X001208Y022034D01*
X000934Y022034D01*
X000926Y022041D01*
X000926Y022234D01*
X000962Y022270D01*
X001191Y022270D01*
X001229Y022308D01*
X001229Y022142D01*
X001198Y022111D01*
X001078Y022111D01*
X001066Y022099D01*
X001023Y022099D01*
X001006Y022116D01*
X001006Y022181D01*
X000996Y022190D01*
X001164Y022190D01*
X001174Y022200D01*
X001133Y022200D01*
X001085Y022248D01*
X001025Y022366D02*
X000905Y022246D01*
X000878Y022246D01*
X000878Y022380D01*
X000905Y022246D02*
X000905Y022214D01*
X000866Y022176D01*
X000866Y021965D01*
X000866Y021962D01*
X000878Y021974D01*
X001258Y021974D01*
X001258Y021965D01*
X001276Y021965D01*
X001258Y021974D02*
X001335Y022051D01*
X001335Y022375D01*
X001314Y022396D01*
X001251Y022366D02*
X001025Y022366D01*
X000713Y022606D02*
X001368Y022606D01*
X001479Y022495D01*
X000878Y021965D02*
X000866Y021965D01*
X014589Y021822D02*
X014649Y021822D01*
X014649Y021837D02*
X014649Y021557D01*
X014914Y021557D01*
X014952Y021567D01*
X014987Y021587D01*
X015014Y021615D01*
X015034Y021649D01*
X015044Y021687D01*
X015044Y021837D01*
X014649Y021837D01*
X014649Y021724D02*
X014589Y021724D01*
X014589Y021625D02*
X014649Y021625D01*
X015020Y021625D02*
X015410Y021625D01*
X015415Y021616D02*
X015443Y021588D01*
X015477Y021568D01*
X015515Y021558D01*
X015781Y021558D01*
X015781Y021838D01*
X015385Y021838D01*
X015385Y021688D01*
X015395Y021650D01*
X015415Y021616D01*
X015385Y021724D02*
X015044Y021724D01*
X015044Y021822D02*
X015385Y021822D01*
X015385Y021921D02*
X015044Y021921D01*
X015781Y021822D02*
X015841Y021822D01*
X015841Y021724D02*
X015781Y021724D01*
X015781Y021625D02*
X015841Y021625D01*
X023726Y015142D02*
X023752Y015079D01*
X023752Y014084D01*
X023673Y013892D01*
X023526Y013745D01*
X023911Y013745D01*
X023911Y013844D02*
X023624Y013844D01*
X023693Y013942D02*
X023911Y013942D01*
X023911Y014041D02*
X023734Y014041D01*
X023752Y014139D02*
X023911Y014139D01*
X023911Y014229D02*
X023911Y014229D01*
X023910Y014238D02*
X023752Y014238D01*
X023752Y014336D02*
X023910Y014336D01*
X023910Y014435D02*
X023752Y014435D01*
X023752Y014533D02*
X023910Y014533D01*
X023910Y014484D02*
X023910Y014484D01*
X023910Y014632D02*
X023752Y014632D01*
X023752Y014730D02*
X023910Y014730D01*
X023891Y014829D02*
X023752Y014829D01*
X023752Y014927D02*
X023891Y014927D01*
X023891Y015026D02*
X023752Y015026D01*
X023733Y015124D02*
X023919Y015124D01*
X023526Y013745D02*
X023334Y013665D01*
X022653Y013665D01*
X022461Y013745D01*
X024202Y012342D02*
X024291Y012306D01*
X024702Y012306D01*
X024679Y012250D01*
X024584Y012250D01*
X024584Y011855D01*
X024524Y011855D01*
X024524Y011795D01*
X024244Y011795D01*
X024244Y011700D01*
X024112Y011832D01*
X024202Y012050D01*
X024202Y012342D01*
X024202Y012268D02*
X024686Y012268D01*
X024584Y012169D02*
X024524Y012169D01*
X024524Y012250D02*
X024375Y012250D01*
X024337Y012240D01*
X024302Y012220D01*
X024274Y012192D01*
X024255Y012158D01*
X024244Y012120D01*
X024244Y011855D01*
X024524Y011855D01*
X024524Y012250D01*
X024524Y012071D02*
X024584Y012071D01*
X024584Y011972D02*
X024524Y011972D01*
X024524Y011874D02*
X024584Y011874D01*
X024584Y011795D02*
X024584Y011399D01*
X024679Y011399D01*
X024726Y011283D01*
X024728Y011135D01*
X024676Y011008D01*
X024617Y011008D01*
X024617Y010709D01*
X024588Y010709D01*
X024588Y010983D01*
X024589Y010985D01*
X024589Y011064D01*
X024600Y011141D01*
X024589Y011182D01*
X024589Y011225D01*
X024559Y011297D01*
X024540Y011373D01*
X024520Y011399D01*
X024524Y011399D01*
X024524Y011795D01*
X024584Y011795D01*
X024584Y011775D02*
X024524Y011775D01*
X024524Y011677D02*
X024584Y011677D01*
X024584Y011578D02*
X024524Y011578D01*
X024524Y011480D02*
X024584Y011480D01*
X024534Y011381D02*
X024686Y011381D01*
X024726Y011283D02*
X024565Y011283D01*
X024589Y011184D02*
X024728Y011184D01*
X024708Y011086D02*
X024592Y011086D01*
X024589Y010987D02*
X024617Y010987D01*
X024617Y010889D02*
X024588Y010889D01*
X024588Y010790D02*
X024617Y010790D01*
X024244Y011775D02*
X024169Y011775D01*
X024129Y011874D02*
X024244Y011874D01*
X024244Y011972D02*
X024170Y011972D01*
X024202Y012071D02*
X024244Y012071D01*
X024261Y012169D02*
X024202Y012169D01*
X025713Y017587D02*
X026133Y017587D01*
X026133Y017685D02*
X025713Y017685D01*
X025713Y017784D02*
X026133Y017784D01*
X026133Y017882D02*
X025713Y017882D01*
X025713Y017981D02*
X026133Y017981D01*
X026133Y018079D02*
X025702Y018079D01*
X025661Y018178D02*
X026133Y018178D01*
X026133Y018276D02*
X025601Y018276D01*
X025503Y018375D02*
X026133Y018375D01*
D41*
X026816Y019119D02*
X026816Y006093D01*
X026125Y006566D02*
X026125Y016050D01*
X025382Y016793D01*
X025296Y016793D01*
X023956Y016793D01*
X026816Y019119D02*
X023970Y021965D01*
X023952Y021963D01*
X023934Y021959D01*
X023918Y021951D01*
X023903Y021940D01*
X023890Y021927D01*
X023879Y021913D01*
X023871Y021896D01*
X023867Y021878D01*
X023865Y021860D01*
X023865Y021794D01*
X023808Y021792D01*
X023751Y021787D01*
X023695Y021777D01*
X023639Y021764D01*
X023585Y021748D01*
X023531Y021728D01*
X023479Y021704D01*
X023429Y021677D01*
X023381Y021647D01*
X023334Y021614D01*
X023290Y021578D01*
X023248Y021539D01*
X023209Y021497D01*
X023173Y021453D01*
X023140Y021406D01*
X023110Y021358D01*
X023083Y021308D01*
X023059Y021256D01*
X023039Y021202D01*
X023023Y021148D01*
X023010Y021092D01*
X023000Y021036D01*
X022995Y020979D01*
X022993Y020922D01*
X022993Y019801D01*
X021104Y019801D02*
X021104Y021057D01*
X021842Y024565D02*
X023202Y024565D01*
X023202Y024566D01*
X024901Y024552D02*
X025806Y024566D01*
X027785Y024552D01*
X028530Y025297D01*
X030004Y025297D01*
X033069Y025297D01*
X033549Y024817D01*
X033537Y024454D01*
X033468Y018451D02*
X033547Y018372D01*
X033547Y018248D01*
X033468Y018451D02*
X033468Y016449D01*
X032678Y015659D01*
X032390Y015659D01*
X032390Y016587D01*
X032390Y015659D02*
X031093Y015659D01*
X031004Y015659D01*
X031093Y015659D02*
X030422Y016330D01*
X030422Y016858D01*
X029635Y016858D02*
X029631Y016861D01*
X028434Y016861D01*
X015440Y017238D02*
X015428Y018106D01*
X014122Y018391D02*
X013260Y018391D01*
X012384Y018391D01*
X011526Y018391D01*
X010641Y018391D01*
X009596Y018391D01*
X007813Y018391D01*
X007862Y018342D01*
X007862Y017993D01*
X007862Y017553D01*
X007862Y016765D02*
X007862Y016408D01*
X007862Y013015D01*
X009778Y011100D01*
X009778Y009467D01*
X008912Y009467D02*
X008912Y010360D01*
X008912Y010539D01*
X007913Y011539D01*
X006616Y011539D01*
X004320Y011836D02*
X004320Y009229D01*
X005399Y007633D01*
X005488Y007813D01*
X007007Y007813D01*
X007038Y007782D01*
X007761Y007782D01*
X008133Y007409D01*
X009727Y007409D01*
X009754Y007437D01*
X009778Y007947D01*
X009778Y008285D01*
X011510Y009467D02*
X011524Y012616D01*
X011511Y014564D01*
X012371Y014564D02*
X012383Y012616D01*
X012376Y009467D01*
X013242Y009467D02*
X013254Y012616D01*
X013242Y014564D01*
X014104Y014564D02*
X014116Y012616D01*
X014109Y009467D01*
X014975Y009467D02*
X014975Y014550D01*
X014975Y008285D02*
X014975Y006102D01*
X004320Y011836D02*
X003288Y012868D01*
X002409Y012868D01*
X006140Y018042D02*
X006233Y018135D01*
X006233Y018398D01*
X006240Y018391D01*
X007813Y018391D01*
X006233Y018398D02*
X006233Y019442D01*
X006177Y019498D01*
X002293Y019498D01*
X002308Y020512D02*
X002296Y023216D01*
X001381Y023203D01*
X000878Y022380D02*
X000705Y022380D01*
X000651Y022326D01*
X002296Y024004D02*
X003340Y024005D01*
X003352Y023993D02*
X003352Y024406D01*
X003687Y024741D01*
X003352Y023993D02*
X003352Y022726D01*
X003352Y021939D02*
X005137Y021939D01*
X006233Y021939D01*
X006233Y019442D01*
X007752Y022670D02*
X007530Y022891D01*
X007299Y022891D01*
X002117Y025543D02*
X002100Y025527D01*
X001688Y025527D01*
X001030Y026184D01*
X001030Y032121D01*
X002058Y033148D01*
X003507Y034597D01*
X004915Y034597D01*
X004843Y034525D01*
X004843Y033891D01*
X004915Y034597D02*
X007699Y034597D01*
X015641Y034985D02*
X015641Y034117D01*
X015650Y034108D01*
X015641Y035772D02*
X015641Y036175D01*
X015641Y036175D01*
X014619Y021867D02*
X014620Y021632D01*
D42*
X015811Y022655D02*
X016104Y022795D01*
X016130Y022870D01*
X016089Y024004D02*
X016681Y024004D01*
X016681Y020454D01*
X016734Y020401D01*
X016023Y020203D02*
X017547Y018679D01*
X017547Y017200D01*
X017547Y016413D02*
X017535Y015917D01*
X017921Y015531D01*
X018374Y015531D01*
X018874Y015531D02*
X018886Y015519D01*
X018874Y015531D02*
X019873Y015531D01*
X019879Y015537D01*
X019891Y016413D01*
X019891Y017200D02*
X020373Y017708D01*
X021098Y017708D01*
X021096Y017710D01*
X021095Y018559D01*
X020307Y018559D02*
X019118Y018547D01*
X018877Y018306D01*
X018877Y018086D01*
X018874Y018082D01*
X018374Y018082D02*
X018374Y018464D01*
X018051Y018787D01*
X018847Y019801D02*
X018874Y019828D01*
X018874Y020689D01*
X018374Y020689D02*
X018090Y020689D01*
X017535Y021245D01*
X017547Y021571D01*
X018374Y023240D02*
X018374Y023870D01*
X018329Y023915D01*
X018874Y023568D02*
X018874Y023240D01*
X018874Y023568D02*
X019245Y023939D01*
X020307Y023951D01*
X021095Y023951D02*
X021096Y022868D01*
X021098Y022866D01*
X020373Y022866D01*
X019891Y022358D01*
X019891Y021571D02*
X020383Y021065D01*
X021096Y021065D01*
X024067Y024191D02*
X024536Y023723D01*
X025908Y023723D01*
X026462Y023169D01*
X027174Y023169D01*
X027174Y022669D02*
X028016Y022665D01*
X028364Y022317D01*
X028364Y021708D01*
X028877Y021465D01*
X030307Y021465D01*
X030256Y021500D01*
X030307Y021465D02*
X031138Y021465D01*
X031138Y021499D01*
X031125Y021500D01*
X031138Y021465D02*
X031979Y021465D01*
X032346Y021832D01*
X032346Y022355D01*
X032846Y022355D02*
X032846Y023652D01*
X032650Y023666D01*
X033346Y023652D02*
X033537Y023666D01*
X033346Y023652D02*
X033346Y022355D01*
X033846Y022355D02*
X033846Y021435D01*
X033095Y020684D01*
X031125Y020713D01*
X030256Y020713D01*
X028347Y020673D01*
X028019Y021068D01*
X028016Y021473D01*
X029221Y022669D02*
X030003Y022669D01*
X030004Y022669D01*
X030004Y022669D01*
X030004Y022668D01*
X029221Y023169D02*
X028622Y023169D01*
X028309Y023482D01*
X028309Y024110D01*
X028682Y024483D01*
X030738Y024454D01*
X030748Y024455D01*
X030723Y023669D02*
X030738Y023666D01*
X030723Y023669D02*
X029221Y023669D01*
X031643Y023665D02*
X031643Y023666D01*
X031644Y023666D01*
X031644Y023666D01*
X030569Y027002D02*
X030569Y027004D01*
X028776Y027033D01*
X028776Y027820D02*
X028785Y027821D01*
X028785Y029045D01*
X028454Y028925D02*
X027832Y029547D01*
X027647Y029547D01*
X027677Y029517D01*
X027677Y028662D01*
X027970Y028369D01*
X028358Y028369D01*
X028340Y028387D01*
X028340Y028914D01*
X027850Y029404D01*
X027754Y029404D01*
X027784Y029374D01*
X027784Y028656D01*
X027982Y028459D01*
X028221Y028459D01*
X028251Y028489D01*
X028251Y028860D01*
X027874Y029236D01*
X027874Y029242D01*
X027916Y029201D01*
X027916Y028692D01*
X028047Y028561D01*
X028143Y028561D01*
X028137Y028567D01*
X028137Y028818D01*
X027993Y028961D01*
X027993Y028967D01*
X028035Y028925D01*
X028035Y028686D01*
X027934Y028788D01*
X027934Y028961D01*
X027569Y029326D01*
X027569Y034190D01*
X028382Y035004D01*
X031816Y035004D01*
X031965Y034854D01*
X031910Y034854D01*
X031910Y034750D01*
X031911Y034749D01*
X031910Y034854D02*
X031636Y035128D01*
X028138Y035128D01*
X027331Y034321D01*
X027331Y029835D01*
X027303Y029806D01*
X027303Y034009D01*
X028323Y035029D01*
X028178Y035029D01*
X028168Y035019D01*
X027456Y034306D01*
X027247Y034400D02*
X027247Y028807D01*
X028025Y028029D01*
X028675Y028029D01*
X028651Y028052D01*
X028651Y028603D01*
X028573Y028525D01*
X028573Y028058D01*
X028514Y028118D01*
X028023Y028118D01*
X027342Y028800D01*
X027342Y029894D01*
X027348Y029888D01*
X027611Y029888D01*
X027569Y029846D01*
X027569Y028704D01*
X028047Y028226D01*
X028460Y028226D01*
X028454Y028232D01*
X028454Y028925D01*
X028707Y027920D02*
X028112Y027920D01*
X027458Y028575D01*
X027458Y034611D01*
X028158Y035312D01*
X031820Y035312D01*
X032446Y034686D01*
X032446Y034382D01*
X032428Y034365D01*
X032428Y034490D01*
X031713Y035204D01*
X028051Y035204D01*
X027247Y034400D01*
X028168Y035019D02*
X028168Y035019D01*
X029729Y033061D02*
X033611Y033061D01*
X033618Y033054D01*
X032327Y033054D01*
X032284Y033097D01*
X032284Y033534D01*
X032112Y033534D01*
X032187Y033609D01*
X032187Y033658D01*
X032205Y032910D01*
X032196Y032901D01*
X032014Y032901D02*
X031974Y032861D01*
X031974Y032640D01*
X031807Y032473D01*
X031925Y033046D02*
X031982Y033104D01*
X032076Y033104D01*
X032112Y033140D01*
X032112Y033534D01*
X030963Y032745D02*
X030856Y032637D01*
X030856Y032515D01*
X033554Y032515D01*
X033597Y032558D01*
X033561Y032558D01*
X033497Y032623D01*
X030920Y032623D01*
X030899Y032645D01*
X030145Y032645D01*
X029729Y033061D01*
X029535Y032444D02*
X033755Y032444D01*
X033769Y032429D01*
X033821Y032378D01*
X033824Y032378D01*
X033799Y032353D01*
X033669Y032223D01*
X030749Y032223D01*
X030680Y032293D01*
X030680Y032403D01*
X030620Y032353D02*
X033799Y032353D01*
X033769Y032429D02*
X033769Y032551D01*
X033575Y032745D01*
X030963Y032745D01*
X032703Y029926D02*
X032618Y029842D01*
X032618Y029705D01*
X032678Y029765D01*
X032618Y029705D02*
X032618Y029672D01*
X032698Y029593D01*
X033445Y029593D01*
X033589Y029448D01*
X033744Y029657D02*
X033744Y029916D01*
X033754Y029926D01*
X032703Y029926D01*
X032683Y029608D02*
X034491Y029608D01*
X035767Y028332D01*
X035767Y020769D01*
X034034Y019036D01*
X034034Y018282D01*
X033895Y018143D01*
X033604Y018143D01*
X033465Y018282D01*
X033465Y018581D01*
X033429Y018617D01*
X033327Y018617D01*
X033327Y018928D01*
X035546Y021146D01*
X035546Y028072D01*
X034882Y028736D01*
X034374Y028736D01*
X034349Y028760D01*
X034349Y029343D01*
X034460Y029455D01*
X034461Y029455D01*
X035651Y028264D01*
X035651Y020791D01*
X033967Y019107D01*
X033967Y018276D01*
X033955Y018264D01*
X033728Y018264D01*
X033638Y018353D01*
X033638Y019077D01*
X033770Y019209D01*
X033770Y018336D01*
X033734Y018300D01*
X033734Y018437D01*
X033554Y018617D01*
X033554Y018963D01*
X033530Y018987D01*
X033530Y018951D01*
X033465Y018886D01*
X033465Y018700D01*
X033483Y018682D01*
X033471Y018682D01*
X033435Y018646D01*
X033435Y018730D01*
X035552Y020847D01*
X035552Y027945D01*
X034708Y028788D01*
X034708Y028842D01*
X034397Y029154D01*
X034397Y028950D01*
X034561Y028785D01*
X034481Y028785D01*
X034456Y028761D01*
X034456Y029548D01*
X034402Y029603D01*
X034078Y029603D01*
X034053Y029627D01*
X034053Y030036D01*
X034088Y030071D01*
X033819Y030071D01*
X033789Y030041D01*
X033789Y029702D01*
X033744Y029657D01*
X033096Y029765D02*
X033091Y029769D01*
X033091Y029774D01*
X025806Y025353D02*
X025780Y025393D01*
X024876Y025353D02*
X024850Y025367D01*
X024067Y025367D02*
X024067Y024191D01*
X024877Y024566D02*
X024885Y024567D01*
X024892Y024564D01*
X024898Y024559D01*
X024901Y024552D01*
X023202Y024566D02*
X022386Y024564D01*
X022379Y024571D01*
X022693Y029945D02*
X023664Y029945D01*
X024094Y030413D01*
X024094Y031201D02*
X023417Y031917D01*
X022696Y031917D01*
X016679Y027988D02*
X016436Y028231D01*
X016025Y028231D01*
X016025Y028019D01*
X016679Y027988D02*
X016679Y025313D01*
X016679Y023968D01*
X016643Y024004D01*
X016089Y024004D01*
X016089Y024829D02*
X016103Y025654D01*
X016129Y025680D01*
X016129Y026329D01*
X016130Y026331D01*
X016009Y026994D02*
X015616Y026994D01*
X015282Y026660D01*
X015282Y025689D01*
X015273Y025680D01*
X015264Y025680D01*
X015282Y025689D02*
X015282Y025606D01*
X015302Y024829D02*
X015302Y024770D01*
X015302Y024704D01*
X015264Y024666D01*
X015259Y024661D01*
X013006Y022842D02*
X012981Y022868D01*
X012105Y020995D02*
X011854Y020995D01*
X011210Y021640D01*
X010809Y021241D02*
X011848Y020203D01*
X016023Y020203D01*
X015775Y019552D02*
X009927Y019552D01*
X008207Y021272D01*
X008207Y022214D01*
X007752Y022670D01*
X007046Y022280D02*
X007046Y020370D01*
X007680Y019735D01*
X007843Y019898D01*
X007916Y019898D01*
X007680Y019735D02*
X008523Y018893D01*
X015428Y018893D01*
X015775Y019552D02*
X016270Y019057D01*
X016265Y019052D01*
X016265Y018612D01*
X016270Y018607D01*
X016270Y018082D01*
X016770Y018082D02*
X016770Y017554D01*
X016418Y017202D01*
X015428Y017202D01*
X015428Y017200D01*
X015440Y017238D01*
X015428Y016413D02*
X015427Y016400D01*
X016286Y016400D01*
X016770Y015916D01*
X016770Y015531D01*
X016770Y015283D01*
X017334Y014719D01*
X019870Y014719D01*
X019873Y015531D02*
X021044Y015531D01*
X021104Y015471D01*
X021104Y013852D02*
X021569Y013387D01*
X023603Y013387D01*
X024008Y012972D01*
X024008Y012033D01*
X024229Y011812D01*
X024554Y011825D01*
X024574Y011779D01*
X024589Y010681D01*
X023986Y011097D02*
X023987Y011105D01*
X023402Y011690D01*
X023402Y012209D01*
X023986Y011097D02*
X023986Y010084D01*
X024255Y009815D01*
X024963Y009815D01*
X025337Y010681D02*
X025322Y011815D01*
X025325Y011812D01*
X025342Y011825D01*
X025322Y011815D02*
X025322Y013083D01*
X025342Y013104D01*
X021402Y009209D02*
X020093Y009209D01*
X019749Y008865D01*
X017117Y008865D01*
X016734Y009248D01*
X016734Y009439D01*
X016707Y009467D01*
X014959Y015351D02*
X015150Y015531D01*
X016270Y015531D01*
X014116Y017567D02*
X014122Y017603D01*
X013260Y017603D02*
X013254Y017549D01*
X012384Y017603D02*
X012383Y017566D01*
X011526Y017603D02*
X011524Y017566D01*
X009599Y014564D02*
X009599Y014074D01*
X006963Y014928D02*
X006963Y015388D01*
X006915Y015436D01*
X006915Y015936D02*
X006230Y015936D01*
X005911Y015617D01*
X005352Y015632D02*
X005352Y018042D01*
X006088Y016936D02*
X005746Y016594D01*
X005743Y016597D01*
X006088Y016936D02*
X006915Y016936D01*
X006915Y016436D02*
X007835Y016436D01*
X007835Y016435D02*
X007843Y016434D01*
X007851Y016430D01*
X007857Y016424D01*
X007861Y016416D01*
X007862Y016408D01*
X005352Y015632D02*
X005156Y015436D01*
X004679Y015436D01*
X004679Y015936D02*
X004161Y015936D01*
X003997Y015771D01*
X003997Y014158D01*
X003657Y013458D02*
X003657Y016141D01*
X003952Y016436D01*
X004679Y016436D01*
X002293Y020498D02*
X002308Y020512D01*
X001381Y023203D02*
X001381Y023216D01*
X001381Y024004D02*
X001369Y025208D01*
X001611Y025450D01*
X001688Y025527D01*
X004763Y025543D02*
X004766Y025546D01*
X004777Y025546D01*
X005923Y026290D02*
X006257Y025956D01*
X006257Y025542D01*
X006203Y025528D01*
X005923Y026290D02*
X005923Y027195D01*
X005944Y027215D01*
X005944Y027942D01*
X007009Y027942D01*
X007009Y027944D01*
X007293Y027944D01*
X007581Y028232D01*
X007803Y028994D01*
X007581Y029943D01*
X007803Y029952D01*
X008016Y030770D02*
X007720Y031066D01*
X007720Y034576D01*
X007699Y034597D01*
X005944Y031765D02*
X005944Y031765D01*
X005944Y027942D01*
X008016Y030770D02*
X010405Y030770D01*
X010989Y030186D01*
X011202Y029159D01*
X013034Y029188D02*
X013045Y029177D01*
X013976Y029154D02*
X013976Y028891D01*
X013976Y029154D02*
X014009Y029188D01*
X014881Y029188D02*
X014893Y029176D01*
X014893Y028888D01*
X014889Y027309D02*
X014889Y027303D01*
X014893Y027299D01*
X016025Y027231D02*
X016009Y026994D01*
X009799Y031765D02*
X009740Y031765D01*
X004843Y031765D02*
X003297Y031765D01*
X002943Y032119D01*
X002943Y032388D01*
X002937Y032434D01*
X002169Y033259D02*
X002058Y033148D01*
X002169Y033259D02*
X002937Y033221D01*
X006233Y022726D02*
X006560Y022815D01*
X006838Y022891D01*
X008916Y010496D02*
X008916Y010365D01*
X008912Y010360D01*
X006616Y009087D02*
X006540Y009011D01*
X005839Y009011D01*
X031485Y016658D02*
X031603Y016587D01*
X031485Y016658D02*
X031485Y017927D01*
X031804Y018246D01*
X033346Y018248D02*
X033346Y017344D01*
X032407Y016589D02*
X032390Y016587D01*
X033346Y018248D02*
X033547Y018248D01*
X033846Y018248D01*
D43*
X023970Y016807D02*
X023956Y016793D01*
X022993Y015830D01*
X022993Y014581D01*
X021104Y014581D02*
X021104Y013852D01*
X020646Y013394D01*
X018834Y013394D01*
X018439Y013000D01*
X018439Y009467D01*
X015841Y008285D02*
X015841Y006295D01*
X017189Y004947D01*
X024507Y004947D01*
X026125Y006566D01*
X026816Y006093D02*
X025094Y004371D01*
X016618Y004371D01*
X014975Y006013D01*
X014975Y006102D01*
X021104Y014837D02*
X021104Y015471D01*
X021104Y015899D01*
X021096Y015907D01*
X021104Y021057D02*
X021096Y021065D01*
X029683Y031872D02*
X029685Y031890D01*
X029689Y031908D01*
X029697Y031924D01*
X029707Y031939D01*
X029720Y031952D01*
X029735Y031962D01*
X029751Y031970D01*
X029769Y031974D01*
X029787Y031976D01*
X031807Y032901D02*
X032014Y032901D01*
X032075Y032901D01*
X032196Y032901D01*
X033754Y032901D01*
X033809Y032901D01*
X033919Y032792D01*
D44*
X031807Y032901D02*
X029683Y032901D01*
X029683Y031872D01*
X030569Y029045D02*
X030581Y029045D01*
X030569Y027002D02*
X031266Y026306D01*
X033878Y026306D01*
X033885Y026299D01*
X025330Y029876D02*
X025330Y034454D01*
X023609Y036175D01*
X022984Y036175D01*
X017828Y036175D01*
X017828Y035012D01*
X018828Y035012D02*
X018828Y034480D01*
X018456Y034108D01*
X018353Y034108D01*
X015650Y034108D01*
X014440Y034107D01*
X013254Y034108D01*
X011827Y034108D01*
X011109Y033891D01*
X009923Y035027D02*
X009923Y031827D01*
X009860Y031765D01*
X011109Y031765D01*
X009860Y031765D02*
X009740Y031765D01*
X008602Y031765D01*
X008596Y031771D01*
X006801Y031771D02*
X006801Y031765D01*
X005944Y031765D01*
X004843Y031765D01*
X009923Y035027D02*
X011071Y036175D01*
X015641Y036175D01*
X017828Y036175D01*
X019828Y035012D02*
X019828Y031627D01*
X019906Y031548D01*
X021090Y031548D01*
X022693Y029945D01*
X019906Y031548D02*
X014440Y031548D01*
X028434Y015680D02*
X028434Y014606D01*
X028429Y014601D01*
X029735Y014601D01*
X029744Y014592D01*
X031004Y014592D02*
X031037Y014559D01*
X028434Y013336D02*
X028434Y012461D01*
X028434Y013336D02*
X028429Y013341D01*
X028434Y011201D02*
X028438Y011198D01*
X028438Y009485D01*
X021402Y008209D02*
X020637Y007443D01*
X016971Y007443D01*
X016708Y007706D01*
X016708Y008285D01*
D45*
X018399Y009462D02*
X018443Y009506D01*
X018443Y009471D01*
X018439Y009467D01*
X018443Y009506D02*
X018660Y009723D01*
X018660Y012923D01*
X018883Y013146D01*
X020657Y013146D01*
X021277Y013766D01*
X021277Y014895D01*
X021215Y014957D01*
X020880Y014957D01*
X020905Y014932D01*
X020905Y013754D01*
X020731Y013580D01*
X019503Y013580D01*
X019870Y014719D02*
X020966Y014719D01*
X020986Y014719D01*
X021104Y014837D01*
X020966Y014719D02*
X021104Y014581D01*
X024553Y014357D02*
X024554Y013104D01*
X024553Y014357D02*
X024553Y014924D01*
X025296Y016793D02*
X025807Y016793D01*
X025863Y016738D01*
X029635Y016858D02*
X029635Y019045D01*
X030117Y019527D01*
X032377Y019527D01*
X031940Y014662D02*
X031940Y014592D01*
X031004Y014592D01*
X024963Y009815D02*
X024963Y008929D01*
X025005Y008887D01*
X014975Y014550D02*
X014959Y014564D01*
X014104Y015351D02*
X014113Y016987D01*
X014108Y016987D01*
X014108Y016980D01*
X014113Y016987D02*
X014116Y017567D01*
X014118Y017564D02*
X014118Y016426D01*
X013260Y016436D02*
X013260Y017603D01*
X013254Y017549D02*
X013244Y015639D01*
X013234Y015639D01*
X013234Y015942D01*
X013244Y015639D02*
X013242Y015351D01*
X012371Y015351D02*
X012379Y016859D01*
X012390Y016859D01*
X012390Y017002D01*
X012379Y016859D02*
X012383Y017566D01*
X012384Y017566D02*
X012384Y016421D01*
X011526Y016426D02*
X011526Y017603D01*
X011524Y017566D02*
X011513Y015633D01*
X011498Y015633D01*
X011498Y015937D01*
X011513Y015633D02*
X011511Y015351D01*
X010643Y015351D02*
X010641Y015659D01*
X010641Y016426D01*
X010641Y017603D01*
X009596Y017603D02*
X009596Y016426D01*
X009596Y015660D01*
X009599Y015351D01*
X010643Y014564D02*
X010643Y012617D01*
X010644Y009467D01*
X006616Y009087D02*
X006616Y008539D01*
X006616Y009087D02*
X006616Y010499D01*
X003657Y013458D01*
X003997Y014158D02*
X006616Y011539D01*
X006961Y014927D02*
X006962Y014927D01*
X006963Y014928D01*
X009694Y019448D02*
X012208Y019448D01*
X012220Y019460D01*
X009846Y019453D02*
X015761Y019453D01*
X016190Y019025D01*
X016190Y018611D01*
X016234Y018566D01*
X016369Y018566D01*
X016379Y018576D01*
X016379Y019159D01*
X015861Y019677D01*
X009759Y019677D01*
X008223Y021213D01*
X008223Y022261D01*
X007793Y022692D01*
X007549Y022692D01*
X007549Y022641D01*
X007987Y022204D01*
X007987Y021156D01*
X009694Y019448D01*
X009846Y019453D02*
X008105Y021195D01*
X008105Y022167D01*
X012011Y022824D02*
X012053Y022782D01*
X013432Y022782D01*
X013501Y022713D01*
X014571Y022713D01*
X014614Y022755D01*
X015845Y022755D01*
X015878Y022788D01*
X016064Y022788D01*
X016055Y022798D01*
X014414Y022798D01*
X013979Y023233D01*
X013429Y023233D01*
X013160Y022965D01*
X012204Y022965D01*
X012384Y023145D01*
X012473Y023145D01*
X012712Y022906D01*
X013596Y022906D01*
X013684Y022818D01*
X014270Y022818D01*
X014044Y023043D01*
X013894Y023043D01*
X013884Y023053D01*
X013370Y023053D01*
X013471Y022952D01*
X013864Y022952D01*
X013909Y022907D01*
X014102Y022907D01*
X014516Y022934D02*
X014042Y023409D01*
X013400Y023409D01*
X013125Y023133D01*
X012694Y023133D01*
X012617Y023209D01*
X012617Y023400D01*
X012542Y023325D01*
X012365Y023325D01*
X012011Y022971D01*
X012011Y022824D01*
X014516Y022934D02*
X016113Y022934D01*
X016145Y022901D01*
X016145Y022855D01*
X016130Y022870D01*
X016145Y022855D02*
X016145Y022631D01*
X016140Y022626D01*
X014895Y022626D01*
X014880Y022610D01*
X014619Y021867D02*
X014620Y021646D01*
X015811Y021868D01*
X015803Y021638D01*
X015803Y021333D01*
X016734Y020401D01*
X017334Y019801D01*
X018847Y019801D01*
X019870Y019801D01*
X021104Y019801D01*
X024027Y021907D02*
X025863Y021907D01*
X024027Y021908D02*
X024014Y021909D01*
X024002Y021914D01*
X023991Y021920D01*
X023982Y021929D01*
X023976Y021940D01*
X023971Y021952D01*
X023970Y021965D01*
X022540Y024137D02*
X022540Y024571D01*
X022379Y024571D01*
X021842Y025352D02*
X016719Y025352D01*
X016679Y025313D01*
X015264Y024666D02*
X015302Y024004D01*
X015811Y021868D02*
X015834Y021622D01*
X013981Y026241D02*
X013978Y027257D01*
X013967Y027268D01*
X013967Y027309D01*
X013978Y027257D02*
X013976Y028104D01*
X014893Y028100D02*
X014893Y027313D01*
X014889Y027309D01*
X016025Y028019D02*
X016025Y028371D01*
X015208Y029188D01*
X014881Y029188D01*
X014009Y029188D01*
X013976Y029154D02*
X013942Y029188D01*
X013254Y029188D01*
X013254Y034108D01*
X010950Y032078D02*
X010900Y032128D01*
X008826Y032128D01*
X008848Y032106D01*
X009816Y032106D01*
X009682Y032241D01*
X009682Y035042D01*
X011737Y037097D01*
X024165Y037097D01*
X026226Y035036D01*
X026226Y029281D01*
X026015Y029071D01*
X026015Y029108D01*
X025271Y029852D01*
X025271Y029432D01*
X025639Y029064D01*
X025976Y029064D01*
X026012Y029100D01*
X026012Y034937D01*
X024075Y036874D01*
X011226Y036874D01*
X009634Y035281D01*
X009634Y031976D01*
X009827Y031783D01*
X009827Y035073D01*
X009604Y035296D01*
X009604Y035966D01*
X010795Y037157D01*
X024075Y037157D01*
X025861Y035370D01*
X025861Y029371D01*
X025697Y029207D01*
X025697Y029148D01*
X025474Y029371D01*
X025474Y029505D01*
X025504Y029535D01*
X025504Y034805D01*
X025578Y034879D01*
X025578Y035028D01*
X025653Y034954D01*
X025653Y029535D01*
X025549Y029639D01*
X025549Y035147D01*
X023971Y036725D01*
X011480Y036725D01*
X011465Y036740D01*
X011465Y037023D01*
X011405Y036963D01*
X010735Y036963D01*
X009607Y035835D01*
X009607Y031981D01*
X009795Y032169D01*
X009795Y035759D01*
X010807Y036771D01*
X011058Y036771D01*
X011160Y036668D01*
X011160Y036390D01*
X011187Y036363D01*
X023783Y036363D01*
X025345Y034801D01*
X025345Y034714D01*
X025404Y034774D01*
X025404Y035079D01*
X023940Y036543D01*
X011202Y036543D01*
X011367Y036378D01*
X024143Y036378D01*
X020178Y034996D02*
X019927Y035248D01*
X019707Y035248D01*
X019558Y035098D01*
X019558Y031959D01*
X019339Y031740D01*
X019339Y031675D01*
X019493Y031521D01*
X019349Y031682D02*
X019565Y031898D01*
X019565Y034949D01*
X019826Y035210D01*
X019826Y035222D01*
X020071Y034977D01*
X020071Y031955D01*
X020298Y031727D01*
X021187Y031727D01*
X022820Y030094D01*
X022820Y029826D01*
X022417Y029826D01*
X020949Y031293D01*
X014727Y031293D01*
X014717Y031283D01*
X014480Y031508D02*
X014440Y031548D01*
X014480Y031508D02*
X014480Y030254D01*
X014683Y031682D02*
X014719Y031718D01*
X019712Y031718D01*
X019712Y031627D01*
X019828Y031627D01*
X019712Y031718D02*
X019754Y031760D01*
X020166Y031760D01*
X020226Y031700D01*
X020400Y031700D01*
X020178Y031921D01*
X020178Y034996D01*
X020400Y031700D02*
X020770Y031700D01*
X019349Y031682D02*
X014683Y031682D01*
X013254Y029188D02*
X013034Y029188D01*
X012240Y029188D01*
X011990Y029159D01*
X010093Y029780D02*
X010088Y029798D01*
X010088Y030187D01*
X011151Y031489D02*
X010613Y032027D01*
X008733Y032027D01*
X008783Y032078D01*
X010950Y032078D01*
X011151Y031489D02*
X008740Y031489D01*
X008704Y031525D01*
X006850Y033799D02*
X006850Y035453D01*
X006530Y035773D01*
X003700Y035773D01*
X000624Y032697D01*
X000624Y014371D01*
X001302Y013693D01*
X001302Y014654D01*
X000702Y015254D01*
X000702Y014499D01*
X001147Y014055D01*
X001147Y014603D01*
X000816Y014933D01*
X000816Y014654D01*
X001033Y014437D01*
X001002Y014437D01*
X000806Y014634D01*
X000806Y015078D01*
X000651Y015233D01*
X000651Y022326D01*
X000651Y023773D01*
X001062Y024184D01*
X001244Y024184D01*
X001261Y024202D01*
X001261Y024725D01*
X001924Y025387D01*
X001744Y025387D01*
X001082Y024725D01*
X001082Y024296D01*
X001102Y024276D01*
X001052Y024276D01*
X000803Y024027D01*
X000803Y024426D01*
X000773Y024456D01*
X000788Y024456D01*
X000947Y024615D01*
X000947Y024351D01*
X000902Y024306D01*
X000569Y024306D01*
X000506Y024369D01*
X000506Y032611D01*
X003700Y035805D01*
X006987Y035805D01*
X007335Y035458D01*
X007335Y034503D01*
X006355Y033523D01*
X002134Y033523D01*
X000828Y032217D01*
X000828Y024747D01*
X000760Y024679D01*
X000760Y024830D01*
X001406Y025476D01*
X001406Y025562D01*
X000947Y026021D01*
X000947Y025117D01*
X000954Y025110D01*
X000954Y025261D01*
X001234Y025540D01*
X001205Y025540D01*
X001055Y025691D01*
X001055Y025512D01*
X001083Y025483D01*
X001076Y025483D01*
X000796Y025203D01*
X000796Y032625D01*
X003771Y035599D01*
X006443Y035599D01*
X006581Y035461D01*
X006581Y033948D01*
X006294Y033661D01*
X002014Y033661D01*
X000868Y032515D01*
X000991Y032515D01*
X003906Y035429D01*
X006314Y035429D01*
X006490Y035254D01*
X006490Y034075D01*
X006169Y033755D01*
X002480Y033755D01*
X004040Y035316D01*
X006176Y035316D01*
X006443Y035048D01*
X006443Y034301D01*
X006060Y033917D01*
X003018Y033917D01*
X003005Y033931D01*
X003005Y034005D01*
X004143Y035143D01*
X006065Y035143D01*
X006306Y034902D01*
X006306Y034396D01*
X006007Y034097D01*
X003370Y034097D01*
X004259Y034985D01*
X005957Y034985D01*
X006190Y034753D01*
X006190Y034591D01*
X005828Y034230D01*
X003727Y034230D01*
X003719Y034238D01*
X003752Y034238D01*
X004338Y034823D01*
X004804Y034823D01*
X004853Y034873D01*
X004853Y035558D01*
X004804Y034823D02*
X005961Y034823D01*
X006015Y034769D01*
X006015Y034645D01*
X005745Y034375D01*
X004001Y034375D01*
X003960Y034333D01*
X003960Y034351D01*
X004327Y034718D01*
X003370Y034097D02*
X003250Y034097D01*
X002480Y033755D02*
X002469Y033755D01*
X002379Y033321D02*
X006372Y033321D01*
X006850Y033799D01*
X004843Y031765D02*
X004843Y029145D01*
X003663Y028599D01*
X003489Y028599D01*
X002894Y028004D01*
X002894Y027766D01*
X002671Y027543D01*
X002117Y027543D01*
X001198Y026222D02*
X001198Y032140D01*
X002379Y033321D01*
X003723Y027436D02*
X004233Y027436D01*
X003723Y027432D02*
X003723Y027436D01*
X004763Y025543D02*
X002117Y025543D01*
X002118Y025366D02*
X005455Y025366D01*
X005388Y025432D01*
X005388Y025552D01*
X005376Y025540D01*
X005389Y025528D01*
X005416Y025528D01*
X005362Y025543D01*
X004763Y025543D01*
X005376Y025540D02*
X001880Y025540D01*
X001198Y026222D01*
X001611Y025450D02*
X000478Y024317D01*
X000478Y014392D01*
X001334Y013535D01*
X001334Y008408D01*
X001874Y007868D01*
X002409Y007868D01*
X002521Y008002D02*
X001808Y008002D01*
X001403Y008407D01*
X001403Y014801D01*
X000603Y015602D01*
X000603Y023692D01*
X000882Y023972D01*
X001525Y023972D01*
X001560Y024007D01*
X001560Y024807D01*
X002118Y025366D01*
X003327Y024005D02*
X003340Y024005D01*
X003327Y024001D02*
X003327Y024005D01*
X002521Y008002D02*
X002545Y007978D01*
X005399Y007633D02*
X005406Y006524D01*
X005406Y005801D01*
X006406Y005801D02*
X006412Y005807D01*
X006412Y007036D01*
X023202Y025353D02*
X024067Y025367D01*
X024850Y025367D01*
X024876Y025353D02*
X025780Y025393D01*
X030748Y024455D02*
X031644Y024454D01*
X032650Y024454D01*
X033885Y026074D02*
X033885Y026299D01*
X033885Y026074D02*
X034735Y025224D01*
X033885Y032901D02*
X033754Y032901D01*
X033885Y032901D02*
X033885Y034156D01*
X032187Y034445D02*
X031911Y034749D01*
X031816Y034854D01*
X030560Y034854D01*
D46*
X025330Y029876D03*
X025669Y029543D03*
X025988Y029219D03*
X032678Y029765D03*
X033091Y029774D03*
X030733Y022670D03*
X028877Y021465D03*
X028016Y021473D03*
X019853Y020955D03*
X019861Y020395D03*
X019870Y019801D03*
X018051Y018787D03*
X016265Y018612D03*
X016258Y018996D03*
X019383Y015389D03*
X019870Y015389D03*
X019870Y014719D03*
X019383Y014719D03*
X013360Y022865D03*
X012981Y022868D03*
X012599Y022868D03*
X007299Y022891D03*
X006926Y022891D03*
X006548Y022874D03*
X001276Y022380D03*
X000878Y022380D03*
X000878Y021965D03*
X001276Y021965D03*
X006248Y029795D03*
X006246Y030396D03*
X005568Y030396D03*
X005567Y029802D03*
X004919Y029802D03*
X004922Y030396D03*
X010088Y030187D03*
X017228Y032651D03*
X017228Y033198D03*
X017941Y033198D03*
X017952Y032661D03*
X018593Y032661D03*
X018603Y033209D03*
X018329Y023915D03*
D47*
X017535Y023251D02*
X017527Y023251D01*
X017535Y023251D02*
X017547Y022358D01*
X015811Y022655D02*
X014620Y022868D01*
X014619Y022654D01*
X012981Y022868D02*
X012572Y022868D01*
X012562Y022878D01*
X014122Y017603D02*
X014118Y017564D01*
X013260Y016436D02*
X013257Y016433D01*
X011526Y016426D02*
X011522Y016426D01*
X003352Y023993D02*
X003351Y023998D01*
X003348Y024001D01*
X003345Y024004D01*
X003340Y024005D01*
X004777Y025546D02*
X004777Y026439D01*
X030738Y023666D02*
X030738Y022675D01*
X030733Y022670D01*
X030738Y023666D02*
X031606Y023628D01*
X031643Y023666D01*
X031652Y018586D02*
X031282Y018215D01*
X031282Y016627D01*
X031479Y016430D01*
X031479Y017897D01*
X031327Y018049D01*
X031327Y018164D01*
X031365Y018202D01*
X031389Y018202D01*
X031683Y018496D01*
X032209Y018496D01*
X032247Y018458D01*
X031756Y018458D01*
X031721Y018423D01*
X031718Y018423D01*
X031396Y018101D01*
X032164Y018101D01*
X032261Y018198D01*
X032261Y018112D01*
X032233Y018084D01*
X031624Y018084D01*
X031485Y017945D01*
X031485Y017927D01*
X031347Y017942D02*
X031783Y018378D01*
X032278Y018378D01*
X032261Y018395D01*
X032261Y018586D01*
X031652Y018586D01*
X031347Y017942D02*
X031347Y016603D01*
X031572Y016378D01*
D48*
X030004Y022668D03*
X030004Y025297D03*
X022379Y024571D03*
X017527Y023251D03*
X016130Y022870D03*
X013638Y025269D03*
X013981Y026241D03*
X013558Y026595D03*
X014774Y025971D03*
X016130Y026331D03*
X012410Y027557D03*
X010974Y028063D03*
X010000Y028192D03*
X010003Y026199D03*
X009531Y026199D03*
X010395Y025873D03*
X010837Y025883D03*
X011162Y026186D03*
X011778Y024938D03*
X010323Y023463D03*
X009112Y024032D03*
X008390Y022849D03*
X007046Y022280D03*
X005020Y023869D03*
X003687Y024741D03*
X004172Y026018D03*
X004233Y027436D03*
X005435Y028447D03*
X007655Y026927D03*
X006806Y025555D03*
X009381Y021475D03*
X009400Y020755D03*
X010113Y021101D03*
X011210Y021640D03*
X011781Y021739D03*
X007862Y017993D03*
X009596Y016426D03*
X010641Y016426D03*
X011522Y016426D03*
X012384Y016421D03*
X013257Y016433D03*
X014118Y016426D03*
X009599Y014074D03*
X006963Y014928D03*
X005911Y015617D03*
X005746Y016594D03*
X024553Y014924D03*
D49*
X034830Y016823D03*
X034833Y005454D03*
X034830Y036114D03*
X001841Y036114D03*
X001841Y016823D03*
X001845Y005454D03*
D50*
X032377Y019527D02*
X032846Y019058D01*
X032846Y018248D01*
X033846Y018248D02*
X033846Y019262D01*
X035675Y021091D01*
X035675Y028063D01*
X034402Y029336D01*
X033851Y029336D01*
X033885Y029302D01*
X033885Y028858D01*
D51*
X033919Y028858D01*
X033919Y030666D01*
X033919Y029765D01*
X033096Y029765D01*
X032678Y029765D01*
X032075Y032901D02*
X032088Y032915D01*
X030560Y034854D02*
X028417Y034854D01*
X027740Y034177D01*
X027740Y029633D01*
X028326Y029047D01*
X028784Y029047D01*
X028785Y029045D01*
D52*
X030569Y029045D02*
X030569Y027002D01*
X031004Y015659D02*
X031004Y014592D01*
X031037Y014559D02*
X031037Y009485D01*
D53*
X031804Y018246D02*
X031804Y018247D01*
X031805Y018248D01*
X031806Y018248D01*
X032346Y018248D01*
D54*
X031804Y018246D03*
X031807Y032473D03*
X031807Y032901D03*
M02*
