G75*
G70*
%OFA0B0*%
%FSLAX24Y24*%
%IPPOS*%
%LPD*%
%AMOC8*
5,1,8,0,0,1.08239X$1,22.5*
%
%ADD10C,0.0600*%
%ADD11OC8,0.0520*%
%ADD12C,0.0600*%
%ADD13R,0.0551X0.0320*%
%ADD14C,0.0594*%
%ADD15C,0.0554*%
%ADD16C,0.0748*%
%ADD17C,0.0357*%
%ADD18C,0.0278*%
%ADD19OC8,0.1581*%
%ADD20C,0.0396*%
D10*
X002117Y025543D03*
X002117Y026543D03*
X002117Y027543D03*
X002117Y028543D03*
D11*
X006616Y011539D03*
X006616Y008539D03*
X006406Y005801D03*
X005406Y005801D03*
D12*
X002709Y007868D02*
X002109Y007868D01*
X002109Y008868D02*
X002709Y008868D01*
X002709Y009868D02*
X002109Y009868D01*
X002109Y010868D02*
X002709Y010868D01*
X002709Y011868D02*
X002109Y011868D01*
X002109Y012868D02*
X002709Y012868D01*
X002593Y019498D02*
X001993Y019498D01*
X001993Y020498D02*
X002593Y020498D01*
D13*
X008585Y015351D03*
X008585Y014564D03*
X009599Y014564D03*
X009599Y015351D03*
X010643Y015351D03*
X010643Y014564D03*
X011511Y014564D03*
X011511Y015351D03*
X012371Y015351D03*
X012371Y014564D03*
X013242Y014564D03*
X013242Y015351D03*
X014104Y015351D03*
X014104Y014564D03*
X010641Y017436D03*
X010641Y018223D03*
X009596Y018236D03*
X009596Y017449D03*
X008582Y028992D03*
X008582Y029780D03*
D14*
X022693Y029945D03*
X022696Y031917D03*
X030560Y034854D03*
X030569Y027002D03*
X030170Y009485D03*
X029304Y009485D03*
X028438Y009485D03*
X028439Y008303D03*
X029305Y008303D03*
X030171Y008303D03*
X031037Y008303D03*
X031037Y009485D03*
D15*
X023402Y009209D03*
X023402Y010209D03*
X021402Y010209D03*
X021402Y009209D03*
X021402Y008209D03*
X023402Y008209D03*
X023402Y012209D03*
X021402Y012209D03*
X018439Y009467D03*
X017573Y009467D03*
X016707Y009467D03*
X015841Y009467D03*
X014975Y009467D03*
X014109Y009467D03*
X013242Y009467D03*
X012376Y009467D03*
X011510Y009467D03*
X010644Y009467D03*
X009778Y009467D03*
X008912Y009467D03*
X008912Y008285D03*
X009778Y008285D03*
X010645Y008285D03*
X011511Y008285D03*
X012377Y008285D03*
X013243Y008285D03*
X014109Y008285D03*
X014975Y008285D03*
X015841Y008285D03*
X016708Y008285D03*
X017574Y008285D03*
X018440Y008285D03*
D16*
X018828Y035012D03*
X017828Y035012D03*
X019828Y035012D03*
D17*
X018603Y033209D03*
X018593Y032661D03*
X017952Y032661D03*
X017941Y033198D03*
X017228Y033198D03*
X017228Y032651D03*
X010088Y030187D03*
X006246Y030396D03*
X006248Y029795D03*
X005567Y029802D03*
X005568Y030396D03*
X004922Y030396D03*
X004919Y029802D03*
X006548Y022874D03*
X006926Y022891D03*
X007299Y022891D03*
X012599Y022868D03*
X012981Y022868D03*
X013360Y022865D03*
X016258Y018996D03*
X016265Y018612D03*
X018051Y018787D03*
X019870Y019801D03*
X019861Y020395D03*
X019853Y020955D03*
X018329Y023915D03*
X025330Y029876D03*
X025669Y029543D03*
X025988Y029219D03*
X032678Y029765D03*
X033091Y029774D03*
X030733Y022670D03*
X028877Y021465D03*
X028016Y021473D03*
X019870Y015389D03*
X019383Y015389D03*
X019383Y014719D03*
X019870Y014719D03*
X001276Y021965D03*
X000878Y021965D03*
X000878Y022380D03*
X001276Y022380D03*
D18*
X003687Y024741D03*
X004172Y026018D03*
X004233Y027436D03*
X005435Y028447D03*
X007655Y026927D03*
X006806Y025555D03*
X005020Y023869D03*
X007046Y022280D03*
X008390Y022849D03*
X009112Y024032D03*
X010323Y023463D03*
X011778Y024938D03*
X010837Y025883D03*
X010395Y025873D03*
X010003Y026199D03*
X009531Y026199D03*
X011162Y026186D03*
X012410Y027557D03*
X013558Y026595D03*
X013981Y026241D03*
X014774Y025971D03*
X013638Y025269D03*
X016130Y026331D03*
X017527Y023251D03*
X016130Y022870D03*
X011781Y021739D03*
X011210Y021640D03*
X010113Y021101D03*
X009400Y020755D03*
X009381Y021475D03*
X007862Y017993D03*
X009596Y016426D03*
X010641Y016426D03*
X011522Y016426D03*
X012384Y016421D03*
X013257Y016433D03*
X014118Y016426D03*
X009599Y014074D03*
X006963Y014928D03*
X005911Y015617D03*
X005746Y016594D03*
X010000Y028192D03*
X010974Y028063D03*
X022379Y024571D03*
X030004Y025297D03*
X030004Y022668D03*
X024553Y014924D03*
D19*
X001845Y005454D03*
X001841Y016823D03*
X001841Y036114D03*
X034830Y036114D03*
X034830Y016823D03*
X034833Y005454D03*
D20*
X031804Y018246D03*
X031807Y032473D03*
X031807Y032901D03*
M02*
