G75*
G70*
%OFA0B0*%
%FSLAX24Y24*%
%IPPOS*%
%LPD*%
%AMOC8*
5,1,8,0,0,1.08239X$1,22.5*
%
%ADD10R,10.1954X0.2519*%
%ADD11R,10.2101X0.3344*%
%ADD12R,0.2150X2.1695*%
%ADD13R,0.0630X0.0512*%
%ADD14R,0.1260X0.0709*%
%ADD15R,0.0787X0.0630*%
%ADD16R,0.0394X0.0394*%
%ADD17R,0.0591X0.0350*%
%ADD18C,0.0554*%
%ADD19C,0.0515*%
%ADD20C,0.0600*%
%ADD21C,0.0278*%
%ADD22C,0.0120*%
%ADD23C,0.0240*%
%ADD24C,0.0357*%
%ADD25C,0.0160*%
%ADD26C,0.0079*%
%ADD27C,0.0317*%
%ADD28OC8,0.1581*%
D10*
X051077Y007889D03*
D11*
X051219Y052018D03*
D12*
X067370Y029260D03*
X034400Y029122D03*
D13*
X037123Y017344D03*
X037123Y017344D03*
X038186Y017344D03*
X038186Y017344D03*
X039249Y017344D03*
X039249Y017344D03*
X040312Y017344D03*
X040312Y017344D03*
X041375Y017344D03*
X041375Y017344D03*
X042438Y017344D03*
X042438Y017344D03*
X043501Y017344D03*
X043501Y017344D03*
X043501Y016557D03*
X043501Y016557D03*
X042438Y016557D03*
X042438Y016557D03*
X041375Y016557D03*
X041375Y016557D03*
X040312Y016557D03*
X040312Y016557D03*
X039249Y016557D03*
X039249Y016557D03*
X038186Y016557D03*
X038186Y016557D03*
X037123Y016557D03*
X037123Y016557D03*
X030729Y016557D03*
X030729Y016557D03*
X029705Y016557D03*
X029705Y016557D03*
X028643Y016557D03*
X028643Y016557D03*
X027580Y016557D03*
X027580Y016557D03*
X026517Y016557D03*
X026517Y016557D03*
X025454Y016557D03*
X025454Y016557D03*
X024391Y016557D03*
X024391Y016557D03*
X024391Y017344D03*
X024391Y017344D03*
X025454Y017344D03*
X025454Y017344D03*
X026517Y017344D03*
X026517Y017344D03*
X027580Y017344D03*
X027580Y017344D03*
X028643Y017344D03*
X028643Y017344D03*
X029705Y017344D03*
X029705Y017344D03*
X030729Y017344D03*
X030729Y017344D03*
X020631Y017347D03*
X020631Y017347D03*
X019568Y017347D03*
X019568Y017347D03*
X018505Y017347D03*
X018505Y017347D03*
X017442Y017347D03*
X017442Y017347D03*
X016379Y017347D03*
X016379Y017347D03*
X015316Y017347D03*
X015316Y017347D03*
X014253Y017347D03*
X014253Y017347D03*
X014253Y016560D03*
X014253Y016560D03*
X015316Y016560D03*
X015316Y016560D03*
X016379Y016560D03*
X016379Y016560D03*
X017442Y016560D03*
X017442Y016560D03*
X018505Y016560D03*
X018505Y016560D03*
X019568Y016560D03*
X019568Y016560D03*
X020631Y016560D03*
X020631Y016560D03*
X017116Y011376D03*
X017116Y011376D03*
X017116Y010589D03*
X017116Y010589D03*
X016321Y010589D03*
X016321Y010589D03*
X016321Y011376D03*
X016321Y011376D03*
X006972Y011376D03*
X006972Y011376D03*
X006972Y010589D03*
X006972Y010589D03*
X006125Y010593D03*
X006125Y010593D03*
X006125Y011380D03*
X006125Y011380D03*
X006226Y016553D03*
X006226Y016553D03*
X007289Y016553D03*
X007289Y016553D03*
X008352Y016553D03*
X008352Y016553D03*
X009415Y016553D03*
X009415Y016553D03*
X010478Y016553D03*
X010478Y016553D03*
X010478Y017341D03*
X010478Y017341D03*
X009415Y017341D03*
X009415Y017341D03*
X008352Y017341D03*
X008352Y017341D03*
X007289Y017341D03*
X007289Y017341D03*
X006226Y017341D03*
X006226Y017341D03*
X005163Y017341D03*
X005163Y017341D03*
X004100Y017341D03*
X004100Y017341D03*
X004100Y016553D03*
X004100Y016553D03*
X005163Y016553D03*
X005163Y016553D03*
X026395Y011376D03*
X026395Y011376D03*
X026395Y010589D03*
X026395Y010589D03*
X027239Y010589D03*
X027239Y010589D03*
X027239Y011376D03*
X027239Y011376D03*
X039063Y011376D03*
X039063Y011376D03*
X039063Y010589D03*
X039063Y010589D03*
X039937Y010589D03*
X039937Y010589D03*
X039937Y011376D03*
X039937Y011376D03*
X049112Y011379D03*
X049112Y011379D03*
X049112Y010592D03*
X049112Y010592D03*
X050087Y010589D03*
X050087Y010589D03*
X050087Y011376D03*
X050087Y011376D03*
X050442Y016557D03*
X050442Y016557D03*
X049379Y016557D03*
X049379Y016557D03*
X048316Y016557D03*
X048316Y016557D03*
X047253Y016557D03*
X047253Y016557D03*
X047253Y017344D03*
X047253Y017344D03*
X048316Y017344D03*
X048316Y017344D03*
X049379Y017344D03*
X049379Y017344D03*
X050442Y017344D03*
X050442Y017344D03*
X051505Y017344D03*
X051505Y017344D03*
X052568Y017344D03*
X052568Y017344D03*
X053631Y017344D03*
X053631Y017344D03*
X053631Y016557D03*
X053631Y016557D03*
X052568Y016557D03*
X052568Y016557D03*
X051505Y016557D03*
X051505Y016557D03*
X057382Y016557D03*
X057382Y016557D03*
X058445Y016557D03*
X058445Y016557D03*
X059508Y016557D03*
X059508Y016557D03*
X060571Y016557D03*
X060571Y016557D03*
X061634Y016557D03*
X061634Y016557D03*
X062697Y016557D03*
X062697Y016557D03*
X063760Y016557D03*
X063760Y016557D03*
X063760Y017344D03*
X063760Y017344D03*
X062697Y017344D03*
X062697Y017344D03*
X061634Y017344D03*
X061634Y017344D03*
X060571Y017344D03*
X060571Y017344D03*
X059508Y017344D03*
X059508Y017344D03*
X058445Y017344D03*
X058445Y017344D03*
X057382Y017344D03*
X057382Y017344D03*
X059272Y011376D03*
X059272Y011376D03*
X059272Y010589D03*
X059272Y010589D03*
X060195Y010589D03*
X060195Y010589D03*
X060195Y011376D03*
X060195Y011376D03*
X070120Y016557D03*
X070120Y016557D03*
X071183Y016557D03*
X071183Y016557D03*
X072246Y016557D03*
X072246Y016557D03*
X073309Y016557D03*
X073309Y016557D03*
X074372Y016557D03*
X074372Y016557D03*
X075435Y016557D03*
X075435Y016557D03*
X076498Y016557D03*
X076498Y016557D03*
X076498Y017344D03*
X076498Y017344D03*
X075435Y017344D03*
X075435Y017344D03*
X074372Y017344D03*
X074372Y017344D03*
X073309Y017344D03*
X073309Y017344D03*
X072246Y017344D03*
X072246Y017344D03*
X071183Y017344D03*
X071183Y017344D03*
X070120Y017344D03*
X070120Y017344D03*
X080237Y017344D03*
X080237Y017344D03*
X081300Y017344D03*
X081300Y017344D03*
X082363Y017344D03*
X082363Y017344D03*
X083426Y017344D03*
X083426Y017344D03*
X084489Y017344D03*
X084489Y017344D03*
X085552Y017344D03*
X085552Y017344D03*
X086615Y017344D03*
X086615Y017344D03*
X086615Y016557D03*
X086615Y016557D03*
X085552Y016557D03*
X085552Y016557D03*
X084489Y016557D03*
X084489Y016557D03*
X083426Y016557D03*
X083426Y016557D03*
X082363Y016557D03*
X082363Y016557D03*
X081300Y016557D03*
X081300Y016557D03*
X080237Y016557D03*
X080237Y016557D03*
X082131Y011376D03*
X082131Y011376D03*
X082131Y010589D03*
X082131Y010589D03*
X083055Y010589D03*
X083055Y010589D03*
X083055Y011376D03*
X083055Y011376D03*
X092267Y011376D03*
X092267Y011376D03*
X092267Y010589D03*
X092267Y010589D03*
X093188Y010589D03*
X093188Y010589D03*
X093188Y011376D03*
X093188Y011376D03*
X093552Y016557D03*
X093552Y016557D03*
X094615Y016557D03*
X094615Y016557D03*
X095678Y016557D03*
X095678Y016557D03*
X096741Y016557D03*
X096741Y016557D03*
X096741Y017344D03*
X096741Y017344D03*
X095678Y017344D03*
X095678Y017344D03*
X094615Y017344D03*
X094615Y017344D03*
X093552Y017344D03*
X093552Y017344D03*
X092489Y017344D03*
X092489Y017344D03*
X091426Y017344D03*
X091426Y017344D03*
X090363Y017344D03*
X090363Y017344D03*
X090363Y016557D03*
X090363Y016557D03*
X091426Y016557D03*
X091426Y016557D03*
X092489Y016557D03*
X092489Y016557D03*
X072937Y011376D03*
X072937Y011376D03*
X072937Y010589D03*
X072937Y010589D03*
X071990Y010589D03*
X071990Y010589D03*
X071990Y011376D03*
X071990Y011376D03*
D14*
X072285Y019074D03*
X072285Y019074D03*
X070399Y019074D03*
X070399Y019074D03*
X070399Y021279D03*
X070399Y021279D03*
X072285Y021279D03*
X072285Y021279D03*
X072285Y022734D03*
X072285Y022734D03*
X070399Y022734D03*
X070399Y022734D03*
X070399Y024938D03*
X070399Y024938D03*
X072285Y024938D03*
X072285Y024938D03*
X072285Y026518D03*
X072285Y026518D03*
X070399Y026518D03*
X070399Y026518D03*
X070399Y028723D03*
X070399Y028723D03*
X072285Y028723D03*
X072285Y028723D03*
X072285Y030133D03*
X072285Y030133D03*
X070399Y030133D03*
X070399Y030133D03*
X070399Y032338D03*
X070399Y032338D03*
X072285Y032338D03*
X072285Y032338D03*
X072285Y033763D03*
X072285Y033763D03*
X070399Y033763D03*
X070399Y033763D03*
X070399Y035968D03*
X070399Y035968D03*
X072285Y035968D03*
X072285Y035968D03*
X072270Y037289D03*
X072270Y037289D03*
X070384Y037289D03*
X070384Y037289D03*
X070384Y039494D03*
X070384Y039494D03*
X072270Y039494D03*
X072270Y039494D03*
X075655Y039494D03*
X075655Y039494D03*
X077541Y039494D03*
X077541Y039494D03*
X080522Y039494D03*
X080522Y039494D03*
X082408Y039494D03*
X082408Y039494D03*
X085793Y039494D03*
X085793Y039494D03*
X087679Y039494D03*
X087679Y039494D03*
X090632Y039494D03*
X090632Y039494D03*
X092518Y039494D03*
X092518Y039494D03*
X095903Y039494D03*
X095903Y039494D03*
X097789Y039494D03*
X097789Y039494D03*
X097789Y037289D03*
X097789Y037289D03*
X097789Y035968D03*
X097789Y035968D03*
X095903Y035968D03*
X095903Y035968D03*
X095903Y037289D03*
X095903Y037289D03*
X092518Y037289D03*
X092518Y037289D03*
X090632Y037289D03*
X090632Y037289D03*
X090632Y035968D03*
X090632Y035968D03*
X092518Y035968D03*
X092518Y035968D03*
X092518Y033763D03*
X092518Y033763D03*
X090632Y033763D03*
X090632Y033763D03*
X090632Y032338D03*
X090632Y032338D03*
X092518Y032338D03*
X092518Y032338D03*
X095903Y032338D03*
X095903Y032338D03*
X095903Y033763D03*
X095903Y033763D03*
X097789Y033763D03*
X097789Y033763D03*
X097789Y032338D03*
X097789Y032338D03*
X097789Y030133D03*
X097789Y030133D03*
X097789Y028723D03*
X097789Y028723D03*
X095903Y028723D03*
X095903Y028723D03*
X095903Y030133D03*
X095903Y030133D03*
X092518Y030133D03*
X092518Y030133D03*
X090632Y030133D03*
X090632Y030133D03*
X090632Y028723D03*
X090632Y028723D03*
X092518Y028723D03*
X092518Y028723D03*
X092518Y026518D03*
X092518Y026518D03*
X090632Y026518D03*
X090632Y026518D03*
X090632Y024938D03*
X090632Y024938D03*
X092518Y024938D03*
X092518Y024938D03*
X095903Y024938D03*
X095903Y024938D03*
X097789Y024938D03*
X097789Y024938D03*
X097789Y026518D03*
X097789Y026518D03*
X095903Y026518D03*
X095903Y026518D03*
X095903Y022734D03*
X095903Y022734D03*
X095903Y021279D03*
X095903Y021279D03*
X097789Y021279D03*
X097789Y021279D03*
X097789Y022734D03*
X097789Y022734D03*
X092518Y022734D03*
X092518Y022734D03*
X090632Y022734D03*
X090632Y022734D03*
X090632Y021279D03*
X090632Y021279D03*
X092518Y021279D03*
X092518Y021279D03*
X092518Y019074D03*
X092518Y019074D03*
X090632Y019074D03*
X090632Y019074D03*
X087679Y019074D03*
X087679Y019074D03*
X085793Y019074D03*
X085793Y019074D03*
X082408Y019074D03*
X082408Y019074D03*
X080522Y019074D03*
X080522Y019074D03*
X077541Y019074D03*
X077541Y019074D03*
X075655Y019074D03*
X075655Y019074D03*
X075655Y021279D03*
X075655Y021279D03*
X075655Y022734D03*
X075655Y022734D03*
X077541Y022734D03*
X077541Y022734D03*
X077541Y021279D03*
X077541Y021279D03*
X080522Y021279D03*
X080522Y021279D03*
X082408Y021279D03*
X082408Y021279D03*
X082408Y022734D03*
X082408Y022734D03*
X080522Y022734D03*
X080522Y022734D03*
X080522Y024938D03*
X080522Y024938D03*
X082408Y024938D03*
X082408Y024938D03*
X082408Y026518D03*
X082408Y026518D03*
X080522Y026518D03*
X080522Y026518D03*
X077541Y026518D03*
X077541Y026518D03*
X075655Y026518D03*
X075655Y026518D03*
X075655Y024938D03*
X075655Y024938D03*
X077541Y024938D03*
X077541Y024938D03*
X077541Y028723D03*
X077541Y028723D03*
X077541Y030133D03*
X077541Y030133D03*
X075655Y030133D03*
X075655Y030133D03*
X075655Y028723D03*
X075655Y028723D03*
X080522Y028723D03*
X080522Y028723D03*
X082408Y028723D03*
X082408Y028723D03*
X082408Y030133D03*
X082408Y030133D03*
X080522Y030133D03*
X080522Y030133D03*
X080522Y032338D03*
X080522Y032338D03*
X082408Y032338D03*
X082408Y032338D03*
X082408Y033763D03*
X082408Y033763D03*
X080522Y033763D03*
X080522Y033763D03*
X077541Y033763D03*
X077541Y033763D03*
X077541Y032338D03*
X077541Y032338D03*
X075655Y032338D03*
X075655Y032338D03*
X075655Y033763D03*
X075655Y033763D03*
X075655Y035968D03*
X075655Y035968D03*
X075655Y037289D03*
X075655Y037289D03*
X077541Y037289D03*
X077541Y037289D03*
X077541Y035968D03*
X077541Y035968D03*
X080522Y035968D03*
X080522Y035968D03*
X082408Y035968D03*
X082408Y035968D03*
X082408Y037289D03*
X082408Y037289D03*
X080522Y037289D03*
X080522Y037289D03*
X085793Y037289D03*
X085793Y037289D03*
X085793Y035968D03*
X085793Y035968D03*
X087679Y035968D03*
X087679Y035968D03*
X087679Y037289D03*
X087679Y037289D03*
X087679Y033763D03*
X087679Y033763D03*
X087679Y032338D03*
X087679Y032338D03*
X085793Y032338D03*
X085793Y032338D03*
X085793Y033763D03*
X085793Y033763D03*
X085793Y030133D03*
X085793Y030133D03*
X085793Y028723D03*
X085793Y028723D03*
X087679Y028723D03*
X087679Y028723D03*
X087679Y030133D03*
X087679Y030133D03*
X087679Y026518D03*
X087679Y026518D03*
X085793Y026518D03*
X085793Y026518D03*
X085793Y024938D03*
X085793Y024938D03*
X087679Y024938D03*
X087679Y024938D03*
X087679Y022734D03*
X087679Y022734D03*
X087679Y021279D03*
X087679Y021279D03*
X085793Y021279D03*
X085793Y021279D03*
X085793Y022734D03*
X085793Y022734D03*
X095903Y019074D03*
X095903Y019074D03*
X097789Y019074D03*
X097789Y019074D03*
X064749Y019074D03*
X064749Y019074D03*
X062863Y019074D03*
X062863Y019074D03*
X059492Y019074D03*
X059492Y019074D03*
X057606Y019074D03*
X057606Y019074D03*
X054618Y019074D03*
X054618Y019074D03*
X052732Y019074D03*
X052732Y019074D03*
X049362Y019074D03*
X049362Y019074D03*
X047476Y019074D03*
X047476Y019074D03*
X044509Y019074D03*
X044509Y019074D03*
X042624Y019074D03*
X042624Y019074D03*
X039248Y019074D03*
X039248Y019074D03*
X037367Y019074D03*
X037367Y019074D03*
X037367Y021279D03*
X037367Y021279D03*
X037367Y022734D03*
X037367Y022734D03*
X039248Y022734D03*
X039248Y022734D03*
X039248Y021279D03*
X039248Y021279D03*
X042624Y021279D03*
X042624Y021279D03*
X044509Y021279D03*
X044509Y021279D03*
X044509Y022734D03*
X044509Y022734D03*
X042624Y022734D03*
X042624Y022734D03*
X042624Y024938D03*
X042624Y024938D03*
X044509Y024938D03*
X044509Y024938D03*
X044509Y026518D03*
X044509Y026518D03*
X042624Y026518D03*
X042624Y026518D03*
X039248Y026518D03*
X039248Y026518D03*
X037367Y026518D03*
X037367Y026518D03*
X037367Y024938D03*
X037367Y024938D03*
X039248Y024938D03*
X039248Y024938D03*
X039248Y028723D03*
X039248Y028723D03*
X039248Y030133D03*
X039248Y030133D03*
X037367Y030133D03*
X037367Y030133D03*
X037367Y028723D03*
X037367Y028723D03*
X042624Y028723D03*
X042624Y028723D03*
X044509Y028723D03*
X044509Y028723D03*
X044509Y030133D03*
X044509Y030133D03*
X042624Y030133D03*
X042624Y030133D03*
X042624Y032338D03*
X042624Y032338D03*
X044509Y032338D03*
X044509Y032338D03*
X044509Y033763D03*
X044509Y033763D03*
X042624Y033763D03*
X042624Y033763D03*
X039248Y033763D03*
X039248Y033763D03*
X039248Y032338D03*
X039248Y032338D03*
X037367Y032338D03*
X037367Y032338D03*
X037367Y033763D03*
X037367Y033763D03*
X037367Y035968D03*
X037367Y035968D03*
X037367Y037289D03*
X037367Y037289D03*
X039253Y037289D03*
X039253Y037289D03*
X039248Y035968D03*
X039248Y035968D03*
X042624Y035968D03*
X042624Y035968D03*
X044509Y035968D03*
X044509Y035968D03*
X044509Y037289D03*
X044509Y037289D03*
X042624Y037289D03*
X042624Y037289D03*
X042624Y039494D03*
X042624Y039494D03*
X044509Y039494D03*
X044509Y039494D03*
X047476Y039494D03*
X047476Y039494D03*
X049362Y039494D03*
X049362Y039494D03*
X052732Y039494D03*
X052732Y039494D03*
X054618Y039494D03*
X054618Y039494D03*
X057606Y039494D03*
X057606Y039494D03*
X059492Y039494D03*
X059492Y039494D03*
X062863Y039494D03*
X062863Y039494D03*
X064749Y039494D03*
X064749Y039494D03*
X064749Y037289D03*
X064749Y037289D03*
X062863Y037289D03*
X062863Y037289D03*
X062863Y035968D03*
X062863Y035968D03*
X064749Y035968D03*
X064749Y035968D03*
X064749Y033763D03*
X064749Y033763D03*
X062863Y033763D03*
X062863Y033763D03*
X062863Y032338D03*
X062863Y032338D03*
X064749Y032338D03*
X064749Y032338D03*
X064749Y030133D03*
X064749Y030133D03*
X062863Y030133D03*
X062863Y030133D03*
X062863Y028723D03*
X062863Y028723D03*
X064749Y028723D03*
X064749Y028723D03*
X064749Y026518D03*
X064749Y026518D03*
X062863Y026518D03*
X062863Y026518D03*
X062863Y024938D03*
X062863Y024938D03*
X064749Y024938D03*
X064749Y024938D03*
X064749Y022734D03*
X064749Y022734D03*
X062863Y022734D03*
X062863Y022734D03*
X062863Y021279D03*
X062863Y021279D03*
X064749Y021279D03*
X064749Y021279D03*
X059492Y021279D03*
X059492Y021279D03*
X059492Y022734D03*
X059492Y022734D03*
X057606Y022734D03*
X057606Y022734D03*
X057606Y021279D03*
X057606Y021279D03*
X054618Y021279D03*
X054618Y021279D03*
X052732Y021279D03*
X052732Y021279D03*
X052732Y022734D03*
X052732Y022734D03*
X054618Y022734D03*
X054618Y022734D03*
X054618Y024938D03*
X054618Y024938D03*
X052732Y024938D03*
X052732Y024938D03*
X052732Y026518D03*
X052732Y026518D03*
X054618Y026518D03*
X054618Y026518D03*
X057606Y026518D03*
X057606Y026518D03*
X059492Y026518D03*
X059492Y026518D03*
X059492Y024938D03*
X059492Y024938D03*
X057606Y024938D03*
X057606Y024938D03*
X057606Y028723D03*
X057606Y028723D03*
X057606Y030133D03*
X057606Y030133D03*
X059492Y030133D03*
X059492Y030133D03*
X059492Y028723D03*
X059492Y028723D03*
X054618Y028723D03*
X054618Y028723D03*
X052732Y028723D03*
X052732Y028723D03*
X052732Y030133D03*
X052732Y030133D03*
X054618Y030133D03*
X054618Y030133D03*
X054618Y032338D03*
X054618Y032338D03*
X052732Y032338D03*
X052732Y032338D03*
X052732Y033763D03*
X052732Y033763D03*
X054618Y033763D03*
X054618Y033763D03*
X057606Y033763D03*
X057606Y033763D03*
X057606Y032338D03*
X057606Y032338D03*
X059492Y032338D03*
X059492Y032338D03*
X059492Y033763D03*
X059492Y033763D03*
X059492Y035968D03*
X059492Y035968D03*
X059492Y037289D03*
X059492Y037289D03*
X057606Y037289D03*
X057606Y037289D03*
X057606Y035968D03*
X057606Y035968D03*
X054618Y035968D03*
X054618Y035968D03*
X052732Y035968D03*
X052732Y035968D03*
X052732Y037289D03*
X052732Y037289D03*
X054618Y037289D03*
X054618Y037289D03*
X049362Y037289D03*
X049362Y037289D03*
X049362Y035968D03*
X049362Y035968D03*
X047476Y035968D03*
X047476Y035968D03*
X047476Y037289D03*
X047476Y037289D03*
X047476Y033763D03*
X047476Y033763D03*
X047476Y032338D03*
X047476Y032338D03*
X049362Y032338D03*
X049362Y032338D03*
X049362Y033763D03*
X049362Y033763D03*
X049362Y030133D03*
X049362Y030133D03*
X049362Y028723D03*
X049362Y028723D03*
X047476Y028723D03*
X047476Y028723D03*
X047476Y030133D03*
X047476Y030133D03*
X047476Y026518D03*
X047476Y026518D03*
X049362Y026518D03*
X049362Y026518D03*
X049362Y024938D03*
X049362Y024938D03*
X047476Y024938D03*
X047476Y024938D03*
X047476Y022734D03*
X047476Y022734D03*
X047476Y021279D03*
X047476Y021279D03*
X049362Y021279D03*
X049362Y021279D03*
X049362Y022734D03*
X049362Y022734D03*
X031734Y022734D03*
X031734Y022734D03*
X031734Y021279D03*
X031734Y021279D03*
X029853Y021279D03*
X029853Y021279D03*
X029853Y022734D03*
X029853Y022734D03*
X026473Y022734D03*
X026473Y022734D03*
X024592Y022734D03*
X024592Y022734D03*
X024592Y021279D03*
X024592Y021279D03*
X026473Y021279D03*
X026473Y021279D03*
X026473Y019074D03*
X026473Y019074D03*
X024592Y019074D03*
X024592Y019074D03*
X021780Y019077D03*
X021780Y019077D03*
X019913Y019074D03*
X019913Y019074D03*
X016455Y019072D03*
X016455Y019072D03*
X014573Y019073D03*
X014573Y019073D03*
X011639Y019071D03*
X011639Y019071D03*
X009639Y019071D03*
X009639Y019071D03*
X006420Y019027D03*
X006420Y019027D03*
X004420Y019027D03*
X004420Y019027D03*
X004420Y021232D03*
X004420Y021232D03*
X006420Y021232D03*
X006420Y021232D03*
X006425Y022705D03*
X006425Y022705D03*
X004425Y022705D03*
X004425Y022705D03*
X004425Y024910D03*
X004425Y024910D03*
X006425Y024910D03*
X006425Y024910D03*
X006428Y026469D03*
X006428Y026469D03*
X004428Y026469D03*
X004428Y026469D03*
X004428Y028674D03*
X004428Y028674D03*
X006428Y028674D03*
X006428Y028674D03*
X006428Y030104D03*
X006428Y030104D03*
X004428Y030104D03*
X004428Y030104D03*
X004428Y032309D03*
X004428Y032309D03*
X004432Y033726D03*
X004432Y033726D03*
X006432Y033726D03*
X006432Y033726D03*
X006428Y032309D03*
X006428Y032309D03*
X009642Y032349D03*
X009642Y032349D03*
X009647Y033765D03*
X009647Y033765D03*
X011647Y033765D03*
X011647Y033765D03*
X011642Y032349D03*
X011642Y032349D03*
X014559Y032333D03*
X014559Y032333D03*
X016426Y032332D03*
X016426Y032332D03*
X016426Y033755D03*
X016426Y033755D03*
X014561Y033753D03*
X014561Y033753D03*
X014561Y035958D03*
X014561Y035958D03*
X016426Y035960D03*
X016426Y035960D03*
X016423Y037330D03*
X016423Y037330D03*
X014541Y037329D03*
X014541Y037329D03*
X014541Y039534D03*
X014541Y039534D03*
X016423Y039535D03*
X016423Y039535D03*
X019803Y039537D03*
X019803Y039537D03*
X021795Y039531D03*
X021795Y039531D03*
X021795Y037326D03*
X021795Y037326D03*
X019803Y037333D03*
X019803Y037333D03*
X019801Y035981D03*
X019801Y035981D03*
X021788Y035971D03*
X021788Y035971D03*
X024592Y035968D03*
X024592Y035968D03*
X026473Y035968D03*
X026473Y035968D03*
X026473Y037289D03*
X026473Y037289D03*
X024592Y037289D03*
X024592Y037289D03*
X024592Y039494D03*
X024592Y039494D03*
X026473Y039494D03*
X026473Y039494D03*
X029848Y039494D03*
X029848Y039494D03*
X031734Y039494D03*
X031734Y039494D03*
X031734Y037289D03*
X031734Y037289D03*
X031734Y035968D03*
X031734Y035968D03*
X029853Y035968D03*
X029853Y035968D03*
X029848Y037289D03*
X029848Y037289D03*
X029853Y033763D03*
X029853Y033763D03*
X029853Y032338D03*
X029853Y032338D03*
X031734Y032338D03*
X031734Y032338D03*
X031734Y033763D03*
X031734Y033763D03*
X026473Y033763D03*
X026473Y033763D03*
X024592Y033763D03*
X024592Y033763D03*
X024592Y032338D03*
X024592Y032338D03*
X026473Y032338D03*
X026473Y032338D03*
X026473Y030133D03*
X026473Y030133D03*
X024592Y030133D03*
X024592Y030133D03*
X024592Y028723D03*
X024592Y028723D03*
X026473Y028723D03*
X026473Y028723D03*
X029853Y028723D03*
X029853Y028723D03*
X029853Y030133D03*
X029853Y030133D03*
X031734Y030133D03*
X031734Y030133D03*
X031734Y028723D03*
X031734Y028723D03*
X031734Y026518D03*
X031734Y026518D03*
X029853Y026518D03*
X029853Y026518D03*
X029853Y024938D03*
X029853Y024938D03*
X031734Y024938D03*
X031734Y024938D03*
X026473Y024938D03*
X026473Y024938D03*
X024592Y024938D03*
X024592Y024938D03*
X024592Y026518D03*
X024592Y026518D03*
X026473Y026518D03*
X026473Y026518D03*
X021788Y026521D03*
X021788Y026521D03*
X019916Y026525D03*
X019916Y026525D03*
X019906Y024948D03*
X019906Y024948D03*
X021785Y024941D03*
X021785Y024941D03*
X021785Y022737D03*
X021785Y022737D03*
X021780Y021282D03*
X021780Y021282D03*
X019913Y021278D03*
X019913Y021278D03*
X019906Y022743D03*
X019906Y022743D03*
X016448Y022746D03*
X016448Y022746D03*
X014569Y022734D03*
X014569Y022734D03*
X014573Y021278D03*
X014573Y021278D03*
X016455Y021277D03*
X016455Y021277D03*
X011639Y021276D03*
X011639Y021276D03*
X011648Y022743D03*
X011648Y022743D03*
X009648Y022743D03*
X009648Y022743D03*
X009639Y021276D03*
X009639Y021276D03*
X009648Y024948D03*
X009648Y024948D03*
X011648Y024948D03*
X011648Y024948D03*
X011645Y026497D03*
X011645Y026497D03*
X009645Y026497D03*
X009645Y026497D03*
X009645Y028702D03*
X009645Y028702D03*
X009642Y030144D03*
X009642Y030144D03*
X011642Y030144D03*
X011642Y030144D03*
X011645Y028702D03*
X011645Y028702D03*
X014575Y028710D03*
X014575Y028710D03*
X016449Y028713D03*
X016449Y028713D03*
X016426Y030127D03*
X016426Y030127D03*
X014559Y030128D03*
X014559Y030128D03*
X019792Y030146D03*
X019792Y030146D03*
X019916Y028730D03*
X019916Y028730D03*
X021788Y028725D03*
X021788Y028725D03*
X021789Y030136D03*
X021789Y030136D03*
X021789Y032340D03*
X021789Y032340D03*
X021788Y033766D03*
X021788Y033766D03*
X019801Y033776D03*
X019801Y033776D03*
X019792Y032351D03*
X019792Y032351D03*
X011647Y035970D03*
X011647Y035970D03*
X009647Y035970D03*
X009647Y035970D03*
X009644Y037319D03*
X009644Y037319D03*
X011644Y037319D03*
X011644Y037319D03*
X011644Y039523D03*
X011644Y039523D03*
X009644Y039523D03*
X009644Y039523D03*
X006429Y039484D03*
X006429Y039484D03*
X004429Y039484D03*
X004429Y039484D03*
X004429Y037279D03*
X004429Y037279D03*
X004432Y035930D03*
X004432Y035930D03*
X006432Y035930D03*
X006432Y035930D03*
X006429Y037279D03*
X006429Y037279D03*
X014575Y026506D03*
X014575Y026506D03*
X016449Y026508D03*
X016449Y026508D03*
X016448Y024950D03*
X016448Y024950D03*
X014569Y024938D03*
X014569Y024938D03*
X029853Y019074D03*
X029853Y019074D03*
X031734Y019074D03*
X031734Y019074D03*
X037367Y039494D03*
X037367Y039494D03*
X039253Y039494D03*
X039253Y039494D03*
D15*
X039756Y041978D03*
X039756Y041978D03*
X040922Y041978D03*
X040922Y041978D03*
X042090Y041978D03*
X042090Y041978D03*
X043257Y041978D03*
X043257Y041978D03*
X044424Y041978D03*
X044424Y041978D03*
X044424Y043080D03*
X044424Y043080D03*
X044424Y043988D03*
X044424Y043988D03*
X043257Y043988D03*
X043257Y043988D03*
X043257Y043080D03*
X043257Y043080D03*
X042090Y043080D03*
X042090Y043080D03*
X042090Y043988D03*
X042090Y043988D03*
X040922Y043988D03*
X040922Y043988D03*
X040922Y043080D03*
X040922Y043080D03*
X039756Y043080D03*
X039756Y043080D03*
X039756Y043988D03*
X039756Y043988D03*
X038588Y043988D03*
X038588Y043988D03*
X038588Y043080D03*
X038588Y043080D03*
X037420Y043080D03*
X037420Y043080D03*
X037420Y043988D03*
X037420Y043988D03*
X037420Y045090D03*
X037420Y045090D03*
X038588Y045090D03*
X038588Y045090D03*
X039756Y045090D03*
X039756Y045090D03*
X040922Y045090D03*
X040922Y045090D03*
X042090Y045090D03*
X042090Y045090D03*
X043257Y045090D03*
X043257Y045090D03*
X044424Y045090D03*
X044424Y045090D03*
X045592Y045090D03*
X045592Y045090D03*
X045592Y043988D03*
X045592Y043988D03*
X047544Y043988D03*
X047544Y043988D03*
X047544Y043080D03*
X047544Y043080D03*
X048712Y043080D03*
X048712Y043080D03*
X048712Y043988D03*
X048712Y043988D03*
X049879Y043988D03*
X049879Y043988D03*
X049879Y043080D03*
X049879Y043080D03*
X051047Y043080D03*
X051047Y043080D03*
X051047Y043988D03*
X051047Y043988D03*
X052215Y043988D03*
X052215Y043988D03*
X052215Y043080D03*
X052215Y043080D03*
X053382Y043080D03*
X053382Y043080D03*
X053382Y043988D03*
X053382Y043988D03*
X054549Y043988D03*
X054549Y043988D03*
X054549Y043080D03*
X054549Y043080D03*
X055716Y043988D03*
X055716Y043988D03*
X055716Y045090D03*
X055716Y045090D03*
X054549Y045090D03*
X054549Y045090D03*
X053382Y045090D03*
X053382Y045090D03*
X052215Y045090D03*
X052215Y045090D03*
X051047Y045090D03*
X051047Y045090D03*
X049879Y045090D03*
X049879Y045090D03*
X048712Y045090D03*
X048712Y045090D03*
X047544Y045090D03*
X047544Y045090D03*
X047544Y041978D03*
X047544Y041978D03*
X048712Y041978D03*
X048712Y041978D03*
X049879Y041978D03*
X049879Y041978D03*
X051047Y041978D03*
X051047Y041978D03*
X052215Y041978D03*
X052215Y041978D03*
X053382Y041978D03*
X053382Y041978D03*
X054549Y041978D03*
X054549Y041978D03*
X057668Y041978D03*
X057668Y041978D03*
X058835Y041978D03*
X058835Y041978D03*
X060002Y041978D03*
X060002Y041978D03*
X061170Y041978D03*
X061170Y041978D03*
X062338Y041978D03*
X062338Y041978D03*
X063506Y041978D03*
X063506Y041978D03*
X064675Y041978D03*
X064675Y041978D03*
X064675Y043080D03*
X064675Y043080D03*
X064675Y043988D03*
X064675Y043988D03*
X065842Y043988D03*
X065842Y043988D03*
X065842Y045090D03*
X065842Y045090D03*
X064675Y045090D03*
X064675Y045090D03*
X063506Y045090D03*
X063506Y045090D03*
X062338Y045090D03*
X062338Y045090D03*
X061170Y045090D03*
X061170Y045090D03*
X060002Y045090D03*
X060002Y045090D03*
X058835Y045090D03*
X058835Y045090D03*
X057668Y045090D03*
X057668Y045090D03*
X057668Y043988D03*
X057668Y043988D03*
X057668Y043080D03*
X057668Y043080D03*
X058835Y043080D03*
X058835Y043080D03*
X058835Y043988D03*
X058835Y043988D03*
X060002Y043988D03*
X060002Y043988D03*
X060002Y043080D03*
X060002Y043080D03*
X061170Y043080D03*
X061170Y043080D03*
X061170Y043988D03*
X061170Y043988D03*
X062338Y043988D03*
X062338Y043988D03*
X062338Y043080D03*
X062338Y043080D03*
X063506Y043080D03*
X063506Y043080D03*
X063506Y043988D03*
X063506Y043988D03*
X070450Y043988D03*
X070450Y043988D03*
X070450Y043080D03*
X070450Y043080D03*
X071617Y043080D03*
X071617Y043080D03*
X071617Y043988D03*
X071617Y043988D03*
X072783Y043988D03*
X072783Y043988D03*
X072783Y043080D03*
X072783Y043080D03*
X073951Y043080D03*
X073951Y043080D03*
X073951Y043988D03*
X073951Y043988D03*
X075119Y043988D03*
X075119Y043988D03*
X075119Y043080D03*
X075119Y043080D03*
X076288Y043080D03*
X076288Y043080D03*
X076288Y043988D03*
X076288Y043988D03*
X077457Y043988D03*
X077457Y043988D03*
X077457Y043080D03*
X077457Y043080D03*
X078625Y043988D03*
X078625Y043988D03*
X078625Y045090D03*
X078625Y045090D03*
X077457Y045090D03*
X077457Y045090D03*
X076288Y045090D03*
X076288Y045090D03*
X075119Y045090D03*
X075119Y045090D03*
X073951Y045090D03*
X073951Y045090D03*
X072783Y045090D03*
X072783Y045090D03*
X071617Y045090D03*
X071617Y045090D03*
X070450Y045090D03*
X070450Y045090D03*
X070450Y041978D03*
X070450Y041978D03*
X071617Y041978D03*
X071617Y041978D03*
X072783Y041978D03*
X072783Y041978D03*
X073951Y041978D03*
X073951Y041978D03*
X075119Y041978D03*
X075119Y041978D03*
X076288Y041978D03*
X076288Y041978D03*
X077457Y041978D03*
X077457Y041978D03*
X080575Y041978D03*
X080575Y041978D03*
X081741Y041978D03*
X081741Y041978D03*
X082908Y041978D03*
X082908Y041978D03*
X084075Y041978D03*
X084075Y041978D03*
X085241Y041978D03*
X085241Y041978D03*
X086407Y041978D03*
X086407Y041978D03*
X087575Y041978D03*
X087575Y041978D03*
X087575Y043080D03*
X087575Y043080D03*
X087575Y043988D03*
X087575Y043988D03*
X088743Y043988D03*
X088743Y043988D03*
X088743Y045090D03*
X088743Y045090D03*
X087575Y045090D03*
X087575Y045090D03*
X086407Y045090D03*
X086407Y045090D03*
X085241Y045090D03*
X085241Y045090D03*
X084075Y045090D03*
X084075Y045090D03*
X082908Y045090D03*
X082908Y045090D03*
X081741Y045090D03*
X081741Y045090D03*
X080575Y045090D03*
X080575Y045090D03*
X080575Y043988D03*
X080575Y043988D03*
X080575Y043080D03*
X080575Y043080D03*
X081741Y043080D03*
X081741Y043080D03*
X081741Y043988D03*
X081741Y043988D03*
X082908Y043988D03*
X082908Y043988D03*
X082908Y043080D03*
X082908Y043080D03*
X084075Y043080D03*
X084075Y043080D03*
X084075Y043988D03*
X084075Y043988D03*
X085241Y043988D03*
X085241Y043988D03*
X085241Y043080D03*
X085241Y043080D03*
X086407Y043080D03*
X086407Y043080D03*
X086407Y043988D03*
X086407Y043988D03*
X090693Y043988D03*
X090693Y043988D03*
X090693Y043080D03*
X090693Y043080D03*
X091861Y043080D03*
X091861Y043080D03*
X091861Y043988D03*
X091861Y043988D03*
X093028Y043988D03*
X093028Y043988D03*
X093028Y043080D03*
X093028Y043080D03*
X094195Y043080D03*
X094195Y043080D03*
X094195Y043988D03*
X094195Y043988D03*
X095363Y043988D03*
X095363Y043988D03*
X095363Y043080D03*
X095363Y043080D03*
X096531Y043080D03*
X096531Y043080D03*
X096531Y043988D03*
X096531Y043988D03*
X097699Y043988D03*
X097699Y043988D03*
X097699Y043080D03*
X097699Y043080D03*
X098867Y043988D03*
X098867Y043988D03*
X098867Y045090D03*
X098867Y045090D03*
X097699Y045090D03*
X097699Y045090D03*
X096531Y045090D03*
X096531Y045090D03*
X095363Y045090D03*
X095363Y045090D03*
X094195Y045090D03*
X094195Y045090D03*
X093028Y045090D03*
X093028Y045090D03*
X091861Y045090D03*
X091861Y045090D03*
X090693Y045090D03*
X090693Y045090D03*
X090693Y041978D03*
X090693Y041978D03*
X091861Y041978D03*
X091861Y041978D03*
X093028Y041978D03*
X093028Y041978D03*
X094195Y041978D03*
X094195Y041978D03*
X095363Y041978D03*
X095363Y041978D03*
X096531Y041978D03*
X096531Y041978D03*
X097699Y041978D03*
X097699Y041978D03*
X038588Y041978D03*
X038588Y041978D03*
X037420Y041978D03*
X037420Y041978D03*
X032812Y043988D03*
X032812Y043988D03*
X031645Y043988D03*
X031645Y043988D03*
X031645Y043080D03*
X031645Y043080D03*
X030477Y043080D03*
X030477Y043080D03*
X030477Y043988D03*
X030477Y043988D03*
X029310Y043988D03*
X029310Y043988D03*
X029310Y043080D03*
X029310Y043080D03*
X028142Y043080D03*
X028142Y043080D03*
X028142Y043988D03*
X028142Y043988D03*
X026973Y043988D03*
X026973Y043988D03*
X026973Y043080D03*
X026973Y043080D03*
X025805Y043080D03*
X025805Y043080D03*
X025805Y043988D03*
X025805Y043988D03*
X024637Y043988D03*
X024637Y043988D03*
X024637Y043080D03*
X024637Y043080D03*
X024637Y041978D03*
X024637Y041978D03*
X025805Y041978D03*
X025805Y041978D03*
X026973Y041978D03*
X026973Y041978D03*
X028142Y041978D03*
X028142Y041978D03*
X029310Y041978D03*
X029310Y041978D03*
X030477Y041978D03*
X030477Y041978D03*
X031645Y041978D03*
X031645Y041978D03*
X031645Y045090D03*
X031645Y045090D03*
X032812Y045090D03*
X032812Y045090D03*
X030477Y045090D03*
X030477Y045090D03*
X029310Y045090D03*
X029310Y045090D03*
X028142Y045090D03*
X028142Y045090D03*
X026973Y045090D03*
X026973Y045090D03*
X025805Y045090D03*
X025805Y045090D03*
X024637Y045090D03*
X024637Y045090D03*
X022702Y045093D03*
X022702Y045093D03*
X021532Y045093D03*
X021532Y045093D03*
X020365Y045093D03*
X020365Y045093D03*
X019197Y045093D03*
X019197Y045093D03*
X018030Y045093D03*
X018030Y045093D03*
X016861Y045093D03*
X016861Y045093D03*
X015692Y045093D03*
X015692Y045093D03*
X014524Y045093D03*
X014524Y045093D03*
X014524Y043991D03*
X014524Y043991D03*
X014524Y043083D03*
X014524Y043083D03*
X015692Y043083D03*
X015692Y043083D03*
X015692Y043991D03*
X015692Y043991D03*
X016861Y043991D03*
X016861Y043991D03*
X016861Y043083D03*
X016861Y043083D03*
X018030Y043083D03*
X018030Y043083D03*
X018030Y043991D03*
X018030Y043991D03*
X019197Y043991D03*
X019197Y043991D03*
X019197Y043083D03*
X019197Y043083D03*
X020365Y043083D03*
X020365Y043083D03*
X020365Y043991D03*
X020365Y043991D03*
X021532Y043991D03*
X021532Y043991D03*
X021532Y043083D03*
X021532Y043083D03*
X022702Y043991D03*
X022702Y043991D03*
X021532Y041981D03*
X021532Y041981D03*
X020365Y041981D03*
X020365Y041981D03*
X019197Y041981D03*
X019197Y041981D03*
X018030Y041981D03*
X018030Y041981D03*
X016861Y041981D03*
X016861Y041981D03*
X015692Y041981D03*
X015692Y041981D03*
X014524Y041981D03*
X014524Y041981D03*
X012572Y043984D03*
X012572Y043984D03*
X011403Y043987D03*
X011403Y043987D03*
X011406Y043082D03*
X011406Y043082D03*
X010239Y043085D03*
X010239Y043085D03*
X010237Y043989D03*
X010237Y043989D03*
X009069Y043988D03*
X009069Y043988D03*
X009071Y043083D03*
X009071Y043083D03*
X007901Y043085D03*
X007901Y043085D03*
X007900Y043989D03*
X007900Y043989D03*
X006730Y043989D03*
X006730Y043989D03*
X006733Y043083D03*
X006733Y043083D03*
X006733Y041981D03*
X006733Y041981D03*
X007901Y041983D03*
X007901Y041983D03*
X009071Y041981D03*
X009071Y041981D03*
X010239Y041983D03*
X010239Y041983D03*
X011406Y041980D03*
X011406Y041980D03*
X011403Y045089D03*
X011403Y045089D03*
X010237Y045091D03*
X010237Y045091D03*
X009069Y045090D03*
X009069Y045090D03*
X007900Y045091D03*
X007900Y045091D03*
X006730Y045092D03*
X006730Y045092D03*
X005564Y045088D03*
X005564Y045088D03*
X004396Y045086D03*
X004396Y045086D03*
X004396Y043984D03*
X004396Y043984D03*
X004396Y043086D03*
X004396Y043086D03*
X005565Y043086D03*
X005565Y043086D03*
X005564Y043986D03*
X005564Y043986D03*
X005565Y041983D03*
X005565Y041983D03*
X004396Y041984D03*
X004396Y041984D03*
X012572Y045086D03*
X012572Y045086D03*
D16*
G36*
X014866Y046428D02*
X014588Y046150D01*
X014310Y046428D01*
X014588Y046706D01*
X014866Y046428D01*
G37*
G36*
X014866Y046428D02*
X014588Y046150D01*
X014310Y046428D01*
X014588Y046706D01*
X014866Y046428D01*
G37*
G36*
X015422Y046985D02*
X015144Y046707D01*
X014866Y046985D01*
X015144Y047263D01*
X015422Y046985D01*
G37*
G36*
X015422Y046985D02*
X015144Y046707D01*
X014866Y046985D01*
X015144Y047263D01*
X015422Y046985D01*
G37*
G36*
X022354Y047623D02*
X022632Y047345D01*
X022354Y047067D01*
X022076Y047345D01*
X022354Y047623D01*
G37*
G36*
X022354Y047623D02*
X022632Y047345D01*
X022354Y047067D01*
X022076Y047345D01*
X022354Y047623D01*
G37*
G36*
X022911Y047066D02*
X023189Y046788D01*
X022911Y046510D01*
X022633Y046788D01*
X022911Y047066D01*
G37*
G36*
X022911Y047066D02*
X023189Y046788D01*
X022911Y046510D01*
X022633Y046788D01*
X022911Y047066D01*
G37*
G36*
X007452Y048310D02*
X007174Y048032D01*
X006896Y048310D01*
X007174Y048588D01*
X007452Y048310D01*
G37*
G36*
X007452Y048310D02*
X007174Y048032D01*
X006896Y048310D01*
X007174Y048588D01*
X007452Y048310D01*
G37*
G36*
X006895Y047753D02*
X006617Y047475D01*
X006339Y047753D01*
X006617Y048031D01*
X006895Y047753D01*
G37*
G36*
X006895Y047753D02*
X006617Y047475D01*
X006339Y047753D01*
X006617Y048031D01*
X006895Y047753D01*
G37*
G36*
X040085Y047702D02*
X039807Y047424D01*
X039529Y047702D01*
X039807Y047980D01*
X040085Y047702D01*
G37*
G36*
X040085Y047702D02*
X039807Y047424D01*
X039529Y047702D01*
X039807Y047980D01*
X040085Y047702D01*
G37*
G36*
X040642Y048259D02*
X040364Y047981D01*
X040086Y048259D01*
X040364Y048537D01*
X040642Y048259D01*
G37*
G36*
X040642Y048259D02*
X040364Y047981D01*
X040086Y048259D01*
X040364Y048537D01*
X040642Y048259D01*
G37*
G36*
X047831Y046524D02*
X047553Y046246D01*
X047275Y046524D01*
X047553Y046802D01*
X047831Y046524D01*
G37*
G36*
X047831Y046524D02*
X047553Y046246D01*
X047275Y046524D01*
X047553Y046802D01*
X047831Y046524D01*
G37*
G36*
X048388Y047081D02*
X048110Y046803D01*
X047832Y047081D01*
X048110Y047359D01*
X048388Y047081D01*
G37*
G36*
X048388Y047081D02*
X048110Y046803D01*
X047832Y047081D01*
X048110Y047359D01*
X048388Y047081D01*
G37*
G36*
X055291Y047379D02*
X055569Y047101D01*
X055291Y046823D01*
X055013Y047101D01*
X055291Y047379D01*
G37*
G36*
X055291Y047379D02*
X055569Y047101D01*
X055291Y046823D01*
X055013Y047101D01*
X055291Y047379D01*
G37*
G36*
X055848Y046822D02*
X056126Y046544D01*
X055848Y046266D01*
X055570Y046544D01*
X055848Y046822D01*
G37*
G36*
X055848Y046822D02*
X056126Y046544D01*
X055848Y046266D01*
X055570Y046544D01*
X055848Y046822D01*
G37*
G36*
X073044Y047691D02*
X072766Y047413D01*
X072488Y047691D01*
X072766Y047969D01*
X073044Y047691D01*
G37*
G36*
X073044Y047691D02*
X072766Y047413D01*
X072488Y047691D01*
X072766Y047969D01*
X073044Y047691D01*
G37*
G36*
X073601Y048248D02*
X073323Y047970D01*
X073045Y048248D01*
X073323Y048526D01*
X073601Y048248D01*
G37*
G36*
X073601Y048248D02*
X073323Y047970D01*
X073045Y048248D01*
X073323Y048526D01*
X073601Y048248D01*
G37*
G36*
X080846Y046524D02*
X080568Y046246D01*
X080290Y046524D01*
X080568Y046802D01*
X080846Y046524D01*
G37*
G36*
X080846Y046524D02*
X080568Y046246D01*
X080290Y046524D01*
X080568Y046802D01*
X080846Y046524D01*
G37*
G36*
X081403Y047081D02*
X081125Y046803D01*
X080847Y047081D01*
X081125Y047359D01*
X081403Y047081D01*
G37*
G36*
X081403Y047081D02*
X081125Y046803D01*
X080847Y047081D01*
X081125Y047359D01*
X081403Y047081D01*
G37*
G36*
X088173Y047379D02*
X088451Y047101D01*
X088173Y046823D01*
X087895Y047101D01*
X088173Y047379D01*
G37*
G36*
X088173Y047379D02*
X088451Y047101D01*
X088173Y046823D01*
X087895Y047101D01*
X088173Y047379D01*
G37*
G36*
X088730Y046822D02*
X089008Y046544D01*
X088730Y046266D01*
X088452Y046544D01*
X088730Y046822D01*
G37*
G36*
X088730Y046822D02*
X089008Y046544D01*
X088730Y046266D01*
X088452Y046544D01*
X088730Y046822D01*
G37*
D17*
X088741Y017285D03*
X088741Y017285D03*
X088741Y016616D03*
X088741Y016616D03*
X091402Y011317D03*
X091402Y011317D03*
X091402Y010648D03*
X091402Y010648D03*
X081267Y010648D03*
X081267Y010648D03*
X081267Y011317D03*
X081267Y011317D03*
X078624Y016616D03*
X078624Y016616D03*
X078624Y017285D03*
X078624Y017285D03*
X071109Y011317D03*
X071109Y011317D03*
X071109Y010648D03*
X071109Y010648D03*
X065886Y016616D03*
X065886Y016616D03*
X065886Y017285D03*
X065886Y017285D03*
X055757Y017285D03*
X055757Y017285D03*
X055757Y016616D03*
X055757Y016616D03*
X058386Y011317D03*
X058386Y011317D03*
X058386Y010648D03*
X058386Y010648D03*
X048299Y010656D03*
X048299Y010656D03*
X048299Y011325D03*
X048299Y011325D03*
X045627Y016616D03*
X045627Y016616D03*
X045627Y017285D03*
X045627Y017285D03*
X038220Y011317D03*
X038220Y011317D03*
X038220Y010648D03*
X038220Y010648D03*
X032855Y016616D03*
X032855Y016616D03*
X032855Y017285D03*
X032855Y017285D03*
X022757Y017288D03*
X022757Y017288D03*
X022757Y016619D03*
X022757Y016619D03*
X025531Y011317D03*
X025531Y011317D03*
X025531Y010648D03*
X025531Y010648D03*
X015427Y010648D03*
X015427Y010648D03*
X015427Y011317D03*
X015427Y011317D03*
X012604Y016612D03*
X012604Y016612D03*
X012604Y017282D03*
X012604Y017282D03*
X005393Y011321D03*
X005393Y011321D03*
X005393Y010652D03*
X005393Y010652D03*
X098867Y016616D03*
X098867Y016616D03*
X098867Y017285D03*
X098867Y017285D03*
D18*
X092844Y049508D03*
X091978Y049508D03*
X091112Y049508D03*
X090245Y049508D03*
X089379Y049508D03*
X088513Y049508D03*
X087647Y049508D03*
X086781Y049508D03*
X085915Y049508D03*
X085049Y049508D03*
X084182Y049508D03*
X083316Y049508D03*
X082450Y049508D03*
X081584Y049508D03*
X080718Y049508D03*
X079852Y049508D03*
X078986Y049508D03*
X078119Y049508D03*
X077253Y049508D03*
X076387Y049508D03*
X059851Y049508D03*
X058985Y049508D03*
X058119Y049508D03*
X057253Y049508D03*
X056387Y049508D03*
X055521Y049508D03*
X054655Y049508D03*
X053788Y049508D03*
X052922Y049508D03*
X052056Y049508D03*
X051190Y049508D03*
X050324Y049508D03*
X049458Y049508D03*
X048592Y049508D03*
X047725Y049508D03*
X046859Y049508D03*
X045993Y049508D03*
X045127Y049508D03*
X044261Y049508D03*
X043395Y049508D03*
X026859Y049508D03*
X025993Y049508D03*
X025127Y049508D03*
X024260Y049508D03*
X023394Y049508D03*
X022528Y049508D03*
X021662Y049508D03*
X020796Y049508D03*
X019930Y049508D03*
X019064Y049508D03*
X018198Y049508D03*
X017331Y049508D03*
X016465Y049508D03*
X015599Y049508D03*
X014733Y049508D03*
X013867Y049508D03*
X013001Y049508D03*
X012135Y049508D03*
X011268Y049508D03*
X010402Y049508D03*
D19*
X010403Y048326D03*
X011269Y048326D03*
X012135Y048326D03*
X013001Y048326D03*
X013867Y048326D03*
X014733Y048326D03*
X015600Y048326D03*
X016466Y048326D03*
X017332Y048326D03*
X018198Y048326D03*
X019064Y048326D03*
X019930Y048326D03*
X020796Y048326D03*
X021663Y048326D03*
X022529Y048326D03*
X023395Y048326D03*
X024261Y048326D03*
X025127Y048326D03*
X025993Y048326D03*
X026859Y048326D03*
X043395Y048326D03*
X044261Y048326D03*
X045127Y048326D03*
X045994Y048326D03*
X046860Y048326D03*
X047726Y048326D03*
X048592Y048326D03*
X049458Y048326D03*
X050324Y048326D03*
X051190Y048326D03*
X052057Y048326D03*
X052923Y048326D03*
X053789Y048326D03*
X054655Y048326D03*
X055521Y048326D03*
X056387Y048326D03*
X057253Y048326D03*
X058120Y048326D03*
X058986Y048326D03*
X059852Y048326D03*
X076388Y048326D03*
X077254Y048326D03*
X078120Y048326D03*
X078986Y048326D03*
X079852Y048326D03*
X080718Y048326D03*
X081584Y048326D03*
X082451Y048326D03*
X083317Y048326D03*
X084183Y048326D03*
X085049Y048326D03*
X085915Y048326D03*
X086781Y048326D03*
X087647Y048326D03*
X088514Y048326D03*
X089380Y048326D03*
X090246Y048326D03*
X091112Y048326D03*
X091978Y048326D03*
X092844Y048326D03*
D20*
X002023Y015634D02*
X001423Y015634D01*
X001423Y014634D02*
X002023Y014634D01*
X002023Y013634D02*
X001423Y013634D01*
X001423Y012634D02*
X002023Y012634D01*
X002023Y011634D02*
X001423Y011634D01*
X001423Y010634D02*
X002023Y010634D01*
D21*
X003386Y010762D03*
X005085Y011949D03*
X005996Y011947D03*
X006981Y011949D03*
X008159Y011947D03*
X008352Y013132D03*
X007955Y013138D03*
X007566Y013128D03*
X007170Y013140D03*
X006782Y013138D03*
X006387Y013142D03*
X005992Y013143D03*
X005601Y013140D03*
X008752Y013141D03*
X009146Y013130D03*
X012594Y013008D03*
X012592Y012529D03*
X012596Y012034D03*
X012602Y011529D03*
X012593Y011030D03*
X012593Y010480D03*
X015250Y011951D03*
X016132Y011957D03*
X017121Y011949D03*
X018484Y011957D03*
X018497Y013151D03*
X018888Y013149D03*
X019277Y013152D03*
X018101Y013144D03*
X017705Y013151D03*
X017314Y013152D03*
X016919Y013151D03*
X016523Y013150D03*
X016137Y013150D03*
X015738Y013151D03*
X012590Y013535D03*
X014503Y015218D03*
X013998Y015913D03*
X013412Y015913D03*
X015066Y015913D03*
X015564Y015218D03*
X016126Y015913D03*
X016632Y015218D03*
X017194Y015913D03*
X017696Y015218D03*
X018250Y015913D03*
X018757Y015218D03*
X019312Y015913D03*
X019820Y015218D03*
X020629Y015913D03*
X021691Y015913D03*
X022762Y015913D03*
X023553Y015913D03*
X024143Y015913D03*
X024644Y015218D03*
X025203Y015913D03*
X025705Y015218D03*
X026267Y015913D03*
X026773Y015218D03*
X027324Y015913D03*
X027833Y015218D03*
X028389Y015913D03*
X028900Y015218D03*
X029452Y015913D03*
X029962Y015218D03*
X030726Y015913D03*
X031784Y015913D03*
X032782Y013540D03*
X032781Y013024D03*
X032787Y012536D03*
X032789Y012027D03*
X032789Y011519D03*
X032787Y011024D03*
X032787Y010480D03*
X028816Y011957D03*
X027237Y011949D03*
X026249Y011952D03*
X025419Y011950D03*
X025855Y013136D03*
X026256Y013133D03*
X026647Y013141D03*
X027040Y013135D03*
X027432Y013134D03*
X027827Y013134D03*
X028228Y013142D03*
X028618Y013128D03*
X029015Y013134D03*
X029405Y013134D03*
X026035Y009980D03*
X022658Y010480D03*
X022658Y011024D03*
X022658Y011529D03*
X022658Y012016D03*
X022661Y012529D03*
X022661Y013050D03*
X022663Y013550D03*
X015936Y009945D03*
X009671Y015218D03*
X009161Y015909D03*
X008603Y015218D03*
X008105Y015913D03*
X007547Y015218D03*
X007039Y015906D03*
X006485Y015218D03*
X005969Y015926D03*
X005411Y015218D03*
X004934Y015910D03*
X004351Y015218D03*
X003848Y015910D03*
X007302Y017851D03*
X005399Y020242D03*
X003280Y021237D03*
X005414Y023954D03*
X003306Y024922D03*
X005429Y027646D03*
X003305Y028694D03*
X005391Y031309D03*
X003281Y032319D03*
X005440Y034978D03*
X003286Y035941D03*
X008669Y035967D03*
X010649Y035013D03*
X013304Y035956D03*
X015466Y034857D03*
X018638Y035969D03*
X020789Y034857D03*
X023466Y035966D03*
X025540Y034855D03*
X028793Y035966D03*
X030804Y034855D03*
X028793Y032334D03*
X030794Y031235D03*
X028793Y028700D03*
X030794Y027620D03*
X028793Y024900D03*
X030794Y023836D03*
X028793Y021277D03*
X030794Y020177D03*
X027465Y017870D03*
X025536Y020177D03*
X023466Y021277D03*
X020840Y020180D03*
X018638Y021280D03*
X015488Y020180D03*
X013304Y021280D03*
X010649Y020309D03*
X008717Y021278D03*
X010649Y023997D03*
X008703Y024942D03*
X013304Y024947D03*
X015488Y023839D03*
X018638Y024903D03*
X020840Y023839D03*
X023466Y024900D03*
X025536Y023836D03*
X025536Y027620D03*
X023466Y028700D03*
X020840Y027623D03*
X018638Y028703D03*
X015488Y027623D03*
X013304Y028711D03*
X010649Y027633D03*
X008690Y028730D03*
X010649Y031375D03*
X008669Y032365D03*
X013304Y032339D03*
X015446Y031238D03*
X018638Y032334D03*
X020785Y031238D03*
X023466Y032334D03*
X025536Y031235D03*
X036312Y032334D03*
X038312Y031235D03*
X041554Y032334D03*
X043570Y031235D03*
X046405Y032334D03*
X048426Y031235D03*
X051667Y032334D03*
X053679Y031235D03*
X056541Y032334D03*
X058546Y031235D03*
X061795Y032334D03*
X063805Y031235D03*
X061795Y028700D03*
X063805Y027620D03*
X061795Y024900D03*
X063805Y023836D03*
X061795Y021277D03*
X063805Y020177D03*
X060587Y017889D03*
X060318Y015913D03*
X060827Y015218D03*
X061383Y015913D03*
X061888Y015218D03*
X062434Y015913D03*
X062956Y015218D03*
X063760Y015913D03*
X064825Y015913D03*
X065884Y015913D03*
X069227Y015913D03*
X069869Y015913D03*
X070378Y015218D03*
X070929Y015913D03*
X071441Y015218D03*
X071991Y015913D03*
X072499Y015218D03*
X073056Y015913D03*
X073565Y015218D03*
X074119Y015913D03*
X074627Y015218D03*
X075181Y015913D03*
X075690Y015218D03*
X076500Y015913D03*
X077560Y015913D03*
X078622Y015913D03*
X079447Y015913D03*
X079985Y015913D03*
X080496Y015218D03*
X081046Y015913D03*
X081553Y015218D03*
X082110Y015913D03*
X082618Y015218D03*
X083191Y015913D03*
X083668Y015218D03*
X084239Y015913D03*
X084751Y015218D03*
X085298Y015913D03*
X085805Y015218D03*
X086615Y015913D03*
X087681Y015913D03*
X088752Y015913D03*
X089572Y015913D03*
X090110Y015913D03*
X090616Y015218D03*
X091171Y015913D03*
X091683Y015218D03*
X092238Y015913D03*
X092749Y015218D03*
X093299Y015913D03*
X093810Y015218D03*
X094362Y015913D03*
X094871Y015218D03*
X095426Y015913D03*
X095935Y015218D03*
X096743Y015913D03*
X097802Y015913D03*
X098865Y015913D03*
X098867Y017767D03*
X096847Y020177D03*
X094835Y021277D03*
X091575Y020177D03*
X089569Y021277D03*
X086736Y020177D03*
X084729Y021277D03*
X081465Y020177D03*
X079457Y021277D03*
X076598Y020177D03*
X074588Y021277D03*
X071342Y020177D03*
X069337Y021277D03*
X071342Y023836D03*
X069337Y024900D03*
X074588Y024900D03*
X076598Y023836D03*
X079457Y024900D03*
X081465Y023836D03*
X084729Y024900D03*
X086736Y023836D03*
X089569Y024900D03*
X091575Y023836D03*
X094835Y024900D03*
X096847Y023836D03*
X096847Y027620D03*
X094835Y028700D03*
X091575Y027620D03*
X089569Y028700D03*
X086736Y027620D03*
X084729Y028700D03*
X081465Y027620D03*
X079457Y028700D03*
X076598Y027620D03*
X074588Y028700D03*
X071342Y027620D03*
X069337Y028700D03*
X071342Y031235D03*
X069337Y032334D03*
X071342Y034865D03*
X069337Y035966D03*
X074588Y035966D03*
X076598Y034865D03*
X079457Y035966D03*
X081465Y034865D03*
X084729Y035966D03*
X086736Y034865D03*
X089569Y035966D03*
X091575Y034865D03*
X094835Y035966D03*
X096847Y034865D03*
X094835Y032334D03*
X096847Y031235D03*
X091575Y031235D03*
X089569Y032334D03*
X086736Y031235D03*
X084729Y032334D03*
X081465Y031235D03*
X079457Y032334D03*
X076598Y031204D03*
X074588Y032334D03*
X063805Y034855D03*
X061795Y035966D03*
X058546Y034855D03*
X056541Y035966D03*
X053679Y034855D03*
X051667Y035966D03*
X048426Y034855D03*
X046405Y035966D03*
X043570Y034855D03*
X041554Y035966D03*
X038312Y034855D03*
X036312Y035966D03*
X030812Y038392D03*
X020789Y038395D03*
X010649Y038209D03*
X036312Y028700D03*
X038312Y027620D03*
X041554Y028700D03*
X043570Y027620D03*
X046405Y028700D03*
X048426Y027620D03*
X051667Y028700D03*
X053679Y027620D03*
X056541Y028700D03*
X058546Y027620D03*
X056541Y024900D03*
X058546Y023836D03*
X056541Y021277D03*
X058546Y020177D03*
X053679Y020177D03*
X051667Y021277D03*
X048426Y020177D03*
X046405Y021277D03*
X043570Y020177D03*
X041554Y021277D03*
X038312Y020177D03*
X036312Y021277D03*
X038312Y023836D03*
X036312Y024900D03*
X041554Y024900D03*
X043570Y023836D03*
X046405Y024900D03*
X048426Y023836D03*
X051667Y024900D03*
X053679Y023836D03*
X050457Y017879D03*
X050187Y015913D03*
X050699Y015218D03*
X051255Y015913D03*
X051761Y015218D03*
X052317Y015913D03*
X052822Y015218D03*
X053636Y015913D03*
X054694Y015913D03*
X055757Y015913D03*
X056607Y015913D03*
X057127Y015913D03*
X057641Y015218D03*
X058195Y015913D03*
X058705Y015218D03*
X059253Y015913D03*
X059758Y015218D03*
X059608Y013136D03*
X059214Y013136D03*
X058822Y013136D03*
X060006Y013136D03*
X060397Y013136D03*
X060790Y013136D03*
X061186Y013136D03*
X061578Y013136D03*
X061972Y013136D03*
X062365Y013136D03*
X061973Y011949D03*
X060196Y011949D03*
X059215Y011949D03*
X058425Y011956D03*
X059020Y009990D03*
X055699Y010448D03*
X055698Y011024D03*
X055698Y011519D03*
X055698Y012027D03*
X055698Y012536D03*
X055698Y013024D03*
X055698Y013540D03*
X052253Y013136D03*
X051858Y013136D03*
X051464Y013136D03*
X051071Y013136D03*
X050677Y013136D03*
X050288Y013136D03*
X049892Y013136D03*
X049502Y013136D03*
X049104Y013136D03*
X048709Y013136D03*
X048311Y011957D03*
X049103Y011949D03*
X050084Y011949D03*
X051857Y011949D03*
X048904Y009931D03*
X045606Y010456D03*
X045598Y011024D03*
X045598Y011519D03*
X045598Y012027D03*
X045598Y012536D03*
X045598Y013024D03*
X045598Y013540D03*
X047517Y015218D03*
X047006Y015913D03*
X046450Y015913D03*
X045615Y015913D03*
X044566Y015913D03*
X043498Y015913D03*
X042695Y015218D03*
X042189Y015913D03*
X041632Y015218D03*
X041119Y015913D03*
X040569Y015218D03*
X040056Y015913D03*
X039506Y015218D03*
X038992Y015913D03*
X038447Y015218D03*
X037934Y015913D03*
X037382Y015218D03*
X036867Y015913D03*
X035968Y015913D03*
X040325Y017866D03*
X048064Y015913D03*
X048569Y015218D03*
X049125Y015913D03*
X049627Y015218D03*
X042100Y013136D03*
X041710Y013136D03*
X041316Y013136D03*
X040919Y013136D03*
X040527Y013136D03*
X040134Y013136D03*
X039739Y013136D03*
X039344Y013136D03*
X038953Y013136D03*
X038561Y013136D03*
X038161Y011968D03*
X038956Y011949D03*
X039935Y011949D03*
X041710Y011949D03*
X038756Y009889D03*
X017424Y017873D03*
X011534Y015918D03*
X010468Y015929D03*
X043570Y038392D03*
X053679Y038392D03*
X063805Y038392D03*
X076598Y038319D03*
X086736Y038336D03*
X096847Y038486D03*
X093480Y017963D03*
X088741Y017703D03*
X083349Y017978D03*
X078624Y017789D03*
X073248Y017912D03*
X078784Y013540D03*
X078784Y013024D03*
X078784Y012536D03*
X078784Y012027D03*
X078784Y011519D03*
X078784Y011024D03*
X078779Y010456D03*
X081291Y011956D03*
X082072Y011949D03*
X083051Y011949D03*
X084828Y011949D03*
X084826Y013136D03*
X084435Y013136D03*
X084040Y013136D03*
X083648Y013136D03*
X083252Y013136D03*
X082857Y013136D03*
X082464Y013136D03*
X082068Y013136D03*
X081678Y013136D03*
X085220Y013136D03*
X088907Y013024D03*
X088907Y012536D03*
X088907Y012027D03*
X088907Y011519D03*
X088907Y011024D03*
X088908Y010471D03*
X091417Y011954D03*
X092205Y011949D03*
X093189Y011949D03*
X094767Y011949D03*
X094961Y013136D03*
X094568Y013136D03*
X094175Y013136D03*
X093780Y013136D03*
X093386Y013136D03*
X092990Y013136D03*
X092601Y013136D03*
X092205Y013136D03*
X091808Y013136D03*
X088907Y013540D03*
X092010Y009812D03*
X096752Y010208D03*
X099096Y010536D03*
X099094Y011024D03*
X099094Y011519D03*
X099094Y012027D03*
X099094Y012536D03*
X099094Y013024D03*
X099094Y013540D03*
X095359Y013136D03*
X081875Y009881D03*
X075099Y013136D03*
X074708Y013136D03*
X074314Y013136D03*
X073918Y013136D03*
X073524Y013136D03*
X073136Y013136D03*
X072739Y013136D03*
X072346Y013136D03*
X071950Y013136D03*
X071554Y013136D03*
X071169Y011953D03*
X071951Y011949D03*
X072932Y011949D03*
X074701Y011949D03*
X071754Y009853D03*
X066032Y010434D03*
X066030Y011024D03*
X066030Y011519D03*
X066030Y012027D03*
X066030Y012536D03*
X066030Y013024D03*
X066030Y013540D03*
D22*
X065267Y014533D02*
X065267Y011560D01*
X064295Y010589D01*
X061973Y010589D01*
X061973Y011949D01*
X061973Y010589D02*
X060195Y010589D01*
X059272Y010589D01*
X058445Y010589D01*
X058432Y010590D01*
X058419Y010595D01*
X058408Y010602D01*
X058399Y010611D01*
X058392Y010622D01*
X058387Y010635D01*
X058386Y010648D01*
X058386Y011317D02*
X059213Y011317D01*
X059215Y011319D01*
X059215Y011949D01*
X059272Y011376D02*
X059271Y011363D01*
X059266Y011350D01*
X059259Y011339D01*
X059250Y011330D01*
X059239Y011323D01*
X059226Y011318D01*
X059213Y011317D01*
X055120Y011738D02*
X055120Y014524D01*
X054373Y015218D02*
X054694Y015540D01*
X054694Y015913D01*
X054373Y015218D02*
X052822Y015218D01*
X052822Y016557D01*
X052568Y016557D01*
X051761Y016557D02*
X051761Y015218D01*
X050699Y015218D02*
X050699Y016557D01*
X050442Y016557D01*
X049627Y016557D02*
X049627Y015218D01*
X048569Y015218D02*
X048569Y016557D01*
X048316Y016557D01*
X047517Y016557D02*
X047517Y015218D01*
X047517Y016557D02*
X047253Y016557D01*
X049379Y016557D02*
X049627Y016557D01*
X051505Y016557D02*
X051761Y016557D01*
X053631Y016557D02*
X053631Y016023D01*
X053636Y015913D01*
X057382Y016557D02*
X057641Y016557D01*
X057641Y015218D01*
X058705Y015218D02*
X058705Y016557D01*
X058445Y016557D01*
X059508Y016557D02*
X059758Y016557D01*
X059758Y015218D01*
X060827Y015218D02*
X060827Y016557D01*
X060571Y016557D01*
X061634Y016557D02*
X061888Y016557D01*
X061888Y015218D01*
X062956Y015218D02*
X064458Y015218D01*
X064825Y015585D01*
X064825Y015913D01*
X063760Y015913D02*
X063760Y016556D01*
X063760Y016557D01*
X062956Y016557D02*
X062956Y015218D01*
X062956Y016557D02*
X062697Y016557D01*
X070120Y016557D02*
X070378Y016557D01*
X070378Y015218D01*
X071441Y015218D02*
X071441Y016557D01*
X071183Y016557D01*
X072246Y016557D02*
X072499Y016557D01*
X072499Y015218D01*
X073565Y015218D02*
X073565Y016557D01*
X073309Y016557D01*
X074372Y016557D02*
X074627Y016557D01*
X074627Y015218D01*
X075690Y015218D02*
X077268Y015218D01*
X077560Y015510D01*
X077560Y015913D01*
X076500Y015913D02*
X076498Y016025D01*
X076498Y016557D01*
X075690Y016557D02*
X075690Y015218D01*
X075690Y016557D02*
X075435Y016557D01*
X078027Y014524D02*
X078027Y011571D01*
X077045Y010589D01*
X074701Y010589D01*
X074701Y011949D01*
X074701Y010589D02*
X072937Y010589D01*
X071990Y010589D01*
X071168Y010589D01*
X071155Y010590D01*
X071142Y010595D01*
X071131Y010602D01*
X071122Y010611D01*
X071115Y010622D01*
X071110Y010635D01*
X071109Y010648D01*
X071109Y011317D02*
X071931Y011317D01*
X071951Y011337D01*
X071951Y011949D01*
X071990Y011376D02*
X071989Y011363D01*
X071984Y011350D01*
X071977Y011339D01*
X071968Y011330D01*
X071957Y011323D01*
X071944Y011318D01*
X071931Y011317D01*
X081267Y011317D02*
X082072Y011317D01*
X082072Y011317D01*
X082072Y011949D01*
X082131Y011376D02*
X082130Y011363D01*
X082125Y011350D01*
X082118Y011339D01*
X082109Y011330D01*
X082098Y011323D01*
X082085Y011318D01*
X082072Y011317D01*
X082131Y010589D02*
X081326Y010589D01*
X081313Y010590D01*
X081300Y010595D01*
X081289Y010602D01*
X081280Y010611D01*
X081273Y010622D01*
X081268Y010635D01*
X081267Y010648D01*
X082131Y010589D02*
X083055Y010589D01*
X084828Y010589D01*
X084828Y011949D01*
X084828Y010589D02*
X087182Y010589D01*
X088078Y011485D01*
X088078Y014524D01*
X087358Y015218D02*
X087681Y015541D01*
X087681Y015913D01*
X087358Y015218D02*
X085805Y015218D01*
X085805Y016557D01*
X085552Y016557D01*
X084751Y016557D02*
X084751Y015218D01*
X083668Y015218D02*
X083668Y016315D01*
X083426Y016557D01*
X083172Y016557D01*
X082618Y016557D02*
X082618Y015218D01*
X081553Y015218D02*
X081553Y016557D01*
X081300Y016557D01*
X080496Y016557D02*
X080496Y015218D01*
X080496Y016557D02*
X080237Y016557D01*
X082363Y016557D02*
X082618Y016557D01*
X084489Y016557D02*
X084751Y016557D01*
X086615Y016556D02*
X086615Y015913D01*
X086615Y016556D02*
X086615Y016557D01*
X090363Y016557D02*
X090616Y016557D01*
X090616Y015218D01*
X091683Y015218D02*
X091683Y016557D01*
X091426Y016557D01*
X092489Y016557D02*
X092749Y016557D01*
X092749Y015218D01*
X093810Y015218D02*
X093810Y016557D01*
X093552Y016557D01*
X094615Y016557D02*
X094871Y016557D01*
X094871Y015218D01*
X095935Y015218D02*
X097453Y015218D01*
X097802Y015567D01*
X097802Y015913D01*
X096743Y015913D02*
X096741Y016027D01*
X096741Y016557D01*
X095935Y016557D02*
X095935Y015218D01*
X095935Y016557D02*
X095678Y016557D01*
X098193Y014531D02*
X098193Y011447D01*
X097335Y010589D01*
X096773Y010589D01*
X096752Y010568D01*
X096752Y010208D01*
X096773Y010589D02*
X094767Y010589D01*
X094767Y011949D01*
X094767Y010589D02*
X093188Y010589D01*
X092267Y010589D01*
X091461Y010589D01*
X091448Y010590D01*
X091435Y010595D01*
X091424Y010602D01*
X091415Y010611D01*
X091408Y010622D01*
X091403Y010635D01*
X091402Y010648D01*
X091402Y011317D02*
X092208Y011317D01*
X092205Y011320D01*
X092205Y011949D01*
X092267Y011376D02*
X092266Y011363D01*
X092261Y011350D01*
X092254Y011339D01*
X092245Y011330D01*
X092234Y011323D01*
X092221Y011318D01*
X092208Y011317D01*
X055120Y011738D02*
X053970Y010589D01*
X051857Y010589D01*
X051857Y011949D01*
X051857Y010589D02*
X050087Y010589D01*
X049115Y010589D01*
X049113Y010589D01*
X049112Y010591D01*
X049112Y010592D01*
X048363Y010592D01*
X048349Y010594D01*
X048335Y010598D01*
X048323Y010606D01*
X048313Y010616D01*
X048305Y010628D01*
X048301Y010642D01*
X048299Y010656D01*
X048299Y011325D02*
X049058Y011325D01*
X049103Y011371D01*
X049103Y011949D01*
X049112Y011379D02*
X049111Y011367D01*
X049107Y011356D01*
X049100Y011345D01*
X049092Y011337D01*
X049081Y011330D01*
X049070Y011326D01*
X049058Y011325D01*
X044949Y011667D02*
X044949Y014539D01*
X044208Y015218D02*
X044566Y015576D01*
X044566Y015913D01*
X044208Y015218D02*
X042695Y015218D01*
X042695Y016557D01*
X042438Y016557D01*
X041632Y016557D02*
X041632Y015218D01*
X040569Y015218D02*
X040569Y016557D01*
X040312Y016557D01*
X039506Y016557D02*
X039506Y015218D01*
X038447Y015218D02*
X038447Y016557D01*
X038186Y016557D01*
X037382Y016557D02*
X037382Y015218D01*
X037382Y016557D02*
X037123Y016557D01*
X039249Y016557D02*
X039506Y016557D01*
X041375Y016557D02*
X041632Y016557D01*
X043498Y016554D02*
X043498Y015913D01*
X043498Y016554D02*
X043501Y016557D01*
X041710Y011949D02*
X041710Y010589D01*
X043871Y010589D01*
X044949Y011667D01*
X041710Y010589D02*
X039937Y010589D01*
X039063Y010589D01*
X038279Y010589D01*
X038266Y010590D01*
X038253Y010595D01*
X038242Y010602D01*
X038233Y010611D01*
X038226Y010622D01*
X038221Y010635D01*
X038220Y010648D01*
X038220Y011317D02*
X039004Y011317D01*
X038956Y011365D01*
X038956Y011949D01*
X039063Y011376D02*
X039062Y011363D01*
X039057Y011350D01*
X039050Y011339D01*
X039041Y011330D01*
X039030Y011323D01*
X039017Y011318D01*
X039004Y011317D01*
X032205Y011463D02*
X032205Y014537D01*
X031402Y015218D02*
X029962Y015218D01*
X029962Y016027D01*
X029962Y016557D02*
X029962Y015218D01*
X030726Y015913D02*
X030726Y016553D01*
X029962Y016557D02*
X029705Y016557D01*
X028900Y016557D02*
X028900Y015218D01*
X027833Y015218D02*
X027833Y016303D01*
X027580Y016557D01*
X026773Y016557D02*
X026773Y015218D01*
X025705Y015218D02*
X025705Y016557D01*
X025454Y016557D01*
X024644Y016557D02*
X024644Y015218D01*
X024644Y016557D02*
X024391Y016557D01*
X022757Y016619D02*
X022757Y016026D01*
X022762Y015913D01*
X021691Y015913D02*
X021691Y015659D01*
X021250Y015218D01*
X019820Y015218D01*
X019820Y016560D01*
X019568Y016560D01*
X018757Y016560D02*
X018757Y015218D01*
X017696Y015218D02*
X017696Y016560D01*
X017442Y016560D01*
X016632Y016560D02*
X016632Y015218D01*
X015564Y015218D02*
X015564Y016560D01*
X015316Y016560D01*
X014503Y016560D02*
X014503Y015218D01*
X014503Y016560D02*
X014253Y016560D01*
X012604Y016612D02*
X010537Y016612D01*
X010478Y016553D01*
X010478Y016057D01*
X009671Y016297D02*
X009671Y015218D01*
X011071Y015218D01*
X011534Y015681D01*
X011534Y015918D01*
X011995Y014536D02*
X011995Y011303D01*
X011265Y010573D01*
X008159Y010573D01*
X008159Y011947D01*
X006981Y011949D02*
X006981Y011385D01*
X006968Y010593D02*
X006125Y010593D01*
X005453Y010593D01*
X005440Y010594D01*
X005427Y010599D01*
X005416Y010606D01*
X005407Y010615D01*
X005400Y010626D01*
X005395Y010639D01*
X005394Y010652D01*
X005393Y011321D02*
X006066Y011321D01*
X006125Y011380D01*
X005996Y011509D02*
X005996Y011947D01*
X006968Y010593D02*
X006972Y010589D01*
X006987Y010573D01*
X008159Y010573D01*
X003386Y010762D02*
X003386Y014892D01*
X002644Y015633D01*
X001723Y015633D01*
X001723Y015634D01*
X004100Y016553D02*
X004351Y016553D01*
X004351Y015218D01*
X005411Y015218D02*
X005411Y016553D01*
X005163Y016553D01*
X006226Y016553D02*
X006485Y016553D01*
X006485Y015218D01*
X007547Y015218D02*
X007547Y016553D01*
X007289Y016553D01*
X008352Y016553D02*
X008603Y016553D01*
X008603Y015218D01*
X009671Y016297D02*
X009669Y016328D01*
X009664Y016358D01*
X009654Y016388D01*
X009642Y016416D01*
X009626Y016442D01*
X009607Y016467D01*
X009585Y016489D01*
X009560Y016508D01*
X009534Y016524D01*
X009506Y016536D01*
X009476Y016546D01*
X009446Y016551D01*
X009415Y016553D01*
X012604Y017282D02*
X012604Y017718D01*
X012594Y017728D01*
X016379Y016560D02*
X016632Y016560D01*
X018505Y016560D02*
X018757Y016560D01*
X022120Y014527D02*
X022120Y011320D01*
X021388Y010589D01*
X018519Y010589D01*
X018484Y010624D01*
X018484Y011957D01*
X017121Y011949D02*
X017121Y011380D01*
X017116Y010589D02*
X016321Y010589D01*
X015486Y010589D01*
X015473Y010590D01*
X015460Y010595D01*
X015449Y010602D01*
X015440Y010611D01*
X015433Y010622D01*
X015428Y010635D01*
X015427Y010648D01*
X015427Y011317D02*
X016262Y011317D01*
X016321Y011376D01*
X016132Y011566D02*
X016132Y011957D01*
X017116Y010589D02*
X018519Y010589D01*
X025531Y011317D02*
X026336Y011317D01*
X026395Y011376D01*
X026249Y011522D02*
X026249Y011952D01*
X027237Y011949D02*
X027237Y011378D01*
X027239Y010589D02*
X026395Y010589D01*
X025591Y010589D01*
X025578Y010590D01*
X025565Y010595D01*
X025554Y010602D01*
X025545Y010611D01*
X025538Y010622D01*
X025533Y010635D01*
X025532Y010648D01*
X027239Y010589D02*
X028816Y010589D01*
X028816Y011957D01*
X028816Y010589D02*
X031330Y010589D01*
X032205Y011463D01*
X031402Y015218D02*
X031784Y015600D01*
X031784Y015913D01*
X032861Y015913D02*
X032861Y016610D01*
X032855Y016616D01*
X028900Y016557D02*
X028643Y016557D01*
X026773Y016557D02*
X026517Y016557D01*
X039756Y045090D02*
X039756Y045651D01*
X041858Y047753D01*
X041895Y047791D01*
X041922Y047817D01*
X044407Y047817D01*
X044692Y048102D01*
X044692Y049072D01*
X045127Y049508D01*
X045559Y049074D02*
X045559Y047892D01*
X045064Y047396D01*
X042648Y047396D01*
X040922Y045671D01*
X040922Y045090D01*
X042090Y045090D02*
X042090Y045685D01*
X043407Y047001D01*
X045536Y047001D01*
X046423Y047889D01*
X046423Y049071D01*
X046859Y049508D01*
X047292Y049074D02*
X047292Y047892D01*
X046002Y046602D01*
X044203Y046602D01*
X043257Y045657D01*
X043257Y045090D01*
X045592Y045438D02*
X048157Y048003D01*
X048157Y049073D01*
X048592Y049508D01*
X047725Y049508D02*
X047292Y049074D01*
X045993Y049508D02*
X045559Y049074D01*
X072783Y045704D02*
X072783Y045090D01*
X072783Y045704D02*
X074876Y047797D01*
X077418Y047797D01*
X077687Y048066D01*
X077687Y049076D01*
X078119Y049508D01*
X078551Y049073D02*
X078551Y047894D01*
X078054Y047397D01*
X075627Y047397D01*
X073951Y045721D01*
X073951Y045090D01*
X075119Y045090D02*
X075119Y045736D01*
X076384Y047002D01*
X078526Y047002D01*
X079415Y047891D01*
X079415Y049071D01*
X079852Y049508D01*
X080281Y049071D02*
X080281Y047893D01*
X078992Y046604D01*
X077150Y046604D01*
X076288Y045742D01*
X076288Y045090D01*
X078625Y045090D02*
X078625Y045466D01*
X081153Y047993D01*
X081153Y049076D01*
X081584Y049508D01*
X080718Y049508D02*
X080281Y049071D01*
X078986Y049508D02*
X078551Y049073D01*
X015599Y049508D02*
X015166Y049075D01*
X015166Y047928D01*
X013464Y046226D01*
X011845Y046226D01*
X011403Y045784D01*
X011403Y045089D01*
X010237Y045091D02*
X010237Y045636D01*
X011227Y046626D01*
X013033Y046626D01*
X014300Y047894D01*
X014300Y049075D01*
X014733Y049508D01*
X013867Y049508D02*
X013434Y049075D01*
X013434Y047893D01*
X012562Y047021D01*
X010428Y047021D01*
X009069Y045662D01*
X009069Y045090D01*
X007900Y045091D02*
X007900Y045596D01*
X009730Y047426D01*
X012101Y047426D01*
X012563Y047888D01*
X012563Y049070D01*
X013001Y049508D01*
X012135Y049508D02*
X011703Y049076D01*
X011703Y048103D01*
X011414Y047814D01*
X008985Y047814D01*
X006730Y045559D01*
X006730Y045092D01*
D23*
X006730Y043989D02*
X006730Y043086D01*
X006733Y043083D01*
X007900Y043086D02*
X007900Y043989D01*
X007900Y043086D02*
X007901Y043085D01*
X009069Y043084D02*
X009069Y043988D01*
X009069Y043084D02*
X009071Y043083D01*
X010237Y043088D02*
X010237Y043989D01*
X010237Y043088D02*
X010239Y043085D01*
X011403Y043086D02*
X011403Y043987D01*
X011403Y043086D02*
X011406Y043082D01*
X011406Y045086D02*
X011403Y045089D01*
X011406Y045086D02*
X012572Y045086D01*
X014524Y043991D02*
X014524Y043083D01*
X015692Y043083D02*
X015692Y043991D01*
X016861Y043991D02*
X016861Y043083D01*
X018030Y043083D02*
X018030Y043991D01*
X019197Y043991D02*
X019197Y043083D01*
X020365Y043083D02*
X020365Y043991D01*
X021532Y043991D02*
X021532Y043083D01*
X024637Y043080D02*
X024637Y043988D01*
X025805Y043988D02*
X025805Y043080D01*
X026973Y043080D02*
X026973Y043988D01*
X028142Y043988D02*
X028142Y043080D01*
X029310Y043080D02*
X029310Y043988D01*
X030477Y043988D02*
X030477Y043080D01*
X031645Y043080D02*
X031645Y043988D01*
X028415Y041705D02*
X028142Y041978D01*
X028415Y041705D02*
X028415Y040603D01*
X029595Y039423D01*
X029777Y039423D01*
X029848Y039494D01*
X030794Y039494D01*
X031734Y039494D01*
X031734Y037289D02*
X030794Y037289D01*
X029848Y037289D01*
X029853Y035968D02*
X030794Y035968D01*
X031734Y035968D01*
X031734Y033763D02*
X030794Y033763D01*
X029853Y033763D01*
X029853Y032338D02*
X030794Y032338D01*
X031734Y032338D01*
X031734Y030133D02*
X030794Y030133D01*
X029853Y030133D01*
X029853Y028723D02*
X030794Y028723D01*
X031734Y028723D01*
X031734Y026518D02*
X030794Y026518D01*
X029853Y026518D01*
X029853Y024938D02*
X030794Y024938D01*
X031734Y024938D01*
X031734Y022734D02*
X030794Y022734D01*
X029853Y022734D01*
X029853Y021279D02*
X030794Y021279D01*
X031734Y021279D01*
X031734Y019074D02*
X030794Y019074D01*
X029853Y019074D01*
X030731Y017790D02*
X030731Y017347D01*
X030729Y017344D01*
X029705Y017344D01*
X028643Y017344D01*
X027863Y017344D01*
X027924Y017405D01*
X027924Y039847D01*
X027337Y040435D01*
X025535Y040435D01*
X025536Y039494D02*
X026473Y039494D01*
X025536Y039494D02*
X024592Y039494D01*
X024637Y039540D01*
X024637Y041978D01*
X021795Y039531D02*
X019809Y039531D01*
X019803Y039537D01*
X019813Y039527D01*
X020037Y039527D01*
X020013Y039504D01*
X019550Y039504D01*
X018296Y040757D01*
X018296Y041714D01*
X018030Y041981D01*
X017293Y040433D02*
X015496Y040433D01*
X015491Y039535D02*
X015487Y039531D01*
X015491Y039535D02*
X016423Y039535D01*
X014542Y039535D01*
X014541Y039534D01*
X014541Y041963D01*
X014524Y041981D01*
X017293Y040433D02*
X017897Y039829D01*
X017897Y017347D01*
X018505Y017347D01*
X019568Y017347D01*
X020631Y017347D01*
X020619Y017347D01*
X020619Y017800D01*
X020840Y019077D02*
X019916Y019077D01*
X019913Y019074D01*
X020840Y019077D02*
X021780Y019077D01*
X024592Y019074D02*
X025536Y019074D01*
X026473Y019074D01*
X026517Y017344D02*
X025454Y017344D01*
X024391Y017344D01*
X026517Y017344D02*
X027580Y017344D01*
X027863Y017344D01*
X026473Y021279D02*
X025536Y021279D01*
X024592Y021279D01*
X024592Y022734D02*
X025536Y022734D01*
X026473Y022734D01*
X026473Y024938D02*
X025536Y024938D01*
X024592Y024938D01*
X024592Y026518D02*
X025536Y026518D01*
X026473Y026518D01*
X026473Y028723D02*
X025536Y028723D01*
X024592Y028723D01*
X024592Y030133D02*
X025536Y030133D01*
X026473Y030133D01*
X026473Y032338D02*
X025536Y032338D01*
X024592Y032338D01*
X024592Y033763D02*
X025536Y033763D01*
X026473Y033763D01*
X026473Y035968D02*
X025536Y035968D01*
X024592Y035968D01*
X024592Y037289D02*
X025536Y037289D01*
X026473Y037289D01*
X021795Y037326D02*
X020795Y037326D01*
X019809Y037326D01*
X019803Y037333D01*
X019801Y035981D02*
X019812Y035971D01*
X021788Y035971D01*
X020778Y035971D01*
X020778Y035971D01*
X020789Y033766D02*
X019812Y033766D01*
X019801Y033776D01*
X020789Y033766D02*
X021788Y033766D01*
X021789Y032340D02*
X019802Y032340D01*
X019792Y032351D01*
X020774Y032340D02*
X020774Y032341D01*
X020774Y032340D02*
X021789Y032340D01*
X021789Y030136D02*
X020785Y030136D01*
X019802Y030136D01*
X019792Y030146D01*
X019916Y028730D02*
X019920Y028725D01*
X021788Y028725D01*
X020844Y028725D01*
X020844Y028724D01*
X020839Y026521D02*
X019920Y026521D01*
X019916Y026525D01*
X020839Y026521D02*
X021788Y026521D01*
X021785Y024941D02*
X019913Y024941D01*
X019906Y024948D01*
X020844Y024941D02*
X020844Y024941D01*
X020844Y024941D01*
X020844Y024941D01*
X021785Y024941D01*
X021785Y022737D02*
X020845Y022737D01*
X019913Y022737D01*
X019906Y022743D01*
X019916Y021282D02*
X019913Y021278D01*
X019916Y021282D02*
X020858Y021282D01*
X021780Y021282D01*
X016455Y021277D02*
X016454Y021278D01*
X015498Y021278D01*
X014574Y021277D02*
X014573Y021278D01*
X014574Y021277D02*
X016455Y021277D01*
X016448Y022746D02*
X015508Y022746D01*
X014581Y022746D01*
X014569Y022734D01*
X011648Y022743D02*
X010649Y022743D01*
X009648Y022743D01*
X009639Y021276D02*
X011639Y021276D01*
X010628Y021276D01*
X010649Y021278D01*
X010649Y019071D02*
X009639Y019071D01*
X010649Y019071D02*
X011639Y019071D01*
X010478Y017341D02*
X009415Y017341D01*
X008352Y017341D01*
X007794Y017341D01*
X007794Y039718D01*
X007093Y040419D01*
X005286Y040419D01*
X005854Y041230D02*
X005843Y041983D01*
X005565Y041983D01*
X004429Y041950D02*
X004429Y039484D01*
X006429Y039484D01*
X005437Y039484D01*
X005434Y039487D01*
X006999Y041236D02*
X006999Y041715D01*
X006733Y041981D01*
X007901Y041983D02*
X008169Y041714D01*
X008169Y040677D01*
X009324Y039523D01*
X009644Y039523D01*
X009615Y039552D01*
X009644Y039523D02*
X011644Y039523D01*
X010640Y039523D01*
X010649Y039517D01*
X010649Y037319D02*
X009644Y037319D01*
X010649Y037319D02*
X011644Y037319D01*
X011647Y035970D02*
X009647Y035970D01*
X010633Y035970D02*
X010649Y035970D01*
X010633Y035970D02*
X011647Y035970D01*
X014561Y035958D02*
X014563Y035960D01*
X016426Y035960D01*
X015488Y035960D01*
X015488Y035958D01*
X015490Y037333D02*
X015958Y037330D01*
X016423Y037330D01*
X015490Y037333D02*
X014542Y037330D01*
X014541Y037329D01*
X020783Y039530D02*
X020784Y039531D01*
X021795Y039531D01*
X016426Y033755D02*
X015888Y033755D01*
X015496Y033754D01*
X014563Y033755D01*
X014561Y033753D01*
X014559Y032333D02*
X014560Y032332D01*
X016426Y032332D01*
X015483Y032332D01*
X015483Y032327D01*
X011642Y032349D02*
X010639Y032349D01*
X010649Y032349D01*
X011642Y032349D02*
X009642Y032349D01*
X009647Y033765D02*
X010649Y033765D01*
X011647Y033765D01*
X006432Y033726D02*
X005563Y033726D01*
X005439Y033728D01*
X004432Y033726D01*
X004428Y032309D02*
X006428Y032309D01*
X005419Y032309D01*
X005419Y032308D01*
X005429Y030104D02*
X004428Y030104D01*
X005429Y030104D02*
X006428Y030104D01*
X006428Y028674D02*
X004428Y028674D01*
X005424Y028674D02*
X006428Y028674D01*
X005424Y028674D02*
X005423Y028674D01*
X005421Y028673D01*
X005421Y028671D01*
X005433Y026469D02*
X004428Y026469D01*
X005433Y026469D02*
X006428Y026469D01*
X006425Y024910D02*
X004425Y024910D01*
X005413Y024910D02*
X005413Y024910D01*
X005413Y024909D01*
X005414Y024909D01*
X005414Y024910D02*
X006425Y024910D01*
X009648Y024948D02*
X011648Y024948D01*
X010645Y024948D01*
X010646Y024946D01*
X010648Y024946D01*
X010649Y024946D01*
X010649Y026497D02*
X009645Y026497D01*
X010649Y026497D02*
X011645Y026497D01*
X010640Y028701D02*
X010643Y028704D01*
X010646Y028706D01*
X010649Y028706D01*
X010640Y028702D02*
X011645Y028702D01*
X009645Y028702D01*
X009642Y030144D02*
X010649Y030142D01*
X011073Y030144D01*
X011642Y030144D01*
X014559Y030128D02*
X014560Y030127D01*
X015499Y030127D01*
X016426Y030127D01*
X016449Y028713D02*
X014577Y028713D01*
X014575Y028710D01*
X015494Y028713D02*
X016448Y028713D01*
X016449Y028713D01*
X016449Y026508D02*
X015508Y026508D01*
X014577Y026508D01*
X014575Y026506D01*
X014581Y024950D02*
X014569Y024938D01*
X014581Y024950D02*
X016448Y024950D01*
X015504Y024950D01*
X015504Y024950D01*
X015504Y024950D01*
X015504Y024950D01*
X006425Y022705D02*
X005425Y022705D01*
X004425Y022705D01*
X004420Y021232D02*
X006420Y021232D01*
X005405Y021232D01*
X005405Y021232D01*
X005420Y019027D02*
X004420Y019027D01*
X005420Y019027D02*
X006420Y019027D01*
X006226Y017341D02*
X005163Y017341D01*
X004100Y017341D01*
X006226Y017341D02*
X007289Y017341D01*
X007794Y017341D01*
X014253Y017347D02*
X015316Y017347D01*
X016379Y017347D01*
X017442Y017347D01*
X017897Y017347D01*
X016455Y019072D02*
X015859Y019072D01*
X015506Y019074D01*
X014574Y019072D01*
X014573Y019073D01*
X037123Y017344D02*
X038186Y017344D01*
X039249Y017344D01*
X040312Y017344D01*
X040787Y017344D01*
X040787Y039659D01*
X039994Y040452D01*
X038318Y040452D01*
X038312Y039494D02*
X037367Y039494D01*
X037420Y039547D01*
X037420Y041978D01*
X037420Y043080D02*
X037420Y043988D01*
X038588Y043988D02*
X038588Y043080D01*
X039756Y043080D02*
X039756Y043988D01*
X040922Y043988D02*
X040922Y043080D01*
X042090Y043080D02*
X042090Y043988D01*
X043257Y043988D02*
X043257Y043080D01*
X044424Y043080D02*
X044424Y043988D01*
X047544Y043988D02*
X047544Y043080D01*
X048712Y043080D02*
X048712Y043988D01*
X049879Y043988D02*
X049879Y043080D01*
X051047Y043080D02*
X051047Y043988D01*
X052215Y043988D02*
X052215Y043080D01*
X053382Y043080D02*
X053382Y043988D01*
X054549Y043988D02*
X054549Y043080D01*
X057668Y043080D02*
X057668Y043988D01*
X058835Y043988D02*
X058835Y043080D01*
X060002Y043080D02*
X060002Y043988D01*
X061170Y043988D02*
X061170Y043080D01*
X062338Y043080D02*
X062338Y043988D01*
X063506Y043988D02*
X063506Y043080D01*
X064675Y043080D02*
X064675Y043988D01*
X061446Y041978D02*
X061170Y041978D01*
X061446Y041978D02*
X061446Y040671D01*
X062346Y039771D01*
X062586Y039771D01*
X062863Y039494D01*
X063477Y039494D01*
X063805Y039496D01*
X064749Y039494D01*
X061047Y039896D02*
X061047Y017344D01*
X060571Y017344D01*
X059508Y017344D01*
X058445Y017344D01*
X057382Y017344D01*
X057606Y019074D02*
X058546Y019074D01*
X059492Y019074D01*
X061047Y017344D02*
X061634Y017344D01*
X062697Y017344D01*
X063760Y017344D01*
X063760Y017344D01*
X063760Y017701D01*
X063805Y019074D02*
X062863Y019074D01*
X063805Y019074D02*
X064749Y019074D01*
X064749Y021279D02*
X063805Y021279D01*
X062863Y021279D01*
X062863Y022734D02*
X063805Y022734D01*
X064749Y022734D01*
X064749Y024938D02*
X063805Y024938D01*
X062863Y024938D01*
X062863Y026518D02*
X063805Y026518D01*
X064749Y026518D01*
X064749Y028723D02*
X063805Y028723D01*
X062863Y028723D01*
X062863Y030133D02*
X063805Y030133D01*
X064749Y030133D01*
X064749Y032338D02*
X063805Y032338D01*
X062863Y032338D01*
X062863Y033763D02*
X063805Y033763D01*
X064749Y033763D01*
X064749Y035968D02*
X063805Y035968D01*
X062863Y035968D01*
X062863Y037289D02*
X063805Y037289D01*
X064749Y037289D01*
X059492Y037289D02*
X058546Y037289D01*
X057606Y037289D01*
X057606Y035968D02*
X058546Y035968D01*
X059492Y035968D01*
X059492Y033763D02*
X058546Y033763D01*
X057606Y033763D01*
X057606Y032338D02*
X058546Y032338D01*
X059492Y032338D01*
X059492Y030133D02*
X058546Y030133D01*
X057606Y030133D01*
X057606Y028723D02*
X058546Y028723D01*
X059492Y028723D01*
X059492Y026518D02*
X058546Y026518D01*
X057606Y026518D01*
X057606Y024938D02*
X058546Y024938D01*
X059492Y024938D01*
X059492Y022734D02*
X058546Y022734D01*
X057606Y022734D01*
X057606Y021279D02*
X058546Y021279D01*
X059492Y021279D01*
X054618Y021279D02*
X053679Y021279D01*
X052732Y021279D01*
X052732Y022734D02*
X053679Y022734D01*
X054618Y022734D01*
X054618Y024938D02*
X053679Y024938D01*
X052732Y024938D01*
X052732Y026518D02*
X053679Y026518D01*
X054618Y026518D01*
X054618Y028723D02*
X053679Y028723D01*
X052732Y028723D01*
X052732Y030133D02*
X053679Y030133D01*
X054618Y030133D01*
X054618Y032338D02*
X053679Y032338D01*
X052732Y032338D01*
X052732Y033763D02*
X053679Y033763D01*
X054618Y033763D01*
X054618Y035968D02*
X053679Y035968D01*
X052732Y035968D01*
X052732Y037289D02*
X053679Y037289D01*
X054618Y037289D01*
X054618Y039494D02*
X053679Y039497D01*
X053449Y039494D01*
X052732Y039494D01*
X052605Y039622D01*
X052266Y039622D01*
X051322Y040565D01*
X051322Y041978D01*
X051047Y041978D01*
X050243Y040374D02*
X048432Y040374D01*
X047669Y039494D02*
X047544Y039619D01*
X047544Y041978D01*
X050243Y040374D02*
X050881Y039736D01*
X050881Y017344D01*
X050442Y017344D01*
X051505Y017344D01*
X052568Y017344D01*
X053631Y017344D01*
X053631Y017673D01*
X053630Y017673D01*
X053679Y019074D02*
X052732Y019074D01*
X053679Y019074D02*
X054618Y019074D01*
X050442Y017344D02*
X049379Y017344D01*
X048316Y017344D01*
X047253Y017344D01*
X047476Y019074D02*
X048426Y019074D01*
X049362Y019074D01*
X049362Y021279D02*
X048426Y021279D01*
X047476Y021279D01*
X047476Y022734D02*
X048426Y022734D01*
X049362Y022734D01*
X049362Y024938D02*
X048426Y024938D01*
X047476Y024938D01*
X047476Y026518D02*
X048426Y026518D01*
X049362Y026518D01*
X049362Y028723D02*
X048426Y028723D01*
X047476Y028723D01*
X047476Y030133D02*
X048426Y030133D01*
X049362Y030133D01*
X049362Y032338D02*
X048426Y032338D01*
X047476Y032338D01*
X047476Y033763D02*
X048426Y033763D01*
X049362Y033763D01*
X049362Y035968D02*
X048426Y035968D01*
X047476Y035968D01*
X047476Y037289D02*
X048426Y037289D01*
X049362Y037289D01*
X049362Y039494D02*
X048426Y039494D01*
X047669Y039494D01*
X047476Y039494D01*
X044509Y039494D02*
X043570Y039494D01*
X042624Y039494D01*
X042577Y039541D01*
X042189Y039541D01*
X041192Y040538D01*
X041192Y041708D01*
X040922Y041978D01*
X039253Y039494D02*
X038312Y039494D01*
X038312Y037289D02*
X037367Y037289D01*
X038312Y037289D02*
X039253Y037289D01*
X039248Y035968D02*
X038312Y035968D01*
X037367Y035968D01*
X037367Y033763D02*
X038312Y033763D01*
X039248Y033763D01*
X039248Y032338D02*
X038312Y032338D01*
X037367Y032338D01*
X037367Y030133D02*
X038312Y030133D01*
X039248Y030133D01*
X039248Y028723D02*
X038312Y028723D01*
X037367Y028723D01*
X037367Y026518D02*
X038312Y026518D01*
X039248Y026518D01*
X039248Y024938D02*
X038312Y024938D01*
X037367Y024938D01*
X037367Y022734D02*
X038312Y022734D01*
X039248Y022734D01*
X039248Y021279D02*
X038312Y021279D01*
X037367Y021279D01*
X037367Y021346D01*
X037178Y021346D01*
X037178Y021279D01*
X037367Y021279D01*
X037367Y019074D02*
X038312Y019074D01*
X039248Y019074D01*
X040312Y017344D02*
X041375Y017344D01*
X042438Y017344D01*
X043501Y017344D01*
X043502Y017344D01*
X043502Y017731D01*
X043570Y019074D02*
X042624Y019074D01*
X043570Y019074D02*
X044509Y019074D01*
X044509Y021279D02*
X043570Y021279D01*
X042624Y021279D01*
X042624Y022734D02*
X043570Y022734D01*
X044509Y022734D01*
X044509Y024938D02*
X043570Y024938D01*
X042624Y024938D01*
X042624Y026518D02*
X043570Y026518D01*
X044509Y026518D01*
X044509Y028723D02*
X043570Y028723D01*
X042624Y028723D01*
X042624Y030133D02*
X043570Y030133D01*
X044509Y030133D01*
X044509Y032338D02*
X043570Y032338D01*
X042624Y032338D01*
X042624Y033763D02*
X043570Y033763D01*
X044509Y033763D01*
X044509Y035968D02*
X043570Y035968D01*
X042624Y035968D01*
X042624Y037289D02*
X043570Y037289D01*
X044509Y037289D01*
X057606Y039494D02*
X057668Y039555D01*
X057668Y041978D01*
X058545Y040390D02*
X060553Y040390D01*
X061047Y039896D01*
X059492Y039494D02*
X058546Y039496D01*
X058179Y039494D01*
X057606Y039494D01*
X070384Y039494D02*
X070450Y039560D01*
X070450Y041978D01*
X070450Y043080D02*
X070450Y043988D01*
X071617Y043988D02*
X071617Y043080D01*
X072783Y043080D02*
X072783Y043988D01*
X073951Y043988D02*
X073951Y043080D01*
X075119Y043080D02*
X075119Y043988D01*
X076288Y043988D02*
X076288Y043080D01*
X077457Y043080D02*
X077457Y043988D01*
X080575Y043988D02*
X080575Y043080D01*
X081741Y043080D02*
X081741Y043988D01*
X082908Y043988D02*
X082908Y043080D01*
X084075Y043080D02*
X084075Y043988D01*
X085241Y043988D02*
X085241Y043080D01*
X086407Y043080D02*
X086407Y043988D01*
X087575Y043988D02*
X087575Y043080D01*
X090693Y043080D02*
X090693Y043988D01*
X091861Y043988D02*
X091861Y043080D01*
X093028Y043080D02*
X093028Y043988D01*
X094195Y043988D02*
X094195Y043080D01*
X095363Y043080D02*
X095363Y043988D01*
X096531Y043988D02*
X096531Y043080D01*
X097699Y043080D02*
X097699Y043988D01*
X094476Y041978D02*
X094476Y040802D01*
X095784Y039494D01*
X095903Y039494D01*
X096847Y039494D01*
X097789Y039494D01*
X093899Y040076D02*
X093899Y017444D01*
X093799Y017344D01*
X094615Y017344D01*
X095678Y017344D01*
X096741Y017344D01*
X096741Y017727D01*
X096740Y017728D01*
X096847Y019074D02*
X095903Y019074D01*
X096847Y019074D02*
X097789Y019074D01*
X097789Y021279D02*
X096847Y021279D01*
X095903Y021279D01*
X095903Y022734D02*
X096847Y022734D01*
X097789Y022734D01*
X097789Y024938D02*
X096847Y024938D01*
X095903Y024938D01*
X095903Y026518D02*
X096847Y026518D01*
X097789Y026518D01*
X097789Y028723D02*
X096847Y028723D01*
X095903Y028723D01*
X095903Y030133D02*
X096847Y030133D01*
X097789Y030133D01*
X097789Y032338D02*
X096847Y032338D01*
X095903Y032338D01*
X095903Y033763D02*
X096847Y033763D01*
X097789Y033763D01*
X097789Y035968D02*
X096847Y035968D01*
X095903Y035968D01*
X095903Y037289D02*
X096847Y037289D01*
X097789Y037289D01*
X093899Y040076D02*
X093502Y040473D01*
X091568Y040473D01*
X091575Y039494D02*
X092518Y039494D01*
X091575Y039494D02*
X090632Y039494D01*
X090693Y039555D01*
X090693Y041978D01*
X094195Y041978D02*
X094476Y041978D01*
X087679Y039494D02*
X086736Y039494D01*
X085793Y039494D01*
X085678Y039494D01*
X084355Y040817D01*
X084355Y041698D01*
X084075Y041978D01*
X083423Y040461D02*
X081467Y040461D01*
X081465Y039494D02*
X082408Y039494D01*
X081465Y039494D02*
X080522Y039494D01*
X080575Y039548D01*
X080575Y041978D01*
X083423Y040461D02*
X083749Y040134D01*
X083749Y017451D01*
X083642Y017344D01*
X083426Y017344D01*
X082363Y017344D01*
X081300Y017344D01*
X080237Y017344D01*
X080522Y019074D02*
X081465Y019074D01*
X082408Y019074D01*
X083642Y017344D02*
X084489Y017344D01*
X085552Y017344D01*
X086615Y017344D01*
X086615Y017345D01*
X086615Y017704D01*
X086736Y019074D02*
X085793Y019074D01*
X086736Y019074D02*
X087679Y019074D01*
X090632Y019074D02*
X091575Y019074D01*
X092518Y019074D01*
X092489Y017344D02*
X091426Y017344D01*
X090363Y017344D01*
X092489Y017344D02*
X093552Y017344D01*
X093799Y017344D01*
X092518Y021279D02*
X091575Y021279D01*
X090632Y021279D01*
X090632Y022734D02*
X091575Y022734D01*
X092518Y022734D01*
X092518Y024938D02*
X091575Y024938D01*
X090632Y024938D01*
X090632Y026518D02*
X091575Y026518D01*
X092518Y026518D01*
X092518Y028723D02*
X091575Y028723D01*
X090632Y028723D01*
X090632Y030133D02*
X091575Y030133D01*
X091657Y030133D01*
X091575Y030133D02*
X092518Y030133D01*
X092518Y032338D02*
X091575Y032338D01*
X090632Y032338D01*
X090632Y033763D02*
X091575Y033763D01*
X092518Y033763D01*
X092518Y035968D02*
X091575Y035968D01*
X090632Y035968D01*
X090632Y037289D02*
X091575Y037289D01*
X091560Y037289D01*
X091575Y037289D02*
X092518Y037289D01*
X087679Y037289D02*
X086736Y037289D01*
X085793Y037289D01*
X085793Y035968D02*
X086736Y035968D01*
X087679Y035968D01*
X087679Y033763D02*
X086736Y033763D01*
X085793Y033763D01*
X085793Y032338D02*
X086736Y032338D01*
X087679Y032338D01*
X087679Y030133D02*
X086736Y030133D01*
X085793Y030133D01*
X085793Y028723D02*
X086736Y028723D01*
X087679Y028723D01*
X087679Y026518D02*
X086736Y026518D01*
X085793Y026518D01*
X085793Y024938D02*
X086736Y024938D01*
X087679Y024938D01*
X087679Y022734D02*
X086736Y022734D01*
X085793Y022734D01*
X085793Y021279D02*
X086736Y021279D01*
X087679Y021279D01*
X082408Y021279D02*
X081465Y021279D01*
X080522Y021279D01*
X080522Y022734D02*
X081465Y022734D01*
X081433Y022734D01*
X081465Y022734D02*
X082408Y022734D01*
X082408Y024938D02*
X081465Y024938D01*
X080522Y024938D01*
X080522Y026518D02*
X081465Y026518D01*
X082408Y026518D01*
X082408Y028723D02*
X081465Y028723D01*
X080522Y028723D01*
X080522Y030133D02*
X081465Y030133D01*
X082408Y030133D01*
X082408Y032338D02*
X081465Y032338D01*
X080522Y032338D01*
X080522Y033763D02*
X081465Y033763D01*
X082408Y033763D01*
X082408Y035968D02*
X081465Y035968D01*
X080522Y035968D01*
X080522Y037289D02*
X081465Y037289D01*
X082408Y037289D01*
X077541Y037289D02*
X076598Y037289D01*
X075655Y037289D01*
X075655Y035968D02*
X076598Y035968D01*
X077541Y035968D01*
X077541Y033763D02*
X076598Y033763D01*
X075655Y033763D01*
X075655Y032338D02*
X076598Y032338D01*
X077541Y032338D01*
X077541Y030133D02*
X076598Y030133D01*
X075655Y030133D01*
X075655Y028723D02*
X076598Y028723D01*
X077541Y028723D01*
X077541Y026518D02*
X076598Y026518D01*
X076588Y026518D01*
X076598Y026518D02*
X075655Y026518D01*
X075655Y024938D02*
X076598Y024938D01*
X077541Y024938D01*
X077541Y022734D02*
X076598Y022734D01*
X075655Y022734D01*
X075655Y021279D02*
X076598Y021279D01*
X077541Y021279D01*
X077541Y019074D02*
X076598Y019074D01*
X075655Y019074D01*
X076498Y017677D02*
X076497Y017677D01*
X076498Y017677D02*
X076498Y017344D01*
X075435Y017344D01*
X074372Y017344D01*
X073680Y017344D01*
X073651Y017373D01*
X073651Y040039D01*
X073198Y040492D01*
X071358Y040492D01*
X071342Y039494D02*
X072270Y039494D01*
X071342Y039494D02*
X070384Y039494D01*
X074227Y040796D02*
X075529Y039494D01*
X075655Y039494D01*
X076598Y039494D01*
X077541Y039494D01*
X074227Y040796D02*
X074227Y041978D01*
X073951Y041978D01*
X072270Y037289D02*
X071342Y037289D01*
X070384Y037289D01*
X070399Y035968D02*
X071342Y035968D01*
X072285Y035968D01*
X072285Y033763D02*
X071342Y033763D01*
X070399Y033763D01*
X070399Y032338D02*
X071342Y032338D01*
X072285Y032338D01*
X072285Y030133D02*
X071342Y030133D01*
X070399Y030133D01*
X070399Y028723D02*
X071342Y028723D01*
X072285Y028723D01*
X072285Y026518D02*
X071342Y026518D01*
X070399Y026518D01*
X070399Y024938D02*
X071342Y024938D01*
X072285Y024938D01*
X072285Y022734D02*
X071342Y022734D01*
X070399Y022734D01*
X070399Y021279D02*
X071342Y021279D01*
X072285Y021279D01*
X072285Y019074D02*
X071342Y019074D01*
X070399Y019074D01*
X070120Y017344D02*
X071183Y017344D01*
X072246Y017344D01*
X073309Y017344D01*
X073680Y017344D01*
X006432Y035930D02*
X005444Y035930D01*
X005444Y035933D01*
X006432Y035930D02*
X004432Y035930D01*
X004429Y037279D02*
X005406Y037279D01*
X006429Y037279D01*
X004429Y041950D02*
X004396Y041984D01*
X004396Y043086D02*
X004396Y043984D01*
X005564Y043986D02*
X005564Y043087D01*
X005565Y043086D01*
D24*
X005294Y041235D03*
X005854Y041230D03*
X006465Y041235D03*
X006999Y041236D03*
X007633Y041237D03*
X008758Y041235D03*
X009379Y041242D03*
X009935Y041240D03*
X010559Y041246D03*
X011086Y041246D03*
X011713Y041246D03*
X010649Y039517D03*
X010649Y037319D03*
X010649Y035970D03*
X010649Y033765D03*
X010649Y032349D03*
X010649Y030142D03*
X010649Y028706D03*
X010649Y026497D03*
X010649Y024947D03*
X010649Y022743D03*
X010649Y021278D03*
X010649Y019071D03*
X010649Y018327D03*
X010481Y017814D03*
X015506Y019074D03*
X015498Y021278D03*
X015508Y022746D03*
X015504Y024950D03*
X015508Y026508D03*
X015494Y028713D03*
X015499Y030127D03*
X015483Y032327D03*
X015496Y033754D03*
X015488Y035958D03*
X015490Y037333D03*
X015487Y039531D03*
X015496Y040433D03*
X015383Y041254D03*
X016008Y041254D03*
X016559Y041254D03*
X017175Y041254D03*
X017716Y041254D03*
X018893Y041254D03*
X019511Y041254D03*
X020051Y041254D03*
X020686Y041254D03*
X021230Y041254D03*
X021842Y041254D03*
X020783Y039530D03*
X020795Y037326D03*
X020778Y035971D03*
X020789Y033766D03*
X020774Y032341D03*
X020785Y030136D03*
X020844Y028724D03*
X020839Y026521D03*
X020844Y024941D03*
X020845Y022737D03*
X020858Y021282D03*
X020840Y019077D03*
X020840Y018353D03*
X020619Y017800D03*
X022748Y017728D03*
X025536Y019074D03*
X025536Y021279D03*
X025536Y022734D03*
X025536Y024938D03*
X025536Y026518D03*
X025536Y028723D03*
X025536Y030133D03*
X025536Y032338D03*
X025536Y033763D03*
X025536Y035968D03*
X025536Y037289D03*
X025536Y039494D03*
X025535Y040435D03*
X025494Y041251D03*
X026122Y041251D03*
X026661Y041251D03*
X027285Y041251D03*
X027837Y041251D03*
X028996Y041251D03*
X029628Y041251D03*
X030172Y041251D03*
X030785Y041251D03*
X031328Y041251D03*
X031963Y041251D03*
X030794Y039494D03*
X030794Y037289D03*
X030794Y035968D03*
X030794Y033763D03*
X030794Y032338D03*
X030794Y030133D03*
X030794Y028723D03*
X030794Y026518D03*
X030794Y024938D03*
X030794Y022734D03*
X030794Y021279D03*
X030794Y019074D03*
X030794Y018316D03*
X030731Y017790D03*
X032861Y017728D03*
X032861Y015913D03*
X032205Y014537D03*
X038312Y019074D03*
X038312Y021279D03*
X038312Y022734D03*
X038312Y024938D03*
X038312Y026518D03*
X038312Y028723D03*
X038312Y030133D03*
X038312Y032338D03*
X038312Y033763D03*
X038312Y035968D03*
X038312Y037289D03*
X038312Y039494D03*
X038318Y040452D03*
X038274Y041251D03*
X038903Y041251D03*
X039444Y041251D03*
X040074Y041251D03*
X040607Y041251D03*
X041783Y041251D03*
X042406Y041251D03*
X042942Y041251D03*
X043573Y041251D03*
X044118Y041251D03*
X044747Y041251D03*
X043570Y039494D03*
X043570Y037289D03*
X043570Y035968D03*
X043570Y033763D03*
X043570Y032338D03*
X043570Y030133D03*
X043570Y028723D03*
X043570Y026518D03*
X043570Y024938D03*
X043570Y022734D03*
X043570Y021279D03*
X043570Y019074D03*
X043573Y018305D03*
X043502Y017731D03*
X045578Y017839D03*
X048426Y019074D03*
X048426Y021279D03*
X048426Y022734D03*
X048426Y024938D03*
X048426Y026518D03*
X048426Y028723D03*
X048426Y030133D03*
X048426Y032338D03*
X048426Y033763D03*
X048426Y035968D03*
X048426Y037289D03*
X048426Y039494D03*
X048432Y040374D03*
X048402Y041251D03*
X049028Y041251D03*
X049567Y041251D03*
X050193Y041251D03*
X050732Y041251D03*
X051911Y041251D03*
X052537Y041251D03*
X053067Y041251D03*
X053698Y041251D03*
X054240Y041251D03*
X054867Y041251D03*
X053679Y039497D03*
X053679Y037289D03*
X053679Y035968D03*
X053679Y033763D03*
X053679Y032338D03*
X053679Y030133D03*
X053679Y028723D03*
X053679Y026518D03*
X053679Y024938D03*
X053679Y022734D03*
X053679Y021279D03*
X053679Y019074D03*
X053690Y018277D03*
X053630Y017673D03*
X055795Y017793D03*
X058546Y019074D03*
X058546Y021279D03*
X058546Y022734D03*
X058546Y024938D03*
X058546Y026518D03*
X058546Y028723D03*
X058546Y030133D03*
X058546Y032338D03*
X058546Y033763D03*
X058546Y035968D03*
X058546Y037289D03*
X058546Y039496D03*
X058545Y040390D03*
X058530Y041251D03*
X059159Y041251D03*
X059686Y041251D03*
X060320Y041251D03*
X060856Y041251D03*
X062027Y041251D03*
X062656Y041251D03*
X063193Y041251D03*
X063830Y041251D03*
X064365Y041251D03*
X064988Y041251D03*
X063805Y039496D03*
X063805Y037289D03*
X063805Y035968D03*
X063805Y033763D03*
X063805Y032338D03*
X063805Y030133D03*
X063805Y028723D03*
X063805Y026518D03*
X063805Y024938D03*
X063805Y022734D03*
X063805Y021279D03*
X063805Y019074D03*
X063797Y018311D03*
X063760Y017701D03*
X065849Y017947D03*
X071342Y019074D03*
X071342Y021279D03*
X071342Y022734D03*
X071342Y024938D03*
X071342Y026518D03*
X071342Y028723D03*
X071342Y030133D03*
X071342Y032338D03*
X071342Y033763D03*
X071342Y035968D03*
X071342Y037289D03*
X071342Y039494D03*
X071358Y040492D03*
X071301Y041251D03*
X071929Y041251D03*
X072470Y041251D03*
X073097Y041251D03*
X073636Y041251D03*
X074808Y041251D03*
X075431Y041251D03*
X075974Y041251D03*
X076605Y041251D03*
X077139Y041251D03*
X077770Y041251D03*
X076598Y039494D03*
X076598Y037289D03*
X076598Y035968D03*
X076598Y033763D03*
X076598Y032338D03*
X076598Y030133D03*
X076598Y028723D03*
X076598Y026518D03*
X076598Y024938D03*
X076598Y022734D03*
X076598Y021279D03*
X076598Y019074D03*
X076598Y018229D03*
X076497Y017677D03*
X081465Y019074D03*
X081465Y021279D03*
X081465Y022734D03*
X081465Y024938D03*
X081465Y026518D03*
X081465Y028723D03*
X081465Y030133D03*
X081465Y032338D03*
X081465Y033763D03*
X081465Y035968D03*
X081465Y037289D03*
X081465Y039494D03*
X081467Y040461D03*
X081433Y041251D03*
X082058Y041251D03*
X082601Y041251D03*
X083225Y041251D03*
X083762Y041251D03*
X084928Y041251D03*
X085552Y041251D03*
X086092Y041251D03*
X086718Y041251D03*
X087263Y041251D03*
X087891Y041251D03*
X086736Y039494D03*
X086736Y037289D03*
X086736Y035968D03*
X086736Y033763D03*
X086736Y032338D03*
X086736Y030133D03*
X086736Y028723D03*
X086736Y026518D03*
X086736Y024938D03*
X086736Y022734D03*
X086736Y021279D03*
X086736Y019074D03*
X086734Y018273D03*
X086615Y017704D03*
X091575Y019074D03*
X091575Y021279D03*
X091575Y022734D03*
X091575Y024938D03*
X091575Y026518D03*
X091575Y028723D03*
X091575Y030133D03*
X091575Y032338D03*
X091575Y033763D03*
X091575Y035968D03*
X091575Y037289D03*
X091575Y039494D03*
X091568Y040473D03*
X091546Y041251D03*
X092178Y041251D03*
X092717Y041251D03*
X093348Y041251D03*
X093882Y041251D03*
X095053Y041251D03*
X095681Y041251D03*
X096221Y041251D03*
X096848Y041251D03*
X097393Y041251D03*
X098014Y041251D03*
X096847Y039494D03*
X096847Y037289D03*
X096847Y035968D03*
X096847Y033763D03*
X096847Y032338D03*
X096847Y030133D03*
X096847Y028723D03*
X096847Y026518D03*
X096847Y024938D03*
X096847Y022734D03*
X096847Y021279D03*
X096847Y019074D03*
X096849Y018296D03*
X096740Y017728D03*
X098193Y014531D03*
X088078Y014524D03*
X078027Y014524D03*
X065267Y014533D03*
X055120Y014524D03*
X044949Y014539D03*
X022120Y014527D03*
X011995Y014536D03*
X005420Y019027D03*
X005405Y021232D03*
X005425Y022705D03*
X005413Y024910D03*
X005433Y026469D03*
X005422Y028671D03*
X005429Y030104D03*
X005419Y032308D03*
X005439Y033728D03*
X005444Y035933D03*
X005406Y037279D03*
X005434Y039487D03*
X005286Y040419D03*
X013245Y043990D03*
X014523Y045791D03*
X023424Y043993D03*
X023900Y045796D03*
X033566Y043995D03*
X037431Y045660D03*
X046209Y043991D03*
X047545Y045660D03*
X056411Y043989D03*
X057665Y045660D03*
X066615Y043994D03*
X070449Y045660D03*
X079271Y043987D03*
X080570Y045660D03*
X089401Y043994D03*
X090702Y045660D03*
X099628Y043988D03*
X004388Y045660D03*
D25*
X004524Y045660D01*
X006617Y047753D01*
X007174Y048310D02*
X008369Y049505D01*
X010400Y049505D01*
X010402Y049508D01*
X010687Y048927D02*
X008822Y048927D01*
X005564Y045668D01*
X005564Y045088D01*
X004396Y045086D02*
X004400Y045596D01*
X004388Y045660D01*
X009071Y041981D02*
X009379Y041672D01*
X009379Y041242D01*
X010239Y041983D02*
X010559Y041663D01*
X010559Y041246D01*
X011713Y041246D02*
X011713Y041980D01*
X011406Y041980D01*
X012572Y043984D02*
X013238Y043984D01*
X013245Y043990D01*
X014524Y045093D02*
X014524Y045790D01*
X014523Y045791D01*
X014524Y046364D02*
X014524Y045093D01*
X015692Y045093D02*
X015692Y046610D01*
X016466Y047383D01*
X016466Y048326D01*
X017332Y048326D02*
X017332Y047058D01*
X016895Y046621D01*
X016895Y045127D01*
X016861Y045093D01*
X018030Y045093D02*
X018198Y045262D01*
X018198Y048326D01*
X019064Y048326D02*
X019064Y045226D01*
X019197Y045093D01*
X020346Y045111D02*
X020365Y045093D01*
X020346Y045111D02*
X020346Y046648D01*
X019930Y047064D01*
X019930Y048326D01*
X020796Y048326D02*
X020796Y047281D01*
X021525Y046552D01*
X021525Y045100D01*
X021532Y045093D01*
X022702Y045093D01*
X023900Y045796D02*
X024605Y045090D01*
X024637Y045090D01*
X024609Y045090D01*
X022911Y046788D01*
X022354Y047345D02*
X021663Y048036D01*
X021663Y048326D01*
X022529Y048326D02*
X024631Y046224D01*
X025175Y046224D01*
X025805Y045594D01*
X025805Y045090D01*
X026973Y045090D02*
X026977Y045095D01*
X026977Y045668D01*
X026015Y046630D01*
X025091Y046630D01*
X023395Y048326D01*
X024261Y048326D02*
X025567Y047020D01*
X026836Y047020D01*
X028142Y045715D01*
X028142Y045090D01*
X029310Y045090D02*
X029310Y045553D01*
X027421Y047442D01*
X026012Y047442D01*
X025127Y048326D01*
X025993Y048326D02*
X026476Y047843D01*
X028239Y047843D01*
X028339Y047744D01*
X028485Y047597D01*
X030477Y045605D01*
X030477Y045090D01*
X031610Y045125D02*
X031610Y045605D01*
X028888Y048326D01*
X026859Y048326D01*
X031610Y045125D02*
X031645Y045090D01*
X032812Y045090D01*
X032818Y043995D02*
X032812Y043988D01*
X032818Y043995D02*
X033566Y043995D01*
X031963Y041978D02*
X031963Y041251D01*
X030785Y041251D02*
X030785Y041978D01*
X030477Y041978D01*
X029628Y041978D02*
X029628Y041251D01*
X029628Y041978D02*
X029310Y041978D01*
X027285Y041978D02*
X027285Y041251D01*
X026122Y041251D02*
X026122Y041661D01*
X026120Y041694D01*
X026115Y041727D01*
X026106Y041759D01*
X026095Y041790D01*
X026080Y041819D01*
X026061Y041847D01*
X026041Y041873D01*
X026017Y041897D01*
X025991Y041917D01*
X025963Y041936D01*
X025934Y041951D01*
X025903Y041962D01*
X025871Y041971D01*
X025838Y041976D01*
X025805Y041978D01*
X026973Y041978D02*
X027285Y041978D01*
X023424Y043993D02*
X022704Y043993D01*
X022702Y043991D01*
X021532Y041981D02*
X021842Y041671D01*
X021842Y041254D01*
X020686Y041254D02*
X020686Y041659D01*
X020365Y041981D01*
X019511Y041667D02*
X019511Y041254D01*
X019511Y041667D02*
X019197Y041981D01*
X017175Y041667D02*
X017175Y041254D01*
X017175Y041667D02*
X016861Y041981D01*
X016008Y041666D02*
X016008Y041254D01*
X016007Y041666D02*
X016005Y041699D01*
X016000Y041731D01*
X015992Y041763D01*
X015980Y041794D01*
X015965Y041823D01*
X015947Y041851D01*
X015926Y041877D01*
X015903Y041900D01*
X015877Y041921D01*
X015849Y041939D01*
X015820Y041954D01*
X015789Y041966D01*
X015757Y041974D01*
X015725Y041979D01*
X015692Y041981D01*
X014524Y046364D02*
X014588Y046428D01*
X015144Y046985D02*
X015600Y047440D01*
X015600Y048326D01*
X011268Y049508D02*
X010687Y048927D01*
X031645Y041978D02*
X031963Y041978D01*
X037420Y045090D02*
X037420Y045315D01*
X039807Y047702D01*
X040364Y048259D02*
X041612Y049508D01*
X043395Y049508D01*
X043815Y048941D02*
X041862Y048941D01*
X038588Y045667D01*
X038588Y045090D01*
X037420Y045090D02*
X037417Y045607D01*
X037431Y045660D01*
X038588Y041978D02*
X038903Y041978D01*
X038903Y041251D01*
X040074Y041251D02*
X040074Y041978D01*
X039756Y041978D01*
X042090Y041978D02*
X042406Y041978D01*
X042406Y041251D01*
X043257Y041978D02*
X043573Y041978D01*
X043573Y041251D01*
X044747Y041251D02*
X044747Y041978D01*
X044424Y041978D01*
X045592Y043988D02*
X045592Y043990D01*
X045594Y043991D01*
X045595Y043991D01*
X046209Y043991D01*
X045592Y045090D02*
X044424Y045090D01*
X045592Y045090D02*
X045592Y045438D01*
X047545Y045660D02*
X047545Y045092D01*
X047544Y045090D01*
X047545Y045660D02*
X047553Y045668D01*
X047553Y046524D01*
X048110Y047081D02*
X048592Y047563D01*
X048592Y048326D01*
X049458Y048326D02*
X049458Y047522D01*
X048712Y046776D01*
X048712Y045090D01*
X049879Y045090D02*
X049879Y046765D01*
X050324Y047210D01*
X050324Y048326D01*
X051047Y048183D02*
X051190Y048326D01*
X051047Y048183D02*
X051047Y045090D01*
X052057Y045249D02*
X052215Y045090D01*
X052057Y045249D02*
X052057Y048326D01*
X052923Y048326D02*
X052923Y047170D01*
X053356Y046737D01*
X053356Y045117D01*
X053382Y045090D01*
X054549Y045090D02*
X054549Y046758D01*
X053789Y047519D01*
X053789Y048326D01*
X054655Y048326D02*
X054655Y047737D01*
X055291Y047101D01*
X055848Y046544D02*
X057302Y045090D01*
X057668Y045090D01*
X057663Y045647D01*
X057665Y045660D01*
X057667Y046180D02*
X058276Y046180D01*
X058835Y045622D01*
X058835Y045090D01*
X059997Y045096D02*
X059997Y045547D01*
X058917Y046626D01*
X058087Y046626D01*
X056387Y048326D01*
X055521Y048326D02*
X057667Y046180D01*
X058544Y047035D02*
X059683Y047035D01*
X061171Y045547D01*
X061171Y045091D01*
X061170Y045090D01*
X062327Y045102D02*
X062327Y045569D01*
X060471Y047425D01*
X059021Y047425D01*
X058120Y048326D01*
X058986Y048326D02*
X059485Y047827D01*
X061320Y047827D01*
X063506Y045640D01*
X063506Y045090D01*
X062338Y045090D02*
X062327Y045102D01*
X060002Y045090D02*
X059997Y045096D01*
X058544Y047035D02*
X057253Y048326D01*
X059852Y048326D02*
X061957Y048326D01*
X064675Y045608D01*
X064675Y045090D01*
X065842Y045090D01*
X065848Y043994D02*
X066615Y043994D01*
X065848Y043994D02*
X065845Y043993D01*
X065843Y043991D01*
X065842Y043988D01*
X064988Y041978D02*
X064675Y041978D01*
X064988Y041978D02*
X064988Y041251D01*
X063830Y041251D02*
X063830Y041978D01*
X063506Y041978D01*
X062656Y041978D02*
X062656Y041251D01*
X062656Y041978D02*
X062338Y041978D01*
X060320Y041978D02*
X060320Y041251D01*
X060320Y041978D02*
X060002Y041978D01*
X059159Y041978D02*
X059159Y041251D01*
X059159Y041978D02*
X058835Y041978D01*
X056411Y043989D02*
X055717Y043989D01*
X055717Y043989D01*
X055716Y043989D01*
X055716Y043988D01*
X055716Y045090D02*
X054549Y045090D01*
X054549Y041978D02*
X054867Y041978D01*
X054867Y041251D01*
X053698Y041251D02*
X053698Y041978D01*
X053382Y041978D01*
X052537Y041978D02*
X052537Y041251D01*
X052537Y041978D02*
X052215Y041978D01*
X050193Y041978D02*
X050193Y041251D01*
X049028Y041251D02*
X049028Y041978D01*
X048712Y041978D01*
X049879Y041978D02*
X050193Y041978D01*
X043815Y048941D02*
X044261Y049387D01*
X044261Y049508D01*
X070449Y045660D02*
X070449Y045092D01*
X070450Y045090D01*
X070450Y045376D01*
X072766Y047691D01*
X073323Y048248D02*
X074582Y049508D01*
X076387Y049508D01*
X076672Y048926D02*
X074829Y048926D01*
X071618Y045715D01*
X071618Y045091D01*
X071617Y045090D01*
X071617Y041978D02*
X071929Y041978D01*
X071929Y041251D01*
X073097Y041251D02*
X073097Y041978D01*
X072783Y041978D01*
X075119Y041978D02*
X075431Y041978D01*
X075431Y041251D01*
X076605Y041251D02*
X076605Y041978D01*
X076288Y041978D01*
X077457Y041978D02*
X077770Y041978D01*
X077770Y041251D01*
X081741Y041978D02*
X082058Y041978D01*
X082058Y041251D01*
X083225Y041251D02*
X083225Y041978D01*
X082908Y041978D01*
X085241Y041978D02*
X085552Y041978D01*
X085552Y041251D01*
X086718Y041251D02*
X086718Y041978D01*
X086407Y041978D01*
X087575Y041978D02*
X087891Y041978D01*
X087891Y041251D01*
X091861Y041978D02*
X092178Y041978D01*
X092178Y041251D01*
X093348Y041251D02*
X093348Y041978D01*
X093028Y041978D01*
X095363Y041978D02*
X095681Y041978D01*
X095681Y041251D01*
X096848Y041251D02*
X096848Y041978D01*
X096531Y041978D01*
X097699Y041978D02*
X098014Y041978D01*
X098014Y041251D01*
X098867Y043988D02*
X098867Y043988D01*
X099628Y043988D01*
X098867Y045090D02*
X097699Y045090D01*
X097699Y045750D01*
X095123Y048326D01*
X092844Y048326D01*
X092485Y047819D02*
X094318Y047819D01*
X096531Y045605D01*
X096531Y045090D01*
X095363Y045090D02*
X095353Y045101D01*
X095353Y045579D01*
X093507Y047425D01*
X092013Y047425D01*
X091112Y048326D01*
X090246Y048326D02*
X091537Y047035D01*
X092709Y047035D01*
X094153Y045591D01*
X094153Y045132D01*
X094195Y045090D01*
X093029Y045091D02*
X093029Y045574D01*
X091978Y046625D01*
X091081Y046625D01*
X089380Y048326D01*
X088514Y048326D02*
X090638Y046202D01*
X091319Y046202D01*
X091861Y045661D01*
X091861Y045090D01*
X093028Y045090D02*
X093029Y045091D01*
X090693Y045090D02*
X090184Y045090D01*
X088730Y046544D01*
X088173Y047101D02*
X087647Y047627D01*
X087647Y048326D01*
X086781Y048326D02*
X086781Y047441D01*
X087575Y046648D01*
X087575Y045090D01*
X088743Y045090D01*
X088748Y043994D02*
X088743Y043988D01*
X088748Y043994D02*
X089401Y043994D01*
X090693Y045090D02*
X090693Y045626D01*
X090702Y045660D01*
X092485Y047819D02*
X091978Y048326D01*
X086313Y046844D02*
X086313Y045184D01*
X086407Y045090D01*
X085241Y045090D02*
X085049Y045283D01*
X085049Y048326D01*
X084183Y048326D02*
X084183Y045198D01*
X084075Y045090D01*
X082908Y045090D02*
X082905Y045094D01*
X082905Y046886D01*
X083317Y047298D01*
X083317Y048326D01*
X082451Y048326D02*
X082451Y047434D01*
X081742Y046725D01*
X081742Y045091D01*
X081741Y045090D01*
X080575Y045090D02*
X080570Y045090D01*
X080570Y045660D01*
X080568Y045662D01*
X080568Y046524D01*
X081125Y047081D02*
X081584Y047540D01*
X081584Y048326D01*
X085915Y048326D02*
X085915Y047242D01*
X086313Y046844D01*
X079271Y043987D02*
X078626Y043987D01*
X078625Y043988D01*
X078625Y045090D02*
X077457Y045090D01*
X076672Y048926D02*
X077253Y049508D01*
X065849Y017947D02*
X065849Y017322D01*
X065886Y017285D01*
X065886Y016616D02*
X065884Y016614D01*
X063760Y016614D01*
X063760Y016557D01*
X065884Y016614D02*
X065884Y015913D01*
X055757Y015913D02*
X055757Y016026D01*
X055757Y016616D01*
X053631Y016616D01*
X053631Y016557D01*
X055757Y017285D02*
X055795Y017323D01*
X055795Y017793D01*
X045627Y017285D02*
X045578Y017334D01*
X045578Y017839D01*
X045627Y016616D02*
X043560Y016616D01*
X043501Y016557D01*
X043501Y016604D01*
X045627Y016616D02*
X045627Y016144D01*
X045615Y015913D01*
X032855Y016616D02*
X032796Y016557D01*
X030729Y016557D01*
X032855Y017285D02*
X032863Y017708D01*
X032861Y017728D01*
X022748Y017728D02*
X022748Y017297D01*
X022757Y017288D01*
X022757Y016619D02*
X022698Y016560D01*
X020631Y016560D01*
X020629Y016557D01*
X020629Y015913D01*
X012614Y015913D02*
X012614Y016602D01*
X012604Y016612D01*
X010478Y017341D02*
X010478Y017811D01*
X010481Y017814D01*
X076498Y016557D02*
X076557Y016616D01*
X078624Y016616D01*
X078624Y016033D01*
X078622Y015913D01*
X078624Y017285D02*
X078624Y017789D01*
X086674Y016616D02*
X088741Y016616D01*
X088752Y016605D01*
X088752Y015913D01*
X086674Y016616D02*
X086661Y016615D01*
X086648Y016610D01*
X086637Y016603D01*
X086628Y016594D01*
X086621Y016583D01*
X086616Y016570D01*
X086615Y016557D01*
X088741Y017285D02*
X088741Y017703D01*
X096741Y016557D02*
X096800Y016616D01*
X098867Y016616D01*
X098867Y016021D01*
X098865Y015913D01*
X098867Y017285D02*
X098867Y017767D01*
D26*
X093189Y011949D02*
X093189Y011376D01*
X093188Y011376D01*
X083055Y011376D02*
X083051Y011376D01*
X083051Y011949D01*
X072932Y011949D02*
X072932Y011376D01*
X072937Y011376D01*
X060196Y011376D02*
X060195Y011376D01*
X060196Y011376D02*
X060196Y011949D01*
X050084Y011949D02*
X050084Y011376D01*
X050087Y011376D01*
X039937Y011376D02*
X039935Y011376D01*
X039935Y011949D01*
X030729Y016557D02*
X030726Y016553D01*
X026249Y011522D02*
X026395Y011376D01*
X027237Y011378D02*
X027237Y011377D01*
X027238Y011376D01*
X027239Y011376D01*
X017121Y011380D02*
X017116Y011376D01*
X016321Y011376D02*
X016132Y011566D01*
X010468Y015929D02*
X010478Y016057D01*
X006428Y016351D02*
X006226Y016553D01*
X005438Y016520D02*
X005406Y016553D01*
X005163Y016553D01*
X005163Y016381D01*
X005996Y011509D02*
X006125Y011380D01*
X006972Y011376D02*
X006981Y011385D01*
D27*
X012614Y015913D03*
X012594Y017728D03*
D28*
X003649Y008011D03*
X034418Y008011D03*
X034415Y019442D03*
X067403Y019442D03*
X067407Y008011D03*
X099908Y008011D03*
X067403Y038733D03*
X067403Y051332D03*
X099905Y051332D03*
X034415Y051332D03*
X034415Y038733D03*
X003645Y051332D03*
M02*
