G75*
G70*
%OFA0B0*%
%FSLAX24Y24*%
%IPPOS*%
%LPD*%
%AMOC8*
5,1,8,0,0,1.08239X$1,22.5*
%
%ADD10C,0.0079*%
%ADD11C,0.0060*%
%ADD12C,0.0000*%
D10*
X000164Y006647D02*
X000164Y009807D01*
X000858Y010501D01*
X000858Y016527D01*
X000164Y017221D01*
X000164Y053694D01*
X000164Y053694D01*
X102206Y053694D01*
X102206Y006647D01*
X000164Y006647D01*
X000156Y007631D01*
D11*
X003840Y019539D02*
X003840Y020709D01*
X005000Y020709D02*
X005000Y019539D01*
X005840Y019539D02*
X005840Y020709D01*
X007000Y020709D02*
X007000Y019539D01*
X009059Y019584D02*
X009059Y020754D01*
X010219Y020754D02*
X010219Y019584D01*
X011059Y019584D02*
X011059Y020754D01*
X012219Y020754D02*
X012219Y019584D01*
X013994Y019586D02*
X013994Y020756D01*
X015153Y020756D02*
X015153Y019586D01*
X015875Y019585D02*
X015875Y020755D01*
X017035Y020755D02*
X017035Y019585D01*
X019333Y019586D02*
X019333Y020756D01*
X020492Y020756D02*
X020492Y019586D01*
X021200Y019590D02*
X021200Y020760D01*
X022360Y020760D02*
X022360Y019590D01*
X024012Y019587D02*
X024012Y020757D01*
X025172Y020757D02*
X025172Y019587D01*
X025893Y019587D02*
X025893Y020757D01*
X027053Y020757D02*
X027053Y019587D01*
X029273Y019587D02*
X029273Y020757D01*
X030433Y020757D02*
X030433Y019587D01*
X031154Y019587D02*
X031154Y020757D01*
X032314Y020757D02*
X032314Y019587D01*
X036787Y019587D02*
X036787Y020757D01*
X037947Y020757D02*
X037947Y019587D01*
X038668Y019587D02*
X038668Y020757D01*
X039828Y020757D02*
X039828Y019587D01*
X042044Y019587D02*
X042044Y020757D01*
X043203Y020757D02*
X043203Y019587D01*
X043929Y019587D02*
X043929Y020757D01*
X045089Y020757D02*
X045089Y019587D01*
X046896Y019587D02*
X046896Y020757D01*
X048056Y020757D02*
X048056Y019587D01*
X048782Y019587D02*
X048782Y020757D01*
X049942Y020757D02*
X049942Y019587D01*
X052153Y019587D02*
X052153Y020757D01*
X053312Y020757D02*
X053312Y019587D01*
X054038Y019587D02*
X054038Y020757D01*
X055198Y020757D02*
X055198Y019587D01*
X057027Y019587D02*
X057027Y020757D01*
X058186Y020757D02*
X058186Y019587D01*
X058912Y019587D02*
X058912Y020757D01*
X060072Y020757D02*
X060072Y019587D01*
X062283Y019587D02*
X062283Y020757D01*
X063443Y020757D02*
X063443Y019587D01*
X064169Y019587D02*
X064169Y020757D01*
X065329Y020757D02*
X065329Y019587D01*
X069819Y019587D02*
X069819Y020757D01*
X070979Y020757D02*
X070979Y019587D01*
X071705Y019587D02*
X071705Y020757D01*
X072865Y020757D02*
X072865Y019587D01*
X075076Y019587D02*
X075076Y020757D01*
X076235Y020757D02*
X076235Y019587D01*
X076961Y019587D02*
X076961Y020757D01*
X078121Y020757D02*
X078121Y019587D01*
X079942Y019587D02*
X079942Y020757D01*
X081102Y020757D02*
X081102Y019587D01*
X081828Y019587D02*
X081828Y020757D01*
X082988Y020757D02*
X082988Y019587D01*
X085213Y019587D02*
X085213Y020757D01*
X086373Y020757D02*
X086373Y019587D01*
X087099Y019587D02*
X087099Y020757D01*
X088259Y020757D02*
X088259Y019587D01*
X090052Y019587D02*
X090052Y020757D01*
X091212Y020757D02*
X091212Y019587D01*
X091938Y019587D02*
X091938Y020757D01*
X093098Y020757D02*
X093098Y019587D01*
X095323Y019587D02*
X095323Y020757D01*
X096483Y020757D02*
X096483Y019587D01*
X097209Y019587D02*
X097209Y020757D01*
X098369Y020757D02*
X098369Y019587D01*
X098369Y023246D02*
X098369Y024416D01*
X097209Y024416D02*
X097209Y023246D01*
X096483Y023246D02*
X096483Y024416D01*
X095323Y024416D02*
X095323Y023246D01*
X093098Y023246D02*
X093098Y024416D01*
X091938Y024416D02*
X091938Y023246D01*
X091212Y023246D02*
X091212Y024416D01*
X090052Y024416D02*
X090052Y023246D01*
X088259Y023246D02*
X088259Y024416D01*
X087099Y024416D02*
X087099Y023246D01*
X086373Y023246D02*
X086373Y024416D01*
X085213Y024416D02*
X085213Y023246D01*
X082988Y023246D02*
X082988Y024416D01*
X081828Y024416D02*
X081828Y023246D01*
X081102Y023246D02*
X081102Y024416D01*
X079942Y024416D02*
X079942Y023246D01*
X078121Y023246D02*
X078121Y024416D01*
X076961Y024416D02*
X076961Y023246D01*
X076235Y023246D02*
X076235Y024416D01*
X075076Y024416D02*
X075076Y023246D01*
X072865Y023246D02*
X072865Y024416D01*
X071705Y024416D02*
X071705Y023246D01*
X070979Y023246D02*
X070979Y024416D01*
X069819Y024416D02*
X069819Y023246D01*
X065329Y023246D02*
X065329Y024416D01*
X064169Y024416D02*
X064169Y023246D01*
X063443Y023246D02*
X063443Y024416D01*
X062283Y024416D02*
X062283Y023246D01*
X060072Y023246D02*
X060072Y024416D01*
X058912Y024416D02*
X058912Y023246D01*
X058186Y023246D02*
X058186Y024416D01*
X057027Y024416D02*
X057027Y023246D01*
X055198Y023246D02*
X055198Y024416D01*
X054038Y024416D02*
X054038Y023246D01*
X053312Y023246D02*
X053312Y024416D01*
X052153Y024416D02*
X052153Y023246D01*
X049942Y023246D02*
X049942Y024416D01*
X048782Y024416D02*
X048782Y023246D01*
X048056Y023246D02*
X048056Y024416D01*
X046896Y024416D02*
X046896Y023246D01*
X045089Y023246D02*
X045089Y024416D01*
X043929Y024416D02*
X043929Y023246D01*
X043203Y023246D02*
X043203Y024416D01*
X042044Y024416D02*
X042044Y023246D01*
X039828Y023246D02*
X039828Y024416D01*
X038668Y024416D02*
X038668Y023246D01*
X037947Y023246D02*
X037947Y024416D01*
X036787Y024416D02*
X036787Y023246D01*
X032314Y023246D02*
X032314Y024416D01*
X031154Y024416D02*
X031154Y023246D01*
X030433Y023246D02*
X030433Y024416D01*
X029273Y024416D02*
X029273Y023246D01*
X027053Y023246D02*
X027053Y024416D01*
X025893Y024416D02*
X025893Y023246D01*
X025172Y023246D02*
X025172Y024416D01*
X024012Y024416D02*
X024012Y023246D01*
X022365Y023249D02*
X022365Y024419D01*
X021205Y024419D02*
X021205Y023249D01*
X020486Y023256D02*
X020486Y024425D01*
X019326Y024425D02*
X019326Y023256D01*
X017028Y023258D02*
X017028Y024428D01*
X015868Y024428D02*
X015868Y023258D01*
X015149Y023246D02*
X015149Y024416D01*
X013989Y024416D02*
X013989Y023246D01*
X012228Y023255D02*
X012228Y024425D01*
X011068Y024425D02*
X011068Y023255D01*
X010228Y023255D02*
X010228Y024425D01*
X009068Y024425D02*
X009068Y023255D01*
X007005Y023218D02*
X007005Y024387D01*
X005845Y024387D02*
X005845Y023218D01*
X005005Y023218D02*
X005005Y024387D01*
X003845Y024387D02*
X003845Y023218D01*
X003848Y026982D02*
X003848Y028151D01*
X005008Y028151D02*
X005008Y026982D01*
X005848Y026982D02*
X005848Y028151D01*
X007008Y028151D02*
X007008Y026982D01*
X009065Y027009D02*
X009065Y028179D01*
X010225Y028179D02*
X010225Y027009D01*
X011065Y027009D02*
X011065Y028179D01*
X012225Y028179D02*
X012225Y027009D01*
X013995Y027018D02*
X013995Y028188D01*
X015155Y028188D02*
X015155Y027018D01*
X015869Y027021D02*
X015869Y028190D01*
X017028Y028190D02*
X017028Y027021D01*
X019336Y027038D02*
X019336Y028207D01*
X020495Y028207D02*
X020495Y027038D01*
X021208Y027033D02*
X021208Y028203D01*
X022368Y028203D02*
X022368Y027033D01*
X024012Y027031D02*
X024012Y028200D01*
X025172Y028200D02*
X025172Y027031D01*
X025893Y027031D02*
X025893Y028200D01*
X027053Y028200D02*
X027053Y027031D01*
X029273Y027031D02*
X029273Y028200D01*
X030433Y028200D02*
X030433Y027031D01*
X031154Y027031D02*
X031154Y028200D01*
X032314Y028200D02*
X032314Y027031D01*
X036787Y027031D02*
X036787Y028200D01*
X037947Y028200D02*
X037947Y027031D01*
X038668Y027031D02*
X038668Y028200D01*
X039828Y028200D02*
X039828Y027031D01*
X042044Y027031D02*
X042044Y028200D01*
X043203Y028200D02*
X043203Y027031D01*
X043929Y027031D02*
X043929Y028200D01*
X045089Y028200D02*
X045089Y027031D01*
X046896Y027031D02*
X046896Y028200D01*
X048056Y028200D02*
X048056Y027031D01*
X048782Y027031D02*
X048782Y028200D01*
X049942Y028200D02*
X049942Y027031D01*
X052153Y027031D02*
X052153Y028200D01*
X053312Y028200D02*
X053312Y027031D01*
X054038Y027031D02*
X054038Y028200D01*
X055198Y028200D02*
X055198Y027031D01*
X057027Y027031D02*
X057027Y028200D01*
X058186Y028200D02*
X058186Y027031D01*
X058912Y027031D02*
X058912Y028200D01*
X060072Y028200D02*
X060072Y027031D01*
X062283Y027031D02*
X062283Y028200D01*
X063443Y028200D02*
X063443Y027031D01*
X064169Y027031D02*
X064169Y028200D01*
X065329Y028200D02*
X065329Y027031D01*
X069819Y027031D02*
X069819Y028200D01*
X070979Y028200D02*
X070979Y027031D01*
X071705Y027031D02*
X071705Y028200D01*
X072865Y028200D02*
X072865Y027031D01*
X075076Y027031D02*
X075076Y028200D01*
X076235Y028200D02*
X076235Y027031D01*
X076961Y027031D02*
X076961Y028200D01*
X078121Y028200D02*
X078121Y027031D01*
X079942Y027031D02*
X079942Y028200D01*
X081102Y028200D02*
X081102Y027031D01*
X081828Y027031D02*
X081828Y028200D01*
X082988Y028200D02*
X082988Y027031D01*
X085213Y027031D02*
X085213Y028200D01*
X086373Y028200D02*
X086373Y027031D01*
X087099Y027031D02*
X087099Y028200D01*
X088259Y028200D02*
X088259Y027031D01*
X090052Y027031D02*
X090052Y028200D01*
X091212Y028200D02*
X091212Y027031D01*
X091938Y027031D02*
X091938Y028200D01*
X093098Y028200D02*
X093098Y027031D01*
X095323Y027031D02*
X095323Y028200D01*
X096483Y028200D02*
X096483Y027031D01*
X097209Y027031D02*
X097209Y028200D01*
X098369Y028200D02*
X098369Y027031D01*
X098369Y030645D02*
X098369Y031815D01*
X097209Y031815D02*
X097209Y030645D01*
X096483Y030645D02*
X096483Y031815D01*
X095323Y031815D02*
X095323Y030645D01*
X093098Y030645D02*
X093098Y031815D01*
X091938Y031815D02*
X091938Y030645D01*
X091212Y030645D02*
X091212Y031815D01*
X090052Y031815D02*
X090052Y030645D01*
X088259Y030645D02*
X088259Y031815D01*
X087099Y031815D02*
X087099Y030645D01*
X086373Y030645D02*
X086373Y031815D01*
X085213Y031815D02*
X085213Y030645D01*
X082988Y030645D02*
X082988Y031815D01*
X081828Y031815D02*
X081828Y030645D01*
X081102Y030645D02*
X081102Y031815D01*
X079942Y031815D02*
X079942Y030645D01*
X078121Y030645D02*
X078121Y031815D01*
X076961Y031815D02*
X076961Y030645D01*
X076235Y030645D02*
X076235Y031815D01*
X075076Y031815D02*
X075076Y030645D01*
X072865Y030645D02*
X072865Y031815D01*
X071705Y031815D02*
X071705Y030645D01*
X070979Y030645D02*
X070979Y031815D01*
X069819Y031815D02*
X069819Y030645D01*
X065329Y030645D02*
X065329Y031815D01*
X064169Y031815D02*
X064169Y030645D01*
X063443Y030645D02*
X063443Y031815D01*
X062283Y031815D02*
X062283Y030645D01*
X060072Y030645D02*
X060072Y031815D01*
X058912Y031815D02*
X058912Y030645D01*
X058186Y030645D02*
X058186Y031815D01*
X057027Y031815D02*
X057027Y030645D01*
X055198Y030645D02*
X055198Y031815D01*
X054038Y031815D02*
X054038Y030645D01*
X053312Y030645D02*
X053312Y031815D01*
X052153Y031815D02*
X052153Y030645D01*
X049942Y030645D02*
X049942Y031815D01*
X048782Y031815D02*
X048782Y030645D01*
X048056Y030645D02*
X048056Y031815D01*
X046896Y031815D02*
X046896Y030645D01*
X045089Y030645D02*
X045089Y031815D01*
X043929Y031815D02*
X043929Y030645D01*
X043203Y030645D02*
X043203Y031815D01*
X042044Y031815D02*
X042044Y030645D01*
X039828Y030645D02*
X039828Y031815D01*
X038668Y031815D02*
X038668Y030645D01*
X037947Y030645D02*
X037947Y031815D01*
X036787Y031815D02*
X036787Y030645D01*
X032314Y030645D02*
X032314Y031815D01*
X031154Y031815D02*
X031154Y030645D01*
X030433Y030645D02*
X030433Y031815D01*
X029273Y031815D02*
X029273Y030645D01*
X027053Y030645D02*
X027053Y031815D01*
X025893Y031815D02*
X025893Y030645D01*
X025172Y030645D02*
X025172Y031815D01*
X024012Y031815D02*
X024012Y030645D01*
X022369Y030648D02*
X022369Y031818D01*
X021210Y031818D02*
X021210Y030648D01*
X020372Y030659D02*
X020372Y031829D01*
X019212Y031829D02*
X019212Y030659D01*
X017005Y030640D02*
X017005Y031809D01*
X015846Y031809D02*
X015846Y030640D01*
X015139Y030641D02*
X015139Y031811D01*
X013979Y031811D02*
X013979Y030641D01*
X012222Y030656D02*
X012222Y031826D01*
X011063Y031826D02*
X011063Y030656D01*
X010222Y030656D02*
X010222Y031826D01*
X009063Y031826D02*
X009063Y030656D01*
X007008Y030617D02*
X007008Y031787D01*
X005848Y031787D02*
X005848Y030617D01*
X005008Y030617D02*
X005008Y031787D01*
X003848Y031787D02*
X003848Y030617D01*
X003852Y034238D02*
X003852Y035408D01*
X005012Y035408D02*
X005012Y034238D01*
X005852Y034238D02*
X005852Y035408D01*
X007012Y035408D02*
X007012Y034238D01*
X009067Y034278D02*
X009067Y035447D01*
X010227Y035447D02*
X010227Y034278D01*
X011067Y034278D02*
X011067Y035447D01*
X012227Y035447D02*
X012227Y034278D01*
X013981Y034265D02*
X013981Y035435D01*
X015141Y035435D02*
X015141Y034265D01*
X015846Y034268D02*
X015846Y035437D01*
X017006Y035437D02*
X017006Y034268D01*
X019221Y034289D02*
X019221Y035459D01*
X020381Y035459D02*
X020381Y034289D01*
X021208Y034278D02*
X021208Y035448D01*
X022368Y035448D02*
X022368Y034278D01*
X024012Y034276D02*
X024012Y035445D01*
X025172Y035445D02*
X025172Y034276D01*
X025893Y034276D02*
X025893Y035445D01*
X027053Y035445D02*
X027053Y034276D01*
X029273Y034276D02*
X029273Y035445D01*
X030433Y035445D02*
X030433Y034276D01*
X031154Y034276D02*
X031154Y035445D01*
X032314Y035445D02*
X032314Y034276D01*
X036787Y034276D02*
X036787Y035445D01*
X037947Y035445D02*
X037947Y034276D01*
X038668Y034276D02*
X038668Y035445D01*
X039828Y035445D02*
X039828Y034276D01*
X042044Y034276D02*
X042044Y035445D01*
X043203Y035445D02*
X043203Y034276D01*
X043929Y034276D02*
X043929Y035445D01*
X045089Y035445D02*
X045089Y034276D01*
X046896Y034276D02*
X046896Y035445D01*
X048056Y035445D02*
X048056Y034276D01*
X048782Y034276D02*
X048782Y035445D01*
X049942Y035445D02*
X049942Y034276D01*
X052153Y034276D02*
X052153Y035445D01*
X053312Y035445D02*
X053312Y034276D01*
X054038Y034276D02*
X054038Y035445D01*
X055198Y035445D02*
X055198Y034276D01*
X057027Y034276D02*
X057027Y035445D01*
X058186Y035445D02*
X058186Y034276D01*
X058912Y034276D02*
X058912Y035445D01*
X060072Y035445D02*
X060072Y034276D01*
X062283Y034276D02*
X062283Y035445D01*
X063443Y035445D02*
X063443Y034276D01*
X064169Y034276D02*
X064169Y035445D01*
X065329Y035445D02*
X065329Y034276D01*
X069819Y034276D02*
X069819Y035445D01*
X070979Y035445D02*
X070979Y034276D01*
X071705Y034276D02*
X071705Y035445D01*
X072865Y035445D02*
X072865Y034276D01*
X075076Y034276D02*
X075076Y035445D01*
X076235Y035445D02*
X076235Y034276D01*
X076961Y034276D02*
X076961Y035445D01*
X078121Y035445D02*
X078121Y034276D01*
X079942Y034276D02*
X079942Y035445D01*
X081102Y035445D02*
X081102Y034276D01*
X081828Y034276D02*
X081828Y035445D01*
X082988Y035445D02*
X082988Y034276D01*
X085213Y034276D02*
X085213Y035445D01*
X086373Y035445D02*
X086373Y034276D01*
X087099Y034276D02*
X087099Y035445D01*
X088259Y035445D02*
X088259Y034276D01*
X090052Y034276D02*
X090052Y035445D01*
X091212Y035445D02*
X091212Y034276D01*
X091938Y034276D02*
X091938Y035445D01*
X093098Y035445D02*
X093098Y034276D01*
X095323Y034276D02*
X095323Y035445D01*
X096483Y035445D02*
X096483Y034276D01*
X097209Y034276D02*
X097209Y035445D01*
X098369Y035445D02*
X098369Y034276D01*
X098369Y037802D02*
X098369Y038972D01*
X097209Y038972D02*
X097209Y037802D01*
X096483Y037802D02*
X096483Y038972D01*
X095323Y038972D02*
X095323Y037802D01*
X093098Y037802D02*
X093098Y038972D01*
X091938Y038972D02*
X091938Y037802D01*
X091212Y037802D02*
X091212Y038972D01*
X090052Y038972D02*
X090052Y037802D01*
X088259Y037802D02*
X088259Y038972D01*
X087099Y038972D02*
X087099Y037802D01*
X086373Y037802D02*
X086373Y038972D01*
X085213Y038972D02*
X085213Y037802D01*
X082988Y037802D02*
X082988Y038972D01*
X081828Y038972D02*
X081828Y037802D01*
X081102Y037802D02*
X081102Y038972D01*
X079942Y038972D02*
X079942Y037802D01*
X078121Y037802D02*
X078121Y038972D01*
X076961Y038972D02*
X076961Y037802D01*
X076235Y037802D02*
X076235Y038972D01*
X075076Y038972D02*
X075076Y037802D01*
X072850Y037802D02*
X072850Y038972D01*
X071690Y038972D02*
X071690Y037802D01*
X070964Y037802D02*
X070964Y038972D01*
X069805Y038972D02*
X069805Y037802D01*
X065329Y037802D02*
X065329Y038972D01*
X064169Y038972D02*
X064169Y037802D01*
X063443Y037802D02*
X063443Y038972D01*
X062283Y038972D02*
X062283Y037802D01*
X060072Y037802D02*
X060072Y038972D01*
X058912Y038972D02*
X058912Y037802D01*
X058186Y037802D02*
X058186Y038972D01*
X057027Y038972D02*
X057027Y037802D01*
X055198Y037802D02*
X055198Y038972D01*
X054038Y038972D02*
X054038Y037802D01*
X053312Y037802D02*
X053312Y038972D01*
X052153Y038972D02*
X052153Y037802D01*
X049942Y037802D02*
X049942Y038972D01*
X048782Y038972D02*
X048782Y037802D01*
X048056Y037802D02*
X048056Y038972D01*
X046896Y038972D02*
X046896Y037802D01*
X045089Y037802D02*
X045089Y038972D01*
X043929Y038972D02*
X043929Y037802D01*
X043203Y037802D02*
X043203Y038972D01*
X042044Y038972D02*
X042044Y037802D01*
X039833Y037802D02*
X039833Y038972D01*
X038673Y038972D02*
X038673Y037802D01*
X037947Y037802D02*
X037947Y038972D01*
X036787Y038972D02*
X036787Y037802D01*
X032314Y037802D02*
X032314Y038972D01*
X031154Y038972D02*
X031154Y037802D01*
X030428Y037802D02*
X030428Y038972D01*
X029268Y038972D02*
X029268Y037802D01*
X027053Y037802D02*
X027053Y038972D01*
X025893Y038972D02*
X025893Y037802D01*
X025172Y037802D02*
X025172Y038972D01*
X024012Y038972D02*
X024012Y037802D01*
X022375Y037839D02*
X022375Y039009D01*
X021215Y039009D02*
X021215Y037839D01*
X020383Y037845D02*
X020383Y039015D01*
X019223Y039015D02*
X019223Y037845D01*
X017003Y037842D02*
X017003Y039012D01*
X015843Y039012D02*
X015843Y037842D01*
X015121Y037841D02*
X015121Y039011D01*
X013962Y039011D02*
X013962Y037841D01*
X012224Y037831D02*
X012224Y039001D01*
X011064Y039001D02*
X011064Y037831D01*
X010224Y037831D02*
X010224Y039001D01*
X009064Y039001D02*
X009064Y037831D01*
X007009Y037792D02*
X007009Y038961D01*
X005849Y038961D02*
X005849Y037792D01*
X005009Y037792D02*
X005009Y038961D01*
X003849Y038961D02*
X003849Y037792D01*
D12*
X009989Y051712D02*
X009991Y051764D01*
X009997Y051816D01*
X010007Y051867D01*
X010020Y051917D01*
X010038Y051967D01*
X010059Y052014D01*
X010083Y052060D01*
X010112Y052104D01*
X010143Y052146D01*
X010177Y052185D01*
X010214Y052222D01*
X010254Y052255D01*
X010297Y052286D01*
X010341Y052313D01*
X010387Y052337D01*
X010436Y052357D01*
X010485Y052373D01*
X010536Y052386D01*
X010587Y052395D01*
X010639Y052400D01*
X010691Y052401D01*
X010743Y052398D01*
X010795Y052391D01*
X010846Y052380D01*
X010896Y052366D01*
X010945Y052347D01*
X010992Y052325D01*
X011037Y052300D01*
X011081Y052271D01*
X011122Y052239D01*
X011161Y052204D01*
X011196Y052166D01*
X011229Y052125D01*
X011259Y052083D01*
X011285Y052038D01*
X011308Y051991D01*
X011327Y051942D01*
X011343Y051892D01*
X011355Y051842D01*
X011363Y051790D01*
X011367Y051738D01*
X011367Y051686D01*
X011363Y051634D01*
X011355Y051582D01*
X011343Y051532D01*
X011327Y051482D01*
X011308Y051433D01*
X011285Y051386D01*
X011259Y051341D01*
X011229Y051299D01*
X011196Y051258D01*
X011161Y051220D01*
X011122Y051185D01*
X011081Y051153D01*
X011037Y051124D01*
X010992Y051099D01*
X010945Y051077D01*
X010896Y051058D01*
X010846Y051044D01*
X010795Y051033D01*
X010743Y051026D01*
X010691Y051023D01*
X010639Y051024D01*
X010587Y051029D01*
X010536Y051038D01*
X010485Y051051D01*
X010436Y051067D01*
X010387Y051087D01*
X010341Y051111D01*
X010297Y051138D01*
X010254Y051169D01*
X010214Y051202D01*
X010177Y051239D01*
X010143Y051278D01*
X010112Y051320D01*
X010083Y051364D01*
X010059Y051410D01*
X010038Y051457D01*
X010020Y051507D01*
X010007Y051557D01*
X009997Y051608D01*
X009991Y051660D01*
X009989Y051712D01*
X025894Y051712D02*
X025896Y051764D01*
X025902Y051816D01*
X025912Y051867D01*
X025925Y051917D01*
X025943Y051967D01*
X025964Y052014D01*
X025988Y052060D01*
X026017Y052104D01*
X026048Y052146D01*
X026082Y052185D01*
X026119Y052222D01*
X026159Y052255D01*
X026202Y052286D01*
X026246Y052313D01*
X026292Y052337D01*
X026341Y052357D01*
X026390Y052373D01*
X026441Y052386D01*
X026492Y052395D01*
X026544Y052400D01*
X026596Y052401D01*
X026648Y052398D01*
X026700Y052391D01*
X026751Y052380D01*
X026801Y052366D01*
X026850Y052347D01*
X026897Y052325D01*
X026942Y052300D01*
X026986Y052271D01*
X027027Y052239D01*
X027066Y052204D01*
X027101Y052166D01*
X027134Y052125D01*
X027164Y052083D01*
X027190Y052038D01*
X027213Y051991D01*
X027232Y051942D01*
X027248Y051892D01*
X027260Y051842D01*
X027268Y051790D01*
X027272Y051738D01*
X027272Y051686D01*
X027268Y051634D01*
X027260Y051582D01*
X027248Y051532D01*
X027232Y051482D01*
X027213Y051433D01*
X027190Y051386D01*
X027164Y051341D01*
X027134Y051299D01*
X027101Y051258D01*
X027066Y051220D01*
X027027Y051185D01*
X026986Y051153D01*
X026942Y051124D01*
X026897Y051099D01*
X026850Y051077D01*
X026801Y051058D01*
X026751Y051044D01*
X026700Y051033D01*
X026648Y051026D01*
X026596Y051023D01*
X026544Y051024D01*
X026492Y051029D01*
X026441Y051038D01*
X026390Y051051D01*
X026341Y051067D01*
X026292Y051087D01*
X026246Y051111D01*
X026202Y051138D01*
X026159Y051169D01*
X026119Y051202D01*
X026082Y051239D01*
X026048Y051278D01*
X026017Y051320D01*
X025988Y051364D01*
X025964Y051410D01*
X025943Y051457D01*
X025925Y051507D01*
X025912Y051557D01*
X025902Y051608D01*
X025896Y051660D01*
X025894Y051712D01*
X042981Y051712D02*
X042983Y051764D01*
X042989Y051816D01*
X042999Y051867D01*
X043012Y051917D01*
X043030Y051967D01*
X043051Y052014D01*
X043075Y052060D01*
X043104Y052104D01*
X043135Y052146D01*
X043169Y052185D01*
X043206Y052222D01*
X043246Y052255D01*
X043289Y052286D01*
X043333Y052313D01*
X043379Y052337D01*
X043428Y052357D01*
X043477Y052373D01*
X043528Y052386D01*
X043579Y052395D01*
X043631Y052400D01*
X043683Y052401D01*
X043735Y052398D01*
X043787Y052391D01*
X043838Y052380D01*
X043888Y052366D01*
X043937Y052347D01*
X043984Y052325D01*
X044029Y052300D01*
X044073Y052271D01*
X044114Y052239D01*
X044153Y052204D01*
X044188Y052166D01*
X044221Y052125D01*
X044251Y052083D01*
X044277Y052038D01*
X044300Y051991D01*
X044319Y051942D01*
X044335Y051892D01*
X044347Y051842D01*
X044355Y051790D01*
X044359Y051738D01*
X044359Y051686D01*
X044355Y051634D01*
X044347Y051582D01*
X044335Y051532D01*
X044319Y051482D01*
X044300Y051433D01*
X044277Y051386D01*
X044251Y051341D01*
X044221Y051299D01*
X044188Y051258D01*
X044153Y051220D01*
X044114Y051185D01*
X044073Y051153D01*
X044029Y051124D01*
X043984Y051099D01*
X043937Y051077D01*
X043888Y051058D01*
X043838Y051044D01*
X043787Y051033D01*
X043735Y051026D01*
X043683Y051023D01*
X043631Y051024D01*
X043579Y051029D01*
X043528Y051038D01*
X043477Y051051D01*
X043428Y051067D01*
X043379Y051087D01*
X043333Y051111D01*
X043289Y051138D01*
X043246Y051169D01*
X043206Y051202D01*
X043169Y051239D01*
X043135Y051278D01*
X043104Y051320D01*
X043075Y051364D01*
X043051Y051410D01*
X043030Y051457D01*
X043012Y051507D01*
X042999Y051557D01*
X042989Y051608D01*
X042983Y051660D01*
X042981Y051712D01*
X058887Y051712D02*
X058889Y051764D01*
X058895Y051816D01*
X058905Y051867D01*
X058918Y051917D01*
X058936Y051967D01*
X058957Y052014D01*
X058981Y052060D01*
X059010Y052104D01*
X059041Y052146D01*
X059075Y052185D01*
X059112Y052222D01*
X059152Y052255D01*
X059195Y052286D01*
X059239Y052313D01*
X059285Y052337D01*
X059334Y052357D01*
X059383Y052373D01*
X059434Y052386D01*
X059485Y052395D01*
X059537Y052400D01*
X059589Y052401D01*
X059641Y052398D01*
X059693Y052391D01*
X059744Y052380D01*
X059794Y052366D01*
X059843Y052347D01*
X059890Y052325D01*
X059935Y052300D01*
X059979Y052271D01*
X060020Y052239D01*
X060059Y052204D01*
X060094Y052166D01*
X060127Y052125D01*
X060157Y052083D01*
X060183Y052038D01*
X060206Y051991D01*
X060225Y051942D01*
X060241Y051892D01*
X060253Y051842D01*
X060261Y051790D01*
X060265Y051738D01*
X060265Y051686D01*
X060261Y051634D01*
X060253Y051582D01*
X060241Y051532D01*
X060225Y051482D01*
X060206Y051433D01*
X060183Y051386D01*
X060157Y051341D01*
X060127Y051299D01*
X060094Y051258D01*
X060059Y051220D01*
X060020Y051185D01*
X059979Y051153D01*
X059935Y051124D01*
X059890Y051099D01*
X059843Y051077D01*
X059794Y051058D01*
X059744Y051044D01*
X059693Y051033D01*
X059641Y051026D01*
X059589Y051023D01*
X059537Y051024D01*
X059485Y051029D01*
X059434Y051038D01*
X059383Y051051D01*
X059334Y051067D01*
X059285Y051087D01*
X059239Y051111D01*
X059195Y051138D01*
X059152Y051169D01*
X059112Y051202D01*
X059075Y051239D01*
X059041Y051278D01*
X059010Y051320D01*
X058981Y051364D01*
X058957Y051410D01*
X058936Y051457D01*
X058918Y051507D01*
X058905Y051557D01*
X058895Y051608D01*
X058889Y051660D01*
X058887Y051712D01*
X075974Y051712D02*
X075976Y051764D01*
X075982Y051816D01*
X075992Y051867D01*
X076005Y051917D01*
X076023Y051967D01*
X076044Y052014D01*
X076068Y052060D01*
X076097Y052104D01*
X076128Y052146D01*
X076162Y052185D01*
X076199Y052222D01*
X076239Y052255D01*
X076282Y052286D01*
X076326Y052313D01*
X076372Y052337D01*
X076421Y052357D01*
X076470Y052373D01*
X076521Y052386D01*
X076572Y052395D01*
X076624Y052400D01*
X076676Y052401D01*
X076728Y052398D01*
X076780Y052391D01*
X076831Y052380D01*
X076881Y052366D01*
X076930Y052347D01*
X076977Y052325D01*
X077022Y052300D01*
X077066Y052271D01*
X077107Y052239D01*
X077146Y052204D01*
X077181Y052166D01*
X077214Y052125D01*
X077244Y052083D01*
X077270Y052038D01*
X077293Y051991D01*
X077312Y051942D01*
X077328Y051892D01*
X077340Y051842D01*
X077348Y051790D01*
X077352Y051738D01*
X077352Y051686D01*
X077348Y051634D01*
X077340Y051582D01*
X077328Y051532D01*
X077312Y051482D01*
X077293Y051433D01*
X077270Y051386D01*
X077244Y051341D01*
X077214Y051299D01*
X077181Y051258D01*
X077146Y051220D01*
X077107Y051185D01*
X077066Y051153D01*
X077022Y051124D01*
X076977Y051099D01*
X076930Y051077D01*
X076881Y051058D01*
X076831Y051044D01*
X076780Y051033D01*
X076728Y051026D01*
X076676Y051023D01*
X076624Y051024D01*
X076572Y051029D01*
X076521Y051038D01*
X076470Y051051D01*
X076421Y051067D01*
X076372Y051087D01*
X076326Y051111D01*
X076282Y051138D01*
X076239Y051169D01*
X076199Y051202D01*
X076162Y051239D01*
X076128Y051278D01*
X076097Y051320D01*
X076068Y051364D01*
X076044Y051410D01*
X076023Y051457D01*
X076005Y051507D01*
X075992Y051557D01*
X075982Y051608D01*
X075976Y051660D01*
X075974Y051712D01*
X091879Y051712D02*
X091881Y051764D01*
X091887Y051816D01*
X091897Y051867D01*
X091910Y051917D01*
X091928Y051967D01*
X091949Y052014D01*
X091973Y052060D01*
X092002Y052104D01*
X092033Y052146D01*
X092067Y052185D01*
X092104Y052222D01*
X092144Y052255D01*
X092187Y052286D01*
X092231Y052313D01*
X092277Y052337D01*
X092326Y052357D01*
X092375Y052373D01*
X092426Y052386D01*
X092477Y052395D01*
X092529Y052400D01*
X092581Y052401D01*
X092633Y052398D01*
X092685Y052391D01*
X092736Y052380D01*
X092786Y052366D01*
X092835Y052347D01*
X092882Y052325D01*
X092927Y052300D01*
X092971Y052271D01*
X093012Y052239D01*
X093051Y052204D01*
X093086Y052166D01*
X093119Y052125D01*
X093149Y052083D01*
X093175Y052038D01*
X093198Y051991D01*
X093217Y051942D01*
X093233Y051892D01*
X093245Y051842D01*
X093253Y051790D01*
X093257Y051738D01*
X093257Y051686D01*
X093253Y051634D01*
X093245Y051582D01*
X093233Y051532D01*
X093217Y051482D01*
X093198Y051433D01*
X093175Y051386D01*
X093149Y051341D01*
X093119Y051299D01*
X093086Y051258D01*
X093051Y051220D01*
X093012Y051185D01*
X092971Y051153D01*
X092927Y051124D01*
X092882Y051099D01*
X092835Y051077D01*
X092786Y051058D01*
X092736Y051044D01*
X092685Y051033D01*
X092633Y051026D01*
X092581Y051023D01*
X092529Y051024D01*
X092477Y051029D01*
X092426Y051038D01*
X092375Y051051D01*
X092326Y051067D01*
X092277Y051087D01*
X092231Y051111D01*
X092187Y051138D01*
X092144Y051169D01*
X092104Y051202D01*
X092067Y051239D01*
X092033Y051278D01*
X092002Y051320D01*
X091973Y051364D01*
X091949Y051410D01*
X091928Y051457D01*
X091910Y051507D01*
X091897Y051557D01*
X091887Y051608D01*
X091881Y051660D01*
X091879Y051712D01*
M02*
