G75*
G70*
%OFA0B0*%
%FSLAX24Y24*%
%IPPOS*%
%LPD*%
%AMOC8*
5,1,8,0,0,1.08239X$1,22.5*
%
%ADD10R,10.1954X0.2519*%
%ADD11R,10.2101X0.3344*%
%ADD12R,0.2150X2.1695*%
%ADD13C,0.0554*%
%ADD14C,0.0515*%
%ADD15C,0.0600*%
%ADD16C,0.0278*%
%ADD17C,0.0357*%
%ADD18C,0.0120*%
%ADD19C,0.0100*%
%ADD20C,0.0160*%
%ADD21C,0.0317*%
%ADD22C,0.1581*%
D10*
X051103Y007862D03*
D11*
X051253Y052011D03*
D12*
X067360Y029245D03*
X034409Y029109D03*
D13*
X026859Y049508D03*
X025993Y049508D03*
X025127Y049508D03*
X024260Y049508D03*
X023394Y049508D03*
X022528Y049508D03*
X021662Y049508D03*
X020796Y049508D03*
X019930Y049508D03*
X019064Y049508D03*
X018198Y049508D03*
X017331Y049508D03*
X016465Y049508D03*
X015599Y049508D03*
X014733Y049508D03*
X013867Y049508D03*
X013001Y049508D03*
X012135Y049508D03*
X011268Y049508D03*
X010402Y049508D03*
X043395Y049508D03*
X044261Y049508D03*
X045127Y049508D03*
X045993Y049508D03*
X046859Y049508D03*
X047725Y049508D03*
X048592Y049508D03*
X049458Y049508D03*
X050324Y049508D03*
X051190Y049508D03*
X052056Y049508D03*
X052922Y049508D03*
X053788Y049508D03*
X054655Y049508D03*
X055521Y049508D03*
X056387Y049508D03*
X057253Y049508D03*
X058119Y049508D03*
X058985Y049508D03*
X059851Y049508D03*
X076387Y049508D03*
X077253Y049508D03*
X078119Y049508D03*
X078986Y049508D03*
X079852Y049508D03*
X080718Y049508D03*
X081584Y049508D03*
X082450Y049508D03*
X083316Y049508D03*
X084182Y049508D03*
X085049Y049508D03*
X085915Y049508D03*
X086781Y049508D03*
X087647Y049508D03*
X088513Y049508D03*
X089379Y049508D03*
X090245Y049508D03*
X091112Y049508D03*
X091978Y049508D03*
X092844Y049508D03*
D14*
X092844Y048326D03*
X091978Y048326D03*
X091112Y048326D03*
X090246Y048326D03*
X089380Y048326D03*
X088514Y048326D03*
X087647Y048326D03*
X086781Y048326D03*
X085915Y048326D03*
X085049Y048326D03*
X084183Y048326D03*
X083317Y048326D03*
X082451Y048326D03*
X081584Y048326D03*
X080718Y048326D03*
X079852Y048326D03*
X078986Y048326D03*
X078120Y048326D03*
X077254Y048326D03*
X076388Y048326D03*
X059852Y048326D03*
X058986Y048326D03*
X058120Y048326D03*
X057253Y048326D03*
X056387Y048326D03*
X055521Y048326D03*
X054655Y048326D03*
X053789Y048326D03*
X052923Y048326D03*
X052057Y048326D03*
X051190Y048326D03*
X050324Y048326D03*
X049458Y048326D03*
X048592Y048326D03*
X047726Y048326D03*
X046860Y048326D03*
X045994Y048326D03*
X045127Y048326D03*
X044261Y048326D03*
X043395Y048326D03*
X026859Y048326D03*
X025993Y048326D03*
X025127Y048326D03*
X024261Y048326D03*
X023395Y048326D03*
X022529Y048326D03*
X021663Y048326D03*
X020796Y048326D03*
X019930Y048326D03*
X019064Y048326D03*
X018198Y048326D03*
X017332Y048326D03*
X016466Y048326D03*
X015600Y048326D03*
X014733Y048326D03*
X013867Y048326D03*
X013001Y048326D03*
X012135Y048326D03*
X011269Y048326D03*
X010403Y048326D03*
D15*
X001723Y015634D03*
X001723Y014634D03*
X001723Y013634D03*
X001723Y012634D03*
X001723Y011634D03*
X001723Y010634D03*
D16*
X003386Y010762D03*
X005085Y011949D03*
X005996Y011947D03*
X006981Y011949D03*
X008159Y011947D03*
X008352Y013132D03*
X007955Y013138D03*
X007566Y013128D03*
X007170Y013140D03*
X006782Y013138D03*
X006387Y013142D03*
X005992Y013143D03*
X005601Y013140D03*
X008752Y013141D03*
X009146Y013130D03*
X012594Y013008D03*
X012592Y012529D03*
X012596Y012034D03*
X012602Y011529D03*
X012593Y011030D03*
X012593Y010480D03*
X015250Y011951D03*
X016132Y011957D03*
X017121Y011949D03*
X018484Y011957D03*
X018497Y013151D03*
X018888Y013149D03*
X019277Y013152D03*
X018101Y013144D03*
X017705Y013151D03*
X017314Y013152D03*
X016919Y013151D03*
X016523Y013150D03*
X016137Y013150D03*
X015738Y013151D03*
X012590Y013535D03*
X014503Y015218D03*
X013998Y015913D03*
X013412Y015913D03*
X015066Y015913D03*
X015564Y015218D03*
X016126Y015913D03*
X016632Y015218D03*
X017194Y015913D03*
X017696Y015218D03*
X018250Y015913D03*
X018757Y015218D03*
X019312Y015913D03*
X019820Y015218D03*
X020629Y015913D03*
X021691Y015913D03*
X022762Y015913D03*
X023553Y015913D03*
X024143Y015913D03*
X024644Y015218D03*
X025203Y015913D03*
X025705Y015218D03*
X026267Y015913D03*
X026773Y015218D03*
X027324Y015913D03*
X027833Y015218D03*
X028389Y015913D03*
X028900Y015218D03*
X029452Y015913D03*
X029962Y015218D03*
X030726Y015913D03*
X031784Y015913D03*
X032782Y013540D03*
X032781Y013024D03*
X032787Y012536D03*
X032789Y012027D03*
X032789Y011519D03*
X032787Y011024D03*
X032787Y010480D03*
X028816Y011957D03*
X027237Y011949D03*
X026249Y011952D03*
X025419Y011950D03*
X025855Y013136D03*
X026256Y013133D03*
X026647Y013141D03*
X027040Y013135D03*
X027432Y013134D03*
X027827Y013134D03*
X028228Y013142D03*
X028618Y013128D03*
X029015Y013134D03*
X029405Y013134D03*
X026035Y009980D03*
X022658Y010480D03*
X022658Y011024D03*
X022658Y011529D03*
X022658Y012016D03*
X022661Y012529D03*
X022661Y013050D03*
X022663Y013550D03*
X015936Y009945D03*
X009671Y015218D03*
X009161Y015909D03*
X008603Y015218D03*
X008105Y015913D03*
X007547Y015218D03*
X007039Y015906D03*
X006485Y015218D03*
X005969Y015926D03*
X005411Y015218D03*
X004934Y015910D03*
X004351Y015218D03*
X003848Y015910D03*
X007302Y017851D03*
X005399Y020242D03*
X003280Y021237D03*
X005414Y023954D03*
X003306Y024922D03*
X005429Y027646D03*
X003305Y028694D03*
X005391Y031309D03*
X003281Y032319D03*
X005440Y034978D03*
X003286Y035941D03*
X008669Y035967D03*
X010649Y035013D03*
X013304Y035956D03*
X015466Y034857D03*
X018638Y035969D03*
X020789Y034857D03*
X023466Y035966D03*
X025540Y034855D03*
X028793Y035966D03*
X030804Y034855D03*
X028793Y032334D03*
X030794Y031235D03*
X028793Y028700D03*
X030794Y027620D03*
X028793Y024900D03*
X030794Y023836D03*
X028793Y021277D03*
X030794Y020177D03*
X027465Y017870D03*
X025536Y020177D03*
X023466Y021277D03*
X020840Y020180D03*
X018638Y021280D03*
X015488Y020180D03*
X013304Y021280D03*
X010649Y020309D03*
X008717Y021278D03*
X010649Y023997D03*
X008703Y024942D03*
X013304Y024947D03*
X015488Y023839D03*
X018638Y024903D03*
X020840Y023839D03*
X023466Y024900D03*
X025536Y023836D03*
X025536Y027620D03*
X023466Y028700D03*
X020840Y027623D03*
X018638Y028703D03*
X015488Y027623D03*
X013304Y028711D03*
X010649Y027633D03*
X008690Y028730D03*
X010649Y031375D03*
X008669Y032365D03*
X013304Y032339D03*
X015446Y031238D03*
X018638Y032334D03*
X020785Y031238D03*
X023466Y032334D03*
X025536Y031235D03*
X036312Y032334D03*
X038312Y031235D03*
X041554Y032334D03*
X043570Y031235D03*
X046405Y032334D03*
X048426Y031235D03*
X051667Y032334D03*
X053679Y031235D03*
X056541Y032334D03*
X058546Y031235D03*
X061795Y032334D03*
X063805Y031235D03*
X061795Y028700D03*
X063805Y027620D03*
X061795Y024900D03*
X063805Y023836D03*
X061795Y021277D03*
X063805Y020177D03*
X060587Y017889D03*
X060318Y015913D03*
X060827Y015218D03*
X061383Y015913D03*
X061888Y015218D03*
X062434Y015913D03*
X062956Y015218D03*
X063760Y015913D03*
X064825Y015913D03*
X065884Y015913D03*
X069227Y015913D03*
X069869Y015913D03*
X070378Y015218D03*
X070929Y015913D03*
X071441Y015218D03*
X071991Y015913D03*
X072499Y015218D03*
X073056Y015913D03*
X073565Y015218D03*
X074119Y015913D03*
X074627Y015218D03*
X075181Y015913D03*
X075690Y015218D03*
X076500Y015913D03*
X077560Y015913D03*
X078622Y015913D03*
X079447Y015913D03*
X079985Y015913D03*
X080496Y015218D03*
X081046Y015913D03*
X081553Y015218D03*
X082110Y015913D03*
X082618Y015218D03*
X083191Y015913D03*
X083668Y015218D03*
X084239Y015913D03*
X084751Y015218D03*
X085298Y015913D03*
X085805Y015218D03*
X086615Y015913D03*
X087681Y015913D03*
X088752Y015913D03*
X089572Y015913D03*
X090110Y015913D03*
X090616Y015218D03*
X091171Y015913D03*
X091683Y015218D03*
X092238Y015913D03*
X092749Y015218D03*
X093299Y015913D03*
X093810Y015218D03*
X094362Y015913D03*
X094871Y015218D03*
X095426Y015913D03*
X095935Y015218D03*
X096743Y015913D03*
X097802Y015913D03*
X098865Y015913D03*
X098867Y017767D03*
X096847Y020177D03*
X094835Y021277D03*
X091575Y020177D03*
X089569Y021277D03*
X086736Y020177D03*
X084729Y021277D03*
X081465Y020177D03*
X079457Y021277D03*
X076598Y020177D03*
X074588Y021277D03*
X071342Y020177D03*
X069337Y021277D03*
X071342Y023836D03*
X069337Y024900D03*
X074588Y024900D03*
X076598Y023836D03*
X079457Y024900D03*
X081465Y023836D03*
X084729Y024900D03*
X086736Y023836D03*
X089569Y024900D03*
X091575Y023836D03*
X094835Y024900D03*
X096847Y023836D03*
X096847Y027620D03*
X094835Y028700D03*
X091575Y027620D03*
X089569Y028700D03*
X086736Y027620D03*
X084729Y028700D03*
X081465Y027620D03*
X079457Y028700D03*
X076598Y027620D03*
X074588Y028700D03*
X071342Y027620D03*
X069337Y028700D03*
X071342Y031235D03*
X069337Y032334D03*
X071342Y034865D03*
X069337Y035966D03*
X074588Y035966D03*
X076598Y034865D03*
X079457Y035966D03*
X081465Y034865D03*
X084729Y035966D03*
X086736Y034865D03*
X089569Y035966D03*
X091575Y034865D03*
X094835Y035966D03*
X096847Y034865D03*
X094835Y032334D03*
X096847Y031235D03*
X091575Y031235D03*
X089569Y032334D03*
X086736Y031235D03*
X084729Y032334D03*
X081465Y031235D03*
X079457Y032334D03*
X076598Y031204D03*
X074588Y032334D03*
X063805Y034855D03*
X061795Y035966D03*
X058546Y034855D03*
X056541Y035966D03*
X053679Y034855D03*
X051667Y035966D03*
X048426Y034855D03*
X046405Y035966D03*
X043570Y034855D03*
X041554Y035966D03*
X038312Y034855D03*
X036312Y035966D03*
X030812Y038392D03*
X020789Y038395D03*
X010649Y038209D03*
X036312Y028700D03*
X038312Y027620D03*
X041554Y028700D03*
X043570Y027620D03*
X046405Y028700D03*
X048426Y027620D03*
X051667Y028700D03*
X053679Y027620D03*
X056541Y028700D03*
X058546Y027620D03*
X056541Y024900D03*
X058546Y023836D03*
X056541Y021277D03*
X058546Y020177D03*
X053679Y020177D03*
X051667Y021277D03*
X048426Y020177D03*
X046405Y021277D03*
X043570Y020177D03*
X041554Y021277D03*
X038312Y020177D03*
X036312Y021277D03*
X038312Y023836D03*
X036312Y024900D03*
X041554Y024900D03*
X043570Y023836D03*
X046405Y024900D03*
X048426Y023836D03*
X051667Y024900D03*
X053679Y023836D03*
X050457Y017879D03*
X050187Y015913D03*
X050699Y015218D03*
X051255Y015913D03*
X051761Y015218D03*
X052317Y015913D03*
X052822Y015218D03*
X053636Y015913D03*
X054694Y015913D03*
X055757Y015913D03*
X056607Y015913D03*
X057127Y015913D03*
X057641Y015218D03*
X058195Y015913D03*
X058705Y015218D03*
X059253Y015913D03*
X059758Y015218D03*
X059608Y013136D03*
X059214Y013136D03*
X058822Y013136D03*
X060006Y013136D03*
X060397Y013136D03*
X060790Y013136D03*
X061186Y013136D03*
X061578Y013136D03*
X061972Y013136D03*
X062365Y013136D03*
X061973Y011949D03*
X060196Y011949D03*
X059215Y011949D03*
X058425Y011956D03*
X059020Y009990D03*
X055699Y010448D03*
X055698Y011024D03*
X055698Y011519D03*
X055698Y012027D03*
X055698Y012536D03*
X055698Y013024D03*
X055698Y013540D03*
X052253Y013136D03*
X051858Y013136D03*
X051464Y013136D03*
X051071Y013136D03*
X050677Y013136D03*
X050288Y013136D03*
X049892Y013136D03*
X049502Y013136D03*
X049104Y013136D03*
X048709Y013136D03*
X048311Y011957D03*
X049103Y011949D03*
X050084Y011949D03*
X051857Y011949D03*
X048904Y009931D03*
X045606Y010456D03*
X045598Y011024D03*
X045598Y011519D03*
X045598Y012027D03*
X045598Y012536D03*
X045598Y013024D03*
X045598Y013540D03*
X047517Y015218D03*
X047006Y015913D03*
X046450Y015913D03*
X045615Y015913D03*
X044566Y015913D03*
X043498Y015913D03*
X042695Y015218D03*
X042189Y015913D03*
X041632Y015218D03*
X041119Y015913D03*
X040569Y015218D03*
X040056Y015913D03*
X039506Y015218D03*
X038992Y015913D03*
X038447Y015218D03*
X037934Y015913D03*
X037382Y015218D03*
X036867Y015913D03*
X035968Y015913D03*
X040325Y017866D03*
X048064Y015913D03*
X048569Y015218D03*
X049125Y015913D03*
X049627Y015218D03*
X042100Y013136D03*
X041710Y013136D03*
X041316Y013136D03*
X040919Y013136D03*
X040527Y013136D03*
X040134Y013136D03*
X039739Y013136D03*
X039344Y013136D03*
X038953Y013136D03*
X038561Y013136D03*
X038161Y011968D03*
X038956Y011949D03*
X039935Y011949D03*
X041710Y011949D03*
X038756Y009889D03*
X017424Y017873D03*
X011534Y015918D03*
X010468Y015929D03*
X043570Y038392D03*
X053679Y038392D03*
X063805Y038392D03*
X076598Y038319D03*
X086736Y038336D03*
X096847Y038486D03*
X093480Y017963D03*
X088741Y017703D03*
X083349Y017978D03*
X078624Y017789D03*
X073248Y017912D03*
X078784Y013540D03*
X078784Y013024D03*
X078784Y012536D03*
X078784Y012027D03*
X078784Y011519D03*
X078784Y011024D03*
X078779Y010456D03*
X081291Y011956D03*
X082072Y011949D03*
X083051Y011949D03*
X084828Y011949D03*
X084826Y013136D03*
X084435Y013136D03*
X084040Y013136D03*
X083648Y013136D03*
X083252Y013136D03*
X082857Y013136D03*
X082464Y013136D03*
X082068Y013136D03*
X081678Y013136D03*
X085220Y013136D03*
X088907Y013024D03*
X088907Y012536D03*
X088907Y012027D03*
X088907Y011519D03*
X088907Y011024D03*
X088908Y010471D03*
X091417Y011954D03*
X092205Y011949D03*
X093189Y011949D03*
X094767Y011949D03*
X094961Y013136D03*
X094568Y013136D03*
X094175Y013136D03*
X093780Y013136D03*
X093386Y013136D03*
X092990Y013136D03*
X092601Y013136D03*
X092205Y013136D03*
X091808Y013136D03*
X088907Y013540D03*
X092010Y009812D03*
X096752Y010208D03*
X099096Y010536D03*
X099094Y011024D03*
X099094Y011519D03*
X099094Y012027D03*
X099094Y012536D03*
X099094Y013024D03*
X099094Y013540D03*
X095359Y013136D03*
X081875Y009881D03*
X075099Y013136D03*
X074708Y013136D03*
X074314Y013136D03*
X073918Y013136D03*
X073524Y013136D03*
X073136Y013136D03*
X072739Y013136D03*
X072346Y013136D03*
X071950Y013136D03*
X071554Y013136D03*
X071169Y011953D03*
X071951Y011949D03*
X072932Y011949D03*
X074701Y011949D03*
X071754Y009853D03*
X066032Y010434D03*
X066030Y011024D03*
X066030Y011519D03*
X066030Y012027D03*
X066030Y012536D03*
X066030Y013024D03*
X066030Y013540D03*
D17*
X065267Y014533D03*
X063760Y017701D03*
X063797Y018311D03*
X065849Y017947D03*
X063805Y019074D03*
X063805Y021279D03*
X063805Y022734D03*
X063805Y024938D03*
X063805Y026518D03*
X063805Y028723D03*
X063805Y030133D03*
X063805Y032338D03*
X063805Y033763D03*
X063805Y035968D03*
X063805Y037289D03*
X063805Y039496D03*
X063830Y041251D03*
X064365Y041251D03*
X064988Y041251D03*
X063193Y041251D03*
X062656Y041251D03*
X062027Y041251D03*
X060856Y041251D03*
X060320Y041251D03*
X059686Y041251D03*
X059159Y041251D03*
X058530Y041251D03*
X058545Y040390D03*
X058546Y039496D03*
X054867Y041251D03*
X054240Y041251D03*
X053698Y041251D03*
X053067Y041251D03*
X052537Y041251D03*
X051911Y041251D03*
X050732Y041251D03*
X050193Y041251D03*
X049567Y041251D03*
X049028Y041251D03*
X048402Y041251D03*
X048432Y040374D03*
X048426Y039494D03*
X044747Y041251D03*
X044118Y041251D03*
X043573Y041251D03*
X042942Y041251D03*
X042406Y041251D03*
X041783Y041251D03*
X040607Y041251D03*
X040074Y041251D03*
X039444Y041251D03*
X038903Y041251D03*
X038274Y041251D03*
X038318Y040452D03*
X038312Y039494D03*
X038312Y037289D03*
X038312Y035968D03*
X038312Y033763D03*
X038312Y032338D03*
X038312Y030133D03*
X038312Y028723D03*
X038312Y026518D03*
X038312Y024938D03*
X038312Y022734D03*
X038312Y021279D03*
X038312Y019074D03*
X043502Y017731D03*
X043573Y018305D03*
X045578Y017839D03*
X043570Y019074D03*
X043570Y021279D03*
X043570Y022734D03*
X043570Y024938D03*
X043570Y026518D03*
X043570Y028723D03*
X043570Y030133D03*
X043570Y032338D03*
X043570Y033763D03*
X043570Y035968D03*
X043570Y037289D03*
X043570Y039494D03*
X048426Y037289D03*
X048426Y035968D03*
X048426Y033763D03*
X048426Y032338D03*
X048426Y030133D03*
X048426Y028723D03*
X048426Y026518D03*
X048426Y024938D03*
X048426Y022734D03*
X048426Y021279D03*
X048426Y019074D03*
X053679Y019074D03*
X053690Y018277D03*
X053630Y017673D03*
X055795Y017793D03*
X058546Y019074D03*
X058546Y021279D03*
X058546Y022734D03*
X058546Y024938D03*
X058546Y026518D03*
X058546Y028723D03*
X058546Y030133D03*
X058546Y032338D03*
X058546Y033763D03*
X058546Y035968D03*
X058546Y037289D03*
X053679Y037289D03*
X053679Y035968D03*
X053679Y033763D03*
X053679Y032338D03*
X053679Y030133D03*
X053679Y028723D03*
X053679Y026518D03*
X053679Y024938D03*
X053679Y022734D03*
X053679Y021279D03*
X055120Y014524D03*
X044949Y014539D03*
X032861Y015913D03*
X032205Y014537D03*
X032861Y017728D03*
X030731Y017790D03*
X030794Y018316D03*
X030794Y019074D03*
X030794Y021279D03*
X030794Y022734D03*
X030794Y024938D03*
X030794Y026518D03*
X030794Y028723D03*
X030794Y030133D03*
X030794Y032338D03*
X030794Y033763D03*
X030794Y035968D03*
X030794Y037289D03*
X030794Y039494D03*
X030785Y041251D03*
X031328Y041251D03*
X031963Y041251D03*
X030172Y041251D03*
X029628Y041251D03*
X028996Y041251D03*
X027837Y041251D03*
X027285Y041251D03*
X026661Y041251D03*
X026122Y041251D03*
X025494Y041251D03*
X025535Y040435D03*
X025536Y039494D03*
X021842Y041254D03*
X021230Y041254D03*
X020686Y041254D03*
X020051Y041254D03*
X019511Y041254D03*
X018893Y041254D03*
X017716Y041254D03*
X017175Y041254D03*
X016559Y041254D03*
X016008Y041254D03*
X015383Y041254D03*
X015496Y040433D03*
X015487Y039531D03*
X015490Y037333D03*
X015488Y035958D03*
X015496Y033754D03*
X015483Y032327D03*
X015499Y030127D03*
X015494Y028713D03*
X015508Y026508D03*
X015504Y024950D03*
X015508Y022746D03*
X015498Y021278D03*
X015506Y019074D03*
X010649Y019071D03*
X010649Y018327D03*
X010481Y017814D03*
X005420Y019027D03*
X005405Y021232D03*
X005425Y022705D03*
X005413Y024910D03*
X005433Y026469D03*
X005422Y028671D03*
X005429Y030104D03*
X005419Y032308D03*
X005439Y033728D03*
X005444Y035933D03*
X005406Y037279D03*
X005434Y039487D03*
X005286Y040419D03*
X005294Y041235D03*
X005854Y041230D03*
X006465Y041235D03*
X006999Y041236D03*
X007633Y041237D03*
X008758Y041235D03*
X009379Y041242D03*
X009935Y041240D03*
X010559Y041246D03*
X011086Y041246D03*
X011713Y041246D03*
X010649Y039517D03*
X010649Y037319D03*
X010649Y035970D03*
X010649Y033765D03*
X010649Y032349D03*
X010649Y030142D03*
X010649Y028706D03*
X010649Y026497D03*
X010649Y024947D03*
X010649Y022743D03*
X010649Y021278D03*
X020858Y021282D03*
X020845Y022737D03*
X020844Y024941D03*
X020839Y026521D03*
X020844Y028724D03*
X020785Y030136D03*
X020774Y032341D03*
X020789Y033766D03*
X020778Y035971D03*
X020795Y037326D03*
X020783Y039530D03*
X025536Y037289D03*
X025536Y035968D03*
X025536Y033763D03*
X025536Y032338D03*
X025536Y030133D03*
X025536Y028723D03*
X025536Y026518D03*
X025536Y024938D03*
X025536Y022734D03*
X025536Y021279D03*
X025536Y019074D03*
X022748Y017728D03*
X020840Y018353D03*
X020619Y017800D03*
X020840Y019077D03*
X022120Y014527D03*
X011995Y014536D03*
X053679Y039497D03*
X056411Y043989D03*
X057665Y045660D03*
X066615Y043994D03*
X070449Y045660D03*
X079271Y043987D03*
X080570Y045660D03*
X081433Y041251D03*
X082058Y041251D03*
X082601Y041251D03*
X083225Y041251D03*
X083762Y041251D03*
X084928Y041251D03*
X085552Y041251D03*
X086092Y041251D03*
X086718Y041251D03*
X087263Y041251D03*
X087891Y041251D03*
X086736Y039494D03*
X086736Y037289D03*
X086736Y035968D03*
X086736Y033763D03*
X086736Y032338D03*
X086736Y030133D03*
X086736Y028723D03*
X086736Y026518D03*
X086736Y024938D03*
X086736Y022734D03*
X086736Y021279D03*
X086736Y019074D03*
X086734Y018273D03*
X086615Y017704D03*
X091575Y019074D03*
X091575Y021279D03*
X091575Y022734D03*
X091575Y024938D03*
X091575Y026518D03*
X091575Y028723D03*
X091575Y030133D03*
X091575Y032338D03*
X091575Y033763D03*
X091575Y035968D03*
X091575Y037289D03*
X091575Y039494D03*
X091568Y040473D03*
X091546Y041251D03*
X092178Y041251D03*
X092717Y041251D03*
X093348Y041251D03*
X093882Y041251D03*
X095053Y041251D03*
X095681Y041251D03*
X096221Y041251D03*
X096848Y041251D03*
X097393Y041251D03*
X098014Y041251D03*
X096847Y039494D03*
X096847Y037289D03*
X096847Y035968D03*
X096847Y033763D03*
X096847Y032338D03*
X096847Y030133D03*
X096847Y028723D03*
X096847Y026518D03*
X096847Y024938D03*
X096847Y022734D03*
X096847Y021279D03*
X096847Y019074D03*
X096849Y018296D03*
X096740Y017728D03*
X098193Y014531D03*
X088078Y014524D03*
X081465Y019074D03*
X081465Y021279D03*
X081465Y022734D03*
X081465Y024938D03*
X081465Y026518D03*
X081465Y028723D03*
X081465Y030133D03*
X081465Y032338D03*
X081465Y033763D03*
X081465Y035968D03*
X081465Y037289D03*
X081465Y039494D03*
X081467Y040461D03*
X077770Y041251D03*
X077139Y041251D03*
X076605Y041251D03*
X075974Y041251D03*
X075431Y041251D03*
X074808Y041251D03*
X073636Y041251D03*
X073097Y041251D03*
X072470Y041251D03*
X071929Y041251D03*
X071301Y041251D03*
X071358Y040492D03*
X071342Y039494D03*
X071342Y037289D03*
X071342Y035968D03*
X071342Y033763D03*
X071342Y032338D03*
X071342Y030133D03*
X071342Y028723D03*
X071342Y026518D03*
X071342Y024938D03*
X071342Y022734D03*
X071342Y021279D03*
X071342Y019074D03*
X076598Y019074D03*
X076598Y018229D03*
X076497Y017677D03*
X078027Y014524D03*
X076598Y021279D03*
X076598Y022734D03*
X076598Y024938D03*
X076598Y026518D03*
X076598Y028723D03*
X076598Y030133D03*
X076598Y032338D03*
X076598Y033763D03*
X076598Y035968D03*
X076598Y037289D03*
X076598Y039494D03*
X089401Y043994D03*
X090702Y045660D03*
X099628Y043988D03*
X047545Y045660D03*
X046209Y043991D03*
X037431Y045660D03*
X033566Y043995D03*
X023900Y045796D03*
X023424Y043993D03*
X014523Y045791D03*
X013245Y043990D03*
X004388Y045660D03*
D18*
X008669Y035967D02*
X007805Y035103D01*
X007805Y017616D01*
X007039Y016849D01*
X007039Y015906D01*
X007547Y015218D02*
X007547Y016864D01*
X008285Y017602D01*
X008285Y031981D01*
X008669Y032365D01*
X008690Y028730D02*
X010060Y027360D01*
X010060Y015068D01*
X009783Y014791D01*
X008411Y014791D01*
X008105Y015097D01*
X008105Y015913D01*
X008603Y015218D02*
X008879Y015495D01*
X009384Y015495D01*
X009679Y015790D01*
X009679Y023966D01*
X008703Y024942D01*
X010649Y023997D02*
X011071Y023576D01*
X011071Y015286D01*
X010078Y014293D01*
X009076Y014293D01*
X008748Y013965D01*
X008748Y013145D01*
X008752Y013141D01*
X009527Y012712D02*
X009823Y013008D01*
X012594Y013008D01*
X014914Y013008D01*
X015228Y012694D01*
X019814Y012694D01*
X020170Y013050D01*
X022661Y013050D01*
X025024Y013050D01*
X025376Y012698D01*
X029872Y012698D01*
X030198Y013024D01*
X032781Y013024D01*
X037780Y013024D01*
X038092Y012712D01*
X042549Y012712D01*
X042861Y013024D01*
X045598Y013024D01*
X048112Y013024D01*
X048414Y012722D01*
X052592Y012722D01*
X052894Y013024D01*
X055698Y013024D01*
X058125Y013024D01*
X058439Y012710D01*
X062685Y012710D01*
X063030Y013054D01*
X065999Y013054D01*
X066030Y013024D01*
X065999Y013054D02*
X070826Y013054D01*
X071168Y012713D01*
X075562Y012713D01*
X075876Y013028D01*
X078780Y013028D01*
X078784Y013024D01*
X078780Y013028D02*
X080963Y013028D01*
X081284Y012706D01*
X085581Y012706D01*
X085915Y013040D01*
X088890Y013040D01*
X088907Y013024D01*
X088890Y013040D02*
X091016Y013040D01*
X091364Y012692D01*
X095827Y012692D01*
X096137Y013003D01*
X099073Y013003D01*
X099094Y013024D01*
X099072Y012557D02*
X099094Y012536D01*
X099072Y012557D02*
X096198Y012557D01*
X096006Y012366D01*
X091085Y012366D01*
X090904Y012547D01*
X088895Y012547D01*
X088907Y012536D01*
X088895Y012547D02*
X085928Y012547D01*
X085752Y012370D01*
X080933Y012370D01*
X080767Y012537D01*
X078782Y012537D01*
X078784Y012536D01*
X078782Y012537D02*
X075939Y012537D01*
X075773Y012371D01*
X070859Y012371D01*
X070694Y012537D01*
X066029Y012537D01*
X066030Y012536D01*
X066029Y012537D02*
X062976Y012537D01*
X062822Y012383D01*
X058218Y012383D01*
X058065Y012536D01*
X055698Y012536D01*
X055684Y012549D01*
X052944Y012549D01*
X052765Y012371D01*
X048190Y012371D01*
X048025Y012536D01*
X045598Y012536D01*
X042886Y012536D01*
X042884Y012537D01*
X042718Y012371D01*
X037771Y012371D01*
X037606Y012536D01*
X032787Y012536D01*
X032766Y012514D01*
X030250Y012514D01*
X030107Y012371D01*
X025068Y012371D01*
X024909Y012531D01*
X022660Y012531D01*
X022661Y012529D01*
X020211Y012529D01*
X020035Y012353D01*
X014975Y012353D01*
X014799Y012529D01*
X012592Y012529D01*
X012587Y012524D01*
X009876Y012524D01*
X009725Y012372D01*
X002991Y012372D01*
X002991Y012372D01*
X002730Y012634D01*
X001723Y012634D01*
X001723Y013634D02*
X002919Y013634D01*
X003841Y012712D01*
X009527Y012712D01*
X009284Y012034D02*
X008493Y011243D01*
X002784Y011243D01*
X002393Y011634D01*
X001723Y011634D01*
X001723Y010634D02*
X002113Y010243D01*
X009173Y010243D01*
X009961Y011030D01*
X012593Y011030D01*
X013564Y011030D01*
X014254Y010341D01*
X019480Y010341D01*
X020164Y011024D01*
X022658Y011024D01*
X023850Y011024D01*
X024532Y010342D01*
X029433Y010342D01*
X030115Y011024D01*
X032787Y011024D01*
X036814Y011024D01*
X037513Y010325D01*
X042849Y010325D01*
X043548Y011024D01*
X045598Y011024D01*
X047345Y011024D01*
X048019Y010350D01*
X052829Y010350D01*
X053503Y011024D01*
X055698Y011024D01*
X057531Y011024D01*
X058182Y010373D01*
X062442Y010373D01*
X063093Y011024D01*
X066030Y011024D01*
X070177Y011024D01*
X070832Y010369D01*
X075081Y010369D01*
X075735Y011024D01*
X078784Y011024D01*
X080437Y011024D01*
X081082Y010378D01*
X085186Y010378D01*
X085831Y011024D01*
X088907Y011024D01*
X090481Y011024D01*
X091114Y010391D01*
X095201Y010391D01*
X095835Y011024D01*
X099094Y011024D01*
X099094Y011519D02*
X095665Y011519D01*
X094971Y010825D01*
X091319Y010825D01*
X090625Y011519D01*
X088907Y011519D01*
X085734Y011519D01*
X085035Y010820D01*
X081254Y010820D01*
X080555Y011519D01*
X078784Y011519D01*
X075597Y011519D01*
X074890Y010812D01*
X070970Y010812D01*
X070263Y011519D01*
X066030Y011519D01*
X062962Y011519D01*
X062253Y010810D01*
X058355Y010810D01*
X057646Y011519D01*
X055698Y011519D01*
X053298Y011519D01*
X052575Y010795D01*
X048186Y010795D01*
X047463Y011519D01*
X045598Y011519D01*
X043391Y011519D01*
X042620Y010748D01*
X037829Y010748D01*
X037058Y011519D01*
X032789Y011519D01*
X029980Y011519D01*
X029196Y010735D01*
X024737Y010735D01*
X023943Y011529D01*
X022658Y011529D01*
X019816Y011529D01*
X019033Y010746D01*
X014663Y010746D01*
X013880Y011529D01*
X012602Y011529D01*
X009663Y011529D01*
X008896Y010762D01*
X003386Y010762D01*
X009284Y012034D02*
X012596Y012034D01*
X014241Y012034D01*
X015026Y011249D01*
X018623Y011249D01*
X019389Y012016D01*
X022658Y012016D01*
X024092Y012016D01*
X024920Y011188D01*
X028954Y011188D01*
X029776Y012009D01*
X032772Y012009D01*
X032789Y012027D01*
X037207Y012027D01*
X038020Y011214D01*
X042407Y011214D01*
X043219Y012027D01*
X045598Y012027D01*
X047555Y012027D01*
X048364Y011217D01*
X052305Y011217D01*
X053115Y012027D01*
X055698Y012027D01*
X057717Y012027D01*
X058521Y011223D01*
X062009Y011223D01*
X062813Y012027D01*
X066030Y012027D01*
X070353Y012027D01*
X071144Y011235D01*
X074692Y011235D01*
X075484Y012027D01*
X078784Y012027D01*
X080557Y012027D01*
X081332Y011252D01*
X084889Y011252D01*
X085664Y012027D01*
X088907Y012027D01*
X090780Y012027D01*
X091545Y011262D01*
X094704Y011262D01*
X095469Y012027D01*
X099094Y012027D01*
X094961Y013136D02*
X094961Y013136D01*
X094961Y013979D01*
X095213Y014230D01*
X096458Y014230D01*
X097255Y015028D01*
X097255Y023428D01*
X096847Y023836D01*
X095913Y023822D02*
X095913Y015775D01*
X095616Y015477D01*
X095130Y015477D01*
X094871Y015218D01*
X094362Y015038D02*
X094362Y015913D01*
X094362Y015038D02*
X094353Y015029D01*
X094678Y014703D01*
X096014Y014703D01*
X096329Y015018D01*
X096329Y027206D01*
X094835Y028700D01*
X091063Y027206D02*
X091063Y016021D01*
X091171Y015913D01*
X091003Y015446D02*
X090614Y015835D01*
X090614Y023854D01*
X089569Y024900D01*
X087167Y023405D02*
X087167Y014874D01*
X086475Y014182D01*
X085031Y014182D01*
X084827Y013979D01*
X084827Y013137D01*
X084826Y013136D01*
X084475Y014761D02*
X084238Y014998D01*
X084239Y014998D01*
X084239Y015913D01*
X084751Y015218D02*
X085039Y015506D01*
X085494Y015506D01*
X085774Y015786D01*
X085774Y023856D01*
X084729Y024900D01*
X086736Y023836D02*
X087167Y023405D01*
X089569Y021277D02*
X089177Y020885D01*
X089177Y015207D01*
X089704Y014680D01*
X091883Y014680D01*
X092238Y015034D01*
X092238Y015913D01*
X092749Y015218D02*
X092749Y017231D01*
X093480Y017963D01*
X094004Y017753D02*
X093299Y017048D01*
X093299Y015913D01*
X093810Y015218D02*
X093810Y016952D01*
X094413Y017555D01*
X094413Y031912D01*
X094835Y032334D01*
X094004Y035135D02*
X094004Y017753D01*
X095426Y015913D02*
X095426Y020686D01*
X094835Y021277D01*
X095913Y023822D02*
X094835Y024900D01*
X091063Y027206D02*
X089569Y028700D01*
X086196Y027233D02*
X086196Y015009D01*
X085948Y014761D01*
X084475Y014761D01*
X083668Y015218D02*
X083668Y016842D01*
X084240Y017414D01*
X084240Y031845D01*
X084729Y032334D01*
X083816Y035053D02*
X083816Y017701D01*
X083191Y017076D01*
X083191Y015913D01*
X082618Y015218D02*
X082618Y017247D01*
X083349Y017978D01*
X082110Y015913D02*
X082110Y015097D01*
X081770Y014757D01*
X079550Y014757D01*
X079057Y015250D01*
X079057Y020877D01*
X079457Y021277D01*
X077026Y023409D02*
X077026Y014854D01*
X076340Y014168D01*
X074897Y014168D01*
X074707Y013979D01*
X074707Y013136D01*
X074708Y013136D01*
X074338Y014804D02*
X074119Y015023D01*
X074119Y015912D01*
X074119Y015913D01*
X074627Y015218D02*
X074920Y015511D01*
X075349Y015511D01*
X075677Y015840D01*
X075677Y023811D01*
X074588Y024900D01*
X076598Y023836D02*
X077026Y023409D01*
X079457Y024900D02*
X080505Y023852D01*
X080505Y015827D01*
X080855Y015477D01*
X081294Y015477D01*
X081553Y015218D01*
X082110Y015836D02*
X082110Y015913D01*
X081046Y015913D02*
X080968Y015991D01*
X080968Y027190D01*
X079457Y028700D01*
X076104Y027185D02*
X076104Y015003D01*
X075905Y014804D01*
X074338Y014804D01*
X073565Y015218D02*
X073565Y016948D01*
X074129Y017513D01*
X074129Y031874D01*
X074588Y032334D01*
X073730Y035108D02*
X073730Y017723D01*
X073056Y017049D01*
X073056Y015913D01*
X072499Y015218D02*
X072499Y017163D01*
X073248Y017912D01*
X071991Y015913D02*
X071991Y015156D01*
X071653Y014818D01*
X069346Y014818D01*
X068816Y015348D01*
X068816Y020756D01*
X069337Y021277D01*
X070378Y023859D02*
X070378Y015844D01*
X070724Y015498D01*
X071162Y015498D01*
X071441Y015218D01*
X071991Y015820D02*
X071991Y015913D01*
X070929Y015913D02*
X070834Y016007D01*
X070834Y027203D01*
X069337Y028700D01*
X074588Y028700D02*
X076104Y027185D01*
X070378Y023859D02*
X069337Y024900D01*
X064313Y023328D02*
X064313Y014998D01*
X063606Y014291D01*
X062284Y014291D01*
X061971Y013979D01*
X061971Y013137D01*
X061972Y013136D01*
X061655Y014828D02*
X061377Y015106D01*
X061383Y015112D01*
X061383Y015913D01*
X061888Y015218D02*
X062191Y015520D01*
X062652Y015520D01*
X062903Y015771D01*
X062903Y023792D01*
X061795Y024900D01*
X063805Y023836D02*
X064313Y023328D01*
X061795Y021277D02*
X062434Y020638D01*
X062434Y015913D01*
X063375Y015076D02*
X063127Y014828D01*
X061655Y014828D01*
X060827Y015218D02*
X060827Y016807D01*
X061405Y017385D01*
X061405Y031944D01*
X061795Y032334D01*
X061089Y035260D02*
X061089Y017649D01*
X060318Y016878D01*
X060318Y015913D01*
X059758Y015218D02*
X059758Y017060D01*
X060587Y017889D01*
X059253Y015913D02*
X059253Y015208D01*
X058863Y014818D01*
X056735Y014818D01*
X056207Y015346D01*
X056207Y020943D01*
X056541Y021277D01*
X054197Y023318D02*
X054197Y014947D01*
X053514Y014264D01*
X052144Y014264D01*
X051859Y013979D01*
X051859Y013137D01*
X051858Y013136D01*
X051506Y014794D02*
X051259Y015041D01*
X051259Y015909D01*
X051255Y015913D01*
X051761Y015218D02*
X052037Y015494D01*
X052491Y015494D01*
X052807Y015811D01*
X052807Y023759D01*
X051667Y024900D01*
X053679Y023836D02*
X054197Y023318D01*
X056541Y024900D02*
X057637Y023803D01*
X057637Y015806D01*
X057940Y015504D01*
X058419Y015504D01*
X058705Y015218D01*
X059253Y015745D02*
X059253Y015913D01*
X058195Y015913D02*
X058070Y016038D01*
X058070Y027171D01*
X056541Y028700D01*
X053235Y027132D02*
X053235Y015051D01*
X052978Y014794D01*
X051506Y014794D01*
X050699Y015218D02*
X050699Y016812D01*
X051261Y017374D01*
X051261Y031928D01*
X051667Y032334D01*
X050879Y035179D02*
X050879Y017607D01*
X050187Y016915D01*
X050187Y015913D01*
X049627Y015218D02*
X049627Y017049D01*
X050457Y017879D01*
X049125Y015913D02*
X049125Y015172D01*
X048757Y014803D01*
X046475Y014803D01*
X046053Y015225D01*
X046053Y020925D01*
X046405Y021277D01*
X044034Y023372D02*
X044034Y015164D01*
X043177Y014307D01*
X042037Y014307D01*
X041709Y013979D01*
X041709Y013136D01*
X041710Y013136D01*
X041381Y014802D02*
X041109Y015075D01*
X041119Y015085D01*
X041119Y015913D01*
X041119Y015842D01*
X040564Y016036D02*
X040569Y015218D01*
X040564Y016036D02*
X040564Y016764D01*
X041116Y017317D01*
X041116Y031896D01*
X041554Y032334D01*
X040752Y035164D02*
X040752Y017601D01*
X040056Y016905D01*
X040056Y015913D01*
X039506Y015218D02*
X039506Y017047D01*
X040325Y017866D01*
X038992Y015913D02*
X038992Y015147D01*
X038653Y014808D01*
X036835Y014808D01*
X036431Y015212D01*
X036431Y021157D01*
X036312Y021277D01*
X037400Y023812D02*
X037400Y015814D01*
X037736Y015478D01*
X038187Y015478D01*
X038447Y015218D01*
X037934Y015913D02*
X037812Y016034D01*
X037812Y027200D01*
X036312Y028700D01*
X041554Y028700D02*
X043092Y027162D01*
X043092Y015048D01*
X042846Y014802D01*
X041381Y014802D01*
X041632Y015218D02*
X041916Y015502D01*
X042385Y015502D01*
X042692Y015809D01*
X042692Y023762D01*
X041554Y024900D01*
X043570Y023836D02*
X044034Y023372D01*
X046405Y024900D02*
X047514Y023791D01*
X047514Y015749D01*
X047794Y015469D01*
X048318Y015469D01*
X048569Y015218D01*
X048064Y015913D02*
X047973Y016004D01*
X047973Y027132D01*
X046405Y028700D01*
X051667Y028700D02*
X053235Y027132D01*
X061795Y028700D02*
X063375Y027120D01*
X063375Y015076D01*
X052317Y015913D02*
X052317Y020627D01*
X051667Y021277D01*
X042189Y020642D02*
X042189Y015913D01*
X048112Y013024D02*
X048112Y013024D01*
X042189Y020642D02*
X041554Y021277D01*
X037400Y023812D02*
X036312Y024900D01*
X031264Y023366D02*
X031264Y015119D01*
X030567Y014423D01*
X029453Y014423D01*
X029010Y013979D01*
X029010Y013139D01*
X029015Y013134D01*
X028641Y014826D02*
X028389Y015077D01*
X028389Y015913D01*
X028900Y015218D02*
X029152Y015470D01*
X029667Y015470D01*
X029913Y015716D01*
X029913Y023780D01*
X028793Y024900D01*
X030794Y023836D02*
X031264Y023366D01*
X028793Y021277D02*
X029452Y020618D01*
X029452Y015913D01*
X030308Y015059D02*
X030075Y014826D01*
X028641Y014826D01*
X027833Y015218D02*
X027833Y017052D01*
X028353Y017572D01*
X028353Y031894D01*
X028793Y032334D01*
X027980Y035153D02*
X027980Y017830D01*
X027324Y017174D01*
X027324Y015913D01*
X026773Y015218D02*
X026773Y017177D01*
X027465Y017870D01*
X025203Y015913D02*
X025036Y016080D01*
X025036Y027130D01*
X023466Y028700D01*
X020208Y027133D02*
X020208Y015006D01*
X019989Y014787D01*
X018501Y014787D01*
X018250Y015038D01*
X018250Y015913D01*
X018757Y015218D02*
X019023Y015484D01*
X019491Y015484D01*
X019791Y015783D01*
X019791Y023750D01*
X018638Y024903D01*
X020840Y023839D02*
X021251Y023428D01*
X021251Y015078D01*
X020449Y014277D01*
X019184Y014277D01*
X018889Y013982D01*
X018889Y013150D01*
X018888Y013149D01*
X016130Y015109D02*
X015830Y014809D01*
X013921Y014809D01*
X013018Y015712D01*
X013018Y020994D01*
X013304Y021280D01*
X009161Y020834D02*
X008717Y021278D01*
X009161Y020834D02*
X009161Y015909D01*
X005969Y015926D02*
X005969Y015464D01*
X005969Y015378D01*
X005969Y015155D01*
X005605Y014791D01*
X003860Y014791D01*
X003280Y015371D01*
X003280Y021237D01*
X004352Y023876D02*
X004352Y015809D01*
X004688Y015474D01*
X005156Y015474D01*
X005411Y015218D01*
X004934Y015910D02*
X004809Y016035D01*
X004809Y027190D01*
X003305Y028694D01*
X003306Y024922D02*
X004352Y023876D01*
X013304Y024947D02*
X014504Y023746D01*
X014504Y015887D01*
X014910Y015482D01*
X015300Y015482D01*
X015564Y015218D01*
X016130Y015109D02*
X016130Y015909D01*
X016126Y015913D01*
X016126Y015805D01*
X016632Y015218D02*
X016632Y017080D01*
X017424Y017873D01*
X017870Y017691D02*
X017194Y017015D01*
X017194Y015913D01*
X017665Y015218D02*
X017696Y015218D01*
X017665Y015218D02*
X017665Y016957D01*
X018235Y017527D01*
X018235Y031934D01*
X018316Y032015D01*
X018638Y032334D01*
X017870Y035201D02*
X017870Y017691D01*
X019312Y015913D02*
X019312Y020605D01*
X018638Y021280D01*
X023131Y020942D02*
X023131Y015268D01*
X023595Y014805D01*
X025990Y014805D01*
X026267Y015082D01*
X026267Y015913D01*
X025705Y015218D02*
X025424Y015498D01*
X024999Y015498D01*
X024604Y015893D01*
X024604Y023762D01*
X023466Y024900D01*
X020208Y027133D02*
X018638Y028703D01*
X014976Y027039D02*
X014976Y016003D01*
X015066Y015913D01*
X012589Y012041D02*
X012596Y012034D01*
X023131Y020942D02*
X023466Y021277D01*
X030308Y027186D02*
X030308Y015059D01*
X032787Y012536D02*
X032787Y012529D01*
X032711Y011529D02*
X032724Y011537D01*
X032738Y011541D01*
X032752Y011541D01*
X032766Y011537D01*
X032779Y011529D01*
X032789Y011519D01*
X030308Y027186D02*
X028793Y028700D01*
X027980Y035153D02*
X028793Y035966D01*
X018638Y035969D02*
X017870Y035201D01*
X013304Y028711D02*
X014976Y027039D01*
X040752Y035164D02*
X041554Y035966D01*
X050879Y035179D02*
X051667Y035966D01*
X061089Y035260D02*
X061795Y035966D01*
X073730Y035108D02*
X074588Y035966D01*
X083816Y035053D02*
X084729Y035966D01*
X094004Y035135D02*
X094835Y035966D01*
X086196Y027233D02*
X084729Y028700D01*
X084729Y021277D02*
X085298Y020708D01*
X085298Y015913D01*
X091003Y015446D02*
X091455Y015446D01*
X091683Y015218D01*
X075181Y015913D02*
X075181Y020684D01*
X074588Y021277D01*
D19*
X007302Y017851D02*
X006485Y017034D01*
X006485Y015218D01*
D20*
X010649Y032349D02*
X010649Y032358D01*
X011241Y032950D01*
X011241Y040029D01*
X010918Y040352D01*
X009683Y040352D01*
X009379Y040656D01*
X009379Y041242D01*
X008758Y041235D02*
X008758Y037845D01*
X010633Y035970D01*
X010649Y035970D01*
X018893Y037856D02*
X020778Y035971D01*
X018893Y037856D02*
X018893Y041254D01*
X019511Y041254D02*
X019511Y040692D01*
X019887Y040316D01*
X021077Y040316D01*
X021623Y039770D01*
X021623Y033190D01*
X021192Y032759D01*
X021023Y032590D01*
X020774Y032341D01*
X028996Y037765D02*
X030794Y035968D01*
X028996Y037765D02*
X028996Y041251D01*
X029628Y041251D02*
X029628Y040710D01*
X030015Y040323D01*
X030898Y040323D01*
X031428Y039793D01*
X031428Y032972D01*
X030794Y032338D01*
X041783Y037755D02*
X043570Y035968D01*
X041783Y037755D02*
X041783Y041251D01*
X042406Y041251D02*
X042406Y040714D01*
X042762Y040358D01*
X043779Y040358D01*
X044288Y039849D01*
X044288Y033056D01*
X043570Y032338D01*
X051911Y037736D02*
X053679Y035968D01*
X051911Y037736D02*
X051911Y041251D01*
X052537Y041251D02*
X052537Y040766D01*
X052902Y040401D01*
X053874Y040401D01*
X054456Y039818D01*
X054456Y033115D01*
X053679Y032338D01*
X062027Y037746D02*
X063805Y035968D01*
X062027Y037746D02*
X062027Y041251D01*
X062656Y041251D02*
X062656Y040838D01*
X063083Y040411D01*
X064002Y040411D01*
X064556Y039857D01*
X064556Y033088D01*
X063805Y032338D01*
X074808Y037758D02*
X076598Y035968D01*
X074808Y037758D02*
X074808Y041251D01*
X075431Y041251D02*
X075431Y040851D01*
X075874Y040408D01*
X076785Y040408D01*
X077357Y039836D01*
X077357Y033096D01*
X076598Y032338D01*
X084928Y037776D02*
X086736Y035968D01*
X084928Y037776D02*
X084928Y041251D01*
X085552Y041251D02*
X085552Y040797D01*
X085920Y040429D01*
X086916Y040429D01*
X087552Y039793D01*
X087552Y033154D01*
X086736Y032338D01*
X095053Y037762D02*
X096847Y035968D01*
X095053Y037762D02*
X095053Y041251D01*
X095681Y041251D02*
X095681Y040808D01*
X096063Y040426D01*
X097152Y040426D01*
X097729Y039849D01*
X097729Y033219D01*
X096847Y032338D01*
D21*
X012594Y017728D03*
X012614Y015913D03*
D22*
X003649Y008011D03*
X034418Y008011D03*
X034415Y019442D03*
X067403Y019442D03*
X067407Y008011D03*
X099908Y008011D03*
X067403Y038733D03*
X067403Y051332D03*
X099905Y051332D03*
X034415Y051332D03*
X034415Y038733D03*
X003645Y051332D03*
M02*
