%
M48
M72
T01C0.0118
T02C0.0157
T03C0.0197
T04C0.0315
T05C0.0354
T06C0.0400
T07C0.1181
T08C0.1378
%
T01
X15936Y9945
X16132Y11957
X15250Y11951
X15738Y13151
X16137Y13150
X16523Y13150
X16919Y13151
X17314Y13152
X17705Y13151
X18101Y13144
X18497Y13151
X18888Y13149
X19277Y13152
X18484Y11957
X17121Y11949
X12596Y12034
X12592Y12529
X12594Y13008
X12590Y13535
X12602Y11529
X12593Y11030
X12593Y10480
X9146Y13130
X8752Y13141
X8352Y13132
X7955Y13138
X7566Y13128
X7170Y13140
X6782Y13138
X6387Y13142
X5992Y13143
X5601Y13140
X5996Y11947
X5085Y11949
X6981Y11949
X8159Y11947
X3386Y10762
X4351Y15218
X3848Y15910
X4934Y15910
X5411Y15218
X5969Y15926
X6485Y15218
X7039Y15906
X7547Y15218
X8105Y15913
X8603Y15218
X9161Y15909
X9671Y15218
X10468Y15929
X11534Y15918
X13412Y15913
X13998Y15913
X14503Y15218
X15066Y15913
X15564Y15218
X16126Y15913
X16632Y15218
X17194Y15913
X17696Y15218
X18250Y15913
X18757Y15218
X19312Y15913
X19820Y15218
X20629Y15913
X21691Y15913
X22762Y15913
X23553Y15913
X24143Y15913
X24644Y15218
X25203Y15913
X25705Y15218
X26267Y15913
X26773Y15218
X27324Y15913
X27833Y15218
X28389Y15913
X28900Y15218
X29452Y15913
X29962Y15218
X30726Y15913
X31784Y15913
X32782Y13540
X32781Y13024
X32787Y12536
X32789Y12027
X32789Y11519
X32787Y11024
X32787Y10480
X28816Y11957
X27237Y11949
X26249Y11952
X25419Y11950
X25855Y13136
X26256Y13133
X26647Y13141
X27040Y13135
X27432Y13134
X27827Y13134
X28228Y13142
X28618Y13128
X29015Y13134
X29405Y13134
X26035Y9980
X22658Y10480
X22658Y11024
X22658Y11529
X22658Y12016
X22661Y12529
X22661Y13050
X22663Y13550
X27465Y17870
X25536Y20177
X23466Y21277
X20840Y20180
X18638Y21280
X15488Y20180
X13304Y21280
X10649Y20309
X8717Y21278
X5399Y20242
X3280Y21237
X5414Y23954
X3306Y24922
X5429Y27646
X3305Y28694
X5391Y31309
X3281Y32319
X5440Y34978
X3286Y35941
X8669Y35967
X10649Y35013
X13304Y35956
X15466Y34857
X18638Y35969
X20789Y34857
X23466Y35966
X25540Y34855
X28793Y35966
X30804Y34855
X28793Y32334
X30794Y31235
X28793Y28700
X30794Y27620
X28793Y24900
X30794Y23836
X28793Y21277
X30794Y20177
X36312Y21277
X38312Y20177
X41554Y21277
X43570Y20177
X46405Y21277
X48426Y20177
X51667Y21277
X53679Y20177
X56541Y21277
X58546Y20177
X61795Y21277
X63805Y20177
X60587Y17889
X60318Y15913
X60827Y15218
X61383Y15913
X61888Y15218
X62434Y15913
X62956Y15218
X63760Y15913
X64825Y15913
X65884Y15913
X69227Y15913
X69869Y15913
X70378Y15218
X70929Y15913
X71441Y15218
X71991Y15913
X72499Y15218
X73056Y15913
X73565Y15218
X74119Y15913
X74627Y15218
X75181Y15913
X75690Y15218
X76500Y15913
X77560Y15913
X78622Y15913
X79447Y15913
X79985Y15913
X80496Y15218
X81046Y15913
X81553Y15218
X82110Y15913
X82618Y15218
X83191Y15913
X83668Y15218
X84239Y15913
X84751Y15218
X85298Y15913
X85805Y15218
X86615Y15913
X87681Y15913
X88752Y15913
X89572Y15913
X90110Y15913
X90616Y15218
X91171Y15913
X91683Y15218
X92238Y15913
X92749Y15218
X93299Y15913
X93810Y15218
X94362Y15913
X94871Y15218
X95426Y15913
X95935Y15218
X96743Y15913
X97802Y15913
X98865Y15913
X98867Y17767
X96847Y20177
X94835Y21277
X91575Y20177
X89569Y21277
X86736Y20177
X84729Y21277
X81465Y20177
X79457Y21277
X76598Y20177
X74588Y21277
X71342Y20177
X69337Y21277
X71342Y23836
X69337Y24900
X74588Y24900
X76598Y23836
X79457Y24900
X81465Y23836
X84729Y24900
X86736Y23836
X89569Y24900
X91575Y23836
X94835Y24900
X96847Y23836
X96847Y27620
X94835Y28700
X91575Y27620
X89569Y28700
X86736Y27620
X84729Y28700
X81465Y27620
X79457Y28700
X76598Y27620
X74588Y28700
X71342Y27620
X69337Y28700
X71342Y31235
X69337Y32334
X71342Y34865
X69337Y35966
X74588Y35966
X76598Y34865
X79457Y35966
X81465Y34865
X84729Y35966
X86736Y34865
X89569Y35966
X91575Y34865
X94835Y35966
X96847Y34865
X94835Y32334
X96847Y31235
X91575Y31235
X89569Y32334
X86736Y31235
X84729Y32334
X81465Y31235
X79457Y32334
X76598Y31204
X74588Y32334
X63805Y31235
X61795Y32334
X58546Y31235
X56541Y32334
X53679Y31235
X51667Y32334
X48426Y31235
X46405Y32334
X43570Y31235
X41554Y32334
X38312Y31235
X36312Y32334
X38312Y34855
X36312Y35966
X41554Y35966
X43570Y34855
X46405Y35966
X48426Y34855
X51667Y35966
X53679Y34855
X56541Y35966
X58546Y34855
X61795Y35966
X63805Y34855
X63805Y38392
X53679Y38392
X43570Y38392
X30812Y38392
X20789Y38395
X10649Y38209
X8669Y32365
X10649Y31375
X13304Y32339
X15446Y31238
X18638Y32334
X20785Y31238
X23466Y32334
X25536Y31235
X23466Y28700
X25536Y27620
X20840Y27623
X18638Y28703
X15488Y27623
X13304Y28711
X10649Y27633
X8690Y28730
X8703Y24942
X10649Y23997
X13304Y24947
X15488Y23839
X18638Y24903
X20840Y23839
X23466Y24900
X25536Y23836
X17424Y17873
X7302Y17851
X35968Y15913
X36867Y15913
X37382Y15218
X37934Y15913
X38447Y15218
X38992Y15913
X39506Y15218
X40056Y15913
X40569Y15218
X41119Y15913
X41632Y15218
X42189Y15913
X42695Y15218
X43498Y15913
X44566Y15913
X45615Y15913
X46450Y15913
X47006Y15913
X47517Y15218
X48064Y15913
X48569Y15218
X49125Y15913
X49627Y15218
X50187Y15913
X50699Y15218
X51255Y15913
X51761Y15218
X52317Y15913
X52822Y15218
X53636Y15913
X54694Y15913
X55757Y15913
X56607Y15913
X57127Y15913
X57641Y15218
X58195Y15913
X58705Y15218
X59253Y15913
X59758Y15218
X59608Y13136
X59214Y13136
X58822Y13136
X60006Y13136
X60397Y13136
X60790Y13136
X61186Y13136
X61578Y13136
X61972Y13136
X62365Y13136
X61973Y11949
X60196Y11949
X59215Y11949
X58425Y11956
X59020Y9990
X55699Y10448
X55698Y11024
X55698Y11519
X55698Y12027
X55698Y12536
X55698Y13024
X55698Y13540
X52253Y13136
X51858Y13136
X51464Y13136
X51071Y13136
X50677Y13136
X50288Y13136
X49892Y13136
X49502Y13136
X49104Y13136
X48709Y13136
X48311Y11957
X49103Y11949
X50084Y11949
X51857Y11949
X48904Y9931
X45606Y10456
X45598Y11024
X45598Y11519
X45598Y12027
X45598Y12536
X45598Y13024
X45598Y13540
X42100Y13136
X41710Y13136
X41316Y13136
X40919Y13136
X40527Y13136
X40134Y13136
X39739Y13136
X39344Y13136
X38953Y13136
X38561Y13136
X38161Y11968
X38956Y11949
X39935Y11949
X41710Y11949
X38756Y9889
X40325Y17866
X50457Y17879
X48426Y23836
X46405Y24900
X43570Y23836
X41554Y24900
X38312Y23836
X36312Y24900
X38312Y27620
X36312Y28700
X41554Y28700
X43570Y27620
X46405Y28700
X48426Y27620
X51667Y28700
X53679Y27620
X56541Y28700
X58546Y27620
X61795Y28700
X63805Y27620
X61795Y24900
X63805Y23836
X58546Y23836
X56541Y24900
X53679Y23836
X51667Y24900
X73248Y17912
X78624Y17789
X83349Y17978
X88741Y17703
X93480Y17963
X88907Y13540
X88907Y13024
X88907Y12536
X88907Y12027
X88907Y11519
X88907Y11024
X88908Y10471
X91417Y11954
X92205Y11949
X93189Y11949
X94767Y11949
X94961Y13136
X94568Y13136
X94175Y13136
X93780Y13136
X93386Y13136
X92990Y13136
X92601Y13136
X92205Y13136
X91808Y13136
X95359Y13136
X99094Y13024
X99094Y12536
X99094Y12027
X99094Y11519
X99094Y11024
X99096Y10536
X96752Y10208
X92010Y9812
X85220Y13136
X84826Y13136
X84435Y13136
X84040Y13136
X83648Y13136
X83252Y13136
X82857Y13136
X82464Y13136
X82068Y13136
X81678Y13136
X81291Y11956
X82072Y11949
X83051Y11949
X84828Y11949
X81875Y9881
X78779Y10456
X78784Y11024
X78784Y11519
X78784Y12027
X78784Y12536
X78784Y13024
X78784Y13540
X75099Y13136
X74708Y13136
X74314Y13136
X73918Y13136
X73524Y13136
X73136Y13136
X72739Y13136
X72346Y13136
X71950Y13136
X71554Y13136
X71169Y11953
X71951Y11949
X72932Y11949
X74701Y11949
X71754Y9853
X66032Y10434
X66030Y11024
X66030Y11519
X66030Y12027
X66030Y12536
X66030Y13024
X66030Y13540
X99094Y13540
X86736Y38336
X96847Y38486
X76598Y38319
T02
X12594Y17728
X12614Y15913
T03
X11995Y14536
X10481Y17814
X10649Y18327
X10649Y19071
X10649Y21278
X10649Y22743
X10649Y24947
X10649Y26497
X10649Y28706
X10649Y30142
X10649Y32349
X10649Y33765
X10649Y35970
X10649Y37319
X10649Y39517
X10559Y41246
X11086Y41246
X11713Y41246
X9935Y41240
X9379Y41242
X8758Y41235
X7633Y41237
X6999Y41236
X6465Y41235
X5854Y41230
X5294Y41235
X5286Y40419
X5434Y39487
X5406Y37279
X5444Y35933
X5439Y33728
X5419Y32308
X5429Y30104
X5422Y28671
X5433Y26469
X5413Y24910
X5425Y22705
X5405Y21232
X5420Y19027
X15506Y19074
X15498Y21278
X15508Y22746
X15504Y24950
X15508Y26508
X15494Y28713
X15499Y30127
X15483Y32327
X15496Y33754
X15488Y35958
X15490Y37333
X15487Y39531
X15496Y40433
X15383Y41254
X16008Y41254
X16559Y41254
X17175Y41254
X17716Y41254
X18893Y41254
X19511Y41254
X20051Y41254
X20686Y41254
X21230Y41254
X21842Y41254
X20783Y39530
X20795Y37326
X20778Y35971
X20789Y33766
X20774Y32341
X20785Y30136
X20844Y28724
X20839Y26521
X20844Y24941
X20845Y22737
X20858Y21282
X20840Y19077
X20840Y18353
X20619Y17800
X22748Y17728
X25536Y19074
X25536Y21279
X25536Y22734
X25536Y24938
X25536Y26518
X25536Y28723
X25536Y30133
X25536Y32338
X25536Y33763
X25536Y35968
X25536Y37289
X25536Y39494
X25535Y40435
X25494Y41251
X26122Y41251
X26661Y41251
X27285Y41251
X27837Y41251
X28996Y41251
X29628Y41251
X30172Y41251
X30785Y41251
X31328Y41251
X31963Y41251
X30794Y39494
X30794Y37289
X30794Y35968
X30794Y33763
X30794Y32338
X30794Y30133
X30794Y28723
X30794Y26518
X30794Y24938
X30794Y22734
X30794Y21279
X30794Y19074
X30794Y18316
X30731Y17790
X32861Y17728
X32861Y15913
X32205Y14537
X38312Y19074
X38312Y21279
X38312Y22734
X38312Y24938
X38312Y26518
X38312Y28723
X38312Y30133
X38312Y32338
X38312Y33763
X38312Y35968
X38312Y37289
X38312Y39494
X38318Y40452
X38274Y41251
X38903Y41251
X39444Y41251
X40074Y41251
X40607Y41251
X41783Y41251
X42406Y41251
X42942Y41251
X43573Y41251
X44118Y41251
X44747Y41251
X43570Y39494
X43570Y37289
X43570Y35968
X43570Y33763
X43570Y32338
X43570Y30133
X43570Y28723
X43570Y26518
X43570Y24938
X43570Y22734
X43570Y21279
X43570Y19074
X43573Y18305
X43502Y17731
X45578Y17839
X48426Y19074
X48426Y21279
X48426Y22734
X48426Y24938
X48426Y26518
X48426Y28723
X48426Y30133
X48426Y32338
X48426Y33763
X48426Y35968
X48426Y37289
X48426Y39494
X48432Y40374
X48402Y41251
X49028Y41251
X49567Y41251
X50193Y41251
X50732Y41251
X51911Y41251
X52537Y41251
X53067Y41251
X53698Y41251
X54240Y41251
X54867Y41251
X53679Y39497
X53679Y37289
X53679Y35968
X53679Y33763
X53679Y32338
X53679Y30133
X53679Y28723
X53679Y26518
X53679Y24938
X53679Y22734
X53679Y21279
X53679Y19074
X53690Y18277
X53630Y17673
X55795Y17793
X58546Y19074
X58546Y21279
X58546Y22734
X58546Y24938
X58546Y26518
X58546Y28723
X58546Y30133
X58546Y32338
X58546Y33763
X58546Y35968
X58546Y37289
X58546Y39496
X58545Y40390
X58530Y41251
X59159Y41251
X59686Y41251
X60320Y41251
X60856Y41251
X62027Y41251
X62656Y41251
X63193Y41251
X63830Y41251
X64365Y41251
X64988Y41251
X63805Y39496
X63805Y37289
X63805Y35968
X63805Y33763
X63805Y32338
X63805Y30133
X63805Y28723
X63805Y26518
X63805Y24938
X63805Y22734
X63805Y21279
X63805Y19074
X63797Y18311
X63760Y17701
X65849Y17947
X71342Y19074
X71342Y21279
X71342Y22734
X71342Y24938
X71342Y26518
X71342Y28723
X71342Y30133
X71342Y32338
X71342Y33763
X71342Y35968
X71342Y37289
X71342Y39494
X71358Y40492
X71301Y41251
X71929Y41251
X72470Y41251
X73097Y41251
X73636Y41251
X74808Y41251
X75431Y41251
X75974Y41251
X76605Y41251
X77139Y41251
X77770Y41251
X76598Y39494
X76598Y37289
X76598Y35968
X76598Y33763
X76598Y32338
X76598Y30133
X76598Y28723
X76598Y26518
X76598Y24938
X76598Y22734
X76598Y21279
X76598Y19074
X76598Y18229
X76497Y17677
X81465Y19074
X81465Y21279
X81465Y22734
X81465Y24938
X81465Y26518
X81465Y28723
X81465Y30133
X81465Y32338
X81465Y33763
X81465Y35968
X81465Y37289
X81465Y39494
X81467Y40461
X81433Y41251
X82058Y41251
X82601Y41251
X83225Y41251
X83762Y41251
X84928Y41251
X85552Y41251
X86092Y41251
X86718Y41251
X87263Y41251
X87891Y41251
X86736Y39494
X86736Y37289
X86736Y35968
X86736Y33763
X86736Y32338
X86736Y30133
X86736Y28723
X86736Y26518
X86736Y24938
X86736Y22734
X86736Y21279
X86736Y19074
X86734Y18273
X86615Y17704
X91575Y19074
X91575Y21279
X91575Y22734
X91575Y24938
X91575Y26518
X91575Y28723
X91575Y30133
X91575Y32338
X91575Y33763
X91575Y35968
X91575Y37289
X91575Y39494
X91568Y40473
X91546Y41251
X92178Y41251
X92717Y41251
X93348Y41251
X93882Y41251
X95053Y41251
X95681Y41251
X96221Y41251
X96848Y41251
X97393Y41251
X98014Y41251
X96847Y39494
X96847Y37289
X96847Y35968
X96847Y33763
X96847Y32338
X96847Y30133
X96847Y28723
X96847Y26518
X96847Y24938
X96847Y22734
X96847Y21279
X96847Y19074
X96849Y18296
X96740Y17728
X98193Y14531
X88078Y14524
X78027Y14524
X65267Y14533
X55120Y14524
X44949Y14539
X22120Y14527
X23424Y43993
X23900Y45796
X14523Y45791
X13245Y43990
X4388Y45660
X33566Y43995
X37431Y45660
X46209Y43991
X47545Y45660
X56411Y43989
X57665Y45660
X66615Y43994
X70449Y45660
X79271Y43987
X80570Y45660
X89401Y43994
X90702Y45660
X99628Y43988
T04
X92844Y48326
X91978Y48326
X91112Y48326
X90246Y48326
X89380Y48326
X88514Y48326
X87647Y48326
X86781Y48326
X85915Y48326
X85049Y48326
X84183Y48326
X83317Y48326
X82451Y48326
X81584Y48326
X80718Y48326
X79852Y48326
X78986Y48326
X78120Y48326
X77254Y48326
X76388Y48326
X59852Y48326
X58986Y48326
X58120Y48326
X57253Y48326
X56387Y48326
X55521Y48326
X54655Y48326
X53789Y48326
X52923Y48326
X52057Y48326
X51190Y48326
X50324Y48326
X49458Y48326
X48592Y48326
X47726Y48326
X46860Y48326
X45994Y48326
X45127Y48326
X44261Y48326
X43395Y48326
X26859Y48326
X25993Y48326
X25127Y48326
X24261Y48326
X23395Y48326
X22529Y48326
X21663Y48326
X20796Y48326
X19930Y48326
X19064Y48326
X18198Y48326
X17332Y48326
X16466Y48326
X15600Y48326
X14733Y48326
X13867Y48326
X13001Y48326
X12135Y48326
X11269Y48326
X10403Y48326
T05
X10402Y49508
X11268Y49508
X12135Y49508
X13001Y49508
X13867Y49508
X14733Y49508
X15599Y49508
X16465Y49508
X17331Y49508
X18198Y49508
X19064Y49508
X19930Y49508
X20796Y49508
X21662Y49508
X22528Y49508
X23394Y49508
X24260Y49508
X25127Y49508
X25993Y49508
X26859Y49508
X43395Y49508
X44261Y49508
X45127Y49508
X45993Y49508
X46859Y49508
X47725Y49508
X48592Y49508
X49458Y49508
X50324Y49508
X51190Y49508
X52056Y49508
X52922Y49508
X53788Y49508
X54655Y49508
X55521Y49508
X56387Y49508
X57253Y49508
X58119Y49508
X58985Y49508
X59851Y49508
X76387Y49508
X77253Y49508
X78119Y49508
X78986Y49508
X79852Y49508
X80718Y49508
X81584Y49508
X82450Y49508
X83316Y49508
X84182Y49508
X85049Y49508
X85915Y49508
X86781Y49508
X87647Y49508
X88513Y49508
X89379Y49508
X90245Y49508
X91112Y49508
X91978Y49508
X92844Y49508
T06
X1723Y15634
X1723Y14634
X1723Y13634
X1723Y12634
X1723Y11634
X1723Y10634
T07
X3649Y8011
X34418Y8011
X34415Y19442
X67403Y19442
X67407Y8011
X99908Y8011
X67403Y38733
X67403Y51332
X99905Y51332
X34415Y51332
X34415Y38733
X3645Y51332
T08
X10678Y51712
X26583Y51712
X43670Y51712
X59576Y51712
X76663Y51712
X92568Y51712
M30
