G75*
G70*
%OFA0B0*%
%FSLAX24Y24*%
%IPPOS*%
%LPD*%
%AMOC8*
5,1,8,0,0,1.08239X$1,22.5*
%
%ADD10R,10.1954X0.2519*%
%ADD11R,10.2101X0.3344*%
%ADD12R,0.2150X2.1695*%
%ADD13C,0.0554*%
%ADD14C,0.0515*%
%ADD15C,0.0600*%
%ADD16C,0.0278*%
%ADD17C,0.0100*%
%ADD18C,0.0357*%
%ADD19C,0.0160*%
%ADD20C,0.0120*%
%ADD21C,0.0317*%
%ADD22C,0.1581*%
D10*
X051115Y007896D03*
D11*
X051221Y052010D03*
D12*
X067353Y029245D03*
X034412Y029100D03*
D13*
X026859Y049508D03*
X025993Y049508D03*
X025127Y049508D03*
X024260Y049508D03*
X023394Y049508D03*
X022528Y049508D03*
X021662Y049508D03*
X020796Y049508D03*
X019930Y049508D03*
X019064Y049508D03*
X018198Y049508D03*
X017331Y049508D03*
X016465Y049508D03*
X015599Y049508D03*
X014733Y049508D03*
X013867Y049508D03*
X013001Y049508D03*
X012135Y049508D03*
X011268Y049508D03*
X010402Y049508D03*
X043395Y049508D03*
X044261Y049508D03*
X045127Y049508D03*
X045993Y049508D03*
X046859Y049508D03*
X047725Y049508D03*
X048592Y049508D03*
X049458Y049508D03*
X050324Y049508D03*
X051190Y049508D03*
X052056Y049508D03*
X052922Y049508D03*
X053788Y049508D03*
X054655Y049508D03*
X055521Y049508D03*
X056387Y049508D03*
X057253Y049508D03*
X058119Y049508D03*
X058985Y049508D03*
X059851Y049508D03*
X076387Y049508D03*
X077253Y049508D03*
X078119Y049508D03*
X078986Y049508D03*
X079852Y049508D03*
X080718Y049508D03*
X081584Y049508D03*
X082450Y049508D03*
X083316Y049508D03*
X084182Y049508D03*
X085049Y049508D03*
X085915Y049508D03*
X086781Y049508D03*
X087647Y049508D03*
X088513Y049508D03*
X089379Y049508D03*
X090245Y049508D03*
X091112Y049508D03*
X091978Y049508D03*
X092844Y049508D03*
D14*
X092844Y048326D03*
X091978Y048326D03*
X091112Y048326D03*
X090246Y048326D03*
X089380Y048326D03*
X088514Y048326D03*
X087647Y048326D03*
X086781Y048326D03*
X085915Y048326D03*
X085049Y048326D03*
X084183Y048326D03*
X083317Y048326D03*
X082451Y048326D03*
X081584Y048326D03*
X080718Y048326D03*
X079852Y048326D03*
X078986Y048326D03*
X078120Y048326D03*
X077254Y048326D03*
X076388Y048326D03*
X059852Y048326D03*
X058986Y048326D03*
X058120Y048326D03*
X057253Y048326D03*
X056387Y048326D03*
X055521Y048326D03*
X054655Y048326D03*
X053789Y048326D03*
X052923Y048326D03*
X052057Y048326D03*
X051190Y048326D03*
X050324Y048326D03*
X049458Y048326D03*
X048592Y048326D03*
X047726Y048326D03*
X046860Y048326D03*
X045994Y048326D03*
X045127Y048326D03*
X044261Y048326D03*
X043395Y048326D03*
X026859Y048326D03*
X025993Y048326D03*
X025127Y048326D03*
X024261Y048326D03*
X023395Y048326D03*
X022529Y048326D03*
X021663Y048326D03*
X020796Y048326D03*
X019930Y048326D03*
X019064Y048326D03*
X018198Y048326D03*
X017332Y048326D03*
X016466Y048326D03*
X015600Y048326D03*
X014733Y048326D03*
X013867Y048326D03*
X013001Y048326D03*
X012135Y048326D03*
X011269Y048326D03*
X010403Y048326D03*
D15*
X001723Y015634D03*
X001723Y014634D03*
X001723Y013634D03*
X001723Y012634D03*
X001723Y011634D03*
X001723Y010634D03*
D16*
X003386Y010762D03*
X005085Y011949D03*
X005996Y011947D03*
X006981Y011949D03*
X008159Y011947D03*
X008352Y013132D03*
X007955Y013138D03*
X007566Y013128D03*
X007170Y013140D03*
X006782Y013138D03*
X006387Y013142D03*
X005992Y013143D03*
X005601Y013140D03*
X008752Y013141D03*
X009146Y013130D03*
X012594Y013008D03*
X012592Y012529D03*
X012596Y012034D03*
X012602Y011529D03*
X012593Y011030D03*
X012593Y010480D03*
X015250Y011951D03*
X016132Y011957D03*
X017121Y011949D03*
X018484Y011957D03*
X018497Y013151D03*
X018888Y013149D03*
X019277Y013152D03*
X018101Y013144D03*
X017705Y013151D03*
X017314Y013152D03*
X016919Y013151D03*
X016523Y013150D03*
X016137Y013150D03*
X015738Y013151D03*
X012590Y013535D03*
X014503Y015218D03*
X013998Y015913D03*
X013412Y015913D03*
X015066Y015913D03*
X015564Y015218D03*
X016126Y015913D03*
X016632Y015218D03*
X017194Y015913D03*
X017696Y015218D03*
X018250Y015913D03*
X018757Y015218D03*
X019312Y015913D03*
X019820Y015218D03*
X020629Y015913D03*
X021691Y015913D03*
X022762Y015913D03*
X023553Y015913D03*
X024143Y015913D03*
X024644Y015218D03*
X025203Y015913D03*
X025705Y015218D03*
X026267Y015913D03*
X026773Y015218D03*
X027324Y015913D03*
X027833Y015218D03*
X028389Y015913D03*
X028900Y015218D03*
X029452Y015913D03*
X029962Y015218D03*
X030726Y015913D03*
X031784Y015913D03*
X032782Y013540D03*
X032781Y013024D03*
X032787Y012536D03*
X032789Y012027D03*
X032789Y011519D03*
X032787Y011024D03*
X032787Y010480D03*
X028816Y011957D03*
X027237Y011949D03*
X026249Y011952D03*
X025419Y011950D03*
X025855Y013136D03*
X026256Y013133D03*
X026647Y013141D03*
X027040Y013135D03*
X027432Y013134D03*
X027827Y013134D03*
X028228Y013142D03*
X028618Y013128D03*
X029015Y013134D03*
X029405Y013134D03*
X026035Y009980D03*
X022658Y010480D03*
X022658Y011024D03*
X022658Y011529D03*
X022658Y012016D03*
X022661Y012529D03*
X022661Y013050D03*
X022663Y013550D03*
X015936Y009945D03*
X009671Y015218D03*
X009161Y015909D03*
X008603Y015218D03*
X008105Y015913D03*
X007547Y015218D03*
X007039Y015906D03*
X006485Y015218D03*
X005969Y015926D03*
X005411Y015218D03*
X004934Y015910D03*
X004351Y015218D03*
X003848Y015910D03*
X007302Y017851D03*
X005399Y020242D03*
X003280Y021237D03*
X005414Y023954D03*
X003306Y024922D03*
X005429Y027646D03*
X003305Y028694D03*
X005391Y031309D03*
X003281Y032319D03*
X005440Y034978D03*
X003286Y035941D03*
X008669Y035967D03*
X010649Y035013D03*
X013304Y035956D03*
X015466Y034857D03*
X018638Y035969D03*
X020789Y034857D03*
X023466Y035966D03*
X025540Y034855D03*
X028793Y035966D03*
X030804Y034855D03*
X028793Y032334D03*
X030794Y031235D03*
X028793Y028700D03*
X030794Y027620D03*
X028793Y024900D03*
X030794Y023836D03*
X028793Y021277D03*
X030794Y020177D03*
X027465Y017870D03*
X025536Y020177D03*
X023466Y021277D03*
X020840Y020180D03*
X018638Y021280D03*
X015488Y020180D03*
X013304Y021280D03*
X010649Y020309D03*
X008717Y021278D03*
X010649Y023997D03*
X008703Y024942D03*
X013304Y024947D03*
X015488Y023839D03*
X018638Y024903D03*
X020840Y023839D03*
X023466Y024900D03*
X025536Y023836D03*
X025536Y027620D03*
X023466Y028700D03*
X020840Y027623D03*
X018638Y028703D03*
X015488Y027623D03*
X013304Y028711D03*
X010649Y027633D03*
X008690Y028730D03*
X010649Y031375D03*
X008669Y032365D03*
X013304Y032339D03*
X015446Y031238D03*
X018638Y032334D03*
X020785Y031238D03*
X023466Y032334D03*
X025536Y031235D03*
X036312Y032334D03*
X038312Y031235D03*
X041554Y032334D03*
X043570Y031235D03*
X046405Y032334D03*
X048426Y031235D03*
X051667Y032334D03*
X053679Y031235D03*
X056541Y032334D03*
X058546Y031235D03*
X061795Y032334D03*
X063805Y031235D03*
X061795Y028700D03*
X063805Y027620D03*
X061795Y024900D03*
X063805Y023836D03*
X061795Y021277D03*
X063805Y020177D03*
X060587Y017889D03*
X060318Y015913D03*
X060827Y015218D03*
X061383Y015913D03*
X061888Y015218D03*
X062434Y015913D03*
X062956Y015218D03*
X063760Y015913D03*
X064825Y015913D03*
X065884Y015913D03*
X069227Y015913D03*
X069869Y015913D03*
X070378Y015218D03*
X070929Y015913D03*
X071441Y015218D03*
X071991Y015913D03*
X072499Y015218D03*
X073056Y015913D03*
X073565Y015218D03*
X074119Y015913D03*
X074627Y015218D03*
X075181Y015913D03*
X075690Y015218D03*
X076500Y015913D03*
X077560Y015913D03*
X078622Y015913D03*
X079447Y015913D03*
X079985Y015913D03*
X080496Y015218D03*
X081046Y015913D03*
X081553Y015218D03*
X082110Y015913D03*
X082618Y015218D03*
X083191Y015913D03*
X083668Y015218D03*
X084239Y015913D03*
X084751Y015218D03*
X085298Y015913D03*
X085805Y015218D03*
X086615Y015913D03*
X087681Y015913D03*
X088752Y015913D03*
X089572Y015913D03*
X090110Y015913D03*
X090616Y015218D03*
X091171Y015913D03*
X091683Y015218D03*
X092238Y015913D03*
X092749Y015218D03*
X093299Y015913D03*
X093810Y015218D03*
X094362Y015913D03*
X094871Y015218D03*
X095426Y015913D03*
X095935Y015218D03*
X096743Y015913D03*
X097802Y015913D03*
X098865Y015913D03*
X098867Y017767D03*
X096847Y020177D03*
X094835Y021277D03*
X091575Y020177D03*
X089569Y021277D03*
X086736Y020177D03*
X084729Y021277D03*
X081465Y020177D03*
X079457Y021277D03*
X076598Y020177D03*
X074588Y021277D03*
X071342Y020177D03*
X069337Y021277D03*
X071342Y023836D03*
X069337Y024900D03*
X074588Y024900D03*
X076598Y023836D03*
X079457Y024900D03*
X081465Y023836D03*
X084729Y024900D03*
X086736Y023836D03*
X089569Y024900D03*
X091575Y023836D03*
X094835Y024900D03*
X096847Y023836D03*
X096847Y027620D03*
X094835Y028700D03*
X091575Y027620D03*
X089569Y028700D03*
X086736Y027620D03*
X084729Y028700D03*
X081465Y027620D03*
X079457Y028700D03*
X076598Y027620D03*
X074588Y028700D03*
X071342Y027620D03*
X069337Y028700D03*
X071342Y031235D03*
X069337Y032334D03*
X071342Y034865D03*
X069337Y035966D03*
X074588Y035966D03*
X076598Y034865D03*
X079457Y035966D03*
X081465Y034865D03*
X084729Y035966D03*
X086736Y034865D03*
X089569Y035966D03*
X091575Y034865D03*
X094835Y035966D03*
X096847Y034865D03*
X094835Y032334D03*
X096847Y031235D03*
X091575Y031235D03*
X089569Y032334D03*
X086736Y031235D03*
X084729Y032334D03*
X081465Y031235D03*
X079457Y032334D03*
X076598Y031204D03*
X074588Y032334D03*
X063805Y034855D03*
X061795Y035966D03*
X058546Y034855D03*
X056541Y035966D03*
X053679Y034855D03*
X051667Y035966D03*
X048426Y034855D03*
X046405Y035966D03*
X043570Y034855D03*
X041554Y035966D03*
X038312Y034855D03*
X036312Y035966D03*
X030812Y038392D03*
X020789Y038395D03*
X010649Y038209D03*
X036312Y028700D03*
X038312Y027620D03*
X041554Y028700D03*
X043570Y027620D03*
X046405Y028700D03*
X048426Y027620D03*
X051667Y028700D03*
X053679Y027620D03*
X056541Y028700D03*
X058546Y027620D03*
X056541Y024900D03*
X058546Y023836D03*
X056541Y021277D03*
X058546Y020177D03*
X053679Y020177D03*
X051667Y021277D03*
X048426Y020177D03*
X046405Y021277D03*
X043570Y020177D03*
X041554Y021277D03*
X038312Y020177D03*
X036312Y021277D03*
X038312Y023836D03*
X036312Y024900D03*
X041554Y024900D03*
X043570Y023836D03*
X046405Y024900D03*
X048426Y023836D03*
X051667Y024900D03*
X053679Y023836D03*
X050457Y017879D03*
X050187Y015913D03*
X050699Y015218D03*
X051255Y015913D03*
X051761Y015218D03*
X052317Y015913D03*
X052822Y015218D03*
X053636Y015913D03*
X054694Y015913D03*
X055757Y015913D03*
X056607Y015913D03*
X057127Y015913D03*
X057641Y015218D03*
X058195Y015913D03*
X058705Y015218D03*
X059253Y015913D03*
X059758Y015218D03*
X059608Y013136D03*
X059214Y013136D03*
X058822Y013136D03*
X060006Y013136D03*
X060397Y013136D03*
X060790Y013136D03*
X061186Y013136D03*
X061578Y013136D03*
X061972Y013136D03*
X062365Y013136D03*
X061973Y011949D03*
X060196Y011949D03*
X059215Y011949D03*
X058425Y011956D03*
X059020Y009990D03*
X055699Y010448D03*
X055698Y011024D03*
X055698Y011519D03*
X055698Y012027D03*
X055698Y012536D03*
X055698Y013024D03*
X055698Y013540D03*
X052253Y013136D03*
X051858Y013136D03*
X051464Y013136D03*
X051071Y013136D03*
X050677Y013136D03*
X050288Y013136D03*
X049892Y013136D03*
X049502Y013136D03*
X049104Y013136D03*
X048709Y013136D03*
X048311Y011957D03*
X049103Y011949D03*
X050084Y011949D03*
X051857Y011949D03*
X048904Y009931D03*
X045606Y010456D03*
X045598Y011024D03*
X045598Y011519D03*
X045598Y012027D03*
X045598Y012536D03*
X045598Y013024D03*
X045598Y013540D03*
X047517Y015218D03*
X047006Y015913D03*
X046450Y015913D03*
X045615Y015913D03*
X044566Y015913D03*
X043498Y015913D03*
X042695Y015218D03*
X042189Y015913D03*
X041632Y015218D03*
X041119Y015913D03*
X040569Y015218D03*
X040056Y015913D03*
X039506Y015218D03*
X038992Y015913D03*
X038447Y015218D03*
X037934Y015913D03*
X037382Y015218D03*
X036867Y015913D03*
X035968Y015913D03*
X040325Y017866D03*
X048064Y015913D03*
X048569Y015218D03*
X049125Y015913D03*
X049627Y015218D03*
X042100Y013136D03*
X041710Y013136D03*
X041316Y013136D03*
X040919Y013136D03*
X040527Y013136D03*
X040134Y013136D03*
X039739Y013136D03*
X039344Y013136D03*
X038953Y013136D03*
X038561Y013136D03*
X038161Y011968D03*
X038956Y011949D03*
X039935Y011949D03*
X041710Y011949D03*
X038756Y009889D03*
X017424Y017873D03*
X011534Y015918D03*
X010468Y015929D03*
X043570Y038392D03*
X053679Y038392D03*
X063805Y038392D03*
X076598Y038319D03*
X086736Y038336D03*
X096847Y038486D03*
X093480Y017963D03*
X088741Y017703D03*
X083349Y017978D03*
X078624Y017789D03*
X073248Y017912D03*
X078784Y013540D03*
X078784Y013024D03*
X078784Y012536D03*
X078784Y012027D03*
X078784Y011519D03*
X078784Y011024D03*
X078779Y010456D03*
X081291Y011956D03*
X082072Y011949D03*
X083051Y011949D03*
X084828Y011949D03*
X084826Y013136D03*
X084435Y013136D03*
X084040Y013136D03*
X083648Y013136D03*
X083252Y013136D03*
X082857Y013136D03*
X082464Y013136D03*
X082068Y013136D03*
X081678Y013136D03*
X085220Y013136D03*
X088907Y013024D03*
X088907Y012536D03*
X088907Y012027D03*
X088907Y011519D03*
X088907Y011024D03*
X088908Y010471D03*
X091417Y011954D03*
X092205Y011949D03*
X093189Y011949D03*
X094767Y011949D03*
X094961Y013136D03*
X094568Y013136D03*
X094175Y013136D03*
X093780Y013136D03*
X093386Y013136D03*
X092990Y013136D03*
X092601Y013136D03*
X092205Y013136D03*
X091808Y013136D03*
X088907Y013540D03*
X092010Y009812D03*
X096752Y010208D03*
X099096Y010536D03*
X099094Y011024D03*
X099094Y011519D03*
X099094Y012027D03*
X099094Y012536D03*
X099094Y013024D03*
X099094Y013540D03*
X095359Y013136D03*
X081875Y009881D03*
X075099Y013136D03*
X074708Y013136D03*
X074314Y013136D03*
X073918Y013136D03*
X073524Y013136D03*
X073136Y013136D03*
X072739Y013136D03*
X072346Y013136D03*
X071950Y013136D03*
X071554Y013136D03*
X071169Y011953D03*
X071951Y011949D03*
X072932Y011949D03*
X074701Y011949D03*
X071754Y009853D03*
X066032Y010434D03*
X066030Y011024D03*
X066030Y011519D03*
X066030Y012027D03*
X066030Y012536D03*
X066030Y013024D03*
X066030Y013540D03*
D17*
X063354Y015046D02*
X062365Y014057D01*
X062365Y013136D01*
X061578Y013136D02*
X061578Y014375D01*
X062942Y015739D01*
X062942Y026757D01*
X063805Y027620D01*
X062432Y029862D02*
X062432Y018442D01*
X061740Y017750D01*
X061740Y015723D01*
X061537Y015519D01*
X061537Y014686D01*
X061194Y014343D01*
X061194Y013143D01*
X061186Y013136D01*
X060790Y013136D02*
X060790Y014333D01*
X061216Y014760D01*
X061216Y015504D01*
X060979Y015741D01*
X060979Y017447D01*
X061464Y017931D01*
X061464Y032514D01*
X063805Y034855D01*
X061211Y036573D02*
X061211Y018056D01*
X060697Y017542D01*
X060697Y015732D01*
X060461Y015496D01*
X060461Y013199D01*
X060460Y013199D02*
X060458Y013185D01*
X060454Y013172D01*
X060446Y013160D01*
X060436Y013150D01*
X060424Y013142D01*
X060411Y013138D01*
X060397Y013136D01*
X060006Y013136D02*
X060002Y013140D01*
X060002Y013372D01*
X060120Y013490D01*
X060120Y015529D01*
X059940Y015709D01*
X059940Y018783D01*
X058546Y020177D01*
X058172Y018867D02*
X059640Y017399D01*
X059640Y015710D01*
X059383Y015452D01*
X059383Y014737D01*
X059608Y014511D01*
X059608Y013136D01*
X059214Y013136D02*
X059214Y014436D01*
X059079Y014572D01*
X059079Y015478D01*
X058874Y015684D01*
X058874Y017768D01*
X057872Y018769D01*
X057872Y026947D01*
X058546Y027620D01*
X057583Y030273D02*
X058546Y031235D01*
X056969Y031905D02*
X056969Y016702D01*
X057545Y016126D01*
X057545Y015314D01*
X057641Y015218D01*
X058006Y015498D02*
X058006Y012375D01*
X058425Y011956D01*
X058822Y013136D02*
X058333Y013624D01*
X058333Y015469D01*
X058568Y015704D01*
X058568Y017650D01*
X057583Y018635D01*
X057583Y030273D01*
X056969Y031905D02*
X056541Y032334D01*
X057268Y033577D02*
X058546Y034855D01*
X057268Y033577D02*
X057268Y016849D01*
X057837Y016280D01*
X057837Y015667D01*
X058006Y015498D01*
X057127Y015913D02*
X056151Y016889D01*
X056151Y017007D01*
X056151Y017280D01*
X056151Y035576D01*
X053679Y034855D02*
X051353Y032529D01*
X051353Y017860D01*
X050876Y017383D01*
X050876Y015727D01*
X051078Y015525D01*
X051078Y014817D01*
X050677Y014417D01*
X050677Y013136D01*
X050288Y013136D02*
X050288Y015432D01*
X050561Y015705D01*
X050561Y017468D01*
X051080Y017987D01*
X051080Y036595D01*
X052877Y038392D01*
X053679Y038392D01*
X048426Y034855D02*
X047146Y033575D01*
X047146Y016857D01*
X047704Y016299D01*
X047704Y015669D01*
X047920Y015453D01*
X047920Y012348D01*
X048311Y011957D01*
X048709Y013136D02*
X048211Y013634D01*
X048211Y015436D01*
X048472Y015697D01*
X048472Y017706D01*
X047445Y018732D01*
X047445Y030255D01*
X048426Y031235D01*
X046829Y031909D02*
X046405Y032334D01*
X046829Y031909D02*
X046829Y016718D01*
X047402Y016145D01*
X047402Y015333D01*
X047517Y015218D01*
X047006Y015913D02*
X046020Y016900D01*
X046020Y017017D01*
X046020Y017250D01*
X046020Y035581D01*
X043570Y034855D02*
X041207Y032492D01*
X041207Y017883D01*
X040719Y017395D01*
X040719Y015712D01*
X040972Y015458D01*
X040972Y014848D01*
X040527Y014402D01*
X040527Y013136D01*
X040896Y013159D02*
X040919Y013136D01*
X040896Y013159D02*
X040896Y014359D01*
X041268Y014732D01*
X041268Y015467D01*
X041518Y015717D01*
X041518Y017336D01*
X042153Y017971D01*
X042153Y029819D01*
X043570Y031235D01*
X038312Y031235D02*
X037366Y030289D01*
X037366Y018741D01*
X038310Y017797D01*
X038310Y015720D01*
X038084Y015495D01*
X038084Y013613D01*
X038561Y013136D01*
X038953Y013136D02*
X038953Y014669D01*
X038822Y014799D01*
X038822Y015516D01*
X038603Y015736D01*
X038603Y017859D01*
X037671Y018791D01*
X037671Y026979D01*
X038312Y027620D01*
X037671Y026986D02*
X037671Y026979D01*
X042675Y026726D02*
X042675Y015721D01*
X041316Y014361D01*
X041316Y013136D01*
X042100Y013136D02*
X042100Y014021D01*
X043097Y015019D01*
X043097Y019704D01*
X043570Y020177D01*
X047744Y018821D02*
X048748Y017817D01*
X048748Y015674D01*
X048957Y015465D01*
X048957Y014605D01*
X049104Y014458D01*
X049104Y013136D01*
X049502Y013136D02*
X049502Y014484D01*
X049255Y014731D01*
X049255Y015444D01*
X049504Y015693D01*
X049504Y017455D01*
X048044Y018915D01*
X048044Y023454D01*
X048426Y023836D01*
X047744Y026939D02*
X048426Y027620D01*
X047744Y026939D02*
X047744Y018821D01*
X048426Y020177D02*
X049822Y018780D01*
X049822Y015688D01*
X049990Y015520D01*
X049990Y013439D01*
X049900Y013349D01*
X049900Y013144D01*
X049892Y013136D01*
X051071Y013136D02*
X051071Y014372D01*
X051396Y014697D01*
X051396Y015477D01*
X051653Y015734D01*
X051653Y017685D01*
X052331Y018363D01*
X052331Y029887D01*
X053679Y031235D01*
X053679Y027620D02*
X052792Y026734D01*
X052792Y015722D01*
X051464Y014394D01*
X051464Y013136D01*
X052253Y013136D02*
X052253Y013975D01*
X053230Y014953D01*
X053230Y019728D01*
X053679Y020177D01*
X058172Y018867D02*
X058172Y023462D01*
X058546Y023836D01*
X063354Y019726D02*
X063805Y020177D01*
X063354Y019726D02*
X063354Y015046D01*
X068884Y016898D02*
X068884Y017016D01*
X068884Y017126D01*
X068884Y035513D01*
X070044Y033567D02*
X071342Y034865D01*
X070044Y033567D02*
X070044Y016809D01*
X070555Y016298D01*
X070555Y015703D01*
X070755Y015503D01*
X070755Y012367D01*
X071169Y011953D01*
X071554Y013136D02*
X071076Y013614D01*
X071076Y015480D01*
X071312Y015716D01*
X071312Y017749D01*
X070343Y018719D01*
X070343Y030236D01*
X071342Y031235D01*
X069728Y031942D02*
X069337Y032334D01*
X069728Y031942D02*
X069728Y016680D01*
X070264Y016144D01*
X070264Y015332D01*
X070378Y015218D01*
X069869Y015913D02*
X068884Y016898D01*
X070635Y018829D02*
X071616Y017847D01*
X071616Y015697D01*
X071812Y015501D01*
X071812Y014625D01*
X071950Y014487D01*
X071950Y013136D01*
X072346Y013136D02*
X072346Y014618D01*
X072119Y014845D01*
X072119Y015459D01*
X072355Y015695D01*
X072355Y017518D01*
X070927Y018946D01*
X070927Y023422D01*
X071342Y023836D01*
X070635Y026913D02*
X071342Y027620D01*
X070635Y026913D02*
X070635Y018829D01*
X071342Y020177D02*
X072661Y018858D01*
X072661Y015670D01*
X072858Y015473D01*
X072858Y013570D01*
X072743Y013455D01*
X072743Y013140D01*
X072739Y013136D01*
X073136Y013136D02*
X073218Y013218D01*
X073218Y015474D01*
X073432Y015688D01*
X073432Y017579D01*
X073966Y018112D01*
X073966Y036610D01*
X075675Y038319D01*
X076598Y038319D01*
X078979Y035488D02*
X079457Y035966D01*
X078979Y035488D02*
X078979Y016919D01*
X079985Y015913D01*
X080397Y016130D02*
X080397Y015317D01*
X080496Y015218D01*
X080861Y015523D02*
X080861Y012386D01*
X081291Y011956D01*
X081678Y013136D02*
X081186Y013628D01*
X081186Y015492D01*
X081423Y015729D01*
X081423Y017723D01*
X080497Y018649D01*
X080497Y030267D01*
X081465Y031235D01*
X079893Y031898D02*
X079457Y032334D01*
X079893Y031898D02*
X079893Y016633D01*
X080397Y016130D01*
X080664Y016288D02*
X080191Y016761D01*
X080191Y033591D01*
X081465Y034865D01*
X084090Y036585D02*
X084090Y018055D01*
X083547Y017512D01*
X083547Y015756D01*
X083252Y015461D01*
X083252Y013136D01*
X082858Y013137D02*
X082857Y013136D01*
X082858Y013137D02*
X082858Y013445D01*
X082973Y013561D01*
X082973Y015548D01*
X082792Y015730D01*
X082792Y018850D01*
X081465Y020177D01*
X081083Y018881D02*
X082497Y017468D01*
X082497Y015739D01*
X082236Y015478D01*
X082236Y014664D01*
X082464Y014436D01*
X082464Y013136D01*
X082068Y013136D02*
X082068Y014345D01*
X081930Y014483D01*
X081930Y015492D01*
X081715Y015707D01*
X081715Y017831D01*
X080789Y018757D01*
X080789Y026945D01*
X081465Y027620D01*
X085847Y026732D02*
X085847Y015784D01*
X084435Y014371D01*
X084435Y013136D01*
X084040Y013136D02*
X084008Y013168D01*
X084008Y014402D01*
X084376Y014770D01*
X084376Y015522D01*
X084622Y015768D01*
X084622Y017614D01*
X085412Y018404D01*
X085412Y029912D01*
X086736Y031235D01*
X084384Y032514D02*
X084384Y017882D01*
X083837Y017335D01*
X083837Y015759D01*
X084067Y015530D01*
X084067Y014946D01*
X083648Y014527D01*
X083648Y013136D01*
X085220Y013136D02*
X085220Y013980D01*
X086209Y014969D01*
X086209Y019650D01*
X086736Y020177D01*
X090608Y018678D02*
X091551Y017735D01*
X091551Y015716D01*
X091308Y015472D01*
X091308Y013636D01*
X091808Y013136D01*
X092205Y013136D02*
X092205Y014328D01*
X092078Y014455D01*
X092078Y015457D01*
X091845Y015689D01*
X091845Y017824D01*
X090899Y018770D01*
X090899Y026944D01*
X091575Y027620D01*
X090608Y030268D02*
X091575Y031235D01*
X089985Y031917D02*
X089985Y016661D01*
X090508Y016139D01*
X090508Y015327D01*
X090616Y015218D01*
X090982Y015503D02*
X090982Y012389D01*
X091417Y011954D01*
X092601Y013136D02*
X092601Y014356D01*
X092361Y014595D01*
X092361Y015442D01*
X092626Y015706D01*
X092626Y017428D01*
X091187Y018867D01*
X091187Y023448D01*
X091575Y023836D01*
X095937Y026711D02*
X095937Y015744D01*
X094568Y014375D01*
X094568Y013136D01*
X094175Y013136D02*
X094175Y014449D01*
X094527Y014800D01*
X094527Y015515D01*
X094741Y015729D01*
X094741Y017712D01*
X095447Y018418D01*
X095447Y029835D01*
X096847Y031235D01*
X094502Y032520D02*
X094502Y017937D01*
X093988Y017423D01*
X093988Y015717D01*
X094235Y015470D01*
X094235Y014982D01*
X093780Y014527D01*
X093780Y013136D01*
X093386Y013136D02*
X093386Y015469D01*
X093691Y015774D01*
X093691Y017564D01*
X094216Y018089D01*
X094216Y036563D01*
X096139Y038486D01*
X096847Y038486D01*
X089569Y035966D02*
X089118Y035516D01*
X089118Y017211D01*
X089118Y017022D01*
X089118Y016905D01*
X090110Y015913D01*
X090791Y015694D02*
X090791Y016321D01*
X090308Y016804D01*
X090308Y033598D01*
X091575Y034865D01*
X089569Y032334D02*
X089985Y031917D01*
X090608Y030268D02*
X090608Y018678D01*
X091575Y020177D02*
X092926Y018825D01*
X092926Y015713D01*
X093101Y015539D01*
X093101Y013547D01*
X092990Y013437D01*
X092990Y013136D01*
X095359Y013136D02*
X095359Y014125D01*
X096350Y015116D01*
X096350Y019680D01*
X096847Y020177D01*
X090982Y015503D02*
X090791Y015694D01*
X080861Y015523D02*
X080664Y015720D01*
X080664Y016288D01*
X081083Y018881D02*
X081083Y023455D01*
X081465Y023836D01*
X085847Y026732D02*
X086736Y027620D01*
X084384Y032514D02*
X086736Y034865D01*
X084090Y036585D02*
X085841Y038336D01*
X086736Y038336D01*
X094502Y032520D02*
X096847Y034865D01*
X096847Y027620D02*
X095937Y026711D01*
X076598Y027620D02*
X075669Y026691D01*
X075669Y015720D01*
X074314Y014365D01*
X074314Y013136D01*
X073918Y013136D02*
X073902Y013151D01*
X073902Y014401D01*
X074269Y014768D01*
X074269Y015515D01*
X074517Y015763D01*
X074517Y017484D01*
X075187Y018155D01*
X075187Y029793D01*
X076598Y031204D01*
X074249Y032516D02*
X074249Y017932D01*
X073718Y017401D01*
X073718Y015717D01*
X073915Y015520D01*
X073915Y014833D01*
X073524Y014442D01*
X073524Y013136D01*
X075099Y013136D02*
X075099Y014053D01*
X076100Y015053D01*
X076100Y019678D01*
X076598Y020177D01*
X063805Y031235D02*
X062432Y029862D01*
X061211Y036573D02*
X063030Y038392D01*
X063805Y038392D01*
X074249Y032516D02*
X076598Y034865D01*
X043570Y038392D02*
X042749Y038392D01*
X040945Y036588D01*
X040945Y018039D01*
X040404Y017497D01*
X040404Y015719D01*
X040134Y015449D01*
X040134Y013136D01*
X039745Y013142D02*
X039739Y013136D01*
X039745Y013142D02*
X039745Y013352D01*
X039883Y013490D01*
X039883Y015492D01*
X039665Y015710D01*
X039665Y018824D01*
X038312Y020177D01*
X037951Y018869D02*
X039366Y017454D01*
X039366Y015717D01*
X039142Y015492D01*
X039142Y014970D01*
X039344Y014768D01*
X039344Y013136D01*
X038161Y011968D02*
X037771Y012358D01*
X037771Y015496D01*
X037528Y015739D01*
X037528Y016320D01*
X037050Y016798D01*
X037050Y033592D01*
X038312Y034855D01*
X035943Y035598D02*
X035943Y016836D01*
X036867Y015913D01*
X037247Y016166D02*
X037247Y015353D01*
X037382Y015218D01*
X037247Y016166D02*
X036729Y016683D01*
X036729Y031916D01*
X036312Y032334D01*
X030794Y031235D02*
X029318Y029760D01*
X029318Y016299D01*
X028543Y015523D01*
X028543Y014769D01*
X028230Y014456D01*
X028230Y013144D01*
X028228Y013142D01*
X027874Y013182D02*
X027827Y013134D01*
X027874Y013182D02*
X027874Y014605D01*
X028211Y014942D01*
X028211Y015542D01*
X028011Y015742D01*
X028011Y017325D01*
X028418Y017733D01*
X028418Y032469D01*
X030804Y034855D01*
X028132Y036436D02*
X030088Y038392D01*
X030812Y038392D01*
X028132Y036436D02*
X028132Y017861D01*
X027689Y017418D01*
X027689Y015741D01*
X027475Y015527D01*
X027475Y013134D01*
X027432Y013134D01*
X027134Y013229D02*
X027040Y013135D01*
X027134Y013229D02*
X027134Y015558D01*
X026957Y015735D01*
X026957Y018756D01*
X025536Y020177D01*
X025112Y019008D02*
X026648Y017471D01*
X026648Y015748D01*
X026410Y015510D01*
X026410Y014876D01*
X026647Y014639D01*
X026647Y013141D01*
X026256Y013133D02*
X026256Y014529D01*
X026080Y014705D01*
X026080Y015531D01*
X025889Y015722D01*
X025889Y017859D01*
X024786Y018962D01*
X024786Y026870D01*
X025536Y027620D01*
X024471Y030170D02*
X025536Y031235D01*
X023850Y031949D02*
X023850Y016824D01*
X024521Y016154D01*
X024521Y015341D01*
X024644Y015218D01*
X025021Y015521D02*
X025021Y012347D01*
X025419Y011950D01*
X025855Y013136D02*
X025349Y013642D01*
X025349Y015516D01*
X025559Y015727D01*
X025559Y017792D01*
X024471Y018881D01*
X024471Y030170D01*
X023850Y031949D02*
X023466Y032334D01*
X024155Y033470D02*
X025540Y034855D01*
X024155Y033470D02*
X024155Y016957D01*
X024817Y016295D01*
X024817Y015724D01*
X025021Y015521D01*
X024143Y015913D02*
X023143Y016913D01*
X023143Y035643D01*
X020789Y034857D02*
X018320Y032389D01*
X018320Y017742D01*
X017872Y017294D01*
X017872Y015703D01*
X018059Y015516D01*
X018059Y014850D01*
X017705Y014496D01*
X017705Y013151D01*
X017359Y013152D02*
X017314Y013152D01*
X017359Y013152D02*
X017359Y015516D01*
X017556Y015712D01*
X017556Y017411D01*
X018068Y017923D01*
X018068Y036226D01*
X020236Y038395D01*
X020789Y038395D01*
X015466Y034857D02*
X014087Y033479D01*
X014087Y016916D01*
X014693Y016310D01*
X014693Y015686D01*
X014869Y015510D01*
X014867Y015508D01*
X014867Y012334D01*
X015250Y011951D01*
X013415Y011215D02*
X014685Y009945D01*
X015936Y009945D01*
X013415Y011215D02*
X013412Y015913D01*
X013998Y015913D02*
X012930Y016981D01*
X012930Y035583D01*
X013304Y035956D01*
X010630Y035013D02*
X008337Y032720D01*
X008337Y017621D01*
X007743Y017027D01*
X007743Y015676D01*
X007930Y015489D01*
X007930Y015095D01*
X007566Y014730D01*
X007566Y013128D01*
X007189Y013140D02*
X007170Y013140D01*
X007189Y013140D02*
X007189Y015455D01*
X007424Y015691D01*
X007424Y017213D01*
X008020Y017809D01*
X008020Y036299D01*
X009930Y038209D01*
X010649Y038209D01*
X005440Y034978D02*
X004105Y033642D01*
X004105Y016968D01*
X004504Y016569D01*
X004504Y015668D01*
X004695Y015477D01*
X004695Y012339D01*
X005085Y011949D01*
X005370Y013140D02*
X005601Y013140D01*
X005370Y013140D02*
X005063Y013329D01*
X005063Y015447D01*
X005300Y015684D01*
X005300Y016943D01*
X004464Y017779D01*
X004464Y030383D01*
X005391Y031309D01*
X003746Y031854D02*
X003746Y016631D01*
X004209Y016168D01*
X004209Y015478D01*
X004351Y015218D01*
X003848Y015910D02*
X002863Y016895D01*
X002863Y035518D01*
X003286Y035941D01*
X003281Y032319D02*
X003746Y031854D01*
X009173Y029901D02*
X009173Y016403D01*
X008248Y015479D01*
X008248Y015012D01*
X007955Y014719D01*
X007955Y013138D01*
X008352Y013132D02*
X008352Y014420D01*
X009589Y015657D01*
X009589Y026590D01*
X010632Y027633D01*
X009173Y029901D02*
X010647Y031375D01*
X013304Y032339D02*
X013726Y031916D01*
X013726Y016801D01*
X014393Y016134D01*
X014393Y015329D01*
X014503Y015218D01*
X015207Y015474D02*
X015434Y015702D01*
X015434Y017723D01*
X014430Y018727D01*
X014430Y030222D01*
X015446Y031238D01*
X019254Y029707D02*
X019254Y016329D01*
X019079Y016154D01*
X019035Y016110D01*
X018403Y015477D01*
X018403Y014747D01*
X018101Y014446D01*
X018101Y013144D01*
X018485Y013164D02*
X018497Y013151D01*
X018485Y013164D02*
X018485Y014411D01*
X019826Y015752D01*
X019826Y026609D01*
X020840Y027623D01*
X019254Y029707D02*
X020785Y031238D01*
X015488Y027623D02*
X014765Y026901D01*
X014765Y018798D01*
X015735Y017827D01*
X015735Y015704D01*
X015972Y015467D01*
X015972Y014664D01*
X016137Y014499D01*
X016137Y013150D01*
X016523Y013150D02*
X016523Y014569D01*
X016261Y014830D01*
X016261Y015461D01*
X016507Y015708D01*
X016507Y017443D01*
X015093Y018857D01*
X015093Y023445D01*
X015488Y023839D01*
X015488Y020180D02*
X016824Y018843D01*
X016824Y015697D01*
X016990Y015532D01*
X016990Y013222D01*
X016919Y013151D01*
X015738Y013151D02*
X015207Y013683D01*
X015207Y015474D01*
X019283Y013982D02*
X019283Y013158D01*
X019277Y013152D01*
X019283Y013982D02*
X020211Y014910D01*
X020211Y019550D01*
X025112Y019008D02*
X025112Y023411D01*
X025536Y023836D01*
X029904Y026730D02*
X029904Y015650D01*
X028618Y014364D01*
X028618Y013128D01*
X029405Y013134D02*
X029405Y014167D01*
X030306Y015068D01*
X030306Y019689D01*
X030794Y020177D01*
X037951Y018869D02*
X037951Y023475D01*
X038312Y023836D01*
X042675Y026726D02*
X043570Y027620D01*
X030794Y027620D02*
X029904Y026730D01*
X010649Y020309D02*
X010055Y019715D01*
X010055Y015094D01*
X009146Y014185D01*
X009146Y013130D01*
X006853Y013210D02*
X006782Y013138D01*
X006853Y013210D02*
X006853Y015485D01*
X006659Y015679D01*
X006659Y018982D01*
X005399Y020242D01*
X005045Y018225D02*
X006327Y016943D01*
X006327Y015674D01*
X006135Y015482D01*
X006135Y015028D01*
X006387Y014776D01*
X006387Y013142D01*
X005992Y013143D02*
X005992Y014676D01*
X005760Y014907D01*
X005760Y015491D01*
X005603Y015648D01*
X005603Y017176D01*
X004768Y018011D01*
X004768Y026986D01*
X005429Y027646D01*
X005414Y023954D02*
X005045Y023585D01*
X005045Y018225D01*
D18*
X005420Y019027D03*
X005405Y021232D03*
X005425Y022705D03*
X005413Y024910D03*
X005433Y026469D03*
X005422Y028671D03*
X005429Y030104D03*
X005419Y032308D03*
X005439Y033728D03*
X005444Y035933D03*
X005406Y037279D03*
X005434Y039487D03*
X005286Y040419D03*
X005294Y041235D03*
X005854Y041230D03*
X006465Y041235D03*
X006999Y041236D03*
X007633Y041237D03*
X008758Y041235D03*
X009379Y041242D03*
X009935Y041240D03*
X010559Y041246D03*
X011086Y041246D03*
X011713Y041246D03*
X010649Y039517D03*
X010649Y037319D03*
X010649Y035970D03*
X010649Y033765D03*
X010649Y032349D03*
X010649Y030142D03*
X010649Y028706D03*
X010649Y026497D03*
X010649Y024947D03*
X010649Y022743D03*
X010649Y021278D03*
X010649Y019071D03*
X010649Y018327D03*
X010481Y017814D03*
X015506Y019074D03*
X015498Y021278D03*
X015508Y022746D03*
X015504Y024950D03*
X015508Y026508D03*
X015494Y028713D03*
X015499Y030127D03*
X015483Y032327D03*
X015496Y033754D03*
X015488Y035958D03*
X015490Y037333D03*
X015487Y039531D03*
X015496Y040433D03*
X015383Y041254D03*
X016008Y041254D03*
X016559Y041254D03*
X017175Y041254D03*
X017716Y041254D03*
X018893Y041254D03*
X019511Y041254D03*
X020051Y041254D03*
X020686Y041254D03*
X021230Y041254D03*
X021842Y041254D03*
X020783Y039530D03*
X020795Y037326D03*
X020778Y035971D03*
X020789Y033766D03*
X020774Y032341D03*
X020785Y030136D03*
X020844Y028724D03*
X020839Y026521D03*
X020844Y024941D03*
X020845Y022737D03*
X020858Y021282D03*
X020840Y019077D03*
X020840Y018353D03*
X020619Y017800D03*
X022748Y017728D03*
X025536Y019074D03*
X025536Y021279D03*
X025536Y022734D03*
X025536Y024938D03*
X025536Y026518D03*
X025536Y028723D03*
X025536Y030133D03*
X025536Y032338D03*
X025536Y033763D03*
X025536Y035968D03*
X025536Y037289D03*
X025536Y039494D03*
X025535Y040435D03*
X025494Y041251D03*
X026122Y041251D03*
X026661Y041251D03*
X027285Y041251D03*
X027837Y041251D03*
X028996Y041251D03*
X029628Y041251D03*
X030172Y041251D03*
X030785Y041251D03*
X031328Y041251D03*
X031963Y041251D03*
X030794Y039494D03*
X030794Y037289D03*
X030794Y035968D03*
X030794Y033763D03*
X030794Y032338D03*
X030794Y030133D03*
X030794Y028723D03*
X030794Y026518D03*
X030794Y024938D03*
X030794Y022734D03*
X030794Y021279D03*
X030794Y019074D03*
X030794Y018316D03*
X030731Y017790D03*
X032861Y017728D03*
X032861Y015913D03*
X032205Y014537D03*
X038312Y019074D03*
X038312Y021279D03*
X038312Y022734D03*
X038312Y024938D03*
X038312Y026518D03*
X038312Y028723D03*
X038312Y030133D03*
X038312Y032338D03*
X038312Y033763D03*
X038312Y035968D03*
X038312Y037289D03*
X038312Y039494D03*
X038318Y040452D03*
X038274Y041251D03*
X038903Y041251D03*
X039444Y041251D03*
X040074Y041251D03*
X040607Y041251D03*
X041783Y041251D03*
X042406Y041251D03*
X042942Y041251D03*
X043573Y041251D03*
X044118Y041251D03*
X044747Y041251D03*
X043570Y039494D03*
X043570Y037289D03*
X043570Y035968D03*
X043570Y033763D03*
X043570Y032338D03*
X043570Y030133D03*
X043570Y028723D03*
X043570Y026518D03*
X043570Y024938D03*
X043570Y022734D03*
X043570Y021279D03*
X043570Y019074D03*
X043573Y018305D03*
X043502Y017731D03*
X045578Y017839D03*
X048426Y019074D03*
X048426Y021279D03*
X048426Y022734D03*
X048426Y024938D03*
X048426Y026518D03*
X048426Y028723D03*
X048426Y030133D03*
X048426Y032338D03*
X048426Y033763D03*
X048426Y035968D03*
X048426Y037289D03*
X048426Y039494D03*
X048432Y040374D03*
X048402Y041251D03*
X049028Y041251D03*
X049567Y041251D03*
X050193Y041251D03*
X050732Y041251D03*
X051911Y041251D03*
X052537Y041251D03*
X053067Y041251D03*
X053698Y041251D03*
X054240Y041251D03*
X054867Y041251D03*
X053679Y039497D03*
X053679Y037289D03*
X053679Y035968D03*
X053679Y033763D03*
X053679Y032338D03*
X053679Y030133D03*
X053679Y028723D03*
X053679Y026518D03*
X053679Y024938D03*
X053679Y022734D03*
X053679Y021279D03*
X053679Y019074D03*
X053690Y018277D03*
X053630Y017673D03*
X055795Y017793D03*
X058546Y019074D03*
X058546Y021279D03*
X058546Y022734D03*
X058546Y024938D03*
X058546Y026518D03*
X058546Y028723D03*
X058546Y030133D03*
X058546Y032338D03*
X058546Y033763D03*
X058546Y035968D03*
X058546Y037289D03*
X058546Y039496D03*
X058545Y040390D03*
X058530Y041251D03*
X059159Y041251D03*
X059686Y041251D03*
X060320Y041251D03*
X060856Y041251D03*
X062027Y041251D03*
X062656Y041251D03*
X063193Y041251D03*
X063830Y041251D03*
X064365Y041251D03*
X064988Y041251D03*
X063805Y039496D03*
X063805Y037289D03*
X063805Y035968D03*
X063805Y033763D03*
X063805Y032338D03*
X063805Y030133D03*
X063805Y028723D03*
X063805Y026518D03*
X063805Y024938D03*
X063805Y022734D03*
X063805Y021279D03*
X063805Y019074D03*
X063797Y018311D03*
X063760Y017701D03*
X065849Y017947D03*
X071342Y019074D03*
X071342Y021279D03*
X071342Y022734D03*
X071342Y024938D03*
X071342Y026518D03*
X071342Y028723D03*
X071342Y030133D03*
X071342Y032338D03*
X071342Y033763D03*
X071342Y035968D03*
X071342Y037289D03*
X071342Y039494D03*
X071358Y040492D03*
X071301Y041251D03*
X071929Y041251D03*
X072470Y041251D03*
X073097Y041251D03*
X073636Y041251D03*
X074808Y041251D03*
X075431Y041251D03*
X075974Y041251D03*
X076605Y041251D03*
X077139Y041251D03*
X077770Y041251D03*
X076598Y039494D03*
X076598Y037289D03*
X076598Y035968D03*
X076598Y033763D03*
X076598Y032338D03*
X076598Y030133D03*
X076598Y028723D03*
X076598Y026518D03*
X076598Y024938D03*
X076598Y022734D03*
X076598Y021279D03*
X076598Y019074D03*
X076598Y018229D03*
X076497Y017677D03*
X081465Y019074D03*
X081465Y021279D03*
X081465Y022734D03*
X081465Y024938D03*
X081465Y026518D03*
X081465Y028723D03*
X081465Y030133D03*
X081465Y032338D03*
X081465Y033763D03*
X081465Y035968D03*
X081465Y037289D03*
X081465Y039494D03*
X081467Y040461D03*
X081433Y041251D03*
X082058Y041251D03*
X082601Y041251D03*
X083225Y041251D03*
X083762Y041251D03*
X084928Y041251D03*
X085552Y041251D03*
X086092Y041251D03*
X086718Y041251D03*
X087263Y041251D03*
X087891Y041251D03*
X086736Y039494D03*
X086736Y037289D03*
X086736Y035968D03*
X086736Y033763D03*
X086736Y032338D03*
X086736Y030133D03*
X086736Y028723D03*
X086736Y026518D03*
X086736Y024938D03*
X086736Y022734D03*
X086736Y021279D03*
X086736Y019074D03*
X086734Y018273D03*
X086615Y017704D03*
X091575Y019074D03*
X091575Y021279D03*
X091575Y022734D03*
X091575Y024938D03*
X091575Y026518D03*
X091575Y028723D03*
X091575Y030133D03*
X091575Y032338D03*
X091575Y033763D03*
X091575Y035968D03*
X091575Y037289D03*
X091575Y039494D03*
X091568Y040473D03*
X091546Y041251D03*
X092178Y041251D03*
X092717Y041251D03*
X093348Y041251D03*
X093882Y041251D03*
X095053Y041251D03*
X095681Y041251D03*
X096221Y041251D03*
X096848Y041251D03*
X097393Y041251D03*
X098014Y041251D03*
X096847Y039494D03*
X096847Y037289D03*
X096847Y035968D03*
X096847Y033763D03*
X096847Y032338D03*
X096847Y030133D03*
X096847Y028723D03*
X096847Y026518D03*
X096847Y024938D03*
X096847Y022734D03*
X096847Y021279D03*
X096847Y019074D03*
X096849Y018296D03*
X096740Y017728D03*
X098193Y014531D03*
X088078Y014524D03*
X078027Y014524D03*
X065267Y014533D03*
X055120Y014524D03*
X044949Y014539D03*
X022120Y014527D03*
X011995Y014536D03*
X013245Y043990D03*
X014523Y045791D03*
X023424Y043993D03*
X023900Y045796D03*
X033566Y043995D03*
X037431Y045660D03*
X046209Y043991D03*
X047545Y045660D03*
X056411Y043989D03*
X057665Y045660D03*
X066615Y043994D03*
X070449Y045660D03*
X079271Y043987D03*
X080570Y045660D03*
X089401Y043994D03*
X090702Y045660D03*
X099628Y043988D03*
X004388Y045660D03*
D19*
X005854Y041230D02*
X005854Y032743D01*
X005419Y032308D01*
X006465Y029714D02*
X006465Y041235D01*
X006999Y041236D02*
X006999Y026496D01*
X005413Y024910D01*
X007627Y023454D02*
X007633Y041237D01*
X009935Y041240D02*
X009935Y040861D01*
X011155Y039640D01*
X011155Y029212D01*
X010649Y028706D01*
X010649Y028719D01*
X006465Y029714D02*
X005422Y028671D01*
X010649Y024947D02*
X011636Y025933D01*
X011636Y039705D01*
X010559Y040782D01*
X010559Y041246D01*
X011086Y041246D02*
X011087Y041246D01*
X011087Y040853D01*
X012102Y039837D01*
X012102Y022731D01*
X010649Y021278D01*
X012586Y020509D02*
X012586Y020278D01*
X012586Y020264D01*
X010649Y018327D01*
X010481Y017814D02*
X011992Y016304D01*
X011995Y014536D01*
X020619Y017800D02*
X022116Y016303D01*
X022120Y014527D01*
X020840Y018353D02*
X022742Y020255D01*
X022742Y040353D01*
X021842Y041254D01*
X021230Y041254D02*
X021230Y040980D01*
X022311Y039898D01*
X022311Y022735D01*
X020858Y021282D01*
X017716Y023496D02*
X015498Y021278D01*
X012586Y020509D02*
X012586Y040373D01*
X011713Y041246D01*
X015015Y040886D02*
X015015Y036430D01*
X015488Y035958D01*
X016008Y032852D02*
X015483Y032327D01*
X016008Y032852D02*
X016008Y041254D01*
X016559Y041254D02*
X016559Y029778D01*
X015494Y028713D01*
X017175Y026622D02*
X015504Y024950D01*
X017175Y026622D02*
X017175Y041254D01*
X017716Y041254D02*
X017716Y023496D01*
X020844Y024941D02*
X021867Y025964D01*
X021867Y039745D01*
X020686Y040925D01*
X020686Y041254D01*
X020051Y041254D02*
X020051Y040954D01*
X021381Y039623D01*
X021381Y029261D01*
X020844Y028724D01*
X025536Y028723D02*
X026661Y029848D01*
X026661Y041251D01*
X026122Y041251D02*
X026122Y032923D01*
X025536Y032338D01*
X025455Y035968D02*
X025536Y035968D01*
X025455Y035968D02*
X025114Y036309D01*
X025114Y040871D01*
X025494Y041251D01*
X027285Y041251D02*
X027285Y026688D01*
X025536Y024938D01*
X027837Y023580D02*
X025536Y021279D01*
X027837Y023580D02*
X027837Y041251D01*
X030172Y041251D02*
X030172Y040819D01*
X031346Y039644D01*
X031346Y029275D01*
X030794Y028723D01*
X031822Y025966D02*
X030794Y024938D01*
X031822Y025966D02*
X031822Y039751D01*
X030785Y040788D01*
X030785Y041251D01*
X031328Y041251D02*
X031328Y040809D01*
X032336Y039801D01*
X032336Y022821D01*
X030794Y021279D01*
X032829Y020351D02*
X030794Y018316D01*
X030731Y017790D02*
X032201Y016320D01*
X032205Y014537D01*
X032829Y020351D02*
X032848Y020351D01*
X032848Y040365D01*
X031963Y041251D01*
X037823Y040800D02*
X037823Y036457D01*
X038312Y035968D01*
X038903Y032929D02*
X038312Y032338D01*
X038903Y032929D02*
X038903Y041251D01*
X039444Y041251D02*
X039444Y029854D01*
X038312Y028723D01*
X040074Y026700D02*
X038312Y024938D01*
X040607Y023575D02*
X038312Y021279D01*
X040607Y023575D02*
X040607Y041251D01*
X040074Y041251D02*
X040074Y026700D01*
X043570Y024938D02*
X044603Y025971D01*
X044603Y039613D01*
X043573Y040642D01*
X043573Y041251D01*
X044118Y041251D02*
X044118Y040707D01*
X045094Y039731D01*
X045094Y022803D01*
X043570Y021279D01*
X045575Y020307D02*
X043573Y018305D01*
X043502Y017731D02*
X044946Y016288D01*
X044949Y014539D01*
X053630Y017673D02*
X055116Y016186D01*
X055120Y014524D01*
X053690Y018277D02*
X055797Y020384D01*
X055797Y040321D01*
X054867Y041251D01*
X054240Y041251D02*
X054240Y040755D01*
X055228Y039767D01*
X055228Y022828D01*
X053679Y021279D01*
X050732Y023585D02*
X048426Y021279D01*
X045575Y020307D02*
X045575Y040423D01*
X044747Y041251D01*
X042942Y041251D02*
X042942Y040693D01*
X044139Y039495D01*
X044139Y029292D01*
X043570Y028723D01*
X048426Y028723D02*
X049567Y029864D01*
X049567Y041251D01*
X049028Y041251D02*
X049028Y032940D01*
X048426Y032338D01*
X053679Y028723D02*
X054246Y029290D01*
X054246Y039475D01*
X053067Y040655D01*
X053067Y041251D01*
X053698Y041251D02*
X053698Y040651D01*
X054705Y039644D01*
X054705Y025965D01*
X053679Y024938D01*
X050732Y023585D02*
X050732Y041251D01*
X050193Y041251D02*
X050193Y026706D01*
X048426Y024938D01*
X058546Y024938D02*
X060320Y026713D01*
X060320Y041251D01*
X060856Y041251D02*
X060856Y023590D01*
X058546Y021279D01*
X063805Y021279D02*
X065355Y022830D01*
X065355Y039744D01*
X064365Y040735D01*
X064365Y041251D01*
X063830Y041251D02*
X063830Y040643D01*
X064842Y039631D01*
X064842Y025976D01*
X063805Y024938D01*
X071342Y024938D02*
X073097Y026694D01*
X073097Y041251D01*
X073636Y041251D02*
X073636Y023573D01*
X071342Y021279D01*
X076598Y021279D02*
X078145Y022825D01*
X078145Y039710D01*
X077139Y040716D01*
X077139Y041251D01*
X076605Y041251D02*
X076605Y040656D01*
X077638Y039622D01*
X077638Y025978D01*
X076598Y024938D01*
X081465Y024938D02*
X083225Y026699D01*
X083225Y041251D01*
X083762Y041251D02*
X083762Y023576D01*
X081465Y021279D01*
X078624Y020255D02*
X076598Y018229D01*
X076497Y017677D02*
X078024Y016150D01*
X078027Y014524D01*
X086615Y017704D02*
X088075Y016244D01*
X088078Y014524D01*
X086734Y018273D02*
X088737Y020276D01*
X088737Y040405D01*
X087891Y041251D01*
X087263Y041251D02*
X087263Y040839D01*
X088272Y039830D01*
X088272Y022815D01*
X086736Y021279D01*
X091575Y021279D02*
X093882Y023586D01*
X093882Y041251D01*
X093348Y041251D02*
X093348Y026712D01*
X091575Y024938D01*
X087793Y025995D02*
X086736Y024938D01*
X087793Y025995D02*
X087793Y039716D01*
X086718Y040790D01*
X086718Y041251D01*
X086092Y041251D02*
X086092Y040750D01*
X087305Y039537D01*
X087305Y029292D01*
X086736Y028723D01*
X082601Y029859D02*
X081465Y028723D01*
X082601Y029859D02*
X082601Y041251D01*
X082058Y041251D02*
X082058Y032931D01*
X081465Y032338D01*
X081465Y035968D02*
X080917Y036515D01*
X080917Y040735D01*
X081433Y041251D01*
X078624Y040397D02*
X078624Y020255D01*
X065846Y020360D02*
X063797Y018311D01*
X063760Y017701D02*
X065264Y016197D01*
X065267Y014533D01*
X065846Y020360D02*
X065846Y040394D01*
X064988Y041251D01*
X063193Y041251D02*
X063193Y040657D01*
X064370Y039480D01*
X064370Y029288D01*
X063805Y028723D01*
X059686Y029863D02*
X058546Y028723D01*
X059686Y029863D02*
X059686Y041251D01*
X059159Y041251D02*
X059159Y032951D01*
X058546Y032338D01*
X058546Y035968D02*
X058042Y036471D01*
X058042Y040764D01*
X058530Y041251D01*
X048402Y041251D02*
X047895Y040744D01*
X047895Y036498D01*
X048426Y035968D01*
X038274Y041251D02*
X037823Y040800D01*
X015383Y041254D02*
X015015Y040886D01*
X007627Y023454D02*
X005405Y021232D01*
X071342Y028723D02*
X072470Y029851D01*
X072470Y041251D01*
X071929Y041251D02*
X071929Y032925D01*
X071342Y032338D01*
X071342Y035968D02*
X070772Y036537D01*
X070772Y040722D01*
X071301Y041251D01*
X075974Y041251D02*
X075974Y040703D01*
X077142Y039535D01*
X077142Y029267D01*
X076598Y028723D01*
X091575Y028723D02*
X092717Y029865D01*
X092717Y041251D01*
X092178Y041251D02*
X092178Y032940D01*
X091575Y032338D01*
X091575Y035968D02*
X090972Y036571D01*
X090972Y040677D01*
X091546Y041251D01*
X096221Y041251D02*
X096221Y040680D01*
X097412Y039489D01*
X097412Y029287D01*
X096847Y028723D01*
X097884Y025976D02*
X096847Y024938D01*
X097884Y025976D02*
X097884Y039545D01*
X096848Y040581D01*
X096848Y041251D01*
X097393Y041251D02*
X097393Y040709D01*
X098376Y039726D01*
X098376Y022820D01*
X096847Y021291D01*
X096847Y021279D01*
X098864Y020310D02*
X096849Y018296D01*
X096740Y017728D02*
X098190Y016278D01*
X098193Y014531D01*
X098864Y020310D02*
X098864Y040401D01*
X098014Y041251D01*
X078624Y040397D02*
X077770Y041251D01*
D20*
X069337Y035966D02*
X068884Y035513D01*
X056541Y035966D02*
X056151Y035576D01*
X046405Y035966D02*
X046020Y035581D01*
X036312Y035966D02*
X035943Y035598D01*
X023466Y035966D02*
X023143Y035643D01*
X010649Y035013D02*
X010630Y035013D01*
X005444Y035933D02*
X005403Y035933D01*
X004910Y036426D01*
X004910Y040851D01*
X005294Y041235D01*
X010647Y031375D02*
X010649Y031375D01*
X010632Y027633D02*
X010649Y027633D01*
X020211Y019550D02*
X020840Y020180D01*
X023553Y015913D02*
X023557Y012488D01*
X023557Y011304D01*
X024880Y009980D01*
X026035Y009980D01*
X022658Y010480D02*
X022134Y011004D01*
X022134Y013022D01*
X022663Y013550D01*
X032212Y012971D02*
X032212Y011055D01*
X032787Y010480D01*
X035972Y011436D02*
X037519Y009889D01*
X038756Y009889D01*
X035972Y011436D02*
X035968Y015913D01*
X032782Y013540D02*
X032212Y012971D01*
X045130Y013315D02*
X045130Y010933D01*
X045606Y010456D01*
X046454Y011177D02*
X047700Y009931D01*
X048904Y009931D01*
X046454Y011177D02*
X046450Y015913D01*
X045598Y013540D02*
X045355Y013540D01*
X045130Y013315D01*
X055317Y013356D02*
X055317Y010830D01*
X055699Y010448D01*
X056611Y011136D02*
X057757Y009990D01*
X059020Y009990D01*
X056611Y011136D02*
X056607Y015913D01*
X055698Y013540D02*
X055501Y013540D01*
X055317Y013356D01*
X065625Y013366D02*
X065625Y010841D01*
X066032Y010434D01*
X069231Y011279D02*
X070657Y009853D01*
X071754Y009853D01*
X069231Y011279D02*
X069227Y015913D01*
X066030Y013540D02*
X065799Y013540D01*
X065625Y013366D01*
X078401Y013374D02*
X078401Y010835D01*
X078779Y010456D01*
X079451Y011353D02*
X080923Y009881D01*
X081875Y009881D01*
X079451Y011353D02*
X079447Y015913D01*
X078784Y013540D02*
X078567Y013540D01*
X078401Y013374D01*
X088523Y013360D02*
X088523Y010856D01*
X088908Y010471D01*
X089576Y011368D02*
X091132Y009812D01*
X092010Y009812D01*
X089576Y011368D02*
X089572Y015913D01*
X088907Y013540D02*
X088703Y013540D01*
X088523Y013360D01*
X098713Y013356D02*
X098713Y010919D01*
X099096Y010536D01*
X098713Y013356D02*
X098897Y013540D01*
X099094Y013540D01*
X081083Y023455D02*
X081083Y023456D01*
X012590Y013535D02*
X011990Y012934D01*
X011990Y011083D01*
X012593Y010480D01*
D21*
X012614Y015913D03*
X012594Y017728D03*
D22*
X003649Y008011D03*
X034418Y008011D03*
X034415Y019442D03*
X067403Y019442D03*
X067407Y008011D03*
X099908Y008011D03*
X067403Y038733D03*
X067403Y051332D03*
X099905Y051332D03*
X034415Y051332D03*
X034415Y038733D03*
X003645Y051332D03*
M02*
