G75*
G70*
%OFA0B0*%
%FSLAX24Y24*%
%IPPOS*%
%LPD*%
%AMOC8*
5,1,8,0,0,1.08239X$1,22.5*
%
%ADD10R,0.0079X0.0689*%
%ADD11R,0.0600X0.0256*%
%ADD12R,0.0350X0.0591*%
%ADD13R,0.0945X0.0945*%
%ADD14R,0.0551X0.0394*%
%ADD15R,0.0787X0.0630*%
%ADD16R,0.0630X0.0512*%
%ADD17R,0.0591X0.0350*%
%ADD18R,0.0512X0.0630*%
%ADD19R,0.0472X0.0276*%
%ADD20C,0.0554*%
%ADD21C,0.0515*%
%ADD22C,0.0600*%
%ADD23C,0.0278*%
%ADD24C,0.0357*%
%ADD25C,0.0317*%
%ADD26OC8,0.1581*%
D10*
X005402Y011012D03*
X005599Y011012D03*
X005796Y011012D03*
X005992Y011012D03*
X006189Y011012D03*
X006386Y011012D03*
X006583Y011012D03*
X006780Y011012D03*
X006977Y011012D03*
X007173Y011012D03*
X007370Y011012D03*
X007567Y011012D03*
X007764Y011012D03*
X007961Y011012D03*
X008158Y011012D03*
X008355Y011012D03*
X008551Y011012D03*
X008748Y011012D03*
X008945Y011012D03*
X009142Y011012D03*
X009339Y011012D03*
X009536Y011012D03*
X009536Y013965D03*
X009339Y013965D03*
X009142Y013965D03*
X008945Y013965D03*
X008748Y013965D03*
X008551Y013965D03*
X008355Y013965D03*
X008158Y013965D03*
X007961Y013965D03*
X007764Y013965D03*
X007567Y013965D03*
X007370Y013965D03*
X007173Y013965D03*
X006977Y013965D03*
X006780Y013965D03*
X006583Y013965D03*
X006386Y013965D03*
X006189Y013965D03*
X005992Y013965D03*
X005796Y013965D03*
X005599Y013965D03*
X005402Y013965D03*
X015543Y013982D03*
X015739Y013982D03*
X015936Y013982D03*
X016133Y013982D03*
X016330Y013982D03*
X016527Y013982D03*
X016724Y013982D03*
X016921Y013982D03*
X017117Y013982D03*
X017314Y013982D03*
X017511Y013982D03*
X017708Y013982D03*
X017905Y013982D03*
X018102Y013982D03*
X018299Y013982D03*
X018495Y013982D03*
X018692Y013982D03*
X018889Y013982D03*
X019086Y013982D03*
X019283Y013982D03*
X019480Y013982D03*
X019676Y013982D03*
X019676Y011029D03*
X019480Y011029D03*
X019283Y011029D03*
X019086Y011029D03*
X018889Y011029D03*
X018692Y011029D03*
X018495Y011029D03*
X018299Y011029D03*
X018102Y011029D03*
X017905Y011029D03*
X017708Y011029D03*
X017511Y011029D03*
X017314Y011029D03*
X017117Y011029D03*
X016921Y011029D03*
X016724Y011029D03*
X016527Y011029D03*
X016330Y011029D03*
X016133Y011029D03*
X015936Y011029D03*
X015739Y011029D03*
X015543Y011029D03*
X025663Y011026D03*
X025860Y011026D03*
X026057Y011026D03*
X026254Y011026D03*
X026451Y011026D03*
X026647Y011026D03*
X026844Y011026D03*
X027041Y011026D03*
X027238Y011026D03*
X027435Y011026D03*
X027632Y011026D03*
X027829Y011026D03*
X028025Y011026D03*
X028222Y011026D03*
X028419Y011026D03*
X028616Y011026D03*
X028813Y011026D03*
X029010Y011026D03*
X029206Y011026D03*
X029403Y011026D03*
X029600Y011026D03*
X029797Y011026D03*
X029797Y013979D03*
X029600Y013979D03*
X029403Y013979D03*
X029206Y013979D03*
X029010Y013979D03*
X028813Y013979D03*
X028616Y013979D03*
X028419Y013979D03*
X028222Y013979D03*
X028025Y013979D03*
X027829Y013979D03*
X027632Y013979D03*
X027435Y013979D03*
X027238Y013979D03*
X027041Y013979D03*
X026844Y013979D03*
X026647Y013979D03*
X026451Y013979D03*
X026254Y013979D03*
X026057Y013979D03*
X025860Y013979D03*
X025663Y013979D03*
X038363Y013979D03*
X038559Y013979D03*
X038756Y013979D03*
X038953Y013979D03*
X039150Y013979D03*
X039347Y013979D03*
X039544Y013979D03*
X039741Y013979D03*
X039937Y013979D03*
X040134Y013979D03*
X040331Y013979D03*
X040528Y013979D03*
X040725Y013979D03*
X040922Y013979D03*
X041118Y013979D03*
X041315Y013979D03*
X041512Y013979D03*
X041709Y013979D03*
X041906Y013979D03*
X042103Y013979D03*
X042300Y013979D03*
X042496Y013979D03*
X042496Y011026D03*
X042300Y011026D03*
X042103Y011026D03*
X041906Y011026D03*
X041709Y011026D03*
X041512Y011026D03*
X041315Y011026D03*
X041118Y011026D03*
X040922Y011026D03*
X040725Y011026D03*
X040528Y011026D03*
X040331Y011026D03*
X040134Y011026D03*
X039937Y011026D03*
X039741Y011026D03*
X039544Y011026D03*
X039347Y011026D03*
X039150Y011026D03*
X038953Y011026D03*
X038756Y011026D03*
X038559Y011026D03*
X038363Y011026D03*
X048512Y011026D03*
X048709Y011026D03*
X048906Y011026D03*
X049103Y011026D03*
X049300Y011026D03*
X049497Y011026D03*
X049693Y011026D03*
X049890Y011026D03*
X050087Y011026D03*
X050284Y011026D03*
X050481Y011026D03*
X050678Y011026D03*
X050875Y011026D03*
X051071Y011026D03*
X051268Y011026D03*
X051465Y011026D03*
X051662Y011026D03*
X051859Y011026D03*
X052056Y011026D03*
X052253Y011026D03*
X052449Y011026D03*
X052646Y011026D03*
X052646Y013979D03*
X052449Y013979D03*
X052253Y013979D03*
X052056Y013979D03*
X051859Y013979D03*
X051662Y013979D03*
X051465Y013979D03*
X051268Y013979D03*
X051071Y013979D03*
X050875Y013979D03*
X050678Y013979D03*
X050481Y013979D03*
X050284Y013979D03*
X050087Y013979D03*
X049890Y013979D03*
X049693Y013979D03*
X049497Y013979D03*
X049300Y013979D03*
X049103Y013979D03*
X048906Y013979D03*
X048709Y013979D03*
X048512Y013979D03*
X058625Y013979D03*
X058822Y013979D03*
X059019Y013979D03*
X059216Y013979D03*
X059412Y013979D03*
X059609Y013979D03*
X059806Y013979D03*
X060003Y013979D03*
X060200Y013979D03*
X060397Y013979D03*
X060594Y013979D03*
X060790Y013979D03*
X060987Y013979D03*
X061184Y013979D03*
X061381Y013979D03*
X061578Y013979D03*
X061775Y013979D03*
X061971Y013979D03*
X062168Y013979D03*
X062365Y013979D03*
X062562Y013979D03*
X062759Y013979D03*
X062759Y011026D03*
X062562Y011026D03*
X062365Y011026D03*
X062168Y011026D03*
X061971Y011026D03*
X061775Y011026D03*
X061578Y011026D03*
X061381Y011026D03*
X061184Y011026D03*
X060987Y011026D03*
X060790Y011026D03*
X060594Y011026D03*
X060397Y011026D03*
X060200Y011026D03*
X060003Y011026D03*
X059806Y011026D03*
X059609Y011026D03*
X059412Y011026D03*
X059216Y011026D03*
X059019Y011026D03*
X058822Y011026D03*
X058625Y011026D03*
X071361Y011026D03*
X071558Y011026D03*
X071755Y011026D03*
X071951Y011026D03*
X072148Y011026D03*
X072345Y011026D03*
X072542Y011026D03*
X072739Y011026D03*
X072936Y011026D03*
X073133Y011026D03*
X073329Y011026D03*
X073526Y011026D03*
X073723Y011026D03*
X073920Y011026D03*
X074117Y011026D03*
X074314Y011026D03*
X074511Y011026D03*
X074707Y011026D03*
X074904Y011026D03*
X075101Y011026D03*
X075298Y011026D03*
X075495Y011026D03*
X075495Y013979D03*
X075298Y013979D03*
X075101Y013979D03*
X074904Y013979D03*
X074707Y013979D03*
X074511Y013979D03*
X074314Y013979D03*
X074117Y013979D03*
X073920Y013979D03*
X073723Y013979D03*
X073526Y013979D03*
X073329Y013979D03*
X073133Y013979D03*
X072936Y013979D03*
X072739Y013979D03*
X072542Y013979D03*
X072345Y013979D03*
X072148Y013979D03*
X071951Y013979D03*
X071755Y013979D03*
X071558Y013979D03*
X071361Y013979D03*
X081480Y013979D03*
X081677Y013979D03*
X081874Y013979D03*
X082071Y013979D03*
X082268Y013979D03*
X082465Y013979D03*
X082662Y013979D03*
X082858Y013979D03*
X083055Y013979D03*
X083252Y013979D03*
X083449Y013979D03*
X083646Y013979D03*
X083843Y013979D03*
X084040Y013979D03*
X084236Y013979D03*
X084433Y013979D03*
X084630Y013979D03*
X084827Y013979D03*
X085024Y013979D03*
X085221Y013979D03*
X085418Y013979D03*
X085614Y013979D03*
X085614Y011026D03*
X085418Y011026D03*
X085221Y011026D03*
X085024Y011026D03*
X084827Y011026D03*
X084630Y011026D03*
X084433Y011026D03*
X084236Y011026D03*
X084040Y011026D03*
X083843Y011026D03*
X083646Y011026D03*
X083449Y011026D03*
X083252Y011026D03*
X083055Y011026D03*
X082858Y011026D03*
X082662Y011026D03*
X082465Y011026D03*
X082268Y011026D03*
X082071Y011026D03*
X081874Y011026D03*
X081677Y011026D03*
X081480Y011026D03*
X091615Y011026D03*
X091812Y011026D03*
X092009Y011026D03*
X092205Y011026D03*
X092402Y011026D03*
X092599Y011026D03*
X092796Y011026D03*
X092993Y011026D03*
X093190Y011026D03*
X093387Y011026D03*
X093583Y011026D03*
X093780Y011026D03*
X093977Y011026D03*
X094174Y011026D03*
X094371Y011026D03*
X094568Y011026D03*
X094764Y011026D03*
X094961Y011026D03*
X095158Y011026D03*
X095355Y011026D03*
X095552Y011026D03*
X095749Y011026D03*
X095749Y013979D03*
X095552Y013979D03*
X095355Y013979D03*
X095158Y013979D03*
X094961Y013979D03*
X094764Y013979D03*
X094568Y013979D03*
X094371Y013979D03*
X094174Y013979D03*
X093977Y013979D03*
X093780Y013979D03*
X093583Y013979D03*
X093387Y013979D03*
X093190Y013979D03*
X092993Y013979D03*
X092796Y013979D03*
X092599Y013979D03*
X092402Y013979D03*
X092205Y013979D03*
X092009Y013979D03*
X091812Y013979D03*
X091615Y013979D03*
D11*
X089601Y014026D03*
X089601Y013526D03*
X089601Y013026D03*
X089601Y012526D03*
X089601Y012026D03*
X089601Y011526D03*
X089601Y011026D03*
X087337Y011026D03*
X087337Y011526D03*
X087337Y012026D03*
X087337Y012526D03*
X087337Y013026D03*
X087337Y013526D03*
X087337Y014026D03*
X087337Y014526D03*
X089601Y014526D03*
X097524Y014526D03*
X097524Y014026D03*
X097524Y013526D03*
X097524Y013026D03*
X097524Y012526D03*
X097524Y012026D03*
X097524Y011526D03*
X097524Y011026D03*
X099788Y011026D03*
X099788Y011526D03*
X099788Y012026D03*
X099788Y012526D03*
X099788Y013026D03*
X099788Y013526D03*
X099788Y014026D03*
X099788Y014526D03*
X079479Y014526D03*
X079479Y014026D03*
X079479Y013526D03*
X079479Y013026D03*
X079479Y012526D03*
X079479Y012026D03*
X079479Y011526D03*
X079479Y011026D03*
X077215Y011026D03*
X077215Y011526D03*
X077215Y012026D03*
X077215Y012526D03*
X077215Y013026D03*
X077215Y013526D03*
X077215Y014026D03*
X077215Y014526D03*
X066725Y014526D03*
X066725Y014026D03*
X066725Y013526D03*
X066725Y013026D03*
X066725Y012526D03*
X066725Y012026D03*
X066725Y011526D03*
X066725Y011026D03*
X064461Y011026D03*
X064461Y011526D03*
X064461Y012026D03*
X064461Y012526D03*
X064461Y013026D03*
X064461Y013526D03*
X064461Y014026D03*
X064461Y014526D03*
X056393Y014526D03*
X056393Y014026D03*
X056393Y013526D03*
X056393Y013026D03*
X056393Y012526D03*
X056393Y012026D03*
X056393Y011526D03*
X056393Y011026D03*
X054129Y011026D03*
X054129Y011526D03*
X054129Y012026D03*
X054129Y012526D03*
X054129Y013026D03*
X054129Y013526D03*
X054129Y014026D03*
X054129Y014526D03*
X046292Y014526D03*
X046292Y014026D03*
X046292Y013526D03*
X046292Y013026D03*
X046292Y012526D03*
X046292Y012026D03*
X046292Y011526D03*
X046292Y011026D03*
X044028Y011026D03*
X044028Y011526D03*
X044028Y012026D03*
X044028Y012526D03*
X044028Y013026D03*
X044028Y013526D03*
X044028Y014026D03*
X044028Y014526D03*
X033578Y014526D03*
X033578Y014026D03*
X033578Y013526D03*
X033578Y013026D03*
X033578Y012526D03*
X033578Y012026D03*
X033578Y011526D03*
X033578Y011026D03*
X031314Y011026D03*
X031314Y011526D03*
X031314Y012026D03*
X031314Y012526D03*
X031314Y013026D03*
X031314Y013526D03*
X031314Y014026D03*
X031314Y014526D03*
X023435Y014526D03*
X023435Y014026D03*
X023435Y013526D03*
X023435Y013026D03*
X023435Y012526D03*
X023435Y012026D03*
X023435Y011526D03*
X023435Y011026D03*
X021171Y011026D03*
X021171Y011526D03*
X021171Y012026D03*
X021171Y012526D03*
X021171Y013026D03*
X021171Y013526D03*
X021171Y014026D03*
X021171Y014526D03*
X013355Y014526D03*
X013355Y014026D03*
X013355Y013526D03*
X013355Y013026D03*
X013355Y012526D03*
X013355Y012026D03*
X013355Y011526D03*
X013355Y011026D03*
X011091Y011026D03*
X011091Y011526D03*
X011091Y012026D03*
X011091Y012526D03*
X011091Y013026D03*
X011091Y013526D03*
X011091Y014026D03*
X011091Y014526D03*
D12*
X007702Y010142D03*
X007033Y010142D03*
X017176Y010142D03*
X017845Y010142D03*
X027290Y010142D03*
X027959Y010142D03*
X039995Y010142D03*
X040664Y010142D03*
X050148Y010142D03*
X050818Y010142D03*
X060260Y010142D03*
X060930Y010142D03*
X072996Y010142D03*
X073665Y010142D03*
X083113Y010142D03*
X083782Y010142D03*
X093249Y010142D03*
X093919Y010142D03*
X095446Y020280D03*
X096115Y020280D03*
X096115Y021277D03*
X095446Y021277D03*
X095446Y023988D03*
X096115Y023988D03*
X096115Y024900D03*
X095446Y024900D03*
X090847Y024900D03*
X090177Y024900D03*
X090177Y023988D03*
X090847Y023988D03*
X090847Y021277D03*
X090177Y021277D03*
X090177Y020280D03*
X090847Y020280D03*
X086007Y020280D03*
X085338Y020280D03*
X085338Y021277D03*
X086007Y021277D03*
X086007Y023988D03*
X085338Y023988D03*
X085338Y024900D03*
X086007Y024900D03*
X080739Y024900D03*
X080069Y024900D03*
X080069Y023988D03*
X080739Y023988D03*
X080739Y021277D03*
X080069Y021277D03*
X080069Y020280D03*
X080739Y020280D03*
X075869Y020280D03*
X075199Y020280D03*
X075199Y021277D03*
X075869Y021277D03*
X075869Y023988D03*
X075199Y023988D03*
X075199Y024900D03*
X075869Y024900D03*
X070614Y024900D03*
X069945Y024900D03*
X069945Y023988D03*
X070614Y023988D03*
X070614Y021277D03*
X069945Y021277D03*
X069945Y020280D03*
X070614Y020280D03*
X063077Y020280D03*
X062408Y020280D03*
X062408Y021277D03*
X063077Y021277D03*
X063077Y023988D03*
X062408Y023988D03*
X062408Y024900D03*
X063077Y024900D03*
X063077Y027670D03*
X062408Y027670D03*
X062408Y028700D03*
X063077Y028700D03*
X063077Y031381D03*
X062408Y031381D03*
X062408Y032334D03*
X063077Y032334D03*
X063077Y035009D03*
X062408Y035009D03*
X062408Y035966D03*
X063077Y035966D03*
X063077Y038500D03*
X062408Y038500D03*
X062408Y039495D03*
X063077Y039495D03*
X057821Y035966D03*
X057151Y035966D03*
X057151Y035009D03*
X057821Y035009D03*
X057821Y032334D03*
X057151Y032334D03*
X057151Y031381D03*
X057821Y031381D03*
X052946Y031381D03*
X052277Y031381D03*
X052277Y032334D03*
X052946Y032334D03*
X052946Y035009D03*
X052277Y035009D03*
X052277Y035966D03*
X052946Y035966D03*
X052946Y038500D03*
X052277Y038500D03*
X052277Y039495D03*
X052946Y039495D03*
X047690Y035966D03*
X047021Y035966D03*
X047021Y035009D03*
X047690Y035009D03*
X047690Y032334D03*
X047021Y032334D03*
X047021Y031381D03*
X047690Y031381D03*
X042838Y031381D03*
X042169Y031381D03*
X042169Y032334D03*
X042838Y032334D03*
X042838Y035009D03*
X042169Y035009D03*
X042169Y035966D03*
X042838Y035966D03*
X042838Y038500D03*
X042169Y038500D03*
X042169Y039495D03*
X042838Y039495D03*
X037581Y035966D03*
X036912Y035966D03*
X036912Y035009D03*
X037581Y035009D03*
X037581Y032334D03*
X036912Y032334D03*
X036912Y031381D03*
X037581Y031381D03*
X037581Y028700D03*
X036912Y028700D03*
X036912Y027670D03*
X037581Y027670D03*
X042169Y027670D03*
X042838Y027670D03*
X042838Y028700D03*
X042169Y028700D03*
X047021Y028700D03*
X047690Y028700D03*
X047690Y027670D03*
X047021Y027670D03*
X052277Y027670D03*
X052946Y027670D03*
X052946Y028700D03*
X052277Y028700D03*
X057151Y028700D03*
X057821Y028700D03*
X057821Y027670D03*
X057151Y027670D03*
X057151Y024900D03*
X057821Y024900D03*
X057821Y023988D03*
X057151Y023988D03*
X057151Y021277D03*
X057821Y021277D03*
X057821Y020280D03*
X057151Y020280D03*
X052946Y020280D03*
X052277Y020280D03*
X052277Y021277D03*
X052946Y021277D03*
X052946Y023988D03*
X052277Y023988D03*
X052277Y024900D03*
X052946Y024900D03*
X047690Y024900D03*
X047021Y024900D03*
X047021Y023988D03*
X047690Y023988D03*
X047690Y021277D03*
X047021Y021277D03*
X047021Y020280D03*
X047690Y020280D03*
X042838Y020280D03*
X042169Y020280D03*
X042169Y021277D03*
X042838Y021277D03*
X042838Y023988D03*
X042169Y023988D03*
X042169Y024900D03*
X042838Y024900D03*
X037581Y024900D03*
X036912Y024900D03*
X036912Y023988D03*
X037581Y023988D03*
X037581Y021277D03*
X036912Y021277D03*
X036912Y020280D03*
X037581Y020280D03*
X030094Y020280D03*
X029425Y020280D03*
X029425Y021277D03*
X030094Y021277D03*
X030094Y023988D03*
X029425Y023988D03*
X029425Y024900D03*
X030094Y024900D03*
X024827Y024900D03*
X024158Y024900D03*
X024158Y023988D03*
X024827Y023988D03*
X024827Y021277D03*
X024158Y021277D03*
X024158Y020280D03*
X024827Y020280D03*
X020157Y020282D03*
X019487Y020282D03*
X019474Y021280D03*
X020143Y021280D03*
X020134Y023991D03*
X019465Y023991D03*
X019474Y024903D03*
X020143Y024903D03*
X020130Y027673D03*
X019461Y027673D03*
X019461Y028703D03*
X020131Y028703D03*
X024158Y028700D03*
X024827Y028700D03*
X024827Y027670D03*
X024158Y027670D03*
X029425Y027670D03*
X030094Y027670D03*
X030094Y028700D03*
X029425Y028700D03*
X029425Y031381D03*
X030094Y031381D03*
X030094Y032334D03*
X029425Y032334D03*
X029425Y035009D03*
X030094Y035009D03*
X030094Y035966D03*
X029425Y035966D03*
X024827Y035966D03*
X024158Y035966D03*
X024158Y035009D03*
X024827Y035009D03*
X024827Y032334D03*
X024158Y032334D03*
X024158Y031381D03*
X024827Y031381D03*
X020031Y031384D03*
X019362Y031384D03*
X019358Y032337D03*
X020028Y032337D03*
X020046Y035012D03*
X019377Y035012D03*
X019370Y035969D03*
X020040Y035969D03*
X014789Y035956D03*
X014119Y035956D03*
X014123Y035001D03*
X014792Y035001D03*
X014801Y032339D03*
X014132Y032339D03*
X014132Y031353D03*
X014801Y031353D03*
X014805Y028711D03*
X014136Y028711D03*
X014142Y027648D03*
X014811Y027648D03*
X014810Y024947D03*
X014141Y024947D03*
X014147Y023991D03*
X014817Y023991D03*
X014810Y021280D03*
X014141Y021280D03*
X014147Y020253D03*
X014817Y020253D03*
X009866Y020273D03*
X009197Y020273D03*
X009195Y021278D03*
X009864Y021278D03*
X009882Y024000D03*
X009213Y024000D03*
X009213Y024941D03*
X009882Y024941D03*
X004661Y024910D03*
X003991Y024910D03*
X003998Y023947D03*
X004667Y023947D03*
X004653Y021231D03*
X003983Y021231D03*
X003984Y020242D03*
X004653Y020242D03*
X004658Y027669D03*
X003988Y027669D03*
X003982Y028674D03*
X004652Y028674D03*
X009198Y028702D03*
X009868Y028702D03*
X009868Y027655D03*
X009198Y027655D03*
X009206Y031371D03*
X009876Y031371D03*
X009871Y032345D03*
X009202Y032345D03*
X009211Y035006D03*
X009880Y035006D03*
X009882Y035979D03*
X009213Y035979D03*
X004663Y035942D03*
X003993Y035942D03*
X003994Y034991D03*
X004663Y034991D03*
X004658Y032309D03*
X003989Y032309D03*
X003987Y031325D03*
X004656Y031325D03*
X009214Y038534D03*
X009883Y038534D03*
X009881Y039521D03*
X009211Y039521D03*
X019367Y039527D03*
X020037Y039527D03*
X020049Y038509D03*
X019380Y038509D03*
X029452Y038500D03*
X030121Y038500D03*
X030094Y039495D03*
X029425Y039495D03*
X069945Y035966D03*
X070614Y035966D03*
X070614Y035009D03*
X069945Y035009D03*
X069945Y032334D03*
X070614Y032334D03*
X070614Y031381D03*
X069945Y031381D03*
X069945Y028700D03*
X070614Y028700D03*
X070614Y027670D03*
X069945Y027670D03*
X075199Y027670D03*
X075869Y027670D03*
X075869Y028700D03*
X075199Y028700D03*
X080069Y028700D03*
X080739Y028700D03*
X080739Y027670D03*
X080069Y027670D03*
X085338Y027670D03*
X086007Y027670D03*
X086007Y028700D03*
X085338Y028700D03*
X090177Y028700D03*
X090847Y028700D03*
X090847Y027670D03*
X090177Y027670D03*
X095446Y027670D03*
X096115Y027670D03*
X096115Y028700D03*
X095446Y028700D03*
X095446Y031381D03*
X096115Y031381D03*
X096115Y032334D03*
X095446Y032334D03*
X095446Y035009D03*
X096115Y035009D03*
X096115Y035966D03*
X095446Y035966D03*
X090847Y035966D03*
X090177Y035966D03*
X090177Y035009D03*
X090847Y035009D03*
X090847Y032334D03*
X090177Y032334D03*
X090177Y031381D03*
X090847Y031381D03*
X086007Y031381D03*
X085338Y031381D03*
X085338Y032334D03*
X086007Y032334D03*
X086007Y035009D03*
X085338Y035009D03*
X085338Y035966D03*
X086007Y035966D03*
X080739Y035966D03*
X080069Y035966D03*
X080069Y035009D03*
X080739Y035009D03*
X080739Y032334D03*
X080069Y032334D03*
X080069Y031381D03*
X080739Y031381D03*
X075869Y031381D03*
X075199Y031381D03*
X075199Y032334D03*
X075869Y032334D03*
X075869Y035009D03*
X075199Y035009D03*
X075199Y035966D03*
X075869Y035966D03*
X075869Y038500D03*
X075199Y038500D03*
X075199Y039495D03*
X075869Y039495D03*
X085338Y039495D03*
X086007Y039495D03*
X086007Y038500D03*
X085338Y038500D03*
X095446Y038500D03*
X096115Y038500D03*
X096115Y039495D03*
X095446Y039495D03*
D13*
X097789Y039258D03*
X097789Y037526D03*
X097789Y035732D03*
X097789Y033999D03*
X097789Y032101D03*
X097789Y030369D03*
X097789Y028486D03*
X097789Y026754D03*
X097789Y024702D03*
X097789Y022970D03*
X097789Y021043D03*
X097789Y019311D03*
X092518Y019311D03*
X092518Y021043D03*
X092518Y022970D03*
X092518Y024702D03*
X092518Y026754D03*
X092518Y028486D03*
X092518Y030369D03*
X092518Y032101D03*
X092518Y033999D03*
X092518Y035732D03*
X092518Y037526D03*
X090693Y038748D03*
X092518Y039258D03*
X090693Y040480D03*
X088741Y041257D03*
X088741Y042989D03*
X087679Y039258D03*
X087679Y037526D03*
X087679Y035732D03*
X087679Y033999D03*
X087679Y032101D03*
X087679Y030369D03*
X087679Y028486D03*
X087679Y026754D03*
X087679Y024702D03*
X087679Y022970D03*
X087679Y021043D03*
X087679Y019311D03*
X082408Y019311D03*
X082408Y021043D03*
X082408Y022970D03*
X082408Y024702D03*
X082408Y026754D03*
X082408Y028486D03*
X082408Y030369D03*
X082408Y032101D03*
X082408Y033999D03*
X082408Y035732D03*
X082408Y037526D03*
X080575Y038748D03*
X082408Y039258D03*
X080575Y040480D03*
X078624Y041257D03*
X078624Y042989D03*
X077541Y039258D03*
X077541Y037526D03*
X077541Y035732D03*
X077541Y033999D03*
X077541Y032101D03*
X077541Y030369D03*
X077541Y028486D03*
X077541Y026754D03*
X077541Y024702D03*
X077541Y022970D03*
X077541Y021043D03*
X077541Y019311D03*
X072285Y019311D03*
X072285Y021043D03*
X072285Y022970D03*
X072285Y024702D03*
X072285Y026754D03*
X072285Y028486D03*
X072285Y030369D03*
X072285Y032101D03*
X072285Y033999D03*
X072285Y035732D03*
X072270Y037526D03*
X070450Y038748D03*
X072270Y039258D03*
X070450Y040480D03*
X065849Y041257D03*
X065849Y042989D03*
X064749Y039258D03*
X064749Y037526D03*
X064749Y035732D03*
X064749Y033999D03*
X064749Y032101D03*
X064749Y030369D03*
X064749Y028486D03*
X064749Y026754D03*
X064749Y024702D03*
X064749Y022970D03*
X064749Y021043D03*
X064749Y019311D03*
X059492Y019311D03*
X059492Y021043D03*
X059492Y022970D03*
X059492Y024702D03*
X059492Y026754D03*
X059492Y028486D03*
X059492Y030369D03*
X059492Y032101D03*
X059492Y033999D03*
X059492Y035732D03*
X059492Y037526D03*
X057665Y038748D03*
X059492Y039258D03*
X057665Y040480D03*
X055795Y041257D03*
X055795Y042989D03*
X054618Y039258D03*
X054618Y037526D03*
X054618Y035732D03*
X054618Y033999D03*
X054618Y032101D03*
X054618Y030369D03*
X054618Y028486D03*
X054618Y026754D03*
X054618Y024702D03*
X054618Y022970D03*
X054618Y021043D03*
X054618Y019311D03*
X049362Y019311D03*
X049362Y021043D03*
X049362Y022970D03*
X049362Y024702D03*
X049362Y026754D03*
X049362Y028486D03*
X049362Y030369D03*
X049362Y032101D03*
X049362Y033999D03*
X049362Y035732D03*
X049362Y037526D03*
X047539Y038748D03*
X049362Y039258D03*
X047539Y040480D03*
X045578Y041257D03*
X045578Y042989D03*
X044509Y039258D03*
X044509Y037526D03*
X044509Y035732D03*
X044509Y033999D03*
X044509Y032101D03*
X044509Y030369D03*
X044509Y028486D03*
X044509Y026754D03*
X044509Y024702D03*
X044509Y022970D03*
X044509Y021043D03*
X044509Y019311D03*
X039248Y019311D03*
X039248Y021043D03*
X039248Y022970D03*
X039248Y024702D03*
X039248Y026754D03*
X039248Y028486D03*
X039248Y030369D03*
X039248Y032101D03*
X039248Y033999D03*
X039248Y035732D03*
X039253Y037526D03*
X037420Y038748D03*
X039253Y039258D03*
X037420Y040480D03*
X032861Y041257D03*
X032861Y042989D03*
X031734Y039258D03*
X031734Y037526D03*
X031734Y035732D03*
X031734Y033999D03*
X031734Y032101D03*
X031734Y030369D03*
X031734Y028486D03*
X031734Y026754D03*
X031734Y024702D03*
X031734Y022970D03*
X031734Y021043D03*
X031734Y019311D03*
X026473Y019311D03*
X026473Y021043D03*
X026473Y022970D03*
X026473Y024702D03*
X026473Y026754D03*
X026473Y028486D03*
X026473Y030369D03*
X026473Y032101D03*
X026473Y033999D03*
X026473Y035732D03*
X026473Y037526D03*
X024637Y038699D03*
X026473Y039258D03*
X024637Y040431D03*
X022748Y041264D03*
X022748Y042996D03*
X021795Y039295D03*
X021795Y037563D03*
X021789Y035734D03*
X021789Y034002D03*
X021789Y032104D03*
X021789Y030372D03*
X021789Y028489D03*
X021789Y026757D03*
X021784Y024705D03*
X021784Y022973D03*
X021780Y021046D03*
X021780Y019314D03*
X016455Y019309D03*
X016455Y021041D03*
X016448Y022982D03*
X016448Y024714D03*
X016448Y026744D03*
X016448Y028477D03*
X016426Y030363D03*
X016426Y032095D03*
X016428Y033992D03*
X016428Y035724D03*
X016424Y037562D03*
X014529Y038709D03*
X016424Y039294D03*
X014529Y040441D03*
X012594Y041262D03*
X012594Y042994D03*
X011644Y039287D03*
X011644Y037555D03*
X011647Y035734D03*
X011647Y034001D03*
X011642Y032112D03*
X011642Y030380D03*
X011645Y028465D03*
X011645Y026733D03*
X011648Y024711D03*
X011648Y022979D03*
X011639Y021040D03*
X011639Y019308D03*
X006420Y019263D03*
X006420Y020995D03*
X006425Y022941D03*
X006425Y024673D03*
X006428Y026705D03*
X006428Y028438D03*
X006428Y030340D03*
X006428Y032073D03*
X006432Y033962D03*
X006432Y035694D03*
X006429Y037515D03*
X004384Y038717D03*
X006429Y039247D03*
X004384Y040449D03*
X098867Y041257D03*
X098867Y042989D03*
D14*
X095449Y037666D03*
X095449Y036918D03*
X096315Y037292D03*
X095449Y034144D03*
X095449Y033396D03*
X096315Y033770D03*
X095449Y030500D03*
X096315Y030126D03*
X095449Y029752D03*
X091045Y030126D03*
X090178Y029752D03*
X090178Y030500D03*
X086202Y030126D03*
X085336Y029752D03*
X085336Y030500D03*
X080932Y030126D03*
X080066Y029752D03*
X080066Y030500D03*
X076065Y030126D03*
X075199Y029752D03*
X075199Y030500D03*
X070813Y030126D03*
X069947Y029752D03*
X069947Y030500D03*
X069947Y033396D03*
X069947Y034144D03*
X070813Y033770D03*
X075199Y033396D03*
X075199Y034144D03*
X076065Y033770D03*
X080066Y033396D03*
X080066Y034144D03*
X080932Y033770D03*
X085336Y033396D03*
X085336Y034144D03*
X086202Y033770D03*
X090178Y033396D03*
X090178Y034144D03*
X091045Y033770D03*
X090178Y036918D03*
X090178Y037666D03*
X091045Y037292D03*
X086202Y037292D03*
X085336Y036918D03*
X085336Y037666D03*
X080932Y037292D03*
X080066Y036918D03*
X080066Y037666D03*
X076065Y037292D03*
X075199Y036918D03*
X075199Y037666D03*
X070813Y037292D03*
X069947Y036918D03*
X069947Y037666D03*
X063274Y037292D03*
X062408Y036918D03*
X062408Y037666D03*
X058020Y037292D03*
X057154Y036918D03*
X057154Y037666D03*
X053144Y037292D03*
X052277Y036918D03*
X052277Y037666D03*
X047887Y037292D03*
X047021Y036918D03*
X047021Y037666D03*
X043034Y037292D03*
X042167Y036918D03*
X042167Y037666D03*
X037779Y037292D03*
X036913Y036918D03*
X036913Y037666D03*
X036913Y034144D03*
X036913Y033396D03*
X037779Y033770D03*
X042167Y033396D03*
X042167Y034144D03*
X043034Y033770D03*
X047021Y033396D03*
X047021Y034144D03*
X047887Y033770D03*
X052277Y033396D03*
X052277Y034144D03*
X053144Y033770D03*
X057154Y033396D03*
X057154Y034144D03*
X058020Y033770D03*
X062408Y033396D03*
X062408Y034144D03*
X063274Y033770D03*
X062408Y030500D03*
X063274Y030126D03*
X062408Y029752D03*
X058020Y030126D03*
X057154Y029752D03*
X057154Y030500D03*
X053144Y030126D03*
X052277Y029752D03*
X052277Y030500D03*
X047887Y030126D03*
X047021Y029752D03*
X047021Y030500D03*
X043034Y030126D03*
X042167Y029752D03*
X042167Y030500D03*
X037779Y030126D03*
X036913Y029752D03*
X036913Y030500D03*
X030317Y030126D03*
X029451Y029752D03*
X029451Y030500D03*
X025025Y030126D03*
X024159Y029752D03*
X024159Y030500D03*
X020206Y030129D03*
X019340Y029755D03*
X019340Y030503D03*
X014999Y030124D03*
X014133Y029750D03*
X014133Y030498D03*
X010076Y030149D03*
X009209Y029775D03*
X009209Y030523D03*
X004851Y030106D03*
X003985Y029732D03*
X003985Y030480D03*
X003992Y033353D03*
X003992Y034101D03*
X004858Y033727D03*
X009210Y033395D03*
X009210Y034143D03*
X010076Y033769D03*
X014122Y034129D03*
X014122Y033381D03*
X014988Y033755D03*
X019382Y033399D03*
X019382Y034147D03*
X020248Y033773D03*
X024159Y034144D03*
X024159Y033396D03*
X025025Y033770D03*
X029451Y033396D03*
X029451Y034144D03*
X030317Y033770D03*
X029451Y036918D03*
X029451Y037666D03*
X030317Y037292D03*
X025025Y037308D03*
X024159Y037682D03*
X024159Y036934D03*
X020247Y037328D03*
X019381Y036954D03*
X019381Y037702D03*
X014996Y037333D03*
X014130Y036959D03*
X014130Y037707D03*
X010084Y037319D03*
X009218Y036945D03*
X009218Y037693D03*
X004829Y037277D03*
X003963Y036903D03*
X003963Y037651D03*
X003991Y026846D03*
X003991Y026098D03*
X004857Y026472D03*
X009197Y026123D03*
X009197Y026871D03*
X010063Y026497D03*
X014140Y026136D03*
X014140Y026884D03*
X015006Y026510D03*
X019487Y026154D03*
X019487Y026902D03*
X020353Y026528D03*
X024159Y026899D03*
X024159Y026151D03*
X025025Y026525D03*
X029451Y026899D03*
X029451Y026151D03*
X030317Y026525D03*
X029451Y023126D03*
X030317Y022752D03*
X029451Y022378D03*
X025025Y022752D03*
X024159Y023126D03*
X024159Y022378D03*
X020351Y022755D03*
X019485Y023129D03*
X019485Y022381D03*
X015011Y022743D03*
X014145Y023117D03*
X014145Y022369D03*
X010075Y022758D03*
X009209Y023132D03*
X009209Y022384D03*
X004867Y022705D03*
X004001Y023079D03*
X004001Y022331D03*
X003987Y019400D03*
X003987Y018652D03*
X004853Y019026D03*
X009201Y018678D03*
X009201Y019426D03*
X010067Y019052D03*
X014147Y018694D03*
X014147Y019442D03*
X015014Y019068D03*
X019476Y018703D03*
X019476Y019451D03*
X020342Y019077D03*
X024159Y019449D03*
X024159Y018700D03*
X025025Y019075D03*
X029451Y019449D03*
X029451Y018700D03*
X030317Y019075D03*
X036913Y019449D03*
X036913Y018700D03*
X037779Y019075D03*
X042167Y019449D03*
X042167Y018700D03*
X043034Y019075D03*
X047021Y019449D03*
X047021Y018700D03*
X047887Y019075D03*
X052277Y019449D03*
X052277Y018700D03*
X053144Y019075D03*
X057154Y019449D03*
X057154Y018700D03*
X058020Y019075D03*
X062408Y019449D03*
X062408Y018700D03*
X063274Y019075D03*
X062408Y022378D03*
X063274Y022752D03*
X062408Y023126D03*
X058020Y022752D03*
X057154Y023126D03*
X057154Y022378D03*
X053144Y022752D03*
X052277Y023126D03*
X052277Y022378D03*
X047887Y022752D03*
X047021Y023126D03*
X047021Y022378D03*
X043034Y022752D03*
X042167Y023126D03*
X042167Y022378D03*
X037779Y022752D03*
X036913Y023126D03*
X036913Y022378D03*
X036913Y026151D03*
X036913Y026899D03*
X037779Y026525D03*
X042167Y026899D03*
X042167Y026151D03*
X043034Y026525D03*
X047021Y026899D03*
X047021Y026151D03*
X047887Y026525D03*
X052277Y026899D03*
X052277Y026151D03*
X053144Y026525D03*
X057154Y026899D03*
X057154Y026151D03*
X058020Y026525D03*
X062408Y026899D03*
X062408Y026151D03*
X063274Y026525D03*
X069947Y026899D03*
X069947Y026151D03*
X070813Y026525D03*
X075199Y026899D03*
X075199Y026151D03*
X076065Y026525D03*
X080066Y026899D03*
X080066Y026151D03*
X080932Y026525D03*
X085336Y026899D03*
X085336Y026151D03*
X086202Y026525D03*
X090178Y026899D03*
X090178Y026151D03*
X091045Y026525D03*
X095449Y026899D03*
X095449Y026151D03*
X096315Y026525D03*
X095449Y023126D03*
X096315Y022752D03*
X095449Y022378D03*
X091045Y022752D03*
X090178Y023126D03*
X090178Y022378D03*
X086202Y022752D03*
X085336Y023126D03*
X085336Y022378D03*
X080932Y022752D03*
X080066Y023126D03*
X080066Y022378D03*
X076065Y022752D03*
X075199Y023126D03*
X075199Y022378D03*
X070813Y022752D03*
X069947Y023126D03*
X069947Y022378D03*
X069947Y019449D03*
X069947Y018700D03*
X070813Y019075D03*
X075199Y019449D03*
X075199Y018700D03*
X076065Y019075D03*
X080066Y019449D03*
X080066Y018700D03*
X080932Y019075D03*
X085336Y019449D03*
X085336Y018700D03*
X086202Y019075D03*
X090178Y019449D03*
X090178Y018700D03*
X091045Y019075D03*
X095449Y019449D03*
X095449Y018700D03*
X096315Y019075D03*
D15*
X096531Y041978D03*
X095363Y041978D03*
X094195Y041978D03*
X093028Y041978D03*
X091861Y041978D03*
X090693Y041978D03*
X090693Y043080D03*
X090693Y043988D03*
X091861Y043988D03*
X091861Y043080D03*
X093028Y043080D03*
X093028Y043988D03*
X094195Y043988D03*
X094195Y043080D03*
X095363Y043080D03*
X095363Y043988D03*
X096531Y043988D03*
X096531Y043080D03*
X097699Y043080D03*
X097699Y043988D03*
X098867Y043988D03*
X098867Y045090D03*
X097699Y045090D03*
X096531Y045090D03*
X095363Y045090D03*
X094195Y045090D03*
X093028Y045090D03*
X091861Y045090D03*
X090693Y045090D03*
X088743Y045090D03*
X087575Y045090D03*
X086407Y045090D03*
X085241Y045090D03*
X084075Y045090D03*
X082908Y045090D03*
X081741Y045090D03*
X080575Y045090D03*
X080575Y043988D03*
X080575Y043080D03*
X081741Y043080D03*
X081741Y043988D03*
X082908Y043988D03*
X082908Y043080D03*
X084075Y043080D03*
X084075Y043988D03*
X085241Y043988D03*
X085241Y043080D03*
X086407Y043080D03*
X086407Y043988D03*
X087575Y043988D03*
X087575Y043080D03*
X088743Y043988D03*
X087575Y041978D03*
X086407Y041978D03*
X085241Y041978D03*
X084075Y041978D03*
X082908Y041978D03*
X081741Y041978D03*
X080575Y041978D03*
X078625Y043988D03*
X077457Y043988D03*
X077457Y043080D03*
X076288Y043080D03*
X076288Y043988D03*
X075119Y043988D03*
X075119Y043080D03*
X073951Y043080D03*
X073951Y043988D03*
X072783Y043988D03*
X072783Y043080D03*
X071617Y043080D03*
X071617Y043988D03*
X070450Y043988D03*
X070450Y043080D03*
X070450Y041978D03*
X071617Y041978D03*
X072783Y041978D03*
X073951Y041978D03*
X075119Y041978D03*
X076288Y041978D03*
X077457Y041978D03*
X077457Y045090D03*
X078625Y045090D03*
X076288Y045090D03*
X075119Y045090D03*
X073951Y045090D03*
X072783Y045090D03*
X071617Y045090D03*
X070450Y045090D03*
X065842Y045090D03*
X064675Y045090D03*
X063506Y045090D03*
X062338Y045090D03*
X061170Y045090D03*
X060002Y045090D03*
X058835Y045090D03*
X057668Y045090D03*
X057668Y043988D03*
X057668Y043080D03*
X058835Y043080D03*
X058835Y043988D03*
X060002Y043988D03*
X060002Y043080D03*
X061170Y043080D03*
X061170Y043988D03*
X062338Y043988D03*
X062338Y043080D03*
X063506Y043080D03*
X063506Y043988D03*
X064675Y043988D03*
X064675Y043080D03*
X065842Y043988D03*
X064675Y041978D03*
X063506Y041978D03*
X062338Y041978D03*
X061170Y041978D03*
X060002Y041978D03*
X058835Y041978D03*
X057668Y041978D03*
X055716Y043988D03*
X054549Y043988D03*
X054549Y043080D03*
X053382Y043080D03*
X053382Y043988D03*
X052215Y043988D03*
X052215Y043080D03*
X051047Y043080D03*
X051047Y043988D03*
X049879Y043988D03*
X049879Y043080D03*
X048712Y043080D03*
X048712Y043988D03*
X047544Y043988D03*
X047544Y043080D03*
X047544Y041978D03*
X048712Y041978D03*
X049879Y041978D03*
X051047Y041978D03*
X052215Y041978D03*
X053382Y041978D03*
X054549Y041978D03*
X054549Y045090D03*
X053382Y045090D03*
X052215Y045090D03*
X051047Y045090D03*
X049879Y045090D03*
X048712Y045090D03*
X047544Y045090D03*
X045592Y045090D03*
X044424Y045090D03*
X043257Y045090D03*
X042090Y045090D03*
X040922Y045090D03*
X039756Y045090D03*
X038588Y045090D03*
X037420Y045090D03*
X037420Y043988D03*
X037420Y043080D03*
X038588Y043080D03*
X038588Y043988D03*
X039756Y043988D03*
X039756Y043080D03*
X040922Y043080D03*
X040922Y043988D03*
X042090Y043988D03*
X042090Y043080D03*
X043257Y043080D03*
X043257Y043988D03*
X044424Y043988D03*
X044424Y043080D03*
X045592Y043988D03*
X044424Y041978D03*
X043257Y041978D03*
X042090Y041978D03*
X040922Y041978D03*
X039756Y041978D03*
X038588Y041978D03*
X037420Y041978D03*
X032812Y043988D03*
X031645Y043988D03*
X031645Y043080D03*
X030477Y043080D03*
X030477Y043988D03*
X029310Y043988D03*
X029310Y043080D03*
X028142Y043080D03*
X028142Y043988D03*
X026973Y043988D03*
X026973Y043080D03*
X025805Y043080D03*
X025805Y043988D03*
X024637Y043988D03*
X024637Y043080D03*
X024637Y041978D03*
X025805Y041978D03*
X026973Y041978D03*
X028142Y041978D03*
X029310Y041978D03*
X030477Y041978D03*
X031645Y041978D03*
X031645Y045090D03*
X032812Y045090D03*
X030477Y045090D03*
X029310Y045090D03*
X028142Y045090D03*
X026973Y045090D03*
X025805Y045090D03*
X024637Y045090D03*
X022702Y045093D03*
X021532Y045093D03*
X020365Y045093D03*
X019197Y045093D03*
X018030Y045093D03*
X016861Y045093D03*
X015692Y045093D03*
X014524Y045093D03*
X014524Y043991D03*
X014524Y043083D03*
X015692Y043083D03*
X015692Y043991D03*
X016861Y043991D03*
X016861Y043083D03*
X018030Y043083D03*
X018030Y043991D03*
X019197Y043991D03*
X019197Y043083D03*
X020365Y043083D03*
X020365Y043991D03*
X021532Y043991D03*
X021532Y043083D03*
X022702Y043991D03*
X021532Y041981D03*
X020365Y041981D03*
X019197Y041981D03*
X018030Y041981D03*
X016861Y041981D03*
X015692Y041981D03*
X014524Y041981D03*
X012572Y043984D03*
X011403Y043987D03*
X011406Y043082D03*
X010239Y043085D03*
X010236Y043989D03*
X009069Y043988D03*
X009071Y043083D03*
X007901Y043085D03*
X007900Y043989D03*
X006730Y043989D03*
X006733Y043083D03*
X006733Y041981D03*
X007901Y041983D03*
X009071Y041980D03*
X010239Y041982D03*
X011406Y041980D03*
X011403Y045089D03*
X010236Y045091D03*
X009069Y045091D03*
X007900Y045092D03*
X006730Y045092D03*
X005563Y045089D03*
X004396Y045086D03*
X004396Y043984D03*
X004396Y043086D03*
X005565Y043086D03*
X005563Y043986D03*
X005565Y041983D03*
X004396Y041984D03*
X012572Y045086D03*
X055716Y045090D03*
X097699Y041978D03*
D16*
X096741Y017344D03*
X095678Y017344D03*
X094615Y017344D03*
X093552Y017344D03*
X092489Y017344D03*
X091426Y017344D03*
X090363Y017344D03*
X090363Y016557D03*
X091426Y016557D03*
X092489Y016557D03*
X093552Y016557D03*
X094615Y016557D03*
X095678Y016557D03*
X096741Y016557D03*
X086615Y016557D03*
X085552Y016557D03*
X084489Y016557D03*
X083426Y016557D03*
X082363Y016557D03*
X081300Y016557D03*
X080237Y016557D03*
X080237Y017344D03*
X081300Y017344D03*
X082363Y017344D03*
X083426Y017344D03*
X084489Y017344D03*
X085552Y017344D03*
X086615Y017344D03*
X076498Y017344D03*
X075435Y017344D03*
X074372Y017344D03*
X073309Y017344D03*
X072246Y017344D03*
X071183Y017344D03*
X070120Y017344D03*
X070120Y016557D03*
X071183Y016557D03*
X072246Y016557D03*
X073309Y016557D03*
X074372Y016557D03*
X075435Y016557D03*
X076498Y016557D03*
X063760Y016557D03*
X062697Y016557D03*
X061634Y016557D03*
X060571Y016557D03*
X059508Y016557D03*
X058445Y016557D03*
X057382Y016557D03*
X057382Y017344D03*
X058445Y017344D03*
X059508Y017344D03*
X060571Y017344D03*
X061634Y017344D03*
X062697Y017344D03*
X063760Y017344D03*
X053631Y017344D03*
X052568Y017344D03*
X051505Y017344D03*
X050442Y017344D03*
X049379Y017344D03*
X048316Y017344D03*
X047253Y017344D03*
X047253Y016557D03*
X048316Y016557D03*
X049379Y016557D03*
X050442Y016557D03*
X051505Y016557D03*
X052568Y016557D03*
X053631Y016557D03*
X043501Y016557D03*
X042438Y016557D03*
X041375Y016557D03*
X040312Y016557D03*
X039249Y016557D03*
X038186Y016557D03*
X037123Y016557D03*
X037123Y017344D03*
X038186Y017344D03*
X039249Y017344D03*
X040312Y017344D03*
X041375Y017344D03*
X042438Y017344D03*
X043501Y017344D03*
X030729Y017344D03*
X029705Y017344D03*
X028643Y017344D03*
X027580Y017344D03*
X026517Y017344D03*
X025454Y017344D03*
X024391Y017344D03*
X024391Y016557D03*
X025454Y016557D03*
X026517Y016557D03*
X027580Y016557D03*
X028643Y016557D03*
X029705Y016557D03*
X030729Y016557D03*
X020631Y016560D03*
X019568Y016560D03*
X018505Y016560D03*
X017442Y016560D03*
X016379Y016560D03*
X015316Y016560D03*
X014253Y016560D03*
X014253Y017347D03*
X015316Y017347D03*
X016379Y017347D03*
X017442Y017347D03*
X018505Y017347D03*
X019568Y017347D03*
X020631Y017347D03*
X010478Y017341D03*
X009415Y017341D03*
X008352Y017341D03*
X007289Y017341D03*
X006226Y017341D03*
X005163Y017341D03*
X004100Y017341D03*
X004100Y016553D03*
X005163Y016553D03*
X006226Y016553D03*
X007289Y016553D03*
X008352Y016553D03*
X009415Y016553D03*
X010478Y016553D03*
D17*
X011541Y016612D03*
X012604Y016612D03*
X013403Y016618D03*
X013403Y017287D03*
X012604Y017282D03*
X011541Y017282D03*
X010270Y014107D03*
X010270Y013438D03*
X003161Y016616D03*
X003161Y017285D03*
X020410Y014107D03*
X020410Y013438D03*
X021694Y016619D03*
X022757Y016619D03*
X023548Y016614D03*
X023548Y017284D03*
X022757Y017288D03*
X021694Y017288D03*
X030540Y014107D03*
X030540Y013438D03*
X031792Y016616D03*
X032855Y016616D03*
X032855Y017285D03*
X031792Y017285D03*
X035968Y017285D03*
X035968Y016616D03*
X043238Y014107D03*
X043238Y013438D03*
X044564Y016616D03*
X045627Y016616D03*
X046450Y016616D03*
X046450Y017285D03*
X045627Y017285D03*
X044564Y017285D03*
X053367Y014107D03*
X053367Y013438D03*
X054694Y016616D03*
X055757Y016616D03*
X056594Y016616D03*
X056594Y017285D03*
X055757Y017285D03*
X054694Y017285D03*
X063580Y014107D03*
X063580Y013438D03*
X064823Y016616D03*
X065886Y016616D03*
X065886Y017285D03*
X064823Y017285D03*
X069221Y017285D03*
X069221Y016616D03*
X076312Y014107D03*
X076312Y013438D03*
X077561Y016616D03*
X078624Y016616D03*
X079446Y016616D03*
X079446Y017285D03*
X078624Y017285D03*
X077561Y017285D03*
X086464Y014107D03*
X086464Y013438D03*
X087678Y016616D03*
X088741Y016616D03*
X089567Y016616D03*
X089567Y017285D03*
X088741Y017285D03*
X087678Y017285D03*
X096591Y014107D03*
X096591Y013438D03*
X097804Y016616D03*
X098867Y016616D03*
X098867Y017285D03*
X097804Y017285D03*
D18*
X097899Y010202D03*
X097111Y010202D03*
X087736Y010202D03*
X086948Y010202D03*
X077612Y010202D03*
X076825Y010202D03*
X064849Y010202D03*
X064062Y010202D03*
X054514Y010202D03*
X053727Y010202D03*
X044416Y010202D03*
X043629Y010202D03*
X031708Y010202D03*
X030921Y010202D03*
X021565Y010202D03*
X020778Y010202D03*
X011389Y010202D03*
X010602Y010202D03*
D19*
X012535Y010127D03*
X014031Y010127D03*
X022726Y010127D03*
X024222Y010127D03*
X032843Y010127D03*
X034340Y010127D03*
X045561Y010122D03*
X047057Y010122D03*
X055659Y010131D03*
X057155Y010131D03*
X065994Y010127D03*
X067490Y010127D03*
X078725Y010122D03*
X080221Y010122D03*
X088856Y010122D03*
X090352Y010122D03*
X099040Y010124D03*
X100536Y010124D03*
D20*
X092844Y049508D03*
X091978Y049508D03*
X091112Y049508D03*
X090245Y049508D03*
X089379Y049508D03*
X088513Y049508D03*
X087647Y049508D03*
X086781Y049508D03*
X085915Y049508D03*
X085049Y049508D03*
X084182Y049508D03*
X083316Y049508D03*
X082450Y049508D03*
X081584Y049508D03*
X080718Y049508D03*
X079852Y049508D03*
X078986Y049508D03*
X078119Y049508D03*
X077253Y049508D03*
X076387Y049508D03*
X059851Y049508D03*
X058985Y049508D03*
X058119Y049508D03*
X057253Y049508D03*
X056387Y049508D03*
X055521Y049508D03*
X054655Y049508D03*
X053788Y049508D03*
X052922Y049508D03*
X052056Y049508D03*
X051190Y049508D03*
X050324Y049508D03*
X049458Y049508D03*
X048592Y049508D03*
X047725Y049508D03*
X046859Y049508D03*
X045993Y049508D03*
X045127Y049508D03*
X044261Y049508D03*
X043395Y049508D03*
X026859Y049508D03*
X025993Y049508D03*
X025127Y049508D03*
X024260Y049508D03*
X023394Y049508D03*
X022528Y049508D03*
X021662Y049508D03*
X020796Y049508D03*
X019930Y049508D03*
X019064Y049508D03*
X018198Y049508D03*
X017331Y049508D03*
X016465Y049508D03*
X015599Y049508D03*
X014733Y049508D03*
X013867Y049508D03*
X013001Y049508D03*
X012135Y049508D03*
X011268Y049508D03*
X010402Y049508D03*
D21*
X010403Y048326D03*
X011269Y048326D03*
X012135Y048326D03*
X013001Y048326D03*
X013867Y048326D03*
X014733Y048326D03*
X015600Y048326D03*
X016466Y048326D03*
X017332Y048326D03*
X018198Y048326D03*
X019064Y048326D03*
X019930Y048326D03*
X020796Y048326D03*
X021663Y048326D03*
X022529Y048326D03*
X023395Y048326D03*
X024261Y048326D03*
X025127Y048326D03*
X025993Y048326D03*
X026859Y048326D03*
X043395Y048326D03*
X044261Y048326D03*
X045127Y048326D03*
X045994Y048326D03*
X046860Y048326D03*
X047726Y048326D03*
X048592Y048326D03*
X049458Y048326D03*
X050324Y048326D03*
X051190Y048326D03*
X052057Y048326D03*
X052923Y048326D03*
X053789Y048326D03*
X054655Y048326D03*
X055521Y048326D03*
X056387Y048326D03*
X057253Y048326D03*
X058120Y048326D03*
X058986Y048326D03*
X059852Y048326D03*
X076388Y048326D03*
X077254Y048326D03*
X078120Y048326D03*
X078986Y048326D03*
X079852Y048326D03*
X080718Y048326D03*
X081584Y048326D03*
X082451Y048326D03*
X083317Y048326D03*
X084183Y048326D03*
X085049Y048326D03*
X085915Y048326D03*
X086781Y048326D03*
X087647Y048326D03*
X088514Y048326D03*
X089380Y048326D03*
X090246Y048326D03*
X091112Y048326D03*
X091978Y048326D03*
X092844Y048326D03*
D22*
X002023Y015634D02*
X001423Y015634D01*
X001423Y014634D02*
X002023Y014634D01*
X002023Y013634D02*
X001423Y013634D01*
X001423Y012634D02*
X002023Y012634D01*
X002023Y011634D02*
X001423Y011634D01*
X001423Y010634D02*
X002023Y010634D01*
D23*
X003386Y010762D03*
X005085Y011949D03*
X005996Y011947D03*
X006981Y011949D03*
X008159Y011947D03*
X008352Y013132D03*
X007955Y013138D03*
X007566Y013128D03*
X007170Y013140D03*
X006782Y013138D03*
X006387Y013142D03*
X005992Y013143D03*
X005601Y013140D03*
X008752Y013141D03*
X009146Y013130D03*
X012594Y013008D03*
X012592Y012529D03*
X012596Y012034D03*
X012602Y011529D03*
X012593Y011030D03*
X012593Y010480D03*
X015250Y011951D03*
X016132Y011957D03*
X017121Y011949D03*
X018484Y011957D03*
X018497Y013151D03*
X018888Y013149D03*
X019277Y013152D03*
X018101Y013144D03*
X017705Y013151D03*
X017314Y013152D03*
X016919Y013151D03*
X016523Y013150D03*
X016137Y013150D03*
X015738Y013151D03*
X012590Y013535D03*
X014503Y015218D03*
X013998Y015913D03*
X013412Y015913D03*
X015066Y015913D03*
X015564Y015218D03*
X016126Y015913D03*
X016632Y015218D03*
X017194Y015913D03*
X017696Y015218D03*
X018250Y015913D03*
X018757Y015218D03*
X019312Y015913D03*
X019820Y015218D03*
X020629Y015913D03*
X021691Y015913D03*
X022762Y015913D03*
X023553Y015913D03*
X024143Y015913D03*
X024644Y015218D03*
X025203Y015913D03*
X025705Y015218D03*
X026267Y015913D03*
X026773Y015218D03*
X027324Y015913D03*
X027833Y015218D03*
X028389Y015913D03*
X028900Y015218D03*
X029452Y015913D03*
X029962Y015218D03*
X030726Y015913D03*
X031784Y015913D03*
X032782Y013540D03*
X032781Y013024D03*
X032787Y012536D03*
X032789Y012027D03*
X032789Y011519D03*
X032787Y011024D03*
X032787Y010480D03*
X028816Y011957D03*
X027237Y011949D03*
X026249Y011952D03*
X025419Y011950D03*
X025855Y013136D03*
X026256Y013133D03*
X026647Y013141D03*
X027040Y013135D03*
X027432Y013134D03*
X027827Y013134D03*
X028228Y013142D03*
X028618Y013128D03*
X029015Y013134D03*
X029405Y013134D03*
X026035Y009980D03*
X022658Y010480D03*
X022658Y011024D03*
X022658Y011529D03*
X022658Y012016D03*
X022661Y012529D03*
X022661Y013050D03*
X022663Y013550D03*
X015936Y009945D03*
X009671Y015218D03*
X009161Y015909D03*
X008603Y015218D03*
X008105Y015913D03*
X007547Y015218D03*
X007039Y015906D03*
X006485Y015218D03*
X005969Y015926D03*
X005411Y015218D03*
X004934Y015910D03*
X004351Y015218D03*
X003848Y015910D03*
X007302Y017851D03*
X005399Y020242D03*
X003280Y021237D03*
X005414Y023954D03*
X003306Y024922D03*
X005429Y027646D03*
X003305Y028694D03*
X005391Y031309D03*
X003281Y032319D03*
X005440Y034978D03*
X003286Y035941D03*
X008669Y035967D03*
X010649Y035013D03*
X013304Y035956D03*
X015466Y034857D03*
X018638Y035969D03*
X020789Y034857D03*
X023466Y035966D03*
X025540Y034855D03*
X028793Y035966D03*
X030804Y034855D03*
X028793Y032334D03*
X030794Y031235D03*
X028793Y028700D03*
X030794Y027620D03*
X028793Y024900D03*
X030794Y023836D03*
X028793Y021277D03*
X030794Y020177D03*
X027465Y017870D03*
X025536Y020177D03*
X023466Y021277D03*
X020840Y020180D03*
X018638Y021280D03*
X015488Y020180D03*
X013304Y021280D03*
X010649Y020309D03*
X008717Y021278D03*
X010649Y023997D03*
X008703Y024942D03*
X013304Y024947D03*
X015488Y023839D03*
X018638Y024903D03*
X020840Y023839D03*
X023466Y024900D03*
X025536Y023836D03*
X025536Y027620D03*
X023466Y028700D03*
X020840Y027623D03*
X018638Y028703D03*
X015488Y027623D03*
X013304Y028711D03*
X010649Y027633D03*
X008690Y028730D03*
X010649Y031375D03*
X008669Y032365D03*
X013304Y032339D03*
X015446Y031238D03*
X018638Y032334D03*
X020785Y031238D03*
X023466Y032334D03*
X025536Y031235D03*
X036312Y032334D03*
X038312Y031235D03*
X041554Y032334D03*
X043570Y031235D03*
X046405Y032334D03*
X048426Y031235D03*
X051667Y032334D03*
X053679Y031235D03*
X056541Y032334D03*
X058546Y031235D03*
X061795Y032334D03*
X063805Y031235D03*
X061795Y028700D03*
X063805Y027620D03*
X061795Y024900D03*
X063805Y023836D03*
X061795Y021277D03*
X063805Y020177D03*
X060587Y017889D03*
X060318Y015913D03*
X060827Y015218D03*
X061383Y015913D03*
X061888Y015218D03*
X062434Y015913D03*
X062956Y015218D03*
X063760Y015913D03*
X064825Y015913D03*
X065884Y015913D03*
X069227Y015913D03*
X069869Y015913D03*
X070378Y015218D03*
X070929Y015913D03*
X071441Y015218D03*
X071991Y015913D03*
X072499Y015218D03*
X073056Y015913D03*
X073565Y015218D03*
X074119Y015913D03*
X074627Y015218D03*
X075181Y015913D03*
X075690Y015218D03*
X076500Y015913D03*
X077560Y015913D03*
X078622Y015913D03*
X079447Y015913D03*
X079985Y015913D03*
X080496Y015218D03*
X081046Y015913D03*
X081553Y015218D03*
X082110Y015913D03*
X082618Y015218D03*
X083191Y015913D03*
X083668Y015218D03*
X084239Y015913D03*
X084751Y015218D03*
X085298Y015913D03*
X085805Y015218D03*
X086615Y015913D03*
X087681Y015913D03*
X088752Y015913D03*
X089572Y015913D03*
X090110Y015913D03*
X090616Y015218D03*
X091171Y015913D03*
X091683Y015218D03*
X092238Y015913D03*
X092749Y015218D03*
X093299Y015913D03*
X093810Y015218D03*
X094362Y015913D03*
X094871Y015218D03*
X095426Y015913D03*
X095935Y015218D03*
X096743Y015913D03*
X097802Y015913D03*
X098865Y015913D03*
X098867Y017767D03*
X096847Y020177D03*
X094835Y021277D03*
X091575Y020177D03*
X089569Y021277D03*
X086736Y020177D03*
X084729Y021277D03*
X081465Y020177D03*
X079457Y021277D03*
X076598Y020177D03*
X074588Y021277D03*
X071342Y020177D03*
X069337Y021277D03*
X071342Y023836D03*
X069337Y024900D03*
X074588Y024900D03*
X076598Y023836D03*
X079457Y024900D03*
X081465Y023836D03*
X084729Y024900D03*
X086736Y023836D03*
X089569Y024900D03*
X091575Y023836D03*
X094835Y024900D03*
X096847Y023836D03*
X096847Y027620D03*
X094835Y028700D03*
X091575Y027620D03*
X089569Y028700D03*
X086736Y027620D03*
X084729Y028700D03*
X081465Y027620D03*
X079457Y028700D03*
X076598Y027620D03*
X074588Y028700D03*
X071342Y027620D03*
X069337Y028700D03*
X071342Y031235D03*
X069337Y032334D03*
X071342Y034865D03*
X069337Y035966D03*
X074588Y035966D03*
X076598Y034865D03*
X079457Y035966D03*
X081465Y034865D03*
X084729Y035966D03*
X086736Y034865D03*
X089569Y035966D03*
X091575Y034865D03*
X094835Y035966D03*
X096847Y034865D03*
X094835Y032334D03*
X096847Y031235D03*
X091575Y031235D03*
X089569Y032334D03*
X086736Y031235D03*
X084729Y032334D03*
X081465Y031235D03*
X079457Y032334D03*
X076598Y031204D03*
X074588Y032334D03*
X063805Y034855D03*
X061795Y035966D03*
X058546Y034855D03*
X056541Y035966D03*
X053679Y034855D03*
X051667Y035966D03*
X048426Y034855D03*
X046405Y035966D03*
X043570Y034855D03*
X041554Y035966D03*
X038312Y034855D03*
X036312Y035966D03*
X030812Y038392D03*
X020789Y038395D03*
X010649Y038209D03*
X036312Y028700D03*
X038312Y027620D03*
X041554Y028700D03*
X043570Y027620D03*
X046405Y028700D03*
X048426Y027620D03*
X051667Y028700D03*
X053679Y027620D03*
X056541Y028700D03*
X058546Y027620D03*
X056541Y024900D03*
X058546Y023836D03*
X056541Y021277D03*
X058546Y020177D03*
X053679Y020177D03*
X051667Y021277D03*
X048426Y020177D03*
X046405Y021277D03*
X043570Y020177D03*
X041554Y021277D03*
X038312Y020177D03*
X036312Y021277D03*
X038312Y023836D03*
X036312Y024900D03*
X041554Y024900D03*
X043570Y023836D03*
X046405Y024900D03*
X048426Y023836D03*
X051667Y024900D03*
X053679Y023836D03*
X050457Y017879D03*
X050187Y015913D03*
X050699Y015218D03*
X051255Y015913D03*
X051761Y015218D03*
X052317Y015913D03*
X052822Y015218D03*
X053636Y015913D03*
X054694Y015913D03*
X055757Y015913D03*
X056607Y015913D03*
X057127Y015913D03*
X057641Y015218D03*
X058195Y015913D03*
X058705Y015218D03*
X059253Y015913D03*
X059758Y015218D03*
X059608Y013136D03*
X059214Y013136D03*
X058822Y013136D03*
X060006Y013136D03*
X060397Y013136D03*
X060790Y013136D03*
X061186Y013136D03*
X061578Y013136D03*
X061972Y013136D03*
X062365Y013136D03*
X061973Y011949D03*
X060196Y011949D03*
X059215Y011949D03*
X058425Y011956D03*
X059020Y009990D03*
X055699Y010448D03*
X055698Y011024D03*
X055698Y011519D03*
X055698Y012027D03*
X055698Y012536D03*
X055698Y013024D03*
X055698Y013540D03*
X052253Y013136D03*
X051858Y013136D03*
X051464Y013136D03*
X051071Y013136D03*
X050677Y013136D03*
X050288Y013136D03*
X049892Y013136D03*
X049502Y013136D03*
X049104Y013136D03*
X048709Y013136D03*
X048311Y011957D03*
X049103Y011949D03*
X050084Y011949D03*
X051857Y011949D03*
X048904Y009931D03*
X045606Y010456D03*
X045598Y011024D03*
X045598Y011519D03*
X045598Y012027D03*
X045598Y012536D03*
X045598Y013024D03*
X045598Y013540D03*
X047517Y015218D03*
X047006Y015913D03*
X046450Y015913D03*
X045615Y015913D03*
X044566Y015913D03*
X043498Y015913D03*
X042695Y015218D03*
X042189Y015913D03*
X041632Y015218D03*
X041119Y015913D03*
X040569Y015218D03*
X040056Y015913D03*
X039506Y015218D03*
X038992Y015913D03*
X038447Y015218D03*
X037934Y015913D03*
X037382Y015218D03*
X036867Y015913D03*
X035968Y015913D03*
X040325Y017866D03*
X048064Y015913D03*
X048569Y015218D03*
X049125Y015913D03*
X049627Y015218D03*
X042100Y013136D03*
X041710Y013136D03*
X041316Y013136D03*
X040919Y013136D03*
X040527Y013136D03*
X040134Y013136D03*
X039739Y013136D03*
X039344Y013136D03*
X038953Y013136D03*
X038561Y013136D03*
X038161Y011968D03*
X038956Y011949D03*
X039935Y011949D03*
X041710Y011949D03*
X038756Y009889D03*
X017424Y017873D03*
X011534Y015918D03*
X010468Y015929D03*
X043570Y038392D03*
X053679Y038392D03*
X063805Y038392D03*
X076598Y038319D03*
X086736Y038336D03*
X096847Y038486D03*
X093480Y017963D03*
X088741Y017703D03*
X083349Y017978D03*
X078624Y017789D03*
X073248Y017912D03*
X078784Y013540D03*
X078784Y013024D03*
X078784Y012536D03*
X078784Y012027D03*
X078784Y011519D03*
X078784Y011024D03*
X078779Y010456D03*
X081291Y011956D03*
X082072Y011949D03*
X083051Y011949D03*
X084828Y011949D03*
X084826Y013136D03*
X084435Y013136D03*
X084040Y013136D03*
X083648Y013136D03*
X083252Y013136D03*
X082857Y013136D03*
X082464Y013136D03*
X082068Y013136D03*
X081678Y013136D03*
X085220Y013136D03*
X088907Y013024D03*
X088907Y012536D03*
X088907Y012027D03*
X088907Y011519D03*
X088907Y011024D03*
X088908Y010471D03*
X091417Y011954D03*
X092205Y011949D03*
X093189Y011949D03*
X094767Y011949D03*
X094961Y013136D03*
X094568Y013136D03*
X094175Y013136D03*
X093780Y013136D03*
X093386Y013136D03*
X092990Y013136D03*
X092601Y013136D03*
X092205Y013136D03*
X091808Y013136D03*
X088907Y013540D03*
X092010Y009812D03*
X096752Y010208D03*
X099096Y010536D03*
X099094Y011024D03*
X099094Y011519D03*
X099094Y012027D03*
X099094Y012536D03*
X099094Y013024D03*
X099094Y013540D03*
X095359Y013136D03*
X081875Y009881D03*
X075099Y013136D03*
X074708Y013136D03*
X074314Y013136D03*
X073918Y013136D03*
X073524Y013136D03*
X073136Y013136D03*
X072739Y013136D03*
X072346Y013136D03*
X071950Y013136D03*
X071554Y013136D03*
X071169Y011953D03*
X071951Y011949D03*
X072932Y011949D03*
X074701Y011949D03*
X071754Y009853D03*
X066032Y010434D03*
X066030Y011024D03*
X066030Y011519D03*
X066030Y012027D03*
X066030Y012536D03*
X066030Y013024D03*
X066030Y013540D03*
D24*
X065267Y014533D03*
X063760Y017701D03*
X063797Y018311D03*
X065849Y017947D03*
X063805Y019074D03*
X063805Y021279D03*
X063805Y022734D03*
X063805Y024938D03*
X063805Y026518D03*
X063805Y028723D03*
X063805Y030133D03*
X063805Y032338D03*
X063805Y033763D03*
X063805Y035968D03*
X063805Y037289D03*
X063805Y039496D03*
X063830Y041251D03*
X064365Y041251D03*
X064988Y041251D03*
X063193Y041251D03*
X062656Y041251D03*
X062027Y041251D03*
X060856Y041251D03*
X060320Y041251D03*
X059686Y041251D03*
X059159Y041251D03*
X058530Y041251D03*
X058545Y040390D03*
X058546Y039496D03*
X054867Y041251D03*
X054240Y041251D03*
X053698Y041251D03*
X053067Y041251D03*
X052537Y041251D03*
X051911Y041251D03*
X050732Y041251D03*
X050193Y041251D03*
X049567Y041251D03*
X049028Y041251D03*
X048402Y041251D03*
X048432Y040374D03*
X048426Y039494D03*
X044747Y041251D03*
X044118Y041251D03*
X043573Y041251D03*
X042942Y041251D03*
X042406Y041251D03*
X041783Y041251D03*
X040607Y041251D03*
X040074Y041251D03*
X039444Y041251D03*
X038903Y041251D03*
X038274Y041251D03*
X038318Y040452D03*
X038312Y039494D03*
X038312Y037289D03*
X038312Y035968D03*
X038312Y033763D03*
X038312Y032338D03*
X038312Y030133D03*
X038312Y028723D03*
X038312Y026518D03*
X038312Y024938D03*
X038312Y022734D03*
X038312Y021279D03*
X038312Y019074D03*
X043502Y017731D03*
X043573Y018305D03*
X045578Y017839D03*
X043570Y019074D03*
X043570Y021279D03*
X043570Y022734D03*
X043570Y024938D03*
X043570Y026518D03*
X043570Y028723D03*
X043570Y030133D03*
X043570Y032338D03*
X043570Y033763D03*
X043570Y035968D03*
X043570Y037289D03*
X043570Y039494D03*
X048426Y037289D03*
X048426Y035968D03*
X048426Y033763D03*
X048426Y032338D03*
X048426Y030133D03*
X048426Y028723D03*
X048426Y026518D03*
X048426Y024938D03*
X048426Y022734D03*
X048426Y021279D03*
X048426Y019074D03*
X053679Y019074D03*
X053690Y018277D03*
X053630Y017673D03*
X055795Y017793D03*
X058546Y019074D03*
X058546Y021279D03*
X058546Y022734D03*
X058546Y024938D03*
X058546Y026518D03*
X058546Y028723D03*
X058546Y030133D03*
X058546Y032338D03*
X058546Y033763D03*
X058546Y035968D03*
X058546Y037289D03*
X053679Y037289D03*
X053679Y035968D03*
X053679Y033763D03*
X053679Y032338D03*
X053679Y030133D03*
X053679Y028723D03*
X053679Y026518D03*
X053679Y024938D03*
X053679Y022734D03*
X053679Y021279D03*
X055120Y014524D03*
X044949Y014539D03*
X032861Y015913D03*
X032205Y014537D03*
X032861Y017728D03*
X030731Y017790D03*
X030794Y018316D03*
X030794Y019074D03*
X030794Y021279D03*
X030794Y022734D03*
X030794Y024938D03*
X030794Y026518D03*
X030794Y028723D03*
X030794Y030133D03*
X030794Y032338D03*
X030794Y033763D03*
X030794Y035968D03*
X030794Y037289D03*
X030794Y039494D03*
X030785Y041251D03*
X031328Y041251D03*
X031963Y041251D03*
X030172Y041251D03*
X029628Y041251D03*
X028996Y041251D03*
X027837Y041251D03*
X027285Y041251D03*
X026661Y041251D03*
X026122Y041251D03*
X025494Y041251D03*
X025535Y040435D03*
X025536Y039494D03*
X021842Y041254D03*
X021230Y041254D03*
X020686Y041254D03*
X020051Y041254D03*
X019511Y041254D03*
X018893Y041254D03*
X017716Y041254D03*
X017175Y041254D03*
X016559Y041254D03*
X016008Y041254D03*
X015383Y041254D03*
X015496Y040433D03*
X015487Y039531D03*
X015490Y037333D03*
X015488Y035958D03*
X015496Y033754D03*
X015483Y032327D03*
X015499Y030127D03*
X015494Y028713D03*
X015508Y026508D03*
X015504Y024950D03*
X015508Y022746D03*
X015498Y021278D03*
X015506Y019074D03*
X010649Y019071D03*
X010649Y018327D03*
X010481Y017814D03*
X005420Y019027D03*
X005405Y021232D03*
X005425Y022705D03*
X005413Y024910D03*
X005433Y026469D03*
X005422Y028671D03*
X005429Y030104D03*
X005419Y032308D03*
X005439Y033728D03*
X005444Y035933D03*
X005406Y037279D03*
X005434Y039487D03*
X005286Y040419D03*
X005294Y041235D03*
X005854Y041230D03*
X006465Y041235D03*
X006999Y041236D03*
X007633Y041237D03*
X008758Y041235D03*
X009379Y041242D03*
X009935Y041240D03*
X010559Y041246D03*
X011086Y041246D03*
X011713Y041246D03*
X010649Y039517D03*
X010649Y037319D03*
X010649Y035970D03*
X010649Y033765D03*
X010649Y032349D03*
X010649Y030142D03*
X010649Y028706D03*
X010649Y026497D03*
X010649Y024947D03*
X010649Y022743D03*
X010649Y021278D03*
X020858Y021282D03*
X020845Y022737D03*
X020844Y024941D03*
X020839Y026521D03*
X020844Y028724D03*
X020785Y030136D03*
X020774Y032341D03*
X020789Y033766D03*
X020778Y035971D03*
X020795Y037326D03*
X020783Y039530D03*
X025536Y037289D03*
X025536Y035968D03*
X025536Y033763D03*
X025536Y032338D03*
X025536Y030133D03*
X025536Y028723D03*
X025536Y026518D03*
X025536Y024938D03*
X025536Y022734D03*
X025536Y021279D03*
X025536Y019074D03*
X022748Y017728D03*
X020840Y018353D03*
X020619Y017800D03*
X020840Y019077D03*
X022120Y014527D03*
X011995Y014536D03*
X053679Y039497D03*
X056411Y043989D03*
X057665Y045660D03*
X066615Y043994D03*
X070449Y045660D03*
X079271Y043987D03*
X080570Y045660D03*
X081433Y041251D03*
X082058Y041251D03*
X082601Y041251D03*
X083225Y041251D03*
X083762Y041251D03*
X084928Y041251D03*
X085552Y041251D03*
X086092Y041251D03*
X086718Y041251D03*
X087263Y041251D03*
X087891Y041251D03*
X086736Y039494D03*
X086736Y037289D03*
X086736Y035968D03*
X086736Y033763D03*
X086736Y032338D03*
X086736Y030133D03*
X086736Y028723D03*
X086736Y026518D03*
X086736Y024938D03*
X086736Y022734D03*
X086736Y021279D03*
X086736Y019074D03*
X086734Y018273D03*
X086615Y017704D03*
X091575Y019074D03*
X091575Y021279D03*
X091575Y022734D03*
X091575Y024938D03*
X091575Y026518D03*
X091575Y028723D03*
X091575Y030133D03*
X091575Y032338D03*
X091575Y033763D03*
X091575Y035968D03*
X091575Y037289D03*
X091575Y039494D03*
X091568Y040473D03*
X091546Y041251D03*
X092178Y041251D03*
X092717Y041251D03*
X093348Y041251D03*
X093882Y041251D03*
X095053Y041251D03*
X095681Y041251D03*
X096221Y041251D03*
X096848Y041251D03*
X097393Y041251D03*
X098014Y041251D03*
X096847Y039494D03*
X096847Y037289D03*
X096847Y035968D03*
X096847Y033763D03*
X096847Y032338D03*
X096847Y030133D03*
X096847Y028723D03*
X096847Y026518D03*
X096847Y024938D03*
X096847Y022734D03*
X096847Y021279D03*
X096847Y019074D03*
X096849Y018296D03*
X096740Y017728D03*
X098193Y014531D03*
X088078Y014524D03*
X081465Y019074D03*
X081465Y021279D03*
X081465Y022734D03*
X081465Y024938D03*
X081465Y026518D03*
X081465Y028723D03*
X081465Y030133D03*
X081465Y032338D03*
X081465Y033763D03*
X081465Y035968D03*
X081465Y037289D03*
X081465Y039494D03*
X081467Y040461D03*
X077770Y041251D03*
X077139Y041251D03*
X076605Y041251D03*
X075974Y041251D03*
X075431Y041251D03*
X074808Y041251D03*
X073636Y041251D03*
X073097Y041251D03*
X072470Y041251D03*
X071929Y041251D03*
X071301Y041251D03*
X071358Y040492D03*
X071342Y039494D03*
X071342Y037289D03*
X071342Y035968D03*
X071342Y033763D03*
X071342Y032338D03*
X071342Y030133D03*
X071342Y028723D03*
X071342Y026518D03*
X071342Y024938D03*
X071342Y022734D03*
X071342Y021279D03*
X071342Y019074D03*
X076598Y019074D03*
X076598Y018229D03*
X076497Y017677D03*
X078027Y014524D03*
X076598Y021279D03*
X076598Y022734D03*
X076598Y024938D03*
X076598Y026518D03*
X076598Y028723D03*
X076598Y030133D03*
X076598Y032338D03*
X076598Y033763D03*
X076598Y035968D03*
X076598Y037289D03*
X076598Y039494D03*
X089401Y043994D03*
X090702Y045660D03*
X099628Y043988D03*
X047545Y045660D03*
X046209Y043991D03*
X037431Y045660D03*
X033566Y043995D03*
X023900Y045796D03*
X023424Y043993D03*
X014523Y045791D03*
X013245Y043990D03*
X004388Y045660D03*
D25*
X012594Y017728D03*
X012614Y015913D03*
D26*
X003649Y008011D03*
X034418Y008011D03*
X034415Y019442D03*
X067403Y019442D03*
X067407Y008011D03*
X099908Y008011D03*
X067403Y038733D03*
X067403Y051332D03*
X099905Y051332D03*
X034415Y051332D03*
X034415Y038733D03*
X003645Y051332D03*
M02*
